<svg version="1.2" xmlns="http://www.w3.org/2000/svg" viewBox="0 0 395 390" width="395" height="390">
	<style>
		.s0 { fill: #6d1140 } 
		.s1 { fill: #02bde8 } 
		.s2 { fill: #91f4ff } 
		.s3 { fill: none;stroke: #6d1140;stroke-linecap: round;stroke-miterlimit:10;stroke-width: 1.3 } 
	</style>
	<g id="g10">
		<g id="g12">
			<g id="Clip-Path: g14" clip-path="url(#cp1)">
				<g id="g14">
					<g id="g20">
						<path id="path22" class="s0" d="m205.9 164.8c0 28.4-3.7 51.4-8.2 51.4-4.6 0-8.3-23-8.3-51.4 0-28.4 3.7-51.4 8.3-51.4 4.5 0 8.2 23 8.2 51.4z"/>
					</g>
					<g id="g24">
						<path id="path26" class="s1" d="m195.4 169.5c0 0-1-102.4-54.7-130.4-53.8-27.9-94.7-9.2-131.3-33.6 0 0 8.6 40.9 8.6 71.7 0 30.8 34.4 58.8 73.2 64.4 38.7 5.7 99.3 13.4 104.2 27.9z"/>
					</g>
					<g id="g28">
						<path id="path30" class="s2" d="m183.3 148.8c-16.6-6.1-43.1-10.8-82.3-16.4q-4.3-0.6-8.3-1.2c-34.8-5.1-64.1-29.8-64.1-54 0-17.7-2.7-38.2-5.1-53.1 13.8 4.7 28 6 42.7 7.2 21.6 1.9 43.9 3.9 69.6 17.2 33.7 17.5 44.2 70.5 47.5 100.3z"/>
					</g>
					<g id="g32">
						<path id="path34" class="s1" d="m195 164.5c0 0-38.6-23.7-86.1-15.6-56.4 9.6-51.1 33-54.3 57.3-3.2 24.2 11.3 58-8.1 107.3-19.3 49.2-21.6 33.5-34.7 50-9.7 12.3 0 29.8 16.2 21.8 16.1-8.1 17.7-28.3 25-60.5 7.2-32.3 12.1-76.7 32.3-96.1 20.1-19.3 63.7-4.8 87.9-16.1 24.2-11.3 21.8-48.1 21.8-48.1z"/>
					</g>
					<g id="g36">
						<path id="path38" class="s2" d="m66.2 236.9q-0.2-2.6-0.4-5c-0.9-9.5-1.6-17.7-0.8-24.4 0.5-3 0.7-6.1 1-9 0.9-9.7 1.6-17.3 6.5-23.3 5.9-7.4 18.4-12.6 38.2-15.9 5.9-1.1 12.1-1.6 18.3-1.6 25.5 0 46.2 8.6 55.4 13.1-0.5 9-3.2 26.4-15.7 32.3-8.3 3.9-21.6 3.9-34.4 4-19.6 0-41.9 0.1-56.3 14-4.6 4.4-8.5 9.8-11.8 15.8zm-46.1 139.9c-0.5 0-0.9-0.1-1.3-0.9-0.6-1.2-0.6-3.5 1.3-5.9 3.1-3.8 5-5.1 7.6-6.8 2.4-1.6 4.7-3.2 7-5.4-2.8 9.7-5.9 15.3-11.4 18-1.7 0.9-2.7 1-3.2 1z"/>
					</g>
					<g id="g40">
						<g id="g42">
						</g>
						<g id="g54">
							<g id="Clip-Path: g52" clip-path="url(#cp2)">
								<g id="g52" style="opacity: .6">
									<g id="g50">
										<path id="path48" class="s1" d="m140.7 39.1c-13.7-7.1-26.6-11.2-38.8-13.7 5.9 11.8 16.1 21.8 20.2 34.7 7 22.2 1.1 54.7-21.9 64.4-13.3 5.6-27.4 7-41.6 6.7 10 5.1 21.1 8.7 32.6 10.4 11.3 1.7 24.4 3.5 37.5 5.6-6.3 0-13 0.5-19.8 1.7q-6.9 1.1-12.7 2.6c1.1 0.7 2.1 1.4 3 2.2 18.4 16.5 15.3 44.3 6.2 65.7 21.7-4.1 50 1.5 67.8-6.8 19.2-9 21.7-33.9 21.9-43.9q0.1 0.4 0.3 0.8c0 0-1-102.4-54.7-130.4z"/>
									</g>
								</g>
							</g>
						</g>
					</g>
					<g id="g56">
						<g id="g58">
						</g>
						<g id="g70">
							<g id="Clip-Path: g68" clip-path="url(#cp3)">
								<g id="g68" style="opacity: .5">
									<g id="g66">
										<path id="path64" class="s1" d="m102.2 47.4c-0.8-7.3-2.5-15.7-5.8-23.1-22.8-4-43.3-3.3-62.2-8-7.4 4.6-14.2 10.9-19.8 18.1 1.9 13.2 3.6 29 3.6 42.8 0 18.9 13.1 36.8 32.1 49.1 6.1-0.2 12.1-1.8 17.8-5.2 26.1-15.6 37.5-43.7 34.3-73.7z"/>
									</g>
								</g>
							</g>
						</g>
					</g>
					<g id="g72">
						<g id="g74">
						</g>
						<g id="g86">
							<g id="Clip-Path: g84" clip-path="url(#cp4)">
								<g id="g84" style="opacity: .5">
									<g id="g82">
										<path id="path80" class="s1" d="m95 222.5c1.6-11.7 0.7-24.7-0.1-31.3-1.4-12.3-4.9-27.7-15.3-34-25.1 11.8-22.5 30.2-25 49-0.8 5.6-0.5 11.8 0 18.6 3.7 4.5 11.8 15.5 19.6 19.5 3.1-6.1 6.7-11.4 11.1-15.6 2.8-2.7 6.1-4.7 9.7-6.2z"/>
									</g>
								</g>
							</g>
						</g>
					</g>
					<g id="g88">
						<path id="path90" class="s1" d="m202 169.5c0 0 0.9-102.4 54.7-130.4 53.8-27.9 94.7-9.2 131.3-33.6 0 0-8.7 40.9-8.7 71.7 0 30.8-34.4 58.8-73.1 64.4-38.7 5.7-99.4 13.4-104.2 27.9z"/>
					</g>
					<g id="g92">
						<path id="path94" class="s2" d="m214 148.8c16.7-6.1 43.2-10.8 82.4-16.4q4.3-0.6 8.3-1.2c34.7-5.1 64.1-29.8 64.1-54 0-17.7 2.7-38.2 5.1-53.1-13.9 4.7-28 6-42.7 7.2-21.6 1.9-44 3.9-69.6 17.2-33.7 17.5-44.3 70.5-47.6 100.3z"/>
					</g>
					<g id="g96">
						<path id="path98" class="s1" d="m202.3 164.5c0 0 38.7-23.7 86.1-15.6 56.5 9.6 51.1 33 54.4 57.3 3.2 24.2-11.3 58 8 107.3 19.4 49.2 21.7 33.5 34.7 50 9.8 12.3 0 29.8-16.1 21.8-16.1-8.1-17.8-28.3-25-60.5-7.3-32.3-12.1-76.7-32.3-96.1-20.2-19.3-63.7-4.8-87.9-16.1-24.2-11.3-21.9-48.1-21.9-48.1z"/>
					</g>
					<g id="g100">
						<path id="path102" class="s2" d="m319.4 221.1c-14.5-13.9-36.7-14-56.4-14-12.8-0.1-26-0.1-34.4-4-12.4-5.9-15.1-23.3-15.6-32.3 9.1-4.5 29.9-13.1 55.4-13.1 6.2 0 12.3 0.5 18.3 1.6 19.7 3.3 32.2 8.5 38.2 15.9 4.9 6 5.6 13.6 6.5 23.3 0.2 2.9 0.5 6 0.9 9 0.9 6.7 0.2 14.9-0.7 24.4q-0.2 2.4-0.5 5c-3.3-6-7.1-11.4-11.7-15.8zm54.7 154.7c-5.5-2.7-8.6-8.3-11.5-18 2.3 2.2 4.6 3.8 7.1 5.4 2.5 1.7 4.5 3 7.6 6.8 1.9 2.4 1.8 4.7 1.2 5.9-0.3 0.8-0.7 0.9-1.2 0.9-0.5 0-1.6-0.1-3.2-1z"/>
					</g>
					<g id="g104">
						<g id="g106">
						</g>
						<g id="g118">
							<g id="Clip-Path: g116" clip-path="url(#cp5)">
								<g id="g116" style="opacity: .6">
									<g id="g114">
										<path id="path112" class="s1" d="m256.7 39.1c13.7-7.1 26.6-11.2 38.7-13.7-5.9 11.8-16 21.8-20.1 34.7-7 22.2-1.2 54.7 21.9 64.4 13.2 5.6 27.4 7 41.5 6.7-9.9 5.1-21 8.7-32.5 10.4-11.3 1.7-24.5 3.5-37.6 5.6 6.4 0 13 0.5 19.8 1.7q7 1.1 12.7 2.6c-1 0.7-2 1.4-2.9 2.2-18.4 16.5-15.3 44.3-6.2 65.7-21.8-4.1-50 1.5-67.8-6.8-19.2-9-21.7-33.9-21.9-43.9q-0.2 0.4-0.3 0.8c0 0 0.9-102.4 54.7-130.4z"/>
									</g>
								</g>
							</g>
						</g>
					</g>
					<g id="g120">
						<g id="g122">
						</g>
						<g id="g134">
							<g id="Clip-Path: g132" clip-path="url(#cp6)">
								<g id="g132" style="opacity: .5">
									<g id="g130">
										<path id="path128" class="s1" d="m295.2 47.4c0.7-7.3 2.5-15.7 5.7-23.1 22.9-4 43.3-3.3 62.3-8 7.4 4.6 14.1 10.9 19.8 18.1-1.9 13.2-3.7 29-3.7 42.8 0 18.9-13 36.8-32.1 49.1-6-0.2-12-1.8-17.8-5.2-26-15.6-37.4-43.7-34.2-73.7z"/>
									</g>
								</g>
							</g>
						</g>
					</g>
					<g id="g136">
						<g id="g138">
						</g>
						<g id="g150">
							<g id="Clip-Path: g148" clip-path="url(#cp7)">
								<g id="g148" style="opacity: .5">
									<g id="g146">
										<path id="path144" class="s1" d="m302.4 222.5c-1.6-11.7-0.7-24.7 0.1-31.3 1.4-12.3 4.9-27.7 15.3-34 25.1 11.8 22.5 30.2 25 49 0.7 5.6 0.5 11.8 0 18.6-3.7 4.5-11.8 15.5-19.7 19.5-3-6.1-6.7-11.4-11-15.6-2.8-2.7-6.1-4.7-9.7-6.2z"/>
									</g>
								</g>
							</g>
						</g>
					</g>
					<g id="g152">
						<path id="path154" fill-rule="evenodd" class="s3" d="m195.4 118.5c0 0-2.8-90.3-46.5-80.4"/>
					</g>
					<g id="g156">
						<path id="path158" class="s0" d="m157.4 37.1c0.1 0.9-2.6 1.8-6 2.1-3.3 0.2-6.1-0.3-6.2-1.2 0-0.9 2.6-1.8 6-2.1 3.3-0.2 6.1 0.3 6.2 1.2z"/>
					</g>
					<g id="g160">
						<path id="path162" fill-rule="evenodd" class="s3" d="m200.2 116.8c0 0 2.8-90.3 46.5-80.4"/>
					</g>
					<g id="g164">
						<path id="path166" class="s0" d="m238.2 35.3c-0.1 0.9 2.6 1.9 5.9 2.1 3.4 0.3 6.2-0.2 6.2-1.1 0.1-0.9-2.5-1.9-5.9-2.1-3.4-0.3-6.1 0.2-6.2 1.1z"/>
					</g>
				</g>
			</g>
		</g>
	</g>
</svg>