<svg version="1.2" xmlns="http://www.w3.org/2000/svg" viewBox="0 0 470 350" width="470" height="350">
	<title>1065393_102028-OM9UFX-574-svg</title>
	<defs>
		<clipPath clipPathUnits="userSpaceOnUse" id="cp1">
			<path d="m-540-521h1066.67v1066.67h-1066.67z"/>
		</clipPath>
		<clipPath clipPathUnits="userSpaceOnUse" id="cp2">
			<path d="m114.31 31.33h119.04v299.4h-119.04z"/>
		</clipPath>
		<clipPath clipPathUnits="userSpaceOnUse" id="cp3">
			<path d="m-1.33 5.01h88.58v155.59h-88.58z"/>
		</clipPath>
		<clipPath clipPathUnits="userSpaceOnUse" id="cp4">
			<path d="m235.77 31.33h119.05v299.4h-119.05z"/>
		</clipPath>
		<clipPath clipPathUnits="userSpaceOnUse" id="cp5">
			<path d="m381.88 5.01h88.57v155.59h-88.57z"/>
		</clipPath>
	</defs>
	<style>
		.s0 { fill: #6d1140 } 
		.s1 { fill: none;stroke: #6d1140;stroke-linecap: round;stroke-miterlimit:10;stroke-width: 1.3 } 
		.s2 { fill: #e42f8c } 
		.s3 { fill: #ff9341 } 
		.s4 { fill: #d42c82 } 
		.s5 { fill: #eebcd6 } 
	</style>
	<g id="g10">
		<g id="g12">
			<g id="Clip-Path: g14" clip-path="url(#cp1)">
				<g id="g14">
					<g id="g480">
						<path id="path482" class="s0" d="m242.7 194.6c0 28.3-3.7 51.3-8.3 51.3-4.5 0-8.2-23-8.2-51.3 0-28.4 3.7-51.4 8.2-51.4 4.6 0 8.3 23 8.3 51.4z"/>
					</g>
					<g id="g484">
						<path id="path486" fill-rule="evenodd" class="s1" d="m232.1 148.3c0 0-2.7-90.4-46.5-80.4"/>
					</g>
					<g id="g488">
						<path id="path490" class="s0" d="m194.2 66.8c0 0.9-2.6 1.9-6 2.1-3.3 0.3-6.1-0.2-6.2-1.1-0.1-0.9 2.6-1.9 6-2.1 3.3-0.3 6.1 0.2 6.2 1.1z"/>
					</g>
					<g id="g492">
						<path id="path494" fill-rule="evenodd" class="s1" d="m237 146.6c0 0 2.7-90.4 46.5-80.5"/>
					</g>
					<g id="g496">
						<path id="path498" class="s0" d="m275 65.1c-0.1 0.9 2.6 1.8 5.9 2.1 3.4 0.3 6.1-0.3 6.2-1.2 0.1-0.9-2.6-1.8-5.9-2-3.4-0.3-6.2 0.2-6.2 1.1z"/>
					</g>
					<g id="g500">
						<path id="path502" class="s2" d="m233.2 192.4c0 0 8.4-81.2-87-144.7-95.5-63.4-147.5-37.4-147.5-37.4 0 0 55.5 19 69.4 83.2 13.9 64.3-15.4 133.6 165.1 98.9z"/>
					</g>
					<g id="g504">
						<path id="path506" class="s2" d="m148.8 201.6c0 0-36.5-0.4-39.9 15.2-3.5 15.6 5.2 10.4 0 29.5-5.2 19.1-15.6 24.3-0.9 35.6 14.8 11.3 19.1 13.9 20.8 28.6 1.8 14.8 5.5 27.8-4.2 39.1 0 0 62.4-20.9 86.7-69.4 24.3-48.6 21.9-87.8 21.9-87.8 0 0-59.3 0.1-84.4 9.2z"/>
					</g>
					<g id="g508">
						<path id="path510" class="s3" d="m219.9 180c-5.1-28.7-10.9-56.9-31.8-78.5-8.1-8.4-25-25.7-36.8-14.3-7.9 7.8-12.7 28.1-4.2 36.5 13.5 13.2 38 11.2 52.4 24.9 8.8 8.3 12.5 21.1 20.4 30.6"/>
					</g>
					<g id="g512">
						<path id="path514" class="s3" d="m206.7 178.3c-3.5-13.6-6.9-24.3-20.8-29.5-8.3-3.1-27.6-12.3-36.3-9.2-10.6 3.8-9.8 24.1-8.8 33 1.5 14.7 10.8 20.6 25.3 20.1 14.8-0.5 28.4-7.1 41.4-13.5"/>
					</g>
					<g id="g516">
						<path id="path518" class="s3" d="m144.7 76.7c-2.6-9.7-19.4-18.4-26.5-25.3-8-7.7-14.6-12.6-24.8-17.2-10.6-4.7-23.3-11.2-35.3-10.2-0.6 8.8 5.6 31.4 13.3 37.7 5.4 4.4 21.4 5.3 28.2 7.1 13.9 3.7 35 4.8 45.8 14.5 0.5-2.6 0.1-5.6-0.7-7.4"/>
					</g>
					<g id="g520">
						<path id="path522" class="s3" d="m140.6 90.8c-12.5-4-56.3-24.4-63.9-5-2.1 5.2-0.9 16.8 0.2 22.2 2.2 10.9 10.5 11.9 20.7 12.2 12.4 0.4 24.8-1.9 37.1 0.2 1.2-10.3 5-18 5.1-28.8"/>
					</g>
					<g id="g524">
						<path id="path526" class="s3" d="m137.3 133.7c-15.4-4-64.3-13.2-47.5 17.8 6.9 12.7 25.3 4.9 36.7 0.9 9.2-3.2 9.8-8.2 10.8-17.8"/>
					</g>
					<g id="g528">
						<path id="path530" class="s3" d="m131.5 162.6c-5.9 0.4-28.7-0.6-30.6 8.2-1.6 7 13.6 13.5 18.5 15.8 22.1 10.3 13.6-10.4 13.6-23.8-1-0.2-2.1-0.2-3.2-0.2"/>
					</g>
					<g id="g532">
						<path id="path534" class="s3" d="m206.7 199.8c-20.6 7.5-40.3 11.3-61.6 15.6-11.5 2.4-12.2 6.8-10.8 17.8 0.9 7.5 0.4 21 5.2 27.2 10.4 13.3 33-4.1 41.4-11.3 12.1-10.4 31.6-29.7 25.8-47.6"/>
					</g>
					<g id="g536">
						<path id="path538" class="s3" d="m214.1 204.8c1.2 18.4-11.5 40.2-26.7 50.7-10.5 7.1-23.3 10.6-34.2 17-9.6 5.7-9.2 12-8.6 23 0.3 5.5 1.9 11.4 1 17-0.8 5.6-4.2 10.5-4.9 16 10.8 2.4 24.2-14 32.7-20.4 13-9.7 20.6-19.8 30-32.9 8.7-12.1 16.4-26.4 17.7-41.4 1-12.6-2.8-17.4-6.2-28.2"/>
					</g>
					<g id="g540">
						<g id="g542">
						</g>
						<g id="g554">
							<g id="Clip-Path: g552" clip-path="url(#cp2)">
								<g id="g552" style="opacity: .4">
									<g id="g550">
										<path id="path548" class="s4" d="m233.2 192.4c0 0 8.4-81.2-87-144.7-9.5-6.3-18.6-11.7-27.2-16.4 5.7 14.8 9.9 31.9 8.1 44.7-2.6 19-13 31.8-12.8 51.8 0.4 42.6 27.8 55 67.8 56.1-3.2 10-13.8 16.1-20.6 25-10.2 13.5-14.6 30.8-10.2 48.1 4.3 16.9 18 51.5 11.3 73.7 17.7-11.3 37.3-27.9 48.7-50.5 24.3-48.6 21.9-87.8 21.9-87.8z"/>
									</g>
								</g>
							</g>
						</g>
					</g>
					<g id="g556">
						<g id="g558">
						</g>
						<g id="g570">
							<g id="Clip-Path: g568" clip-path="url(#cp3)">
								<g id="g568" style="opacity: .3">
									<g id="g566">
										<path id="path564" class="s5" d="m-1.3 10.3c0 0 55.5 19 69.4 83.2 5.1 23.5 4.4 47.6 10.2 67.1 3.8-3.9 5.9-8.2 7.1-15.4 2.7-15.6-1.1-32.4-1.3-48.1-0.5-27.1 1.6-53.6 3.2-80.4-57.8-21.8-88.6-6.4-88.6-6.4z"/>
									</g>
								</g>
							</g>
						</g>
					</g>
					<g id="g572">
						<path id="path574" class="s2" d="m236 192.4c0 0-8.5-81.2 86.9-144.7 95.5-63.4 147.6-37.4 147.6-37.4 0 0-55.6 19-69.5 83.2-13.8 64.3 15.5 133.6-165 98.9z"/>
					</g>
					<g id="g576">
						<path id="path578" class="s2" d="m320.3 201.6c0 0 36.5-0.4 40 15.2 3.4 15.6-5.3 10.4 0 29.5 5.2 19.1 15.5 24.3 0.8 35.6-14.7 11.3-19.1 13.9-20.8 28.6-1.7 14.8-5.5 27.8 4.2 39.1 0 0-62.3-20.9-86.6-69.4-24.3-48.6-21.9-87.8-21.9-87.8 0 0 59.2 0.1 84.3 9.2z"/>
					</g>
					<g id="g580">
						<path id="path582" class="s3" d="m249.3 180c5-28.7 10.8-56.9 31.7-78.5 8.1-8.4 25.1-25.7 36.8-14.3 7.9 7.8 12.7 28.1 4.2 36.5-13.4 13.2-38 11.2-52.4 24.9-8.8 8.3-12.5 21.1-20.3 30.6"/>
					</g>
					<g id="g584">
						<path id="path586" class="s3" d="m262.5 178.3c3.4-13.6 6.8-24.3 20.7-29.5 8.3-3.1 27.6-12.3 36.3-9.2 10.6 3.8 9.8 24.1 8.9 33-1.6 14.7-10.9 20.6-25.4 20.1-14.8-0.5-28.4-7.1-41.4-13.5"/>
					</g>
					<g id="g588">
						<path id="path590" class="s3" d="m324.4 76.7c2.6-9.7 19.4-18.4 26.6-25.3 8-7.7 14.5-12.6 24.7-17.2 10.7-4.7 23.3-11.2 35.3-10.2 0.7 8.8-5.6 31.4-13.3 37.7-5.3 4.4-21.4 5.3-28.2 7.1-13.9 3.7-35 4.8-45.7 14.5-0.6-2.6-0.2-5.6 0.6-7.4"/>
					</g>
					<g id="g592">
						<path id="path594" class="s3" d="m328.5 90.8c12.5-4 56.3-24.4 64-5 2 5.2 0.9 16.8-0.3 22.2-2.2 10.9-10.4 11.9-20.7 12.2-12.3 0.4-24.8-1.9-37 0.2-1.2-10.3-5.1-18-5.1-28.8"/>
					</g>
					<g id="g596">
						<path id="path598" class="s3" d="m331.9 133.7c15.3-4 64.2-13.2 47.5 17.8-6.9 12.7-25.4 4.9-36.7 0.9-9.2-3.2-9.9-8.2-10.8-17.8"/>
					</g>
					<g id="g600">
						<path id="path602" class="s3" d="m337.6 162.6c6 0.4 28.8-0.6 30.7 8.2 1.5 7-13.6 13.5-18.6 15.8-22.1 10.3-13.5-10.4-13.6-23.8 1.1-0.2 2.1-0.2 3.2-0.2"/>
					</g>
					<g id="g604">
						<path id="path606" class="s3" d="m262.5 199.8c20.5 7.5 40.3 11.3 61.5 15.6 11.5 2.4 12.3 6.8 10.9 17.8-1 7.5-0.5 21-5.3 27.2-10.4 13.3-32.9-4.1-41.4-11.3-12.1-10.4-31.6-29.7-25.7-47.6"/>
					</g>
					<g id="g608">
						<path id="path610" class="s3" d="m255 204.8c-1.2 18.4 11.5 40.2 26.7 50.7 10.5 7.1 23.3 10.6 34.2 17 9.6 5.7 9.2 12 8.6 23-0.3 5.5-1.8 11.4-1 17 0.9 5.6 4.2 10.5 5 16-10.9 2.4-24.3-14-32.8-20.4-13-9.7-20.5-19.8-30-32.9-8.7-12.1-16.4-26.4-17.7-41.4-1-12.6 2.9-17.4 6.2-28.2"/>
					</g>
					<g id="g612">
						<g id="g614">
						</g>
						<g id="g626">
							<g id="Clip-Path: g624" clip-path="url(#cp4)">
								<g id="g624" style="opacity: .4">
									<g id="g622">
										<path id="path620" class="s4" d="m236 192.4c0 0-8.5-81.2 86.9-144.7 9.5-6.3 18.6-11.7 27.3-16.4-5.7 14.8-9.9 31.9-8.2 44.7 2.6 19 13 31.8 12.8 51.8-0.4 42.6-27.7 55-67.8 56.1 3.3 10 13.9 16.1 20.6 25 10.3 13.5 14.6 30.8 10.2 48.1-4.2 16.9-17.9 51.5-11.3 73.7-17.7-11.3-37.3-27.9-48.6-50.5-24.3-48.6-21.9-87.8-21.9-87.8z"/>
									</g>
								</g>
							</g>
						</g>
					</g>
					<g id="g628">
						<g id="g630">
						</g>
						<g id="g642">
							<g id="Clip-Path: g640" clip-path="url(#cp5)">
								<g id="g640" style="opacity: .3">
									<g id="g638">
										<path id="path636" class="s5" d="m470.5 10.3c0 0-55.6 19-69.5 83.2-5 23.5-4.3 47.6-10.2 67.1-3.8-3.9-5.8-8.2-7.1-15.4-2.6-15.6 1.1-32.4 1.4-48.1 0.4-27.1-1.7-53.6-3.2-80.4 57.7-21.8 88.6-6.4 88.6-6.4z"/>
									</g>
								</g>
							</g>
						</g>
					</g>
				</g>
			</g>
		</g>
	</g>
</svg>