<svg version="1.2" xmlns="http://www.w3.org/2000/svg" viewBox="0 0 415 304" width="415" height="304">
	<title>1065393_102028-OM9UFX-574-svg</title>
	<defs>
		<clipPath clipPathUnits="userSpaceOnUse" id="cp1">
			<path d="m-570-148h1066.67v1066.67h-1066.67z"/>
		</clipPath>
		<clipPath clipPathUnits="userSpaceOnUse" id="cp2">
			<path d="m71.66 11.62h134.58v216.55h-134.58z"/>
		</clipPath>
		<clipPath clipPathUnits="userSpaceOnUse" id="cp3">
			<path d="m1.58 3.69h76.24v149.25h-76.24z"/>
		</clipPath>
		<clipPath clipPathUnits="userSpaceOnUse" id="cp4">
			<path d="m53.85 170.08h72.71v95.99h-72.71z"/>
		</clipPath>
		<clipPath clipPathUnits="userSpaceOnUse" id="cp5">
			<path d="m207.58 11.62h134.58v216.55h-134.58z"/>
		</clipPath>
		<clipPath clipPathUnits="userSpaceOnUse" id="cp6">
			<path d="m336 3.69h76.24v149.25h-76.24z"/>
		</clipPath>
		<clipPath clipPathUnits="userSpaceOnUse" id="cp7">
			<path d="m287.26 170.08h72.71v95.99h-72.71z"/>
		</clipPath>
	</defs>
	<style>
		.s0 { fill: #6d1140 } 
		.s1 { fill: none;stroke: #6d1140;stroke-linecap: round;stroke-miterlimit:10;stroke-width: 1.3 } 
		.s2 { fill: #ff5d00 } 
		.s3 { fill: #ffd119 } 
	</style>
	<g id="g10">
		<g id="g12">
			<g id="Clip-Path: g14" clip-path="url(#cp1)">
				<g id="g14">
					<g id="g340">
						<path id="path342" class="s0" d="m215 155.1c0 28.4-3.7 51.4-8.2 51.4-4.6 0-8.2-23-8.2-51.4 0-28.4 3.6-51.4 8.2-51.4 4.5 0 8.2 23 8.2 51.4z"/>
					</g>
					<g id="g344">
						<path id="path346" fill-rule="evenodd" class="s1" d="m204.5 108.8c0 0-2.8-90.3-46.5-80.4"/>
					</g>
					<g id="g348">
						<path id="path350" class="s0" d="m166.5 27.4c0.1 0.9-2.6 1.8-5.9 2-3.4 0.3-6.2-0.2-6.2-1.1-0.1-0.9 2.6-1.8 5.9-2.1 3.4-0.3 6.1 0.3 6.2 1.2z"/>
					</g>
					<g id="g352">
						<path id="path354" fill-rule="evenodd" class="s1" d="m209.3 107.1c0 0 2.8-90.4 46.6-80.4"/>
					</g>
					<g id="g356">
						<path id="path358" class="s0" d="m247.3 25.6c-0.1 0.9 2.6 1.9 6 2.1 3.3 0.3 6.1-0.2 6.2-1.1 0-0.9-2.6-1.9-6-2.1-3.3-0.3-6.1 0.2-6.2 1.1z"/>
					</g>
					<g id="g360">
						<path id="path362" class="s2" d="m201.3 130.8c0 0-15.9-51.3-63.7-87.2-47.9-35.9-119.6-46.8-131.6-35.9-12 10.9 3.3 30.5 10.9 43.5 7.6 13.1 10.9 31.5 14.1 53.3 3.3 21.7-4.3 55.4 79.4 55.4 0 0-56.6 4.4-56.6 32.7 0 28.2 10.4 26.6 14.2 36.9 3.8 10.3-1.6 22.3-7.6 32.6-6 10.4-33.2 34.3-14.7 38.1 18.5 3.8 24.5-11.4 26.6-21.2 2.2-9.8 1.7-27.7 10.9-28.8 9.2-1.1 20.7 18.5 53.3 15.7 32.6-2.7 41.8-17.9 41.3-37.5-0.5-19.5 2.8-45.5 20.7-54.9 15.6-8.2 2.8-42.7 2.8-42.7z"/>
					</g>
					<g id="g364">
						<path id="path366" class="s3" d="m153.8 92.4c-16.3-20.9-36-48.5-61.1-59.2-7-3-31.1-8.3-38.6-5.1-16.2 6.9-0.7 35.2 0.9 46.5 2.6 17.2-3.4 35.6 8.3 50.2 18.2 22.5 56.6 16 78.7 3.8 23.3-12.9 24.9-24.4 6.5-41.4"/>
					</g>
					<g id="g368">
						<path id="path370" class="s3" d="m144.9 176.4c-17.6 3-55.4 2.9-66.7 19.5-11 16.2 8.1 36.4 21.3 44 11.2 6.5 30.5 15.8 43.3 9.9 17.8-8.3 14.7-34 12.8-49.9-1.6-13-3.4-23.9-19.1-23.5"/>
					</g>
					<g id="g372">
						<g id="g374">
						</g>
						<g id="g386">
							<g id="Clip-Path: g384" clip-path="url(#cp2)">
								<g id="g384" style="opacity: .3">
									<g id="g382">
										<path id="path380" class="s2" d="m201.3 130.8c0 0-15.9-51.3-63.7-87.2-19.9-14.9-43.8-25.5-65.9-32 2.3 18.5 16.9 34.3 24.2 51.3 7.7 18.1 3.9 35.6 6 54.4 2 17.9 8.4 20.9 25.9 22 21.2 1.3 27.8 4.8 7.8 19.1-14.9 10.5-31.7 23.7-19.6 50.7 8.3 18.5 26.3 24.5 37.9 13.7 6.7-6.2 7.2-8.2 16.5-6.2 2.6 0.5 5.1 1.2 7.5 1.9 0.8-17.6 5.6-37.1 20.6-45 15.6-8.2 2.8-42.7 2.8-42.7z"/>
									</g>
								</g>
							</g>
						</g>
					</g>
					<g id="g388">
						<g id="g390">
						</g>
						<g id="g402">
							<g id="Clip-Path: g400" clip-path="url(#cp3)">
								<g id="g400" style="opacity: .4">
									<g id="g398">
										<path id="path396" class="s2" d="m6 7.7c-12 10.9 3.3 30.5 10.9 43.5 7.6 13.1 10.9 31.5 14.1 53.3 2.4 15.6-0.9 37.4 28.1 48.4 7.2-4.5 13.3-10.5 16.4-16.8 4.4-9 1.3-19.4 1.1-29.1-0.4-24.1-13-41-23.7-62.2-7.2-14.3-8.9-26.6-8.6-39.4-18.9-2.9-33.5-2.1-38.3 2.3z"/>
									</g>
								</g>
							</g>
						</g>
					</g>
					<g id="g404">
						<g id="g406">
						</g>
						<g id="g418">
							<g id="Clip-Path: g416" clip-path="url(#cp4)">
								<g id="g416" style="opacity: .4">
									<g id="g414">
										<path id="path412" class="s2" d="m88.1 180.8c-4.1-3.2-10.3-7.6-16.9-10.7-9.7 4.9-17.4 12-17.4 22.5 0 28.2 10.4 26.6 14.2 36.9 1.7 4.6 1.5 9.6 0.3 14.5 0.8 1 1.5 1.9 2.2 2.9 2.2 3 4.2 6.1 6.2 9.2 1.4-3.2 3.4-5.6 6.5-5.9 8.2-1 18.1 14.3 43 15.9 0.6-3.7 0.4-7.8-0.6-12.3-5.6-24.2-17.6-57.1-37.5-73z"/>
									</g>
								</g>
							</g>
						</g>
					</g>
					<g id="g420">
						<path id="path422" class="s2" d="m212.5 130.8c0 0 15.9-51.3 63.8-87.2 47.8-35.9 119.6-46.8 131.5-35.9 12 10.9-3.2 30.5-10.9 43.5-7.6 13.1-10.8 31.5-14.1 53.3-3.3 21.7 4.4 55.4-79.4 55.4 0 0 56.6 4.4 56.6 32.7 0 28.2-10.4 26.6-14.2 36.9-3.8 10.3 1.7 22.3 7.6 32.6 6 10.4 33.2 34.3 14.7 38.1-18.5 3.8-24.4-11.4-26.6-21.2-2.2-9.8-1.7-27.7-10.9-28.8-9.2-1.1-20.6 18.5-53.3 15.7-32.6-2.7-41.8-17.9-41.3-37.5 0.6-19.5-2.8-45.5-20.6-54.9-15.7-8.2-2.9-42.7-2.9-42.7z"/>
					</g>
					<g id="g424">
						<path id="path426" class="s3" d="m260 92.4c16.3-20.9 36-48.5 61.1-59.2 7-3 31.1-8.3 38.6-5.1 16.2 6.9 0.7 35.2-0.9 46.5-2.6 17.2 3.4 35.6-8.3 50.2-18.2 22.5-56.6 16-78.7 3.8-23.3-12.9-24.9-24.4-6.5-41.4"/>
					</g>
					<g id="g428">
						<path id="path430" class="s3" d="m268.9 176.4c17.6 3 55.4 2.9 66.7 19.5 11 16.2-8 36.4-21.3 44-11.2 6.5-30.5 15.8-43.2 9.9-17.9-8.3-14.8-34-12.9-49.9 1.6-13 3.4-23.9 19.2-23.5"/>
					</g>
					<g id="g432">
						<g id="g434">
						</g>
						<g id="g446">
							<g id="Clip-Path: g444" clip-path="url(#cp5)">
								<g id="g444" style="opacity: .3">
									<g id="g442">
										<path id="path440" class="s2" d="m212.5 130.8c0 0 15.9-51.3 63.8-87.2 19.8-14.9 43.8-25.5 65.9-32-2.4 18.5-17 34.3-24.3 51.3-7.7 18.1-3.9 35.6-6 54.4-2 17.9-8.4 20.9-25.9 22-21.2 1.3-27.8 4.8-7.7 19.1 14.8 10.5 31.6 23.7 19.5 50.7-8.2 18.5-26.3 24.5-37.9 13.7-6.7-6.2-7.2-8.2-16.4-6.2-2.7 0.5-5.2 1.2-7.6 1.9-0.8-17.6-5.6-37.1-20.5-45-15.7-8.2-2.9-42.7-2.9-42.7z"/>
									</g>
								</g>
							</g>
						</g>
					</g>
					<g id="g448">
						<g id="g450">
						</g>
						<g id="g462">
							<g id="Clip-Path: g460" clip-path="url(#cp6)">
								<g id="g460" style="opacity: .4">
									<g id="g458">
										<path id="path456" class="s2" d="m407.8 7.7c12 10.9-3.2 30.5-10.9 43.5-7.6 13.1-10.8 31.5-14.1 53.3-2.3 15.6 0.9 37.4-28.1 48.4-7.2-4.5-13.2-10.5-16.3-16.8-4.5-9-1.3-19.4-1.2-29.1 0.5-24.1 13-41 23.7-62.2 7.2-14.3 8.9-26.6 8.6-39.4 18.9-2.9 33.5-2.1 38.3 2.3z"/>
									</g>
								</g>
							</g>
						</g>
					</g>
					<g id="g464">
						<g id="g466">
						</g>
						<g id="g478">
							<g id="Clip-Path: g476" clip-path="url(#cp7)">
								<g id="g476" style="opacity: .4">
									<g id="g474">
										<path id="path472" class="s2" d="m325.8 180.8c4-3.2 10.2-7.6 16.8-10.7 9.7 4.9 17.4 12 17.4 22.5 0 28.2-10.4 26.6-14.2 36.9-1.7 4.6-1.5 9.6-0.3 14.5q-1.1 1.4-2.2 2.9c-2.2 3-4.2 6.1-6.2 9.2-1.3-3.2-3.3-5.6-6.5-5.9-8.2-1-18.1 14.3-43 15.9-0.6-3.7-0.4-7.8 0.6-12.3 5.6-24.2 17.6-57.1 37.6-73z"/>
									</g>
								</g>
							</g>
						</g>
					</g>
				</g>
			</g>
		</g>
	</g>
</svg>