<svg version="1.2" xmlns="http://www.w3.org/2000/svg" viewBox="0 0 478 274" width="478" height="274">
	<title>1065393_102028-OM9UFX-574-svg</title>
	<defs>
		<clipPath clipPathUnits="userSpaceOnUse" id="cp1">
			<path d="m-55-149h1066.67v1066.67h-1066.67z"/>
		</clipPath>
		<clipPath clipPathUnits="userSpaceOnUse" id="cp2">
			<path d="m60.11 7.35h177.72v228.59h-177.72z"/>
		</clipPath>
		<clipPath clipPathUnits="userSpaceOnUse" id="cp3">
			<path d="m35.32 7.25h87.69v140.86h-87.69z"/>
		</clipPath>
		<clipPath clipPathUnits="userSpaceOnUse" id="cp4">
			<path d="m97.32 184.46h108.15v71.04h-108.15z"/>
		</clipPath>
		<clipPath clipPathUnits="userSpaceOnUse" id="cp5">
			<path d="m240.24 7.35h177.72v228.59h-177.72z"/>
		</clipPath>
		<clipPath clipPathUnits="userSpaceOnUse" id="cp6">
			<path d="m355.06 7.25h87.69v140.86h-87.69z"/>
		</clipPath>
		<clipPath clipPathUnits="userSpaceOnUse" id="cp7">
			<path d="m272.6 184.46h108.15v71.04h-108.15z"/>
		</clipPath>
	</defs>
	<style>
		.s0 { fill: #6d1140 } 
		.s1 { fill: none;stroke: #6d1140;stroke-linecap: round;stroke-miterlimit:10;stroke-width: 1.3 } 
		.s2 { fill: #e42f8c } 
		.s3 { fill: #fbf4a4 } 
		.s4 { fill: #d42c82 } 
		.s5 { fill: #eebcd6 } 
	</style>
	<g id="g10">
		<g id="g12">
			<g id="Clip-Path: g14" clip-path="url(#cp1)">
				<g id="g14">
					<g id="g168">
						<path id="path170" class="s0" d="m245.9 146c0 28.4-3.6 51.4-8.2 51.4-4.5 0-8.2-23-8.2-51.4 0-28.3 3.7-51.4 8.2-51.4 4.6 0 8.2 23.1 8.2 51.4z"/>
					</g>
					<g id="g172">
						<path id="path174" fill-rule="evenodd" class="s1" d="m235.4 99.8c0 0-2.7-90.4-46.5-80.5"/>
					</g>
					<g id="g176">
						<path id="path178" class="s0" d="m197.4 18.3c0.1 0.9-2.6 1.8-5.9 2.1-3.4 0.3-6.2-0.3-6.2-1.2-0.1-0.9 2.6-1.8 5.9-2 3.4-0.3 6.2 0.2 6.2 1.1z"/>
					</g>
					<g id="g180">
						<path id="path182" fill-rule="evenodd" class="s1" d="m240.2 98c0 0 2.8-90.3 46.6-80.4"/>
					</g>
					<g id="g184">
						<path id="path186" class="s0" d="m278.2 16.6c0 0.9 2.6 1.8 6 2.1 3.3 0.2 6.1-0.3 6.2-1.2 0-0.9-2.6-1.8-6-2.1-3.3-0.2-6.1 0.3-6.2 1.2z"/>
					</g>
					<g id="g188">
						<path id="path190" class="s2" d="m234.9 112.3c0 0-23.5-63.1-111.2-92.3-87.6-29.2-124.3 0-122.4 7.5 1.9 7.5 16.9 2.8 19.8 12.2 2.8 9.5 2.8 8.1 10.3 20.1 7.6 12 3.8 12.9 10.4 25.2 6.6 12.2 9.4 30.1 17.9 33.9 8.5 3.7 5.6 19.8 19.8 22.6 14.1 2.8 36.7 16 44.2 16 7.6 0-26.3 29.2-26.3 44.3 0 15.1-1 22.6 5.6 34.8 6.6 12.3 12.3 13.2 19.8 20.8 7.5 7.5 9.4 13.1 21.7 12.2 12.2-0.9 20.7-6.6 32.9-6.6 12.3 0 15.1 1 19.8-10.4 4.7-11.3 6.6-46.1 20.7-72.5 14.2-26.4 25.5-35.8 17-67.8z"/>
					</g>
					<g id="g192">
						<path id="path194" class="s3" d="m213.8 106.7c-11.8-23.9-28.5-39-51.7-51.8-12-6.6-30.9-18.2-44.4-8.7-10 7-9.1 24.3-9.2 35.3-0.2 21.6 26.1 24.5 43.2 27.1 20.5 3.1 41.9 4.5 62.1-1"/>
					</g>
					<g id="g196">
						<path id="path198" class="s3" d="m212.2 116.7c-20.4 0.2-41.6 2.2-61.8-0.8-9.9-1.5-24.8-9.3-32.5 0.3-7.6 9.5-3.9 28.9 7.5 33.4 15.3 5.9 38.6-7.4 52.4-12.8 12.8-5 26.6-9.5 36-20.1"/>
					</g>
					<g id="g200">
						<path id="path202" class="s3" d="m218 127.4c-35.8 16-111.4 39.4-98.5 92.4 4.6 18.9 21.1 27.6 39.9 26.8 29.1-1.3 31.7-33.1 37.9-55.3 4.2-15 10.1-28.8 17.2-42.5 3.3-6.3 6.8-12.3 6.6-19.6-1.7-0.1-3.3-1-4.8-1"/>
					</g>
					<g id="g204">
						<path id="path206" class="s3" d="m108.9 45.6c-3.9-15.1-9.6-23.7-25.6-26.3-10.3-1.6-29.6-6.3-39.7-2.6-8.6 3.1-9.5 13.4-4.1 20.4 7.1 9.3 22.5 7.5 32.9 7.6 12.4 0.1 24.9 0.5 37.3 0.1"/>
					</g>
					<g id="g208">
						<path id="path210" class="s3" d="m104 54.7c-13.3-3.2-28.4-5.2-42.1-3.6-10.9 1.2-12.1 4.4-10.5 14.5 3.6 24.4 21.8 16.1 40.1 10.1 11.2-3.6 14.8-8.3 13.3-20.2"/>
					</g>
					<g id="g212">
						<path id="path214" class="s3" d="m98.2 86.1c-16.9-8.9-53.8 2.6-31.5 23.2 9.9 9.2 21.8 29.2 37.1 27.9 2-5.8 1.6-11.6 2.7-17.5 1.1-5.2 3.3-10.2 3.1-15.9-0.2-7.3-3-16.1-11.4-17.7z"/>
					</g>
					<g id="g216">
						<g id="g218">
						</g>
						<g id="g230">
							<g id="Clip-Path: g228" clip-path="url(#cp2)">
								<g id="g228" style="opacity: .4">
									<g id="g226">
										<path id="path224" class="s4" d="m234.9 112.3c0 0-23.5-63.1-111.2-92.3-25.3-8.5-46.4-12-63.5-12.6-0.8 11.9 3.4 24.4 7.2 35.4 8.5 24.9 23.1 45.6 44.2 61.4 14.6 11 33.3 16.5 47.4 27.8 14.1 11.4-1.5 19.1-9.6 29.2-9.4 11.7-17.6 31.2-18.2 46.5-0.8 16.9 17.7 27.5 32.9 28.2 11.2 0.5 25.2-1.4 38.1-4.5 2.9-15.2 7-34.9 15.7-51.3 14.2-26.4 25.5-35.8 17-67.8z"/>
									</g>
								</g>
							</g>
						</g>
					</g>
					<g id="g232">
						<g id="g234">
						</g>
						<g id="g246">
							<g id="Clip-Path: g244" clip-path="url(#cp3)">
								<g id="g244" style="opacity: .3">
									<g id="g242">
										<path id="path240" class="s5" d="m110.6 127.7c8.2-17.5 11.1-36.6 11.9-55.8 0.5-14.4 1.6-35.6-2.5-53.1-30.9-9.9-55.3-12.5-73.8-11.3-7.2 18.6-11.2 37.9-10.9 58.2q0.1 0.8 0.1 1.6c2.3 5.7 1.5 8.6 6.4 17.7 6.6 12.2 9.4 30.1 17.9 33.9 8.5 3.7 5.6 19.8 19.8 22.6 5.5 1.1 12.2 3.8 18.9 6.6 5.4-6.4 9.5-14.6 12.2-20.4z"/>
									</g>
								</g>
							</g>
						</g>
					</g>
					<g id="g248">
						<g id="g250">
						</g>
						<g id="g262">
							<g id="Clip-Path: g260" clip-path="url(#cp4)">
								<g id="g260" style="opacity: .3">
									<g id="g258">
										<path id="path256" class="s5" d="m105.3 184.5c-4.5 6.2-7.9 12.5-7.9 17.3 0 9.3-0.4 15.7 0.9 22.1 6.1 6.3 14.9 11.4 24.8 15.4 9.6 3.9 48.1 17.4 72.9 16.1q0.6-1.2 1.2-2.8c2.7-6.5 4.5-20.9 8.3-37-19.5-16.7-57.3-23.9-75.8-28.3-8.1-2-16.3-2.1-24.4-2.8z"/>
									</g>
								</g>
							</g>
						</g>
					</g>
					<g id="g264">
						<path id="path266" class="s2" d="m243.2 112.3c0 0 23.5-63.1 111.1-92.3 87.6-29.2 124.4 0 122.5 7.5-1.9 7.5-17 2.8-19.8 12.2-2.8 9.5-2.8 8.1-10.4 20.1-7.5 12-3.7 12.9-10.3 25.2-6.6 12.2-9.4 30.1-17.9 33.9-8.5 3.7-5.7 19.8-19.8 22.6-14.1 2.8-36.7 16-44.3 16-7.5 0 26.4 29.2 26.4 44.3 0 15.1 0.9 22.6-5.6 34.8-6.6 12.3-12.3 13.2-19.8 20.8-7.6 7.5-9.4 13.1-21.7 12.2-12.2-0.9-20.7-6.6-33-6.6-12.2 0-15 1-19.8-10.4-4.7-11.3-6.5-46.1-20.7-72.5-14.1-26.4-25.4-35.8-16.9-67.8z"/>
					</g>
					<g id="g268">
						<path id="path270" class="s3" d="m264.2 106.7c11.9-23.9 28.5-39 51.8-51.8 12-6.6 30.9-18.2 44.4-8.7 10 7 9 24.3 9.1 35.3 0.2 21.6-26 24.5-43.2 27.1-20.5 3.1-41.9 4.5-62.1-1"/>
					</g>
					<g id="g272">
						<path id="path274" class="s3" d="m265.9 116.7c20.4 0.2 41.6 2.2 61.8-0.8 9.9-1.5 24.8-9.3 32.5 0.3 7.5 9.5 3.9 28.9-7.6 33.4-15.2 5.9-38.5-7.4-52.3-12.8-12.8-5-26.7-9.5-36.1-20.1"/>
					</g>
					<g id="g276">
						<path id="path278" class="s3" d="m260.1 127.4c35.7 16 111.4 39.4 98.5 92.4-4.6 18.9-21.1 27.6-39.9 26.8-29.1-1.3-31.8-33.1-38-55.3-4.1-15-10-28.8-17.2-42.5-3.2-6.3-6.7-12.3-6.5-19.6 1.7-0.1 3.2-1 4.8-1"/>
					</g>
					<g id="g280">
						<path id="path282" class="s3" d="m369.1 45.6c3.9-15.1 9.6-23.7 25.6-26.3 10.3-1.6 29.7-6.3 39.8-2.6 8.5 3.1 9.4 13.4 4.1 20.4-7.1 9.3-22.6 7.5-32.9 7.6-12.4 0.1-24.9 0.5-37.4 0.1"/>
					</g>
					<g id="g284">
						<path id="path286" class="s3" d="m374.1 54.7c13.3-3.2 28.4-5.2 42-3.6 10.9 1.2 12.1 4.4 10.6 14.5-3.6 24.4-21.8 16.1-40.1 10.1-11.2-3.6-14.8-8.3-13.3-20.2"/>
					</g>
					<g id="g288">
						<path id="path290" class="s3" d="m379.9 86.1c16.9-8.9 53.8 2.6 31.5 23.2-9.9 9.2-21.8 29.2-37.2 27.9-2-5.8-1.5-11.6-2.6-17.5-1.1-5.2-3.3-10.2-3.2-15.9 0.3-7.3 3.1-16.1 11.5-17.7z"/>
					</g>
					<g id="g292">
						<g id="g294">
						</g>
						<g id="g306">
							<g id="Clip-Path: g304" clip-path="url(#cp5)">
								<g id="g304" style="opacity: .4">
									<g id="g302">
										<path id="path300" class="s4" d="m243.2 112.3c0 0 23.5-63.1 111.1-92.3 25.4-8.5 46.4-12 63.6-12.6 0.7 11.9-3.5 24.4-7.3 35.4-8.5 24.9-23 45.6-44.1 61.4-14.7 11-33.3 16.5-47.4 27.8-14.2 11.4 1.5 19.1 9.6 29.2 9.4 11.7 17.5 31.2 18.2 46.5 0.7 16.9-17.7 27.5-33 28.2-11.1 0.5-25.2-1.4-38-4.5-2.9-15.2-7-34.9-15.8-51.3-14.1-26.4-25.4-35.8-16.9-67.8z"/>
									</g>
								</g>
							</g>
						</g>
					</g>
					<g id="g308">
						<g id="g310">
						</g>
						<g id="g322">
							<g id="Clip-Path: g320" clip-path="url(#cp6)">
								<g id="g320" style="opacity: .3">
									<g id="g318">
										<path id="path316" class="s5" d="m367.5 127.7c-8.3-17.5-11.1-36.6-11.9-55.8-0.6-14.4-1.6-35.6 2.4-53.1 31-9.9 55.4-12.5 73.8-11.3 7.3 18.6 11.3 37.9 10.9 58.2q0 0.8 0 1.6c-2.3 5.7-1.5 8.6-6.4 17.7-6.6 12.2-9.4 30.1-17.9 33.9-8.5 3.7-5.7 19.8-19.8 22.6-5.5 1.1-12.3 3.8-19 6.6-5.3-6.4-9.4-14.6-12.1-20.4z"/>
									</g>
								</g>
							</g>
						</g>
					</g>
					<g id="g324">
						<g id="g326">
						</g>
						<g id="g338">
							<g id="Clip-Path: g336" clip-path="url(#cp7)">
								<g id="g336" style="opacity: .3">
									<g id="g334">
										<path id="path332" class="s5" d="m372.8 184.5c4.5 6.2 7.9 12.5 7.9 17.3 0 9.3 0.4 15.7-0.9 22.1-6.1 6.3-14.9 11.4-24.9 15.4-9.6 3.9-48 17.4-72.8 16.1q-0.6-1.2-1.3-2.8c-2.7-6.5-4.5-20.9-8.2-37 19.5-16.7 57.3-23.9 75.8-28.3 8.1-2 16.3-2.1 24.4-2.8z"/>
									</g>
								</g>
							</g>
						</g>
					</g>
				</g>
			</g>
		</g>
	</g>
</svg>