<svg version="1.2" xmlns="http://www.w3.org/2000/svg" viewBox="0 0 25 25" width="25" height="25">
	<title>all--button-svg</title>
	<defs>
		<linearGradient id="g1" x2="1" gradientUnits="userSpaceOnUse" gradientTransform="matrix(-4.392,-21.741,22.113,-4.467,13.604,23.291)">
			<stop offset="0" stop-color="#8c2747"/>
			<stop offset="1" stop-color="#d65731"/>
		</linearGradient>
		<linearGradient id="g2" x2="1" gradientUnits="userSpaceOnUse" gradientTransform="matrix(20.531,-4.147,2.164,10.712,1.781,15.433)">
			<stop offset="0" stop-color="#c77cbd"/>
			<stop offset="1" stop-color="#974577"/>
		</linearGradient>
		<linearGradient id="g3" x2="1" gradientUnits="userSpaceOnUse" gradientTransform="matrix(16.323,-3.297,1.112,5.506,6.282,20.309)">
			<stop offset="0" stop-color="#c77cbd"/>
			<stop offset="1" stop-color="#974577"/>
		</linearGradient>
		<linearGradient id="g4" x2="1" gradientUnits="userSpaceOnUse" gradientTransform="matrix(17.167,-3.468,2.683,13.281,.826,12.241)">
			<stop offset="0" stop-color="#c77cbd"/>
			<stop offset="1" stop-color="#974577"/>
		</linearGradient>
		<linearGradient id="g5" x2="1" gradientUnits="userSpaceOnUse" gradientTransform="matrix(6.529,-1.319,.785,3.886,4.232,8.761)">
			<stop offset="0" stop-color="#c77cbd"/>
			<stop offset="1" stop-color="#974577"/>
		</linearGradient>
		<linearGradient id="g6" x2="1" gradientUnits="userSpaceOnUse" gradientTransform="matrix(5.488,-1.109,.461,2.284,9.709,12.442)">
			<stop offset="0" stop-color="#c77cbd"/>
			<stop offset="1" stop-color="#974577"/>
		</linearGradient>
		<linearGradient id="g7" x2="1" gradientUnits="userSpaceOnUse" gradientTransform="matrix(0,-10.343,10.147,0,11.509,17.088)">
			<stop offset="0" stop-color="#ffdbdb"/>
			<stop offset="1" stop-color="#ffffff"/>
		</linearGradient>
	</defs>
	<style>
		.s0 { opacity: .5;fill: #591b80 } 
		.s1 { fill: url(#g1) } 
		.s2 { fill: #ff8b3e } 
		.s3 { fill: #e06834 } 
		.s4 { fill: #801b34 } 
		.s5 { fill: #892334 } 
		.s6 { fill: url(#g2) } 
		.s7 { fill: url(#g3) } 
		.s8 { fill: url(#g4) } 
		.s9 { fill: url(#g5) } 
		.s10 { fill: url(#g6) } 
		.s11 { fill: #b64034 } 
		.s12 { fill: #982f34 } 
		.s13 { fill: #dc634f } 
		.s14 { opacity: .4;fill: #d9772f } 
		.s15 { fill: url(#g7) } 
		.s16 { fill: #7f4f3e } 
	</style>
	<g id="Layer">
		<g id="Layer">
			<path id="Layer" fill-rule="evenodd" class="s0" d="m24.8 13.6l-2 4.9-1.8 4.5c0 0-1 0.4-2.5 0.8-1.2 0.4-2.5 0.7-3.7 0.7-1.5 0.1-3.2 0-4.9-0.5q-1-0.2-1.9-0.7-0.1 0-0.2-0.1h-0.1q-1.1-0.6-2.1-1.4 0 0 0 0l-0.1-0.1q-0.5-0.3-0.9-0.7l-0.4-1-0.2-0.6-1.1-2.5 0.9-0.7-1.3-0.3-0.5-1.3 0.7-4.7 2.2-5.7c9.3-5.1 16.1-0.8 16.1-0.8l1.7 2.5 1.1 4.1 0.4 1.4zm-20.2-6.7l-0.3 0.6z"/>
			<g id="Layer">
				<path id="Layer" fill-rule="evenodd" class="s1" d="m22.9 12.4l-3.9 9.4c0 0-9.6 4.5-16.3-2l-1.7-4.1 1.9-0.5-2.3-0.5-0.5-1.3 0.8-3.9 2.6-5.5c0 0 10.5-7 17.2 0.8z"/>
				<path id="Layer" fill-rule="evenodd" class="s2" d="m20.7 4.8l-1.6-2.6c0 0-6.9-4.3-16.2 0.9l-2.1 5.6-0.7 4.7 0.8-3.9 2.6-5.5c0 0 8.2-5.3 17.2 0.8z"/>
				<path id="Layer" class="s3" d="m2.9 3.1l0.6 0.9-2.6 5.5-0.8 3.9 0.7-4.7z"/>
				<path id="Layer" class="s3" d="m2.7 5.7l3.2-2.8-2.7 0.6z"/>
				<path id="Layer" class="s3" d="m9.8 2l1.2 0.5 4.5-0.1-2.6-0.7z"/>
				<path id="Layer" fill-rule="evenodd" class="s4" d="m12.9 23.3l1.9-0.5 3.8-2.3 2.4-3.6-2 4.9c0 0-3.6 1.5-6.1 1.5z"/>
				<path id="Layer" class="s5" d="m22.5 11l-4.4 2.1-5.7 1.4z"/>
				<g id="Layer" style="opacity: .2">
					<path id="Layer" fill-rule="evenodd" class="s6" d="m2.7 19.8c0 0 5.7-11.2 18.4-13.8l0.5 1.8c0 0-11-0.6-18 12.8z"/>
					<path id="Layer" fill-rule="evenodd" class="s7" d="m6.7 22.4c0 0 7.5-7.6 15.4-8l-0.9 2.1c0 0-7.7-1.4-13.2 6.3z"/>
					<path id="Layer" fill-rule="evenodd" class="s8" d="m2.3 18.9c0 0 6.8-13.3 14.5-16.2l-1.3-0.3c0 0-7.4 4.4-13.5 15.8z"/>
					<path id="Layer" fill-rule="evenodd" class="s9" d="m4.6 10.7c0 0 1.2-5.4 5.8-5 0 0-3.7 4-5.8 5z"/>
					<path id="Layer" fill-rule="evenodd" class="s10" d="m9.9 13.6c0 0 1-2.1 5.1-3.4 0 0-2.8 1.3-5.1 3.4z"/>
				</g>
				<path id="Layer" class="s11" d="m17.3 2.9l2.5 1.8 0.9 1.8 1.4 3.1-1.4-4.8-1.6-1.1z"/>
				<path id="Layer" class="s12" d="m2.7 5.7l-1.4 3.8-0.4 2.3-0.8 1.6 0.8-3.9z"/>
				<path id="Layer" class="s13" d="m16.6 13.5l1.6-0.2 2.6-1.5z"/>
				<path id="Layer" class="s2" d="m1 15.7l0.8-0.7 1.1 0.2z"/>
				<path id="Layer" class="s5" d="m5.8 22l0.8-2.1-0.5 2.2z"/>
				<path id="Layer" class="s5" d="m7.1 4.4l2-0.2-0.8-0.2z"/>
				<path id="Layer" class="s5" d="m12.9 21.2l1.7-1.4-0.7 1.2z"/>
				<path id="Layer" class="s12" d="m22.3 10.2v2.5l-0.5 2.3 1.1-2.6z"/>
				<path id="Layer" fill-rule="evenodd" class="s14" d="m2.7 19.8c0 0 4.7-8 11.7-11.4 0 0-7.1 2.5-11.7 11.4z"/>
				<path id="Layer" fill-rule="evenodd" class="s14" d="m6.7 22.4c0 0 6.4-7 15.4-8 0 0-7.4-0.3-15.4 8z"/>
				<path id="Layer" class="s4" d="m19.9 16.8l-0.7 1.8-1.1 1.9z"/>
				<path id="Layer" class="s4" d="m17.3 20.6l1.4-2.3-0.7 1.5z"/>
			</g>
			<g id="Layer">
				<g id="Layer">
					<g id="Layer">
						<path id="Layer" fill-rule="evenodd" class="s15" d="m12.6 12.1l0.1 4.9 2.6 0.1 1.2-0.1 0.1-3.7-0.1-6.5-1.5-0.1-2.3 0.1zm-6.2-5.1v3.8 6.1l0.2 0.3 3.9-0.1-0.1-4.1v-3.6l0.1-2.5h-1l-3.1 0.1z"/>
						<path id="Layer" fill-rule="evenodd" class="s16" d="m10.4 17.9h-3.7l-0.2-0.2-0.1-0.8 0.2 0.3 3.8-0.1zm4.9-0.8l1.3-0.1-0.1 0.7-1.2 0.2-2.4-0.2-0.1-0.7z"/>
					</g>
				</g>
			</g>
		</g>
	</g>
</svg>