<?xml version="1.0" encoding="utf-8"?>
<!-- Generator: Adobe Illustrator 27.5.0, SVG Export Plug-In . SVG Version: 6.00 Build 0)  -->
<svg version="1.1" id="Capa_1" xmlns="http://www.w3.org/2000/svg" xmlns:xlink="http://www.w3.org/1999/xlink" x="0px" y="0px"
	 viewBox="0 0 425.2 425.2" style="enable-background:new 0 0 425.2 425.2;" xml:space="preserve">
<rect x="0.002" y="0.002" style="fill:#2F3944;" width="425.195" height="425.196"/>
<g>
	<g>
		<path style="fill:#FFFFFF;" d="M117.338,169.538H43.879c-8.113,0-14.689,6.578-14.689,14.692v41.904
			c0,8.113,6.576,14.692,14.689,14.692h7.465c2.547,5.164,3.533,12.045-5.029,16.779c0,0,22.457-5.642,26.549-16.779h44.475
			c8.113,0,14.691-6.579,14.691-14.692V184.23C132.029,176.116,125.451,169.538,117.338,169.538z"/>
		<g>
			<path style="fill:#FFFFFF;" d="M127.48,329.074c5.336-2.828,8.971-8.435,8.971-14.895c0-9.307-7.543-16.851-16.848-16.851
				c-3.707,0-7.133,1.2-9.914,3.229c-1.121-8.221-8.164-14.559-16.691-14.559c-5.951,0-11.18,3.089-14.178,7.748
				c-3.076-4.03-7.932-6.633-13.395-6.633c-9.307,0-16.852,7.544-16.852,16.849c0,0.256,0.008,0.509,0.02,0.761
				c-0.006,0-0.012,0-0.02,0c-9.307,0-16.85,7.544-16.85,16.851c0,6.999,4.268,12.999,10.342,15.545
				c-1.537,2.542-2.426,5.524-2.426,8.712c0,9.306,7.545,16.85,16.852,16.85c5.752,0,10.826-2.884,13.867-7.283
				c2.549,6.071,10.25,13.339,21.025,13.295c8.396-0.034,19.367-3.913,20.258-14.246c3.08,4.024,7.928,6.622,13.389,6.622
				c9.305,0,14.852-8.892,14.852-18.198C139.883,338.04,134.57,329.962,127.48,329.074z"/>
			<path style="fill:#FFFFFF;" d="M55.916,352.267c0,0,7.781,12.269-4.918,22.098c0,0,28.939,2.558,29.611-17.908L55.916,352.267z"
				/>
		</g>
		<path style="fill:#FFFFFF;" d="M113.676,59.674c-20.352-14.199-49.289-20.956-70.734-5.005
			c-29.156,21.688-7.629,53.546,22.129,68.624c-0.027,5.867-1.748,13.088-8.992,16.951c0,0,22.986,6.854,34.213-8.932
			c11.479,1.466,22.506-0.341,30.949-6.797C147.176,105.063,135.021,74.565,113.676,59.674z"/>
	</g>
	<g>
		<path style="fill:#FFFFFF;" d="M347.014,42.469c-27.105,0-49.078,21.974-49.078,49.079c0,9.246,2.561,17.891,7.006,25.274
			c-1.168,6.191-4.484,15.744-13.922,19.656c0,0,17.859,1.921,29.467-3.647c7.65,4.927,16.752,7.797,26.527,7.797
			c27.105,0,49.078-21.974,49.078-49.08C396.092,64.442,374.119,42.469,347.014,42.469z"/>
		<path style="fill:#FFFFFF;" d="M372.254,192.673h-73.457c-8.115,0-14.693,6.578-14.693,14.692v15.916
			c0,8.114,6.578,14.691,14.693,14.691h4.408c1.039,3.864,1.25,9.026-2.523,13.568c0,0,15.217-3.352,18.648-13.568h52.924
			c8.113,0,14.691-6.577,14.691-14.691v-15.916C386.945,199.251,380.367,192.673,372.254,192.673z"/>
		<path style="fill:#FFFFFF;" d="M336.309,273.968c-33.43-5.337-56.305,36.11-47.123,64.263c2.57,7.422,7.703,13.578,14.295,18.292
			c0.404,5.713-0.826,14.867-11.145,20.6c0,0,23.244,4.521,30.752-11.743c20.115,5.073,43.23,0.751,53.615-15.521
			C376.703,349.859,409.141,285.597,336.309,273.968z"/>
	</g>
	<g>
		<path style="fill:#FFFFFF;" d="M236.205,277.629h-50.451c-9.682,0-17.531,7.851-17.531,17.534v50.01
			c0,9.683,7.85,17.534,17.531,17.534h8.908c3.041,6.162,4.217,14.375-6.002,20.024c0,0,26.801-6.733,31.686-20.024h15.859
			c9.684,0,17.533-7.851,17.533-17.534v-50.01C253.738,285.479,245.889,277.629,236.205,277.629z"/>
		<path style="fill:#FFFFFF;" d="M245.428,49.03l-48.018-5.718c-12.006-0.857-30.012,0.574-38.588,11.72
			c-9.43,12.862-2.57,47.161,7.717,56.594c3.049,2.794,7.686,4.453,13.047,5.414c0.229,4.845-0.748,11.047-6.393,14.16
			c0,0,18.461-0.616,25.469-12.981c7.641-0.096,14.967-0.59,20.184-0.59c17.152,0,39.445-1.715,46.303-21.437
			C272.008,78.184,264.291,54.175,245.428,49.03z"/>
		<path style="fill:#FFFFFF;" d="M263.848,210.866c15.402-25.302-10.83-44.854-33-44.553c-16.268,0.22-32.791-0.696-48.955,1.59
			c-19.33,2.732-28.943,13.115-28.373,32.894c0.447,15.549,7.951,34.453,22.324,42.522c15.59,8.751,33.219,7.708,49.102,1.001
			c4.768,4.67,13.738,11.173,27.264,11.97c0,0-6.801-11.868-7.027-24.254C252.693,225.914,259.135,218.622,263.848,210.866z"/>
	</g>
</g>
</svg>
