<svg version="1.2" xmlns="http://www.w3.org/2000/svg" viewBox="0 0 146 204" width="146" height="204">
	<title>12418336_4990658-svg</title>
	<style>
		.s0 { fill: #adceff } 
		.s1 { fill: #95beef } 
		.s2 { fill: #022b4c } 
		.s3 { fill: #d9ddff } 
		.s4 { fill: #bdc4f2 } 
		.s5 { fill: #ffffff } 
		.s6 { fill: #6a97ce } 
		.s7 { fill: #426b8e } 
	</style>
	<g id="OBJECT">
		<g id="Layer">
			<path id="Layer" class="s0" d="m101.7 191.5c1.5 0.7 4.6 0.9 8 0.8q0 0 0.1 0c5.7-0.1 12.7-1.1 16.1-2 5.4-1.4 5.8-3.2 5.8-3.2 0 0 4.1-0.6 5.3-1.8 1.2-1.2 0.8-3.6 0.8-3.6 0 0 3.1 0.5 3.4-2.5 0.2-2.9-0.5-7-7.4-6.9-6.8 0.1-11.7 0.4-11.7 0.4l-20.1 2.4q0 0 0 0l-1.1 0.1c0 0-3.2 14.5 0.8 16.3z"/>
			<path id="Layer" class="s1" d="m101.7 191.5c1.5 0.7 4.6 0.9 8 0.8-1.3-0.6-2.8-1.7-4.1-3.3-3.6-4.4-2.1-8.8-1.5-11 0.4-1.2-0.9-2.3-2.1-2.9q0 0 0 0l-1.1 0.1c0 0-3.2 14.5 0.8 16.3z"/>
			<path id="Layer" class="s1" d="m131.4 186.9c0 0-1.3-4.1-3.9-5.3-2.6-1.2-10-0.3-10-0.3 0 0 3.5-2.5 8.7-1.9 5.2 0.7 6.7 7.5 6.7 7.5 0 0-1 0.2-1.5 0z"/>
			<path id="Layer" class="s1" d="m137.8 181.5c0 0-1-3.7-3.7-5.1-2.7-1.4-5.7-1-5.7-1 0 0 2.8-1.7 5.8-0.7 3.1 1.1 4.5 7 4.5 7 0 0-0.8 0-0.9-0.2z"/>
			<path id="Layer" class="s2" d="m126.4 184.3l1.5 2.2c0 0 2.1-0.5 2.5-1 0.5-0.5-1.5-2.6-4-1.2z"/>
			<path id="Layer" class="s2" d="m134.2 180.2l1.4 2.2c0 0 2.2-0.5 2.6-1 0.4-0.5-1.5-2.6-4-1.2z"/>
			<path id="Layer" class="s2" d="m138.5 175.2l1.5 2.2c0 0 2.1-0.4 2.6-0.9 0.4-0.5-1.5-2.6-4.1-1.3z"/>
			<path id="Layer" class="s2" d="m125 54.4c0 0-0.1-1.6 1-1.9 1.2-0.4 1.9-0.3 1.9-0.3l-1.4 2.1z"/>
			<path id="Layer" class="s0" d="m131.9 74c0 0 9.3-3.6 11.7-6.4 2.5-2.9 1.6-6 1-6.7-0.7-0.8-2.2-1-2.2-1 0 0 0.8-2.8-0.7-4.3-1.5-1.5-3.2-1.4-3.2-1.4 0 0-0.7-2.7-2.3-3.4-1.7-0.6-3.7-0.9-6.1 0.8-2.3 1.8-1 3-0.1 3.3 0.8 0.2 2.8-0.5 2.8-0.5l0.9 1.9-3.9 3c0 0-1.6 0.9-2.9-1.2-1.3-2.1 1.4-4-0.2-4.8-1.7-0.8-3.8 1.9-4.2 5.3-0.4 3.3 0.4 5 0.4 5l0.2 3c0 0 6.7 8.2 8.8 7.4z"/>
			<path id="Layer" class="s1" d="m142.4 59.9c0 0-3.2-0.7-4.8 0.3-1.5 0.9-1.7 2.2-0.9 3.1 0.8 0.8 2.4 1 2.4 1 0 0 0.8 1.1 2 1.1 0 0-3.9 0.9-5.3 2.5-1.5 1.5-2.2 2.7-1.7 2.7 0.5-0.1 3.7-3 3.9-3.1 0.1-0.1 3.4-1.4 3.4-1.4 0 0 0.8 0.1 1.4-0.1 0.6-0.1-1.2-0.9-1.2-0.9 0 0-1.1-0.2-1.5-0.9-0.3-0.7-0.9-0.7-1.5-0.9-0.5-0.2-1.7-1-1.6-1.5 0.1-0.4 0.7-1.2 2.1-1.4 1.4-0.2 4.6-0.1 4.6-0.1z"/>
			<path id="Layer" class="s1" d="m138.5 54.2c0 0-3 0.2-4.5 1.9-1.5 1.7-2.8 2.9-1.7 3.9 1.1 1 2.7 0.8 3.6 0.2 0.8-0.5 1.5-1 1.5-1l1.9 0.5c0 0 0.9 0 1.2 0 0.3 0-2.8-1.6-3.6-1.3-0.8 0.2-2.3 2-3.4 1.4-1.2-0.6-0.6-1.5-0.1-2.2 0.6-0.7 1.7-2 2.5-2.3 0.8-0.4 2.6-1.1 2.6-1.1z"/>
			<path id="Layer" class="s1" d="m129 52.8c0 0 0.2 1.1 1.5 1.1 1.3 0 3.2-0.6 3.2-0.6l-0.2 1 0.7 1.6-0.5 0.4-0.9-1.9c0 0-2.8 1.2-3.4 0.2-0.6-1-0.4-1.8-0.4-1.8z"/>
			<path id="Layer" class="s1" d="m128.1 59.8c0 0 0.3 1 0.3 2.9 0.1 1.8-1.1 3.4-1.1 3.4 0 0-0.8-5 0.8-6.3z"/>
			<path id="Layer" class="s2" d="m138.4 61.3c0 0-1.2-0.8-2.2 0-0.9 0.8-1.1 1.5-1.1 1.5l2.5-0.1z"/>
			<path id="Layer" class="s2" d="m133.4 57.5c0 0-1.5 0.1-1.8 1.3-0.2 1.2 0 1.9 0 1.9l2-1.6z"/>
			<path id="Layer" class="s2" d="m129.8 52.5c0 0-1.5 0-1.7 1.2-0.3 1.2-0.1 2-0.1 2l2-1.7z"/>
			<path id="Layer" class="s3" d="m84.7 83.6c-0.6 1.7-1 2.9-1 2.9 0 0 18.6 9 25.9 7.7 7.2-1.3 21.9-16.3 21.9-16.3 0 0 3.6-0.3 3.9-2.1q0.1-0.3 0-0.7c-0.7-2.4-4.4-2.1-4.7-2 0.3-0.2 3.5-2 2-3.5-1.5-1.6-4.9 0-4.9 0 0 0 1.5-4.1-0.3-5.3-1.7-1.1-3.8 1.4-3.8 1.4 0 0 0.1-4.3-1.6-4.3-1.7 0-2.3 5.2-2.3 5.2l-16.6 15.8-13.9-7.3c-1.8 1.1-3.6 5.5-4.6 8.5z"/>
			<path id="Layer" class="s4" d="m122.4 78.9c0 0-1.9 4.6-3.1 3.6-1.2-0.9 3.1-3.6 3.1-3.6z"/>
			<path id="Layer" class="s4" d="m116.2 73.3c0 0-1.9 4.5-3.1 3.6-1.2-0.9 3.1-3.6 3.1-3.6z"/>
			<path id="Layer" class="s4" d="m122.2 71.4c0 0-2 4.5-3.2 3.6-1.2-0.9 3.2-3.6 3.2-3.6z"/>
			<path id="Layer" class="s4" d="m111.5 87.2c0 0-2 4.6-3.2 3.6-1.2-0.9 3.2-3.6 3.2-3.6z"/>
			<path id="Layer" class="s4" d="m106.2 81c0 0-2 4.6-3.2 3.6-1.1-0.9 3.2-3.6 3.2-3.6z"/>
			<path id="Layer" class="s4" d="m100.2 82.9c0 0-4.8 0.8-4.7-0.7 0.2-1.5 4.7 0.7 4.7 0.7z"/>
			<path id="Layer" class="s4" d="m96.3 86.1c0 0-4.9 0.8-4.7-0.7 0.1-1.5 4.7 0.7 4.7 0.7z"/>
			<path id="Layer" class="s4" d="m111.9 81c0 0-2 4.5-3.2 3.6-1.2-0.9 3.2-3.6 3.2-3.6z"/>
			<path id="Layer" class="s4" d="m84.7 83.6c-0.6 1.7-1 2.9-1 2.9 0 0 18.6 9 25.9 7.7 7.2-1.3 21.9-16.3 21.9-16.3 0 0 3.6-0.3 3.9-2.1-1.5-0.1-4.4-0.2-6.2-0.4-2.4-0.3-1.4 3.2-1.4 3.2 0 0-9.7 10.7-17.3 11.3-6.3 0.4-20.7-4.5-25.8-6.3z"/>
			<path id="Layer" class="s2" d="m23.8 33.9c0 0 0.7-1.4-0.2-2.2-1-0.8-1.7-1-1.7-1l0.5 2.5z"/>
			<path id="Layer" class="s0" d="m9.6 49.1c0 0-7.1-7-8.2-10.5-1.1-3.6 1-6.2 1.8-6.6 0.9-0.4 2.4 0 2.4 0 0 0 0.3-2.9 2.3-3.6 2-0.8 3.6 0 3.6 0 0 0 1.6-2.3 3.4-2.2 1.8 0 3.8 0.6 5.3 3.1 1.4 2.6-0.3 3.1-1.2 3.1-0.9-0.1-2.4-1.6-2.4-1.6l-1.6 1.4 2.4 4.3c0 0 1.1 1.4 3.1 0 2-1.3 0.3-4.2 2.1-4.3 1.9 0 2.7 3.3 1.8 6.5-1 3.2-2.4 4.4-2.4 4.4l-1.4 2.8c0 0-9.4 4.8-11 3.2z"/>
			<path id="Layer" class="s1" d="m5.6 32c0 0 3.2 0.7 4.3 2.2 1 1.4 0.7 2.7-0.4 3.2-1.1 0.4-2.7 0-2.7 0 0 0-1.1 0.6-2.2 0.2 0 0 3.2 2.4 3.9 4.4 0.8 2 0.9 3.4 0.5 3.1-0.4-0.3-2.3-4.2-2.3-4.4-0.1-0.1-2.7-2.6-2.7-2.6 0 0-0.7-0.2-1.2-0.6-0.5-0.3 1.4-0.4 1.4-0.4 0 0 1.2 0.3 1.7-0.2 0.6-0.5 1.2-0.3 1.8-0.2 0.6 0 2-0.3 2.1-0.7 0.1-0.5-0.2-1.5-1.4-2.2-1.2-0.7-4.2-1.9-4.2-1.9z"/>
			<path id="Layer" class="s1" d="m11.5 28.4c0 0 2.7 1.3 3.3 3.5 0.7 2.1 1.4 3.8 0 4.2-1.4 0.5-2.8-0.3-3.3-1.2-0.6-0.8-1-1.5-1-1.5l-2-0.3c0 0-0.8-0.4-1.1-0.5-0.2-0.1 3.2-0.3 3.8 0.2 0.7 0.5 1.4 2.8 2.6 2.7 1.3-0.1 1.2-1.2 0.9-2-0.2-0.9-0.7-2.5-1.3-3.1-0.6-0.7-1.9-2-1.9-2z"/>
			<path id="Layer" class="s1" d="m20.7 30.9c0 0-0.6 0.9-1.8 0.3-1.2-0.5-2.7-1.8-2.7-1.8l-0.2 1-1.3 1.2 0.3 0.6 1.6-1.4c0 0 2.1 2.2 3 1.5 1-0.7 1.1-1.4 1.1-1.4z"/>
			<path id="Layer" class="s1" d="m18.7 37.6c0 0-0.6 0.8-1.4 2.5-0.8 1.7-0.3 3.6-0.3 3.6 0 0 2.7-4.3 1.7-6.1z"/>
			<path id="Layer" class="s2" d="m8.7 34.9c0 0 1.5-0.3 2 0.8 0.5 1.1 0.5 1.9 0.5 1.9l-2.3-1.1z"/>
			<path id="Layer" class="s2" d="m14.8 33.4c0 0 1.4 0.7 1.1 1.9-0.2 1.2-0.7 1.8-0.7 1.8l-1.2-2.3z"/>
			<path id="Layer" class="s2" d="m20.1 30.2c0 0 1.4 0.7 1.1 1.9-0.2 1.2-0.7 1.8-0.7 1.8l-1.2-2.3z"/>
			<path id="Layer" class="s0" d="m61.2 196.7c-1.2 1.2-3.9 2.4-7.2 3.6q0 0 0 0c-5.5 1.9-12.4 3.5-15.8 3.8-5.6 0.5-6.5-1-6.5-1 0 0-4.1 0.9-5.7 0.1-1.5-0.7-2-3-2-3 0 0-2.7 1.5-4-1.2-1.3-2.6-2-6.7 4.4-9 6.5-2.4 11.2-3.7 11.2-3.7l19.6-4.9q0 0 0 0l1.1-0.3c0 0 8 12.5 4.9 15.6z"/>
			<path id="Layer" class="s1" d="m61.2 196.7c-1.2 1.2-3.9 2.4-7.2 3.6 1-1.1 2.1-2.6 2.7-4.6 1.8-5.4-1.1-9-2.4-10.8-0.8-1 0.1-2.5 1-3.5q0 0 0 0l1-0.3c0 0 8 12.5 4.9 15.6z"/>
			<path id="Layer" class="s3" d="m59.5 181.2c-0.6 2.5-4.5 2-4.5 2 0 0 2.9 1.7 1.4 2.7-1.6 1-4.9-0.3-4.9-0.3 0 0 1.1 1.8-0.2 2.7-1 0.7-3.1-0.9-3.6-1.3-0.1 0.6-0.6 2.2-1.6 3.1-0.9 1-3.5-1.8-3.5-1.8 0 0-0.4 2.5-2.2 2.3-1.7-0.1-2.2-3.3-2.2-3.3 0 0-3.9 3.7-5.3 2.2-1.3-1.6 2.6-3.3 2-6.4-0.5-3.1-1.9-23.8-1.9-23.8 0 0-2.1 1-3.2-0.4-1-1.3 0.9-3.7 1.1-4-0.1 0.1-0.3 0.3-0.7 0.4-0.5 0.2-1.3 0.3-2-0.6q-0.3-0.3-0.3-0.9c0-2.2 3-7.4 9.7-16.5q0.5-0.7 1.1-1.5c8.6-11.7 10.3-12.6 10.3-12.6l16.6 10.8c0 0-5.3 5.3-9.8 10.5-3.2 3.7-6.1 7.4-6.3 8.9-0.5 3.7 5.8 23.5 5.7 24.2-0.1 0.7 5 1.2 4.3 3.6z"/>
			<path id="Layer" class="s4" d="m37.6 137.3c4.4 2 11.3 4.9 18.2 7.2 4.5-5.2 9.8-10.5 9.8-10.5l-16.6-10.8c0 0-1.7 0.9-10.3 12.6q-0.6 0.8-1.1 1.5z"/>
			<path id="Layer" class="s3" d="m124.8 172.9c-0.6 1.9-5.7 0.2-5.7 0.2 0 0 0.8 3.1-0.7 3.9-1.5 0.9-2.9-1.2-2.9-1.2 0 0-1.2 3.6-2.5 3.1-1.2-0.5-2.3-1.7-2.7-2.2-0.3 0.6-1.5 2.9-2.8 2.7-1.5-0.3-1.2-2.3-1.2-2.3 0 0-2.5 2.5-4.3 2.2-1.9-0.3 0-3.1 0-3.1 0 0-3.2 2.1-4.9 0.1-1.6-1.9 2.9-4.4 2.5-5.1-0.4-0.6-2.8-21.2-4.8-24.3-0.8-1.3-4.9-3.5-9.4-5.5-6.3-2.9-13.2-5.6-13.2-5.6l10.6-16.7c0 0 1.9 0.1 14.6 7.2q0.8 0.5 1.6 1c10.9 6.2 15.8 9.8 15.8 11.7q0 0.1 0 0.3c-0.5 1.7-2.2 1.3-2.4 1.3q0.1 0 0.3 0.1c0.8 0.5 2.6 1.7 2.3 3q0 0.1 0 0.2c-0.5 1.5-2.5 1.5-2.7 1.5 0 0 7.2 19.5 8 22.5 0.8 3 5 3 4.5 5z"/>
			<path id="Layer" class="s4" d="m99 127.3c-3.2 3.6-8.3 9.1-13.6 14.1-6.3-2.9-13.2-5.6-13.2-5.6l10.6-16.7c0 0 1.9 0.1 14.6 7.2q0.8 0.5 1.6 1z"/>
			<path id="Layer" class="s3" d="m53.3 67.4c0 0-7.6 5-8.6 8.3-1 3.4 1.7 4.1 1.7 4.1 0 0-5.3 2.9-6.1 7.3-0.7 4.3 1.3 4.7 1.3 4.7 0 0-10.3 15.2-6 27.3 4.3 12.1 18.5 15 18.5 15 0 0 27.2 6.9 35.6-2.8 8.5-9.6 10.1-20.9 7.9-28.3-2.3-7.3-4.1-10.7-4.1-10.7 0 0 1.8 2.1 3.6 0.3 1.9-1.8-1.8-8.3-1.8-8.3 0 0 2.5-0.7 1.4-5-1-4.3-7.1-9.7-7.1-9.7z"/>
			<path id="Layer" class="s0" d="m93.9 112.2c-1.5 12.8-16.1 17.3-29 14-11.2-1.9-20.6-9.5-19-20.6q0.2-1 0.3-1.9c2.3-11.6 8.7-17.3 8.7-17.3 1.5-10.6 7.7-17 7.7-17l13.1 1.9v0.2l11.5 1.4c0 0 4.3 7.8 3 18.4 0 0 4.8 7.4 3.8 19.5q-0.1 0.7-0.1 1.4z"/>
			<path id="Layer" class="s4" d="m39.5 103.3c0 0-2.2 2.3-1.3 3.3 0.8 1 1.6-1.3 1.3-3.3z"/>
			<path id="Layer" class="s4" d="m44.7 121c0 0-2.2 2.4-1.4 3.4 0.9 1 1.7-1.4 1.4-3.4z"/>
			<path id="Layer" class="s4" d="m46.9 86.3c0 0-2.2 2.3-1.3 3.3 0.8 1.1 1.6-1.3 1.3-3.3z"/>
			<path id="Layer" class="s4" d="m68.9 130.8c0 0-2.2 2.3-1.4 3.3 0.9 1 1.7-1.3 1.4-3.3z"/>
			<path id="Layer" class="s4" d="m48.4 125c0 0-2.2 2.3-1.3 3.3 0.8 1 1.6-1.3 1.3-3.3z"/>
			<path id="Layer" class="s1" d="m93.9 112.2c-1.5 12.8-16.1 17.3-29 14-11.2-1.9-20.6-9.5-19-20.6q0.2-1 0.3-1.9c1.7 5.3 6.2 13.9 18.2 17.2 15.1 4.1 26.4-6.6 29.6-10.1q-0.1 0.7-0.1 1.4z"/>
			<path id="Layer" class="s0" d="m74.7 13.3c0 0-2.2-12.1-6.2-12.4-4.1-0.2-2.6 14.4-2.6 14.4z"/>
			<path id="Layer" class="s0" d="m103.9 22.2c0 0 6.4-10.6 3.5-13.4-2.9-2.9-11.3 9.1-11.3 9.1z"/>
			<path id="Layer" class="s3" d="m109.2 53c1.9 1.5 4.8 6.3 3.9 7.6-0.9 1.3-3.5-0.2-3.7-0.3 0.2 0.3 3.6 6 1.5 7.7-2.1 1.7-5.3-1.9-5.5-2.2q0 0 0 0c0.2 0.7 2.9 10-0.9 11.1-3.9 1.2-5-3.1-5-3.1 0 0 0.8 7.6-2 8.8-2.7 1.2-4.6-3.5-4.6-3.5 0 0 1 6-1.8 7-2.9 0.9-5.5-4.2-5.5-4.2 0 0 1.2 5.5-1.7 5.5-2.9 0-5.4-5-5.4-5 0 0 0.9 5.7-2.1 5.7-2.9 0-6.3-8-6.3-8 0 0 0.4 4.4-2.8 4.4-3.3 0-5.3-8.8-5.3-8.8 0 0-0.7 6.2-4.4 4.2-3.8-2-4.5-11.9-4.5-11.9 0 0-0.9 4.1-4.6 2.6-3.6-1.5-1.5-15.8-1.5-15.8 0 0-3.5 3.5-4.1-0.5-0.7-4 7.1-14.7 7.1-14.7 0 0-6.6 3.6-4.6-2 2-5.7 11.5-10.9 11.5-10.9 0 0-6.5 0.8-3.1-3.8 3.3-4.6 11.7-5.9 11.7-5.9 0 0-5-1.5-3-3.5q0.3-0.3 0.8-0.6c3.8-2.2 10.7-1 11.2-0.9-0.3-0.2-3.7-2.2 0-3.3 3.9-1 8.6 2.2 8.6 2.2 1-2.4 5.8-4 9.1-3 3.1 1.1 1.2 3.9 1.1 4.1 2.4-1.2 8.2-1.4 9.3 0.8 1 2.1-3.5 3.2-3.5 3.2 0 0 9.3 0.4 9.3 3.9 0 3.5-3.9 2.9-3.9 2.9 5 1.7 8.4 6.6 6.3 7.2-2.1 0.6-3.4-0.5-3.5-0.6 0.3 0.3 6.5 6.7 5.4 8.5-1.2 1.7-3.8 0.5-4.1 0.4 2.7 2 5.9 6.7 4.5 8-1.4 1.3-4-0.7-4.2-0.9 0.4 0.3 6.8 7.2 5.4 8.6-1.4 1.4-4.8-0.8-5.1-1z"/>
			<path id="Layer" class="s0" d="m65.8 49.9q0 0 0 0.1c0.6 10.5 18.4 15.6 28.7 12.9 2.1-0.6 3.7-1.5 4.8-2.7 4.7-4.7 2.9-13.5 0.4-19-1.7-3.6-1.4-7.7-0.8-10.9 1.7-8.3-5.7-15.7-13.9-13.7-2.2 0.6-4 1.7-4.9 3.5-3.3 6.5-14.8 19.1-14.3 29.8z"/>
			<path id="Layer" class="s2" d="m92.4 38.8c0 0-0.9 2.4-2.4 2.1-1.6-0.3-1.4-3.3-1.4-3.3 0 0 1.8-0.8 3.8 1.2z"/>
			<path id="Layer" class="s1" d="m98 32.5c-0.5-1-2.4 0.9-4.1 1.1-1.3 0.1-6.9-0.7-9.9-6.7-3-6-4.1 1.8 0 4.7 4.1 2.9 7.5 4.8 10.5 3.9 2.9-0.9 3.7-2.6 3.5-3z"/>
			<path id="Layer" class="s2" d="m87.3 47.7c3.8 1.3 4.7 5.4 5.7 5.4 0.9 0.1 1.6-0.9 1.7-1.7 0 0 1.9-5.7-2.7-8-0.9-0.4-2-0.7-3.2-0.8q0 0-0.1 0c-1.6-0.2-3.4-0.2-5.1 0.1-3.7 0.5-7.2 1.7-8.6 2.9-2.6 2.4 8.6 0.8 12.3 2.1z"/>
			<path id="Layer" class="s2" d="m97.4 32.2c0.1-0.1-3.5 1.4-3.5 1.4 0 0-1.2 2.5 0.2 2.7 1.5 0.3 3-2.4 3.3-4.1z"/>
			<path id="Layer" class="s2" d="m87.7 31.4l-3.3-3.8c0 0-1.5 3.5 0.3 5 1.7 1.5 3-1.2 3-1.2z"/>
			<path id="Layer" class="s1" d="m65.8 50c0.6 10.6 18.4 15.6 28.7 12.9 2.1-0.6 3.7-1.5 4.8-2.7 0-1.3-3.8-0.6-4.8-0.4 0 0-4.8 1.6-17.1-2.6-6.4-2.1-9.8-5-11.6-7.2z"/>
			<path id="Layer" class="s1" d="m88.6 53.5c0 0-0.4-1.2-3.3-2.5-2.9-1.2-6.3-0.8-6.9 0-0.6 0.9 4.1 0.7 6.5 1.9 2.3 1.2 2.9 2.1 3.3 2.1 0.5-0.1 0.8-0.8 0.4-1.5z"/>
			<path id="Layer" class="s1" d="m83 35.7c0 0-3.3-1-5.5 0-2.2 0.9 5 1.6 5.5 0z"/>
			<path id="Layer" class="s1" d="m95.4 39.7c0 0 3.5 3 2 3.5-1.4 0.6-2-3.5-2-3.5z"/>
			<path id="Layer" class="s5" d="m83.6 42.7c0 0.6 0.2 2.2 0.8 2.2 0.7 0 1.5-1.7 1.5-1.7 0 0 0.5 0.9 1 0.9 0.5 0 1.3-0.8 1.3-0.8 0 0 0.1 0.9 0.9 1 0.8 0 1.4-0.6 1.4-0.6 0 0-0.1 1.2 0.6 1.2 0.6 0 1.2-0.5 1.2-0.5 0 0-0.5 2.7 0.4 2.6 0.9 0 1.5-1.3 1.5-1.3 0 0-0.8-1.7-3.4-2.7-0.6-0.2-1.3-0.3-2-0.4q0 0-0.1 0c-1.6-0.2-3.4-0.2-5.1 0.1z"/>
			<path id="Layer" class="s5" d="m92.3 52.3c0 0 1.2-2.3 0.8-3-0.3-0.8-2.2 1.4-2.2 1.4z"/>
			<path id="Layer" class="s5" d="m81.7 47.1c0 0 0.2-3.1-0.6-3-0.8 0.1-1.5 2.9-1.5 2.9z"/>
			<path id="Layer" fill-rule="evenodd" class="s6" d="m93 53.4c-0.5 0-0.9-0.6-1.4-1.4-0.8-1.3-2.1-3.2-4.4-4-1.5-0.6-4.4-0.6-7-0.6-3.5-0.1-5.5-0.1-5.8-0.9-0.2-0.5 0.3-0.9 0.4-1.1 2.7-2.4 12.7-4.5 17.3-2.2 4.6 2.3 3 8 2.9 8.3-0.2 0.8-0.8 1.9-1.9 1.9q-0.1 0-0.1 0zm-17.8-7.5c-0.3 0.2-0.3 0.3-0.3 0.4 0.2 0.5 3.2 0.5 5.3 0.5 2.6 0 5.6 0.1 7.2 0.6 2.5 0.9 3.8 2.9 4.7 4.3 0.3 0.5 0.7 1.2 0.9 1.2 0.8 0 1.3-0.9 1.5-1.5q0 0 0 0c0-0.1 1.7-5.6-2.6-7.7-1.3-0.7-3.1-1-5.1-1-4.5 0-9.8 1.5-11.6 3.2z"/>
			<path id="Layer" class="s7" d="m84.7 30.6c-0.2 0-0.4-0.3-0.4-0.7 0-0.4 0.2-0.8 0.4-0.8 0.2 0 0.4 0.4 0.4 0.8 0 0.4-0.2 0.7-0.4 0.7z"/>
			<path id="Layer" class="s7" d="m95.7 33.5c-0.2 0.3-0.2 0.7 0 0.9 0.2 0.1 0.6-0.1 0.8-0.5 0.2-0.3 0.2-0.7 0-0.8-0.2-0.2-0.6 0-0.8 0.4z"/>
			<path id="Layer" class="s3" d="m103 27.1c-0.5 1.9-4.9-5.2-4.9-5.2 0 0 0.9 3.8-1 4.6-1.8 0.8-2-4.9-2-4.9 0 0-3.5 4.1-5.8 3.3-2.1-0.7 0.1-5 0.3-5.4-0.2 0.2-2.9 3-4.9 2.3-2-0.7-0.2-3.9 0-4.2-0.2 0.1-2.9 2.1-4.6 0.6-1-0.9-0.7-2.2 1.3-3.1 1.3-0.6 3.2-1 5.8-1.1 6.8-0.2 11.3 3.6 12.6 4.8 0 0 1.2 2.1 2.2 4.2 0.7 1.7 1.2 3.3 1 4.1z"/>
			<path id="Layer" class="s3" d="m49.1 76.7c-0.1 1.8-0.3 3.1-0.3 3.1 0 0-20.6 0.8-26.7-3.3-6.2-4.1-13.7-23.6-13.7-23.6 0 0-3.2-1.7-2.7-3.5q0.1-0.3 0.3-0.7c1.5-1.9 4.9-0.1 5.1 0.1-0.2-0.3-2.4-3.2-0.5-4 2.1-0.9 4.5 1.9 4.5 1.9 0 0 0.3-4.3 2.4-4.7 2-0.4 2.9 2.7 2.9 2.7 0 0 1.7-3.9 3.2-3.2 1.6 0.7 0.1 5.7 0.1 5.7l9 21 15.6-1.1c1.2 1.7 1.1 6.4 0.8 9.6z"/>
			<path id="Layer" class="s4" d="m104.5 76.9c-3.9 1.2-5-3.1-5-3.1 0 0 0.8 7.6-2 8.8-2.7 1.2-4.6-3.5-4.6-3.5 0 0 1 6-1.8 7-2.9 0.9-5.5-4.2-5.5-4.2 0 0 1.2 5.5-1.7 5.5-2.9 0-5.4-5-5.4-5 0 0 0.9 5.7-2.1 5.7-2.9 0-6.3-8-6.3-8 0 0 0.4 4.4-2.8 4.4-3.3 0-5.3-8.8-5.3-8.8 0 0-0.7 6.2-4.4 4.2-3.8-2-4.5-11.9-4.5-11.9 0 0-0.9 4.1-4.6 2.6-3.6-1.5-1.5-15.8-1.5-15.8 0 0-3.5 3.5-4.1-0.5-0.7-4 7.1-14.7 7.1-14.7 0 0-6.6 3.6-4.6-2 2-5.7 11.5-10.9 11.5-10.9 0 0-6.5 0.8-3.1-3.8 3.3-4.6 11.7-5.9 11.7-5.9 0 0-5-1.5-3-3.5l0.8-0.6c0 0 0.7 1.8 4.1 2.4 3.4 0.5 3.4 0.5 3.4 0.5 0 0-13.5 6-14.2 8.4-0.7 2.5 7.1 1.7 7.1 1.7 0 0-12.6 6.9-13 9.4-0.4 2.4 4.7 0.6 4.7 0.6 0 0-7.7 10.7-6.8 14 0.8 3.2 3.8 0.2 4 0.1-0.2 0.4-3.4 8.6-2.3 12.5 1.2 4 4.4-0.7 4.4-0.7 0 0 0.6 10.3 3.5 12.1 2.8 1.7 4.5-4.2 4.5-4.2 0 0 2.3 10 4.6 10 2.2 0 3.5-3.1 3.5-3.1 0 0 3.1 7.1 5.5 7.2 2.3 0.1 2.4-5 2.4-5 0 0 3.7 5.8 4.9 5 1.2-0.8 1-5.6 1-5.6 0 0 3.4 4.1 5.5 3.6 2.2-0.5 1.5-6.5 1.5-6.5 0 0 3.1 3.8 5.1 3.2 2.1-0.6 2.3-7.7 2.3-7.7 0 0 1.3 3.4 4 2.8 2.8-0.6 2.4-7.9 2.4-7.9q0 0 0 0.1 0 0 0 0c0.2 0.7 2.9 10-0.9 11.1z"/>
			<path id="Layer" class="s4" d="m103 27.1c-0.5 1.9-4.9-5.2-4.9-5.2 0 0 0.9 3.8-1 4.6-1.8 0.8-2-4.9-2-4.9 0 0-3.5 4.1-5.8 3.3-2.1-0.7 0.1-5 0.3-5.4-0.2 0.2-2.9 3-4.9 2.3-2-0.7-0.2-3.9 0-4.2-0.2 0.1-2.9 2.1-4.6 0.6-1-0.9-0.7-2.2 1.3-3.1-0.2 0.3-0.3 0.6-0.2 0.9 0.1 1.4 5.3 0 5.3 0 0 0-1.4 2.6-0.6 3.5 0.7 1 5.1-2 5.1-2 0 0-1.1 5 0 5.4 1.1 0.4 4.7-3.6 4.7-3.6 0 0 0.2 5.5 1 4.8 0.9-0.7 0.8-4.1 0.8-4.1 0 0 2.6 4.6 3.8 4.4 0.4-0.1 0.6-0.7 0.7-1.4 0.7 1.7 1.2 3.3 1 4.1z"/>
			<path id="Layer" class="s1" d="m61.6 88.9c0 0 4.4-0.6 11.2 0.4 6.7 1 10.9 2.4 11.4 3 0.6 0.5-29.9-0.8-22.6-3.4z"/>
			<path id="Layer" class="s4" d="m29.8 158.9c0 0 3.8-0.9 5.5-2.4 1.8-1.5-0.4 2.5-2.3 2.8-1.9 0.4-2.4 0.3-3.2-0.4z"/>
			<path id="Layer" class="s4" d="m37.2 165.2c0 0-0.7 4.9 0.8 4.7 1.5-0.2-0.8-4.7-0.8-4.7z"/>
			<path id="Layer" class="s4" d="m45.4 163.7c0 0-0.7 4.8 0.8 4.7 1.5-0.2-0.8-4.7-0.8-4.7z"/>
			<path id="Layer" class="s4" d="m41.4 158.9c0 0-0.7 4.9 0.8 4.8 1.5-0.2-0.8-4.8-0.8-4.8z"/>
			<path id="Layer" class="s4" d="m16.3 57.4c0 0 0 4.9 1.5 4.6 1.5-0.4-1.5-4.6-1.5-4.6z"/>
			<path id="Layer" class="s4" d="m24.3 54.7c0 0 0 5 1.4 4.6 1.5-0.4-1.4-4.6-1.4-4.6z"/>
			<path id="Layer" class="s4" d="m19.6 50.6c0 0 0 5 1.4 4.6 1.5-0.4-1.4-4.6-1.4-4.6z"/>
			<path id="Layer" class="s4" d="m23.1 69.4c0 0 0 4.9 1.5 4.5 1.4-0.3-1.5-4.5-1.5-4.5z"/>
			<path id="Layer" class="s4" d="m30.4 65.8c0 0 0 4.9 1.5 4.6 1.4-0.4-1.5-4.6-1.5-4.6z"/>
			<path id="Layer" class="s4" d="m35.1 69.9c0 0 4.2 2.7 4.7 1.2 0.4-1.4-4.7-1.2-4.7-1.2z"/>
			<path id="Layer" class="s4" d="m37.5 74.4c0 0 4.1 2.7 4.6 1.2 0.4-1.4-4.6-1.2-4.6-1.2z"/>
			<path id="Layer" class="s4" d="m42.8 72.3c0 0 4.2 2.7 4.6 1.2 0.5-1.4-4.6-1.2-4.6-1.2z"/>
			<path id="Layer" class="s4" d="m25.2 63.5c0 0 0 5 1.5 4.6 1.4-0.4-1.5-4.6-1.5-4.6z"/>
			<path id="Layer" class="s4" d="m38.4 142.2c0 0-3.2 3.8-1.8 4.4 1.4 0.6 1.8-4.4 1.8-4.4z"/>
			<path id="Layer" class="s4" d="m46.2 145.1c0 0-3.2 3.8-1.8 4.5 1.4 0.6 1.8-4.5 1.8-4.5z"/>
			<path id="Layer" class="s4" d="m45.2 139c0 0-3.2 3.8-1.8 4.4 1.4 0.7 1.8-4.4 1.8-4.4z"/>
			<path id="Layer" class="s4" d="m60.9 60.6c0 0-1.8 4.6-0.3 4.8 1.6 0.2 0.3-4.8 0.3-4.8z"/>
			<path id="Layer" class="s4" d="m68.6 67.3c0 0-1.8 4.6-0.3 4.7 1.5 0.2 0.3-4.7 0.3-4.7z"/>
			<path id="Layer" class="s4" d="m78.7 72.8c0 0-1.8 4.6-0.3 4.7 1.5 0.2 0.3-4.7 0.3-4.7z"/>
			<path id="Layer" class="s4" d="m87.3 71.6c0 0-1.8 4.6-0.3 4.8 1.5 0.2 0.3-4.8 0.3-4.8z"/>
			<path id="Layer" class="s4" d="m106.8 58c0 0-1.8 4.6-0.3 4.7 1.5 0.2 0.3-4.7 0.3-4.7z"/>
			<path id="Layer" class="s4" d="m106.1 39.2c0 0-1.8 4.6-0.3 4.8 1.5 0.1 0.3-4.8 0.3-4.8z"/>
			<path id="Layer" class="s4" d="m59.9 43.4c0 0-3.1 3.8-1.7 4.4 1.3 0.6 1.7-4.4 1.7-4.4z"/>
			<path id="Layer" class="s4" d="m58.9 37.2c0 0-3.1 3.8-1.7 4.5 1.3 0.6 1.7-4.5 1.7-4.5z"/>
			<path id="Layer" class="s4" d="m65.6 32.3c0 0-3.1 3.8-1.7 4.4 1.3 0.6 1.7-4.4 1.7-4.4z"/>
			<path id="Layer" class="s4" d="m61 29.1c0 0-3.2 3.8-1.8 4.5 1.4 0.6 1.8-4.5 1.8-4.5z"/>
			<path id="Layer" class="s4" d="m70.2 21.3c0 0-3.2 3.8-1.8 4.4 1.4 0.6 1.8-4.4 1.8-4.4z"/>
			<path id="Layer" class="s4" d="m57.2 53c0 0-3.2 3.8-1.8 4.4 1.4 0.6 1.8-4.4 1.8-4.4z"/>
			<path id="Layer" class="s4" d="m42.8 172.3c0 0-0.7 4.9 0.8 4.7 1.6-0.2-0.8-4.7-0.8-4.7z"/>
			<path id="Layer" class="s4" d="m38.7 177.8c0 0-0.7 4.9 0.8 4.7 1.5-0.2-0.8-4.7-0.8-4.7z"/>
			<path id="Layer" class="s4" d="m50 176.4c0 0-0.8 4.9 0.8 4.7 1.5-0.1-0.8-4.7-0.8-4.7z"/>
			<path id="Layer" class="s4" d="m109.4 150.1c0 0 3.1 3.8 1.7 4.5-1.3 0.6-1.7-4.5-1.7-4.5z"/>
			<path id="Layer" class="s4" d="m101.6 153.1c0 0 3.1 3.8 1.7 4.4-1.4 0.7-1.7-4.4-1.7-4.4z"/>
			<path id="Layer" class="s4" d="m102.6 146.9c0 0 3.1 3.8 1.7 4.5-1.3 0.6-1.7-4.5-1.7-4.5z"/>
			<path id="Layer" class="s4" d="m96.4 131c0 0 4.7 1.6 3.9 2.9-0.9 1.3-3.9-2.9-3.9-2.9z"/>
			<path id="Layer" class="s4" d="m91.3 137.6c0 0 4.7 1.6 3.8 2.9-0.8 1.3-3.8-2.9-3.8-2.9z"/>
			<path id="Layer" class="s4" d="m89 131.9c0 0 4.6 1.6 3.8 2.8-0.8 1.3-3.8-2.8-3.8-2.8z"/>
			<path id="Layer" class="s4" d="m108.2 159.1c0 0 3.2 3.8 1.8 4.4-1.4 0.7-1.8-4.4-1.8-4.4z"/>
			<path id="Layer" class="s4" d="m114.7 161.6c0 0 3.1 3.9 1.7 4.5-1.4 0.6-1.7-4.5-1.7-4.5z"/>
			<path id="Layer" class="s4" d="m104.3 166.3c0 0 3.2 3.9 1.8 4.5-1.4 0.6-1.8-4.5-1.8-4.5z"/>
			<path id="Layer" class="s4" d="m110.9 139.2c2.3 0 3.4-0.1 3.9-0.2q0 0.1 0 0.3c-0.5 1.7-2.2 1.3-2.4 1.3q0.1 0 0.3 0.1c-2.7-0.1-6.7-1.5-7.2-1.7 0.2 0 1.3 0.3 5.4 0.2z"/>
			<path id="Layer" class="s4" d="m115 143.9c-0.5 1.5-2.5 1.5-2.7 1.5-2.8-0.6-5.1-3.1-5.3-3.2 0.1 0.1 1.2 0.8 4.1 1.5 1.9 0.4 3.2 0.3 3.9 0.2z"/>
			<path id="Layer" class="s4" d="m35.2 149.9c-0.1 0.2-1.7 3.5-4.3 5q-0.4 0.2-0.7 0.4c-0.5 0.2-1.3 0.3-2-0.6q-0.3-0.3-0.3-0.9c1 0 2.8-0.3 4.6-1.7 2.3-1.8 2.6-2.1 2.7-2.2z"/>
			<path id="Layer" class="s4" d="m49.1 76.7c-0.1 1.8-0.3 3.1-0.3 3.1 0 0-20.6 0.8-26.7-3.3-6.2-4.1-13.7-23.6-13.7-23.6 0 0-3.2-1.7-2.7-3.5 1.4 0.5 4.1 1.6 5.8 2.1 2.4 0.7 0 3.5 0 3.5 0 0 4.7 13.6 11.5 17.2 5.5 2.9 20.8 4.1 26.1 4.5z"/>
			<path id="Layer" class="s4" d="m75.2 129c0 0-2.2 2.3-1.3 3.3 0.8 1.1 1.6-1.3 1.3-3.3z"/>
			<path id="Layer" class="s4" d="m94.7 119.2c0 0-2.1 2.4-1.3 3.4 0.8 1 1.7-1.3 1.3-3.4z"/>
			<path id="Layer" class="s1" d="m31.8 202.8c0 0-0.2-4.3 1.9-6.3 2-2.1 9.2-3.8 9.2-3.8 0 0-4.2-1.2-8.8 1.3-4.7 2.4-3.7 9.3-3.7 9.3 0 0 1.1-0.2 1.4-0.5z"/>
			<path id="Layer" class="s1" d="m23.9 199.9c0 0-0.4-3.7 1.7-6 2.1-2.2 5-2.9 5-2.9 0 0-3.2-0.6-5.7 1.4-2.5 2-1.7 8.1-1.7 8.1 0 0 0.7-0.3 0.7-0.6z"/>
			<path id="Layer" class="s2" d="m35.6 198.6l-0.6 2.6c0 0-2.2 0.3-2.8 0-0.5-0.3 0.5-3 3.4-2.6z"/>
			<path id="Layer" class="s2" d="m26.9 197.5l-0.6 2.6c0 0-2.2 0.3-2.8 0-0.6-0.4 0.5-3 3.4-2.6z"/>
			<path id="Layer" class="s2" d="m21 194.4l-0.5 2.5c0 0-2.2 0.3-2.8 0-0.6-0.3 0.5-2.9 3.3-2.5z"/>
		</g>
	</g>
</svg>