<svg version="1.2" xmlns="http://www.w3.org/2000/svg" viewBox="0 0 345 345" width="345" height="345">
	<title>money-svg</title>
	<style>
		.s0 { fill: #fdbe31 } 
		.s1 { fill: #000000 } 
		.s2 { opacity: .3;fill: #fdbe31 } 
		.s3 { opacity: .3;fill: #ffffff } 
		.s4 { fill: #92298d } 
		.s5 { opacity: .7;fill: #92298d } 
		.s6 { opacity: .3;fill: #92298d } 
	</style>
	<g id="Objects">
		<g id="Layer">
			<g id="Layer">
				<path id="Layer" fill-rule="evenodd" class="s0" d="m206.6 145.4c0 7.8-6.3 14.1-14 14.1-7.7-0.1-14-6.4-13.9-14.3 0-7.8 6.3-14.1 14.1-14.1 7.6 0.1 13.9 6.5 13.8 14.3zm-8.3-10.3q0 0 0 0c0-0.1 0-0.2 0-0.3q-0.3-0.4-0.6-0.9c-0.2 0.3-0.5 0.6-0.5 0.9-0.2 0.5-0.3 1.2-0.4 1.8 0 0.2 0.2 0.5 0.3 0.8 0.3-0.2 0.7-0.3 0.8-0.5 0.2-0.6 0.3-1.2 0.4-1.8zm1.6 3.9c0.3-0.6 0.4-1.4 0.7-2.1q-0.3-0.5-0.6-1c-0.2 0.3-0.5 0.6-0.6 1q-0.3 0.9-0.4 1.8c-0.1 0.3 0.1 0.6 0.2 0.8 0.2-0.1 0.6-0.3 0.7-0.5zm1.4 2.2c0.4-0.7 0.7-1.4 1.1-2.2-0.2-0.3-0.3-0.5-0.5-0.6-0.1-0.1-0.4 0.1-0.5 0.2q-0.5 1.1-0.9 2.2c0 0.2 0.1 0.4 0.1 0.6 0.3 0 0.6-0.1 0.7-0.2zm0.3 3q0.2 0 0.5 0.1c0.4-0.5 0.9-1 1.2-1.6 0.2-0.5 0.3-1.1 0.5-1.7-0.3 0.1-0.7-0.1-0.9 0.1q-0.8 1.1-1.4 2.2c-0.1 0.2 0.1 0.6 0.1 0.9zm2.5 1.5c0-0.1-0.1-0.3-0.2-0.5 0-0.1-0.4-0.1-0.4 0q-1 1.4-1.9 2.7 0.2 0.2 0.3 0.3c1.1-0.5 1.7-1.4 2.2-2.5z"/>
				<path id="Layer" fill-rule="evenodd" class="s0" d="m224.4 173.9c0 7.8-6.3 14.2-14 14.2-7.7-0.1-13.9-6.4-13.9-14.2 0-7.9 6.3-14.2 14-14.2 7.7 0 14 6.4 13.9 14.2zm-2-2.4c-0.2-0.1-0.5-0.1-0.6 0.1-0.5 0.6-1.1 1.3-1.6 2.1-0.2 0.4 0.2 0.9 0.6 0.6 0.8-0.6 1.4-1.4 2.1-2.1-0.3-0.4-0.4-0.6-0.5-0.7zm-2.6 0.4c0.1 0.1 0.5 0.1 0.5 0 0.7-0.8 1.2-1.5 1.8-2.3-0.2-0.3-0.3-0.6-0.4-0.6-0.2-0.1-0.5 0-0.6 0.1-0.5 0.7-0.9 1.5-1.3 2.3-0.1 0.1-0.1 0.4 0 0.5zm-0.3 10c-0.1-0.1-0.4-0.3-0.5-0.3-0.7 0.2-1.5 0.3-2 1.2 0.9 0.4 1.7 0.2 2.3-0.3 0.2-0.1 0.3-0.4 0.2-0.6zm2.7-3.3c-0.4-0.2-0.7-0.4-0.9-0.4-0.6 0.3-1.1 0.7-1.6 1-0.2 0.1 0 0.5 0 0.8 0.4-0.1 0.9-0.1 1.3-0.3 0.4-0.3 0.7-0.6 1.2-1.1zm0.7-2.9c0.2-0.1 0.2-0.3 0.3-0.6-0.2-0.1-0.5-0.2-0.7-0.2q-1.1 0.7-2.2 1.5c-0.1 0.1-0.1 0.5-0.2 0.7 0.3 0 0.6 0.2 0.8 0.1 0.7-0.4 1.3-0.9 2-1.5z"/>
				<path id="Layer" fill-rule="evenodd" class="s0" d="m156.5 173.9c0 7.8-6.3 14.2-14 14.2-7.7-0.1-13.9-6.5-13.9-14.2 0-7.9 6.3-14.2 14.1-14.2 7.6 0 13.9 6.4 13.8 14.2zm-24.1-6.5c-0.2 0.2 0.1 0.6 0.1 0.8 0.3-0.1 0.7-0.1 0.8-0.4 0.6-0.7 1.2-1.5 1.8-2.3 0.1-0.1 0.1-0.3 0.3-0.8-0.4 0-0.9-0.1-1 0q-1.1 1.3-2 2.7zm4.1 14.6c-0.3-0.3-0.7-0.7-1-0.9-1.4-0.9-2.4-2.1-2.8-3.7-0.4-1.5-0.4-3.1-0.6-4.6-0.1-0.5-0.3-0.9-0.5-1.4-0.2 0.5-0.5 0.9-0.6 1.4-0.3 3.7 0.8 6.9 4 9.1 0.4 0.3 0.9 0.3 1.3 0.5q0.1-0.2 0.2-0.4z"/>
				<path id="Layer" fill-rule="evenodd" class="s0" d="m171.8 204.1c0 7.8-6.3 14.1-14.1 14.1-7.6 0-13.9-6.4-13.9-14.2 0-7.8 6.4-14.2 14.1-14.2 7.7 0.1 13.9 6.4 13.9 14.3zm-25.9-1q1.3-1.7 2.5-3.3c0 0-0.3-0.5-0.5-0.5-1.1 0.3-2.4 2.5-2 3.8zm2.6 4c-1.2 0.2-1.7 1.9-0.8 3.1 0.6-1 0.8-2 0.8-3.1zm0.5-4.5q-0.1-0.1-0.2-0.2c-0.3 0.2-0.7 0.3-0.8 0.5-0.6 1.1-1.2 2.2-1.7 3.3-0.1 0.2 0.1 0.6 0.2 0.8 0.2-0.1 0.5-0.2 0.7-0.5q0.8-1.5 1.6-3.1c0.1-0.2 0.1-0.5 0.2-0.8z"/>
				<path id="Layer" fill-rule="evenodd" class="s0" d="m206.6 204.1c0 7.8-6.3 14.1-14 14.1-7.7 0-14-6.4-13.9-14.2 0-7.9 6.3-14.2 14.1-14.2 7.6 0.1 13.9 6.5 13.8 14.3zm-7.8 9.5q-2.4 1-4.8 1.9 0 0.2 0.1 0.4c1.4 0.4 2.6-0.2 3.8-0.9 0.5-0.2 1.1-0.5 0.9-1.4zm4.6-3.4c-0.3-0.4-0.3-0.6-0.5-0.7-0.1-0.1-0.5 0-0.6 0.2q-0.7 1-1.2 2c-0.1 0.2-0.1 0.5 0 0.6 0.1 0.1 0.5 0.1 0.6 0 0.6-0.7 1.1-1.4 1.7-2.1z"/>
				<path id="Layer" fill-rule="evenodd" class="s0" d="m171.8 145.4c0 7.8-6.3 14.1-14.1 14.1-7.6-0.1-13.9-6.4-13.9-14.3 0.1-7.8 6.4-14.1 14.1-14.1 7.7 0.1 14 6.5 13.9 14.3zm-22.5-8c-1.6 0.2-3.8 3.9-3.2 5.4 1.1-1.8 2.1-3.5 3.2-5.4zm4.8-4.2c-0.4-0.1-0.7-0.3-0.9-0.2-0.7 0.4-1.5 0.8-2.2 1.3-0.2 0.1-0.1 0.5-0.2 0.7 0.3 0 0.6 0.1 0.8 0 0.6-0.3 1.3-0.8 1.9-1.2 0.2-0.1 0.3-0.3 0.6-0.6z"/>
				<path id="Layer" class="s0" d="m182.6 116.5c0 3.6-3 6.6-6.7 6.6-3.6 0-6.6-3-6.6-6.7 0-3.6 3-6.6 6.7-6.6 3.6 0 6.6 3 6.6 6.7z"/>
				<path id="Layer" fill-rule="evenodd" class="s0" d="m132.7 201.7c0 3.7-3 6.7-6.6 6.7-3.7 0-6.7-2.9-6.7-6.6 0-3.7 2.9-6.7 6.6-6.7 3.6 0 6.7 3 6.7 6.6zm-11.1 0.1c0.2-0.7 0.3-1.3 0.4-2 0.1-0.3 0-0.6-0.1-0.8-0.2 0.1-0.6 0.2-0.7 0.4-0.3 0.7-0.5 1.4-0.6 1.8 0 0.4 0 0.5 0 0.6q0.3 0.4 0.6 0.8c0.1-0.3 0.3-0.5 0.4-0.8zm2.3 4.3q-0.9-1-1.7-2c-0.1-0.1-0.4-0.1-0.4 0-0.2 0.1-0.3 0.3-0.3 0.5 0 0.9 1.4 1.9 2.4 1.5z"/>
				<path id="Layer" class="s0" d="m231.7 201.8c0 3.6-3 6.6-6.6 6.6-3.7 0-6.7-3-6.7-6.6 0-3.7 3-6.7 6.6-6.7 3.7 0 6.7 3 6.7 6.7z"/>
				<path id="Layer" class="s0" d="m182.4 232.1c0 3.7-3 6.6-6.7 6.6-3.6 0.1-6.6-2.9-6.6-6.6 0-3.7 3-6.7 6.6-6.7 3.7 0 6.7 3 6.7 6.7z"/>
				<path id="Layer" class="s0" d="m132.7 145.6c0 3.7-3 6.6-6.7 6.7-3.6 0-6.6-3-6.6-6.7 0-3.7 3-6.7 6.6-6.6 3.7 0 6.7 3 6.7 6.6z"/>
				<path id="Layer" fill-rule="evenodd" class="s0" d="m231.7 145.6c0 3.7-3 6.6-6.7 6.6-3.6 0-6.6-3-6.6-6.6 0-3.7 3-6.7 6.7-6.7 3.6 0.1 6.6 3.1 6.6 6.7zm-1.4-1.4c-0.1-0.3-0.3-0.5-0.5-0.7q-0.1 0-0.2 0c0.1 3.4-1.3 5.8-4.7 6.9q0.1 0.1 0.2 0.2c0.2 0 0.5 0.1 0.7 0.1 2.7-0.2 5.3-4 4.5-6.5z"/>
				<path id="Layer" class="s0" d="m138.9 244.2c-2.9 0-5.4-2.4-5.4-5.3 0-3 2.4-5.4 5.4-5.4 3-0.1 5.5 2.4 5.5 5.4 0 2.9-2.4 5.3-5.5 5.3z"/>
				<path id="Layer" fill-rule="evenodd" class="s0" d="m144.4 110.4c0 3-2.5 5.5-5.5 5.5-3-0.1-5.4-2.5-5.4-5.5 0-2.9 2.4-5.3 5.4-5.3 3 0 5.5 2.4 5.5 5.3zm-3.3-3.3c0.1-0.1 0-0.4-0.1-0.5-0.1 0-0.4-0.1-0.5 0-0.6 0.8-1.4 1.5-1.6 2.8 0.9-0.2 2.2-1.6 2.2-2.3zm-0.8 3.4c0 0 0.4 0.3 0.4 0.3 0.4-0.5 0.8-0.9 1.1-1.4 0.1-0.1 0.1-0.4 0.1-0.5 0-0.2-0.2-0.3-0.3-0.3-0.1 0-0.3 0-0.3 0.1q-0.5 0.9-1 1.8zm2.3 0.5c0-0.1-0.5-0.3-0.5-0.3-0.6 0.6-1 1.2-1.6 1.9 1 0.1 2.2-0.9 2.1-1.6z"/>
				<path id="Layer" class="s0" d="m212.9 115.9c-3 0-5.5-2.5-5.5-5.4 0-3 2.5-5.4 5.5-5.4 3 0 5.5 2.4 5.5 5.4 0 3-2.5 5.4-5.5 5.4z"/>
				<path id="Layer" class="s0" d="m101.6 168.9c3 0 5.4 2.4 5.4 5.3 0.1 3-2.4 5.5-5.5 5.4-3 0-5.4-2.4-5.4-5.4 0-2.9 2.5-5.3 5.5-5.3z"/>
				<path id="Layer" class="s0" d="m212.9 244.2c-3 0-5.4-2.4-5.5-5.3 0-3 2.4-5.4 5.4-5.4 3.1-0.1 5.6 2.4 5.6 5.3 0 3-2.5 5.4-5.5 5.4z"/>
				<path id="Layer" class="s0" d="m249.5 179.6c-3 0.1-5.5-2.4-5.5-5.3 0-3 2.5-5.4 5.5-5.4 3 0 5.5 2.4 5.5 5.4 0 2.9-2.5 5.3-5.5 5.3z"/>
				<path id="Layer" class="s0" d="m101 128.7c0 2.1-1.8 3.8-3.9 3.8-2.2 0-4-1.7-3.9-3.9 0-2.1 1.8-3.8 3.9-3.7 2.1 0 3.9 1.7 3.9 3.8z"/>
				<path id="Layer" class="s0" d="m254.8 124.9c2.2 0 3.9 1.7 3.9 3.8 0 2.1-1.8 3.8-4 3.8-2.1-0.1-3.9-1.8-3.8-3.9 0-2.1 1.8-3.8 3.9-3.7z"/>
				<path id="Layer" class="s0" d="m254.8 223.9c-2.2 0-3.9-1.8-3.9-3.8 0-2.2 1.8-3.9 4-3.9 2.1 0.1 3.8 1.8 3.8 3.9 0 2.1-1.8 3.8-3.9 3.8z"/>
				<path id="Layer" class="s0" d="m97 223.9c-2.1 0-3.8-1.8-3.8-3.9 0-2.1 1.8-3.8 4-3.8 2.1 0.1 3.8 1.8 3.8 3.9-0.1 2.1-1.8 3.8-4 3.8z"/>
				<path id="Layer" class="s0" d="m175.7 78.3c2.2 0 3.9 1.7 3.9 3.8 0 2.1-1.8 3.9-3.9 3.8-2.2 0-3.9-1.7-3.9-3.8 0-2.1 1.8-3.8 3.9-3.8z"/>
				<path id="Layer" class="s0" d="m179.6 266.5c0 2.1-1.7 3.8-3.9 3.7-2.2 0-3.9-1.7-3.9-3.9 0.1-2 1.9-3.7 4-3.7 2.1 0 3.9 1.8 3.8 3.9z"/>
				<path id="Layer" class="s0" d="m129 86.5c0 1.6-1.4 2.9-3 2.9-1.7 0.1-3.1-1.3-3.1-2.9 0-1.6 1.3-2.9 3-2.9 1.7 0 3 1.3 3.1 2.9z"/>
				<path id="Layer" class="s0" d="m228.9 86.5c0 1.6-1.3 2.9-3 2.9-1.7 0-3-1.3-3-2.9 0-1.6 1.4-2.9 3-2.9 1.7 0 3.1 1.3 3 2.9z"/>
				<path id="Layer" class="s0" d="m225.9 258.3c1.7 0 3 1.3 3.1 2.9 0 1.6-1.4 3-3 3-1.7 0-3.1-1.3-3.1-2.9 0-1.6 1.3-3 3-3z"/>
				<path id="Layer" class="s0" d="m75.7 170.8c1.6 0.1 3 1.4 3 3 0 1.6-1.4 2.9-3.1 2.9-1.6 0-3-1.3-3-2.9 0-1.6 1.4-3 3.1-3z"/>
				<path id="Layer" class="s0" d="m126 258.3c1.6 0 3 1.4 3 3-0.1 1.6-1.4 2.9-3.1 2.9-1.6 0-3-1.4-3-3 0-1.6 1.4-2.9 3.1-2.9z"/>
				<path id="Layer" class="s0" d="m279.4 173.8c0 1.6-1.3 2.9-3 2.9-1.7 0-3-1.3-3-2.9 0-1.6 1.3-3 3-3 1.7 0 3 1.4 3 3z"/>
			</g>
			<g id="Layer">
				<path id="Layer" fill-rule="evenodd" class="s1" d="m345 167.1v11.8q-0.2 2.5-0.4 4.9-2.1 34.4-17.4 65.4c-22.2 45.1-63.9 78.7-112.6 90.7-11.4 2.8-22.9 4.5-34.6 4.9-0.4 0.1-0.8 0.1-1.1 0.2h-11.8q-2.4-0.2-4.8-0.4-31.2-1.9-59.8-14.7c-45.6-20.3-80.9-60.8-94.7-108.8-3.9-13.4-6.1-27.1-6.7-41.1 0-0.4 0-0.9-0.1-1.3v-11.4q0.2-2.6 0.4-5.1c2.2-34.4 13.6-65.5 34.5-92.9 24.1-31.7 55.6-52.7 94.2-62.9 11.7-3.1 23.6-4.8 35.7-5.2 0.5-0.1 1-0.1 1.5-0.2h11.4c1.7 0.1 3.4 0.2 5.1 0.4 30.8 1.9 59.2 11.3 84.7 28.6 37.5 25.4 61.5 60.3 72.1 104.3 2.5 10.4 3.8 20.9 4.2 31.6 0 0.4 0.1 0.8 0.2 1.2zm-1.4 5.9c0-94.1-76.3-170.5-170.3-170.6-94.4-0.1-170.9 76.2-170.9 170.4-0.1 94.2 76.3 170.8 170.3 170.8 94.5 0 170.9-76.2 170.9-170.6z"/>
				<path id="Layer" fill-rule="evenodd" class="s0" d="m343.6 173c0 94.4-76.4 170.6-170.9 170.6-94 0-170.4-76.5-170.3-170.8 0-94.2 76.5-170.5 170.9-170.4 94 0.1 170.3 76.5 170.3 170.6zm-325.8-0.1c0 85.6 69.4 155.2 154.8 155.3 85.9 0.1 155.5-69.3 155.6-155 0-85.8-69.4-155.4-155.1-155.4-85.7 0-155.3 69.5-155.3 155.1zm1.1-56.6q-2 1.2-4 2.6c-0.1 0.1-0.2 0.4-0.1 0.5 0 0.1 0.3 0.2 0.4 0.2 0.2 0 0.3 0 0.3 0q2-1.3 3.9-2.6c0.2-0.1 0.1-0.4 0.2-0.6-0.2 0-0.6-0.2-0.7-0.1zm6.9-12.7c0.2-0.2 0.3-0.4 0.5-0.5v-0.4c-0.3 0-0.8-0.2-1 0q-2.4 1.3-4.8 2.7c-0.2 0.2-0.3 0.6-0.4 0.9 0.3 0 0.7 0.1 1 0q2.3-1.3 4.7-2.7zm1.7-6.2c0.2-0.3 0.3-0.7 0.5-1-0.4 0-0.9-0.1-1.2 0.1q-1.5 1-3 2.2c-0.3 0.3-0.5 0.7-0.8 1.2q0.1 0.1 0.2 0.2c0.4-0.1 0.9-0.3 1.2-0.5q1.6-1.1 3.1-2.2zm1.5-5.5c0.2-0.2 0.3-0.6 0.4-0.9-0.3 0.1-0.8-0.1-1 0.1q-1.8 1.1-3.4 2.4c-0.3 0.3-0.5 0.7-0.7 1.1q0.2 0.1 0.3 0.2c0.3-0.1 0.7-0.1 1-0.3q1.7-1.3 3.4-2.6zm-16.5 34.4q0.1 0.2 0.3 0.3c0.2-0.2 0.5-0.4 0.7-0.6q1.2-1.3 2.3-2.6c0.1-0.2 0.1-0.6 0.1-0.9-0.3 0.1-0.7 0-0.8 0.2-0.7 0.7-1.3 1.4-1.9 2.2-0.3 0.4-0.5 1-0.7 1.4zm10.5-17c0.2-0.2 0.2-0.6 0.4-0.9-0.4 0-0.8-0.1-1.1 0.1q-1.9 1.3-3.7 2.8c-0.3 0.3-0.5 0.7-0.7 1q0.1 0.2 0.2 0.3c0.4-0.2 0.8-0.2 1.1-0.4q1.9-1.4 3.8-2.9zm306.2 5.2c-2.3-10.8-8.2-19.9-14.4-28.9-0.1-0.3-0.6-0.4-1-0.6 0 0.3-0.1 0.4-0.1 0.5 6.3 9.7 12.3 19.5 15.4 30.7 0.1 0.1 0.2 0.3 0.3 0.4q0.1-0.1 0.2-0.1c-0.1-0.6-0.2-1.3-0.4-2zm-36.3-56.9c-0.2-0.1-0.7 0-0.9-0.1 0.1 0.3 0.1 0.7 0.3 0.9 0.7 0.7 1.5 1.2 2.2 1.9 5.1 4.5 9.6 9.6 13.5 15.1 0.6 0.8 1.2 1.4 1.7 2.1q0.2-0.1 0.4-0.2c-0.7-1.2-1.3-2.5-2.1-3.6-3-4.4-6.6-8.3-10.3-11.9-1.5-1.5-3.2-2.8-4.8-4.2zm9.7 222.5c0.3 0 0.5-0.5 0.8-0.7-0.4-0.1-0.7-0.3-1.1-0.3q-3.4 0.5-6.8 1.1c-0.5 0.1-0.9 0.3-1.4 0.5q0 0.2 0 0.4c0.3 0 0.6 0.2 0.9 0.1 2.5-0.3 5.1-0.7 7.6-1.1zm-5 4.1q-2.8 0.3-5.6 0.8-0.7 0-1.4 0.3c-0.1 0-0.3 0.2-0.3 0.4 0 0.1 0.2 0.3 0.4 0.4 0.2 0.1 0.5 0.1 0.7 0.1q0 0.1 0.1 0.2 3.2-0.6 6.3-1.3c0.3 0 0.5-0.4 0.8-0.7-0.3-0.1-0.7-0.2-1-0.2zm8.1-8.1c0.5-0.1 1-0.5 1.4-0.8 0.2-0.1 0.3-0.5 0.4-0.8-0.3 0-0.6-0.1-0.9-0.1-1.4 0.4-2.8 0.9-4.2 1.2-1.1 0.3-2.2 0.4-3.3 0.7-0.3 0-0.5 0.4-0.8 0.6q0.4 0.3 0.9 0.6c2.2-0.5 4.4-0.9 6.5-1.4zm-30.8 27.2q2.9 0 5.7-0.2c0.4 0 0.7-0.4 1-0.5q0-0.2-0.1-0.4c-0.3-0.1-0.6-0.2-0.9-0.2q-2.8 0.1-5.6 0.3c-0.3 0-0.6 0.3-0.9 0.4 0.3 0.3 0.5 0.6 0.8 0.6zm-1 3.5q-2.8 0.1-5.7 0.3c-0.2 0-0.4 0.3-0.5 0.5 0.2 0.1 0.3 0.4 0.5 0.4 0.8 0.1 1.5 0 2.3 0 0.5 0 1 0.1 1.5 0q1-0.1 1.9-0.3c0.2 0 0.3-0.4 0.4-0.6 0 0-0.2-0.3-0.4-0.3zm12.8-9.1c0.2 0 0.4-0.4 0.5-0.7-0.2 0-0.4-0.2-0.7-0.2q-3.1 0.1-6.3 0.2c-0.3 0.1-0.7 0.2-1.1 0.3v0.4c0.3 0.1 0.5 0.3 0.8 0.3q3.4-0.1 6.8-0.3zm-105.1 40.6q-2.6-1.2-5.2-2.3c-0.3-0.1-0.7 0-1 0 0.1 0.3 0.2 0.8 0.5 0.9q2.7 1.3 5.4 2.5c0.5 0.2 1 0 1.5 0q0.1-0.1 0.1-0.2c-0.5-0.3-0.9-0.7-1.3-0.9zm-17.3 1c-1.4-0.7-2.9-1.3-4.3-2-0.5-0.1-0.9-0.3-1.4-0.4q-0.3 0.2-0.6 0.4c0.1 0.3 0.3 0.5 0.5 0.6q1.3 0.7 2.7 1.3 1.4 0.6 2.7 1.1c0.3 0.1 0.7-0.1 1.1-0.2-0.2-0.2-0.4-0.6-0.7-0.8zm-7.9 0.6c0.2 0.1 0.6-0.1 0.9-0.1 0.1-0.1 0.1-0.2 0.1-0.3-0.3-0.2-0.6-0.5-0.9-0.6-0.8-0.4-1.6-0.6-2.4-1-1.2-0.5-2.4-1.1-3.7-1.7-0.5-0.2-1-0.4-1.4 0.2 0 0.1 0 0.2 0.1 0.3 2.4 1.1 4.8 2.1 7.3 3.2zm-7.5-1.2q-3-1.4-6.1-2.7c-0.2-0.1-0.6 0.1-0.8 0.2 0.1 0.2 0.2 0.6 0.4 0.7q2 1.1 4 2c0.7 0.4 1.5 0.6 2.4 0.9q0.3-0.2 0.6-0.4c-0.2-0.2-0.3-0.6-0.5-0.7zm23.7 0.4q0.4-0.3 0.7-0.5c-0.2-0.2-0.3-0.5-0.5-0.6-0.8-0.3-1.7-0.5-2.5-0.7-0.7-0.2-1.5-0.5-2.3-0.7-0.2 0-0.5 0.2-0.8 0.3 0.2 0.2 0.2 0.5 0.4 0.6 1.7 0.5 3.3 1 5 1.6zm119.8-48.3c0.3 0 0.6-0.4 1-0.6q-0.1-0.2-0.1-0.3c-0.3-0.1-0.5-0.1-0.8-0.1-2.3 0.2-4.7 0.4-7 0.6-0.4 0.1-0.7 0.3-1.1 0.5 0 0.1 0 0.2 0 0.3 0.3 0.1 0.7 0.4 1 0.3q3.5-0.3 7-0.7z"/>
				<path id="Layer" fill-rule="evenodd" class="s2" d="m343.6 173c0 94.4-76.4 170.6-170.9 170.6-94 0-170.4-76.5-170.3-170.8 0-94.2 76.5-170.5 170.9-170.4 94 0.1 170.3 76.5 170.3 170.6zm-325.8-0.1c0 85.6 69.4 155.2 154.8 155.3 85.9 0.1 155.5-69.3 155.6-155 0-85.8-69.4-155.4-155.1-155.4-85.7 0-155.3 69.5-155.3 155.1zm1.1-56.6q-2 1.2-4 2.6c-0.1 0.1-0.2 0.4-0.1 0.5 0 0.1 0.3 0.2 0.4 0.2 0.2 0 0.3 0 0.3 0q2-1.3 3.9-2.6c0.2-0.1 0.1-0.4 0.2-0.6-0.2 0-0.6-0.2-0.7-0.1zm6.9-12.7c0.2-0.2 0.3-0.4 0.5-0.5v-0.4c-0.3 0-0.8-0.2-1 0q-2.4 1.3-4.8 2.7c-0.2 0.2-0.3 0.6-0.4 0.9 0.3 0 0.7 0.1 1 0q2.3-1.3 4.7-2.7zm1.7-6.2c0.2-0.3 0.3-0.7 0.5-1-0.4 0-0.9-0.1-1.2 0.1q-1.5 1-3 2.2c-0.3 0.3-0.5 0.7-0.8 1.2q0.1 0.1 0.2 0.2c0.4-0.1 0.9-0.3 1.2-0.5q1.6-1.1 3.1-2.2zm1.5-5.5c0.2-0.2 0.3-0.6 0.4-0.9-0.3 0.1-0.8-0.1-1 0.1q-1.8 1.1-3.4 2.4c-0.3 0.3-0.5 0.7-0.7 1.1q0.2 0.1 0.3 0.2c0.3-0.1 0.7-0.1 1-0.3q1.7-1.3 3.4-2.6zm-16.5 34.4q0.1 0.2 0.3 0.3c0.2-0.2 0.5-0.4 0.7-0.6q1.2-1.3 2.3-2.6c0.1-0.2 0.1-0.6 0.1-0.9-0.3 0.1-0.7 0-0.8 0.2-0.7 0.7-1.3 1.4-1.9 2.2-0.3 0.4-0.5 1-0.7 1.4zm10.5-17c0.2-0.2 0.2-0.6 0.4-0.9-0.4 0-0.8-0.1-1.1 0.1q-1.9 1.3-3.7 2.8c-0.3 0.3-0.5 0.7-0.7 1q0.1 0.2 0.2 0.3c0.4-0.2 0.8-0.2 1.1-0.4q1.9-1.4 3.8-2.9zm306.2 5.2c-2.3-10.8-8.2-19.9-14.4-28.9-0.1-0.3-0.6-0.4-1-0.6 0 0.3-0.1 0.4-0.1 0.5 6.3 9.7 12.3 19.5 15.4 30.7 0.1 0.1 0.2 0.3 0.3 0.4q0.1-0.1 0.2-0.1c-0.1-0.6-0.2-1.3-0.4-2zm-36.3-56.9c-0.2-0.1-0.7 0-0.9-0.1 0.1 0.3 0.1 0.7 0.3 0.9 0.7 0.7 1.5 1.2 2.2 1.9 5.1 4.5 9.6 9.6 13.5 15.1 0.6 0.8 1.2 1.4 1.7 2.1q0.2-0.1 0.4-0.2c-0.7-1.2-1.3-2.5-2.1-3.6-3-4.4-6.6-8.3-10.3-11.9-1.5-1.5-3.2-2.8-4.8-4.2zm9.7 222.5c0.3 0 0.5-0.5 0.8-0.7-0.4-0.1-0.7-0.3-1.1-0.3q-3.4 0.5-6.8 1.1c-0.5 0.1-0.9 0.3-1.4 0.5q0 0.2 0 0.4c0.3 0 0.6 0.2 0.9 0.1 2.5-0.3 5.1-0.7 7.6-1.1zm-5 4.1q-2.8 0.3-5.6 0.8-0.7 0-1.4 0.3c-0.1 0-0.3 0.2-0.3 0.4 0 0.1 0.2 0.3 0.4 0.4 0.2 0.1 0.5 0.1 0.7 0.1q0 0.1 0.1 0.2 3.2-0.6 6.3-1.3c0.3 0 0.5-0.4 0.8-0.7-0.3-0.1-0.7-0.2-1-0.2zm8.1-8.1c0.5-0.1 1-0.5 1.4-0.8 0.2-0.1 0.3-0.5 0.4-0.8-0.3 0-0.6-0.1-0.9-0.1-1.4 0.4-2.8 0.9-4.2 1.2-1.1 0.3-2.2 0.4-3.3 0.7-0.3 0-0.5 0.4-0.8 0.6q0.4 0.3 0.9 0.6c2.2-0.5 4.4-0.9 6.5-1.4zm-30.8 27.2q2.9 0 5.7-0.2c0.4 0 0.7-0.4 1-0.5q0-0.2-0.1-0.4c-0.3-0.1-0.6-0.2-0.9-0.2q-2.8 0.1-5.6 0.3c-0.3 0-0.6 0.3-0.9 0.4 0.3 0.3 0.5 0.6 0.8 0.6zm-1 3.5q-2.8 0.1-5.7 0.3c-0.2 0-0.4 0.3-0.5 0.5 0.2 0.1 0.3 0.4 0.5 0.4 0.8 0.1 1.5 0 2.3 0 0.5 0 1 0.1 1.5 0q1-0.1 1.9-0.3c0.2 0 0.3-0.4 0.4-0.6 0 0-0.2-0.3-0.4-0.3zm12.8-9.1c0.2 0 0.4-0.4 0.5-0.7-0.2 0-0.4-0.2-0.7-0.2q-3.1 0.1-6.3 0.2c-0.3 0.1-0.7 0.2-1.1 0.3v0.4c0.3 0.1 0.5 0.3 0.8 0.3q3.4-0.1 6.8-0.3zm-105.1 40.6q-2.6-1.2-5.2-2.3c-0.3-0.1-0.7 0-1 0 0.1 0.3 0.2 0.8 0.5 0.9q2.7 1.3 5.4 2.5c0.5 0.2 1 0 1.5 0q0.1-0.1 0.1-0.2c-0.5-0.3-0.9-0.7-1.3-0.9zm-17.3 1c-1.4-0.7-2.9-1.3-4.3-2-0.5-0.1-0.9-0.3-1.4-0.4q-0.3 0.2-0.6 0.4c0.1 0.3 0.3 0.5 0.5 0.6q1.3 0.7 2.7 1.3 1.4 0.6 2.7 1.1c0.3 0.1 0.7-0.1 1.1-0.2-0.2-0.2-0.4-0.6-0.7-0.8zm-7.9 0.6c0.2 0.1 0.6-0.1 0.9-0.1 0.1-0.1 0.1-0.2 0.1-0.3-0.3-0.2-0.6-0.5-0.9-0.6-0.8-0.4-1.6-0.6-2.4-1-1.2-0.5-2.4-1.1-3.7-1.7-0.5-0.2-1-0.4-1.4 0.2 0 0.1 0 0.2 0.1 0.3 2.4 1.1 4.8 2.1 7.3 3.2zm-7.5-1.2q-3-1.4-6.1-2.7c-0.2-0.1-0.6 0.1-0.8 0.2 0.1 0.2 0.2 0.6 0.4 0.7q2 1.1 4 2c0.7 0.4 1.5 0.6 2.4 0.9q0.3-0.2 0.6-0.4c-0.2-0.2-0.3-0.6-0.5-0.7zm23.7 0.4q0.4-0.3 0.7-0.5c-0.2-0.2-0.3-0.5-0.5-0.6-0.8-0.3-1.7-0.5-2.5-0.7-0.7-0.2-1.5-0.5-2.3-0.7-0.2 0-0.5 0.2-0.8 0.3 0.2 0.2 0.2 0.5 0.4 0.6 1.7 0.5 3.3 1 5 1.6zm119.8-48.3c0.3 0 0.6-0.4 1-0.6q-0.1-0.2-0.1-0.3c-0.3-0.1-0.5-0.1-0.8-0.1-2.3 0.2-4.7 0.4-7 0.6-0.4 0.1-0.7 0.3-1.1 0.5 0 0.1 0 0.2 0 0.3 0.3 0.1 0.7 0.4 1 0.3q3.5-0.3 7-0.7z"/>
				<path id="Layer" fill-rule="evenodd" class="s2" d="m343.6 173c0 94.4-76.4 170.6-170.9 170.6-94 0-170.4-76.5-170.3-170.8 0-94.2 76.5-170.5 170.9-170.4 94 0.1 170.3 76.5 170.3 170.6zm-325.8-0.1c0 85.6 69.4 155.2 154.8 155.3 85.9 0.1 155.5-69.3 155.6-155 0-85.8-69.4-155.4-155.1-155.4-85.7 0-155.3 69.5-155.3 155.1zm1.1-56.6q-2 1.2-4 2.6c-0.1 0.1-0.2 0.4-0.1 0.5 0 0.1 0.3 0.2 0.4 0.2 0.2 0 0.3 0 0.3 0q2-1.3 3.9-2.6c0.2-0.1 0.1-0.4 0.2-0.6-0.2 0-0.6-0.2-0.7-0.1zm6.9-12.7c0.2-0.2 0.3-0.4 0.5-0.5v-0.4c-0.3 0-0.8-0.2-1 0q-2.4 1.3-4.8 2.7c-0.2 0.2-0.3 0.6-0.4 0.9 0.3 0 0.7 0.1 1 0q2.3-1.3 4.7-2.7zm1.7-6.2c0.2-0.3 0.3-0.7 0.5-1-0.4 0-0.9-0.1-1.2 0.1q-1.5 1-3 2.2c-0.3 0.3-0.5 0.7-0.8 1.2q0.1 0.1 0.2 0.2c0.4-0.1 0.9-0.3 1.2-0.5q1.6-1.1 3.1-2.2zm1.5-5.5c0.2-0.2 0.3-0.6 0.4-0.9-0.3 0.1-0.8-0.1-1 0.1q-1.8 1.1-3.4 2.4c-0.3 0.3-0.5 0.7-0.7 1.1q0.2 0.1 0.3 0.2c0.3-0.1 0.7-0.1 1-0.3q1.7-1.3 3.4-2.6zm-16.5 34.4q0.1 0.2 0.3 0.3c0.2-0.2 0.5-0.4 0.7-0.6q1.2-1.3 2.3-2.6c0.1-0.2 0.1-0.6 0.1-0.9-0.3 0.1-0.7 0-0.8 0.2-0.7 0.7-1.3 1.4-1.9 2.2-0.3 0.4-0.5 1-0.7 1.4zm10.5-17c0.2-0.2 0.2-0.6 0.4-0.9-0.4 0-0.8-0.1-1.1 0.1q-1.9 1.3-3.7 2.8c-0.3 0.3-0.5 0.7-0.7 1q0.1 0.2 0.2 0.3c0.4-0.2 0.8-0.2 1.1-0.4q1.9-1.4 3.8-2.9zm306.2 5.2c-2.3-10.8-8.2-19.9-14.4-28.9-0.1-0.3-0.6-0.4-1-0.6 0 0.3-0.1 0.4-0.1 0.5 6.3 9.7 12.3 19.5 15.4 30.7 0.1 0.1 0.2 0.3 0.3 0.4q0.1-0.1 0.2-0.1c-0.1-0.6-0.2-1.3-0.4-2zm-36.3-56.9c-0.2-0.1-0.7 0-0.9-0.1 0.1 0.3 0.1 0.7 0.3 0.9 0.7 0.7 1.5 1.2 2.2 1.9 5.1 4.5 9.6 9.6 13.5 15.1 0.6 0.8 1.2 1.4 1.7 2.1q0.2-0.1 0.4-0.2c-0.7-1.2-1.3-2.5-2.1-3.6-3-4.4-6.6-8.3-10.3-11.9-1.5-1.5-3.2-2.8-4.8-4.2zm9.7 222.5c0.3 0 0.5-0.5 0.8-0.7-0.4-0.1-0.7-0.3-1.1-0.3q-3.4 0.5-6.8 1.1c-0.5 0.1-0.9 0.3-1.4 0.5q0 0.2 0 0.4c0.3 0 0.6 0.2 0.9 0.1 2.5-0.3 5.1-0.7 7.6-1.1zm-5 4.1q-2.8 0.3-5.6 0.8-0.7 0-1.4 0.3c-0.1 0-0.3 0.2-0.3 0.4 0 0.1 0.2 0.3 0.4 0.4 0.2 0.1 0.5 0.1 0.7 0.1q0 0.1 0.1 0.2 3.2-0.6 6.3-1.3c0.3 0 0.5-0.4 0.8-0.7-0.3-0.1-0.7-0.2-1-0.2zm8.1-8.1c0.5-0.1 1-0.5 1.4-0.8 0.2-0.1 0.3-0.5 0.4-0.8-0.3 0-0.6-0.1-0.9-0.1-1.4 0.4-2.8 0.9-4.2 1.2-1.1 0.3-2.2 0.4-3.3 0.7-0.3 0-0.5 0.4-0.8 0.6q0.4 0.3 0.9 0.6c2.2-0.5 4.4-0.9 6.5-1.4zm-30.8 27.2q2.9 0 5.7-0.2c0.4 0 0.7-0.4 1-0.5q0-0.2-0.1-0.4c-0.3-0.1-0.6-0.2-0.9-0.2q-2.8 0.1-5.6 0.3c-0.3 0-0.6 0.3-0.9 0.4 0.3 0.3 0.5 0.6 0.8 0.6zm-1 3.5q-2.8 0.1-5.7 0.3c-0.2 0-0.4 0.3-0.5 0.5 0.2 0.1 0.3 0.4 0.5 0.4 0.8 0.1 1.5 0 2.3 0 0.5 0 1 0.1 1.5 0q1-0.1 1.9-0.3c0.2 0 0.3-0.4 0.4-0.6 0 0-0.2-0.3-0.4-0.3zm12.8-9.1c0.2 0 0.4-0.4 0.5-0.7-0.2 0-0.4-0.2-0.7-0.2q-3.1 0.1-6.3 0.2c-0.3 0.1-0.7 0.2-1.1 0.3v0.4c0.3 0.1 0.5 0.3 0.8 0.3q3.4-0.1 6.8-0.3zm-105.1 40.6q-2.6-1.2-5.2-2.3c-0.3-0.1-0.7 0-1 0 0.1 0.3 0.2 0.8 0.5 0.9q2.7 1.3 5.4 2.5c0.5 0.2 1 0 1.5 0q0.1-0.1 0.1-0.2c-0.5-0.3-0.9-0.7-1.3-0.9zm-17.3 1c-1.4-0.7-2.9-1.3-4.3-2-0.5-0.1-0.9-0.3-1.4-0.4q-0.3 0.2-0.6 0.4c0.1 0.3 0.3 0.5 0.5 0.6q1.3 0.7 2.7 1.3 1.4 0.6 2.7 1.1c0.3 0.1 0.7-0.1 1.1-0.2-0.2-0.2-0.4-0.6-0.7-0.8zm-7.9 0.6c0.2 0.1 0.6-0.1 0.9-0.1 0.1-0.1 0.1-0.2 0.1-0.3-0.3-0.2-0.6-0.5-0.9-0.6-0.8-0.4-1.6-0.6-2.4-1-1.2-0.5-2.4-1.1-3.7-1.7-0.5-0.2-1-0.4-1.4 0.2 0 0.1 0 0.2 0.1 0.3 2.4 1.1 4.8 2.1 7.3 3.2zm-7.5-1.2q-3-1.4-6.1-2.7c-0.2-0.1-0.6 0.1-0.8 0.2 0.1 0.2 0.2 0.6 0.4 0.7q2 1.1 4 2c0.7 0.4 1.5 0.6 2.4 0.9q0.3-0.2 0.6-0.4c-0.2-0.2-0.3-0.6-0.5-0.7zm23.7 0.4q0.4-0.3 0.7-0.5c-0.2-0.2-0.3-0.5-0.5-0.6-0.8-0.3-1.7-0.5-2.5-0.7-0.7-0.2-1.5-0.5-2.3-0.7-0.2 0-0.5 0.2-0.8 0.3 0.2 0.2 0.2 0.5 0.4 0.6 1.7 0.5 3.3 1 5 1.6zm119.8-48.3c0.3 0 0.6-0.4 1-0.6q-0.1-0.2-0.1-0.3c-0.3-0.1-0.5-0.1-0.8-0.1-2.3 0.2-4.7 0.4-7 0.6-0.4 0.1-0.7 0.3-1.1 0.5 0 0.1 0 0.2 0 0.3 0.3 0.1 0.7 0.4 1 0.3q3.5-0.3 7-0.7z"/>
				<path id="Layer" fill-rule="evenodd" class="s1" d="m328.2 173.2c-0.1 85.7-69.7 155.1-155.6 155-85.4-0.1-154.8-69.7-154.8-155.3 0-85.6 69.6-155.1 155.3-155.1 85.7 0 155.1 69.6 155.1 155.4zm-1.4-0.1c0-85.1-68.7-153.8-153.9-153.9-84.6-0.1-153.7 68.9-153.7 153.6-0.1 85 68.7 154 153.5 154 85.2 0 154.1-68.7 154.1-153.7z"/>
				<path id="Layer" class="s1" d="m329.4 116.6c-0.1-0.1-0.2-0.3-0.3-0.4-3.1-11.2-9.1-21-15.3-30.7-0.1-0.1 0-0.2 0-0.5 0.4 0.2 0.9 0.3 1 0.6 6.2 9 12.1 18.1 14.4 28.9 0.2 0.7 0.3 1.4 0.4 2q-0.1 0-0.2 0.1z"/>
				<path id="Layer" class="s1" d="m309.7 77.5c-0.5-0.7-1.1-1.3-1.7-2.1-3.9-5.5-8.4-10.6-13.4-15.1-0.8-0.7-1.6-1.2-2.3-1.9-0.2-0.2-0.2-0.6-0.4-0.9 0.4 0.1 0.8 0 1 0.1 1.6 1.4 3.3 2.7 4.8 4.1 3.8 3.7 7.3 7.6 10.3 12 0.8 1.1 1.4 2.4 2.1 3.6q-0.2 0.1-0.4 0.2z"/>
				<path id="Layer" class="s1" d="m299.2 277.5q-0.5-0.3-0.9-0.6c0.3-0.2 0.5-0.6 0.9-0.6 1-0.3 2.1-0.4 3.2-0.7 1.4-0.3 2.8-0.8 4.2-1.2 0.3 0 0.6 0.1 0.9 0.1-0.1 0.3-0.2 0.7-0.4 0.8-0.4 0.4-0.9 0.7-1.4 0.8-2.2 0.5-4.3 0.9-6.5 1.4z"/>
				<path id="Layer" class="s1" d="m294.1 280.7c0.5-0.2 0.9-0.4 1.4-0.5q3.4-0.6 6.8-1.1c0.4 0 0.7 0.2 1.1 0.3-0.2 0.2-0.5 0.7-0.8 0.7q-3.8 0.6-7.6 1.1c-0.3 0.1-0.6-0.1-0.9-0.1q0-0.2 0-0.4z"/>
				<path id="Layer" class="s1" d="m293.4 290.2c-0.4 0.2-0.7 0.6-1.1 0.6q-3.4 0.5-6.9 0.7c-0.3 0.1-0.7-0.2-1-0.3q0-0.2 0-0.3c0.4-0.2 0.7-0.4 1.1-0.5q3.5-0.3 7-0.6c0.3 0 0.5 0 0.7 0.1q0.1 0.1 0.2 0.3z"/>
				<path id="Layer" class="s1" d="m148.9 336.4c0.5-0.6 1-0.4 1.5-0.2 1.3 0.6 2.5 1.2 3.7 1.7 0.8 0.4 1.6 0.6 2.4 1 0.3 0.1 0.6 0.4 0.9 0.6q0 0.1-0.1 0.3c-0.3 0-0.7 0.2-0.9 0.1q-3.7-1.6-7.3-3.2c-0.1-0.1-0.1-0.2-0.2-0.3z"/>
				<path id="Layer" class="s1" d="m291.4 286.2c-0.2 0-0.5 0-0.7-0.1-0.2-0.1-0.4-0.3-0.4-0.4 0-0.1 0.2-0.4 0.3-0.4q0.7-0.3 1.4-0.4 2.8-0.4 5.6-0.7c0.3 0 0.7 0.1 1 0.2-0.3 0.3-0.5 0.7-0.7 0.7-2.2 0.5-4.3 0.9-6.4 1.3q-0.1-0.1-0.1-0.2z"/>
				<path id="Layer" class="s1" d="m182.8 339.4c-0.5 0-1 0.2-1.4 0q-2.8-1.2-5.5-2.5c-0.3-0.1-0.4-0.6-0.5-0.9 0.3 0 0.7-0.1 1 0q2.6 1.1 5.1 2.3c0.5 0.2 1 0.6 1.4 0.8q0 0.2-0.1 0.3z"/>
				<path id="Layer" class="s1" d="m148.8 339.8c-0.9-0.3-1.7-0.5-2.4-0.9q-2-0.9-4-2c-0.2-0.1-0.3-0.5-0.4-0.7 0.3-0.1 0.6-0.3 0.8-0.2q3.1 1.3 6.1 2.7c0.2 0.1 0.3 0.5 0.5 0.7q-0.3 0.2-0.6 0.4z"/>
				<path id="Layer" class="s1" d="m279.1 297.3c0.4-0.1 0.8-0.2 1.2-0.3q3.1-0.1 6.2-0.2c0.3 0 0.5 0.1 0.8 0.2-0.2 0.3-0.4 0.7-0.6 0.7q-3.4 0.2-6.8 0.3c-0.3 0-0.5-0.2-0.8-0.3q0-0.2 0-0.4z"/>
				<path id="Layer" class="s1" d="m281.6 302.5c-0.3 0.2-0.6 0.6-1 0.6q-2.8 0.2-5.7 0.2c-0.3 0-0.5-0.3-0.8-0.6 0.3-0.1 0.6-0.4 0.9-0.4q2.8-0.2 5.6-0.3c0.3 0 0.6 0.1 0.9 0.2q0.1 0.2 0.1 0.3z"/>
				<path id="Layer" class="s1" d="m158.6 336.9c0.5 0.2 0.9 0.3 1.4 0.5q2.1 0.9 4.3 1.9c0.3 0.2 0.5 0.6 0.7 0.8-0.4 0.1-0.8 0.3-1.1 0.2-0.9-0.3-1.8-0.7-2.7-1.1q-1.4-0.6-2.7-1.3c-0.2-0.1-0.4-0.3-0.6-0.5q0.4-0.3 0.7-0.5z"/>
				<path id="Layer" class="s1" d="m26.3 103.1c-0.2 0.1-0.3 0.3-0.5 0.5-1.6 0.9-3.1 1.8-4.7 2.7-0.3 0.2-0.7 0-1 0 0.2-0.3 0.2-0.7 0.4-0.9q2.4-1.4 4.8-2.7c0.2-0.2 0.7 0 1 0q0 0.2 0 0.4z"/>
				<path id="Layer" class="s1" d="m17.9 112.3c0.2-0.3 0.4-0.8 0.7-1q1.8-1.5 3.7-2.8c0.3-0.2 0.7-0.1 1.1-0.1-0.2 0.3-0.2 0.7-0.5 0.9q-1.8 1.5-3.7 2.9c-0.3 0.2-0.7 0.2-1.1 0.4q-0.1-0.1-0.2-0.3z"/>
				<path id="Layer" class="s1" d="m270.5 308c-0.8 0-1.5 0.1-2.3 0-0.2 0-0.3-0.3-0.5-0.4 0.1-0.2 0.3-0.5 0.5-0.5q2.9-0.2 5.7-0.3c0.2 0 0.4 0.3 0.4 0.3-0.1 0.2-0.2 0.6-0.4 0.6q-0.9 0.2-1.9 0.3c-0.5 0.1-1 0-1.5 0q0 0 0 0z"/>
				<path id="Layer" class="s1" d="m24.3 94.6c0.3-0.4 0.4-0.8 0.7-1.1q1.6-1.3 3.4-2.4c0.2-0.2 0.7 0 1-0.1-0.1 0.3-0.2 0.7-0.4 0.9q-1.7 1.3-3.4 2.6c-0.3 0.2-0.7 0.2-1 0.3q-0.1-0.1-0.3-0.2z"/>
				<path id="Layer" class="s1" d="m172.6 339.1c-1.7-0.6-3.4-1.1-5-1.6-0.2-0.1-0.2-0.4-0.4-0.6 0.3-0.1 0.6-0.3 0.8-0.3 0.8 0.2 1.6 0.4 2.4 0.7 0.8 0.2 1.6 0.4 2.4 0.7 0.2 0.1 0.3 0.4 0.5 0.6-0.2 0.1-0.4 0.3-0.7 0.5z"/>
				<path id="Layer" class="s1" d="m23 99.8c0.3-0.3 0.5-0.8 0.9-1.1q1.4-1.2 2.9-2.2c0.3-0.2 0.8-0.1 1.2-0.1-0.2 0.3-0.2 0.7-0.5 0.9q-1.5 1.2-3.1 2.3c-0.3 0.3-0.8 0.4-1.2 0.5q-0.1-0.1-0.2-0.3z"/>
				<path id="Layer" class="s1" d="m15.2 119.6c-0.1 0-0.4-0.1-0.4-0.2-0.1-0.1 0-0.4 0.1-0.5q2-1.4 4-2.6c0.1-0.1 0.5 0.1 0.7 0.1-0.1 0.2 0 0.5-0.2 0.6q-1.9 1.3-3.9 2.6c0 0-0.1 0-0.3 0z"/>
				<path id="Layer" class="s1" d="m12.5 126.3c0.2-0.5 0.4-1 0.7-1.4q0.9-1.2 1.9-2.2c0.1-0.2 0.5-0.1 0.8-0.2 0 0.3 0 0.7-0.1 0.9q-1.1 1.3-2.2 2.6c-0.3 0.2-0.6 0.4-0.9 0.6q-0.1-0.1-0.2-0.3z"/>
				<path id="Layer" fill-rule="evenodd" class="s0" d="m326.8 173.1c0 85-68.9 153.7-154.1 153.7-84.8-0.1-153.6-69.1-153.5-154 0-84.7 69-153.7 153.7-153.6 85.2 0.1 153.9 68.8 153.9 153.9zm-4.1 0c0-82.5-66.9-149.5-149.3-149.6-82.8-0.1-149.9 66.8-149.9 149.5-0.1 82.5 66.9 149.6 149.3 149.7 82.8 0 149.9-66.9 149.9-149.6z"/>
				<path id="Layer" fill-rule="evenodd" class="s1" d="m322.7 173.1c0 82.7-67.1 149.6-149.9 149.6-82.4-0.1-149.4-67.2-149.3-149.7 0-82.7 67.1-149.6 149.9-149.5 82.4 0.1 149.3 67.1 149.3 149.6zm-1.4 0.2c0-82-66.3-148.4-148.1-148.4-81.9-0.1-148.3 66.3-148.3 148.2 0 81.7 66.3 148.2 147.8 148.2 82.1 0.1 148.6-66.2 148.6-148z"/>
				<path id="Layer" fill-rule="evenodd" class="s0" d="m321.3 173.3c0 81.8-66.5 148.1-148.6 148-81.5 0-147.8-66.5-147.8-148.2 0-81.9 66.4-148.3 148.3-148.2 81.8 0 148.1 66.4 148.1 148.4zm-279.1 58.4c-0.2-0.6-0.2-1.2-0.4-1.8q-0.7-2.9-1.4-5.7c-0.1-0.3-0.1-0.7-0.2-1-0.1-0.2-0.3-0.4-0.4-0.4-0.2 0.1-0.4 0.3-0.4 0.4-0.1 0.3-0.1 0.6-0.1 0.8q0.8 3.5 1.8 6.9c0.1 0.4 0.4 0.7 0.7 1q0.2-0.1 0.4-0.2zm25.6 33.5c-1.3-1-2.6-2-3.8-3-4.5-3.5-8.6-7.3-11.9-12-2.5-3.6-4.5-7.5-6.4-11.4-0.1-0.3-0.5-0.5-0.8-0.7 0 0.3-0.2 0.8-0.1 1q0.8 2 1.8 3.9c4.2 8.7 10.5 15.7 18.4 21.3 0.8 0.5 1.7 0.9 2.5 1.3q0.1-0.2 0.3-0.4zm181.7-136.6c0 2.9 2.4 5.2 5.2 5.3 2.9 0 5.3-2.3 5.4-5.1 0-2.9-2.4-5.3-5.3-5.3-2.9 0-5.3 2.3-5.3 5.1zm5.3 86.3c-2.9 0-5.3 2.3-5.3 5.1 0 2.9 2.4 5.2 5.2 5.2 2.9 0 5.3-2.2 5.4-5.1 0-2.9-2.4-5.2-5.3-5.2zm-33.3-128.4c0 2.3 2 4.3 4.4 4.3 2.4 0 4.4-1.9 4.4-4.3 0-2.3-1.9-4.3-4.3-4.3-2.5 0-4.5 1.9-4.5 4.3zm-15.4 24c0 3.7 3.1 6.7 6.8 6.7 3.8 0 6.8-3 6.9-6.7 0-3.8-3.1-6.8-6.9-6.8-3.8 0-6.8 3.1-6.8 6.8zm4.5 47.8c-8.5 0-15.5 6.9-15.5 15.5 0 8.6 6.8 15.6 15.3 15.6 8.5 0.1 15.4-6.9 15.4-15.5 0-8.5-6.8-15.5-15.2-15.6zm-17.9-28.5c-8.5-0.1-15.4 6.9-15.4 15.5 0 8.6 6.9 15.5 15.3 15.6 8.5 0 15.4-7 15.4-15.6 0-8.5-6.8-15.5-15.3-15.5zm-11-98.3c0 0.2 0 0.5 0.2 0.7 0.1 0.1 0.4 0.2 0.6 0.3 2 1 4 2.1 6 3 0.4 0.2 0.9 0.3 1.3 0.4q0.1-0.1 0.2-0.2c-0.2-0.3-0.3-0.6-0.5-0.7-2.4-1.3-4.7-2.5-7.1-3.7 0 0-0.1 0-0.1 0-0.3 0.1-0.6 0.1-0.6 0.2zm-5.8 76.9c-4.4 0-8 3.7-8 8.1 0 4.4 3.7 8 8.1 8 4.4 0 8-3.7 7.9-8.1 0-4.4-3.6-8-8-8zm-2.7 37c0-8.6-6.8-15.6-15.3-15.6-8.5-0.1-15.4 6.8-15.4 15.4-0.1 8.6 6.8 15.6 15.2 15.7 8.5 0 15.4-6.9 15.5-15.5zm-30.6 12.9c-8.4 0-15.4 6.9-15.4 15.5 0 8.6 6.8 15.6 15.3 15.6 8.5 0.1 15.4-6.9 15.4-15.5 0.1-8.5-6.8-15.5-15.3-15.6zm30.7-126.3c0.1 0.2 0.2 0.5 0.4 0.6q1.4 0.9 2.9 1.6c0.3 0.2 0.7 0.2 1.2 0.3-0.1-0.3-0.1-0.5-0.1-0.5q-1.9-1.2-3.7-2.3c-0.2 0-0.5 0.2-0.7 0.3zm-2.9 50.1c0 2.8 2.4 5.1 5.2 5.2 3 0 5.4-2.2 5.4-5.1 0.1-2.9-2.3-5.3-5.2-5.3-2.9 0-5.3 2.3-5.4 5.2zm-4.3-49.7c0.2 0.2 0.2 0.5 0.3 0.6q2.1 1 4.2 1.9c0.2 0 0.5-0.1 0.8-0.1-0.1-0.3-0.2-0.6-0.3-0.7q-2.2-1-4.3-2c-0.2-0.1-0.4 0.2-0.7 0.3zm-7.7-0.4c0.2 0.2 0.3 0.5 0.5 0.7q2.3 1.2 4.6 2.3c0.3 0.1 0.7 0 1 0-0.2-0.3-0.3-0.7-0.6-0.9-1.4-0.8-2.8-1.5-4.3-2.2-0.2-0.1-0.4-0.2-0.7-0.3-0.2 0.1-0.5 0.3-0.5 0.4zm-6.6 1.1c0.2 0.1 0.4 0.2 0.6 0.3q1.9 1 3.9 2c0.3 0.1 0.6 0.3 1 0.5 0.2 0 0.4-0.1 0.7-0.2-0.1-0.2-0.1-0.5-0.3-0.6q-2.4-1.3-4.9-2.5c-0.3-0.1-0.6 0.1-1 0.2zm-5.4 1.2c0.3 0.2 0.5 0.6 0.8 0.7q1.9 0.5 3.8 1c0.4 0.1 0.9 0.1 1.3 0.1q0.1-0.2 0.2-0.4c-0.4-0.2-0.7-0.5-1-0.7-1.4-0.4-2.7-0.7-4.1-1.1-0.3 0-0.6 0.3-1 0.4zm-14.3 76.3c0 3.6 3.1 6.6 6.8 6.6 3.8 0 6.9-3 6.9-6.7 0-3.8-3.1-6.8-6.9-6.8-3.7 0-6.8 3.1-6.8 6.9zm-10.6-24c0 2.3 2 4.2 4.5 4.2 2.4 0 4.3-2 4.3-4.3 0-2.4-2-4.3-4.4-4.3-2.4 0-4.4 2-4.4 4.4zm-3.5 59c0 4.4 3.6 8 8 8 4.5 0 8.1-3.6 8.1-8 0-4.4-3.6-8-8.1-8-4.4 0-8 3.6-8 8zm-26.2-16.9c0 2.8 2.3 5.1 5.2 5.2 2.9 0 5.3-2.3 5.3-5.1 0.1-2.9-2.3-5.3-5.2-5.3-2.9 0-5.3 2.3-5.3 5.2zm-11.8 45.1c0-2.4-1.9-4.3-4.4-4.3-2.4 0-4.4 1.9-4.4 4.3 0 2.4 2 4.3 4.5 4.3 2.4 0 4.4-2 4.3-4.3zm22.3 46.3c0.1-2.9-2.3-5.2-5.2-5.2-2.9 0-5.3 2.3-5.3 5.1 0 2.9 2.3 5.2 5.2 5.3 2.9 0 5.3-2.3 5.3-5.2zm6.1-45.9c0-3.7-3.1-6.7-6.8-6.7-3.8 0-6.9 3.1-6.9 6.8 0 3.7 3.1 6.7 6.8 6.7 3.8 0 6.9-3 6.9-6.8zm21.9 87c0-2.3-2-4.3-4.4-4.3-2.4 0.1-4.4 2-4.4 4.4 0.1 2.3 2 4.3 4.5 4.2 2.4 0 4.3-1.9 4.3-4.3zm3.8-59.3c0-4.5-3.6-8.1-8-8.1-4.4-0.1-8.1 3.5-8.1 7.9 0 4.4 3.5 8.1 7.9 8.1 4.5 0 8.1-3.5 8.2-7.9zm11.7 37c0-3.7-3-6.8-6.8-6.8-3.8 0-6.9 3-6.9 6.8 0 3.6 3 6.7 6.7 6.7 3.9 0 7-3 7-6.7zm11.9-19.3c8.5 0 15.4-6.9 15.5-15.5 0-8.6-6.8-15.6-15.2-15.6-8.6-0.1-15.5 6.9-15.5 15.4-0.1 8.6 6.8 15.6 15.2 15.7zm23.3 46.9c0-2.9-2.3-5.3-5.3-5.3-2.8 0-5.2 2.4-5.3 5.2 0 2.8 2.4 5.2 5.3 5.2 2.9 0 5.3-2.2 5.3-5.1zm2.7-34.4c0-4.4-3.5-8-8-8-4.4-0.1-8 3.6-8 8 0 4.4 3.6 8 8 8 4.4 0 8-3.6 8-8zm24.3-28c0-8.6-6.8-15.6-15.2-15.6-8.5-0.1-15.5 6.8-15.5 15.4 0 8.6 6.8 15.6 15.3 15.7 8.5 0 15.4-6.9 15.4-15.5zm11.8 34.8c0-3.7-3.1-6.8-6.9-6.8-3.7 0-6.8 3-6.8 6.7-0.1 3.7 3 6.8 6.7 6.8 3.8 0 6.9-3 7-6.7zm10.5 22.4c0-2.4-1.9-4.3-4.3-4.4-2.5 0-4.5 2-4.5 4.3 0 2.4 2 4.3 4.4 4.3 2.4 0.1 4.4-1.9 4.4-4.2zm2.8-59.5c0-4.4-3.6-8-8-8-4.4-0.1-8.1 3.5-8.1 8 0 4.4 3.6 8 8 8 4.4 0 8.1-3.6 8.1-8zm0-56.2c0-4.4-3.6-8-8.1-8-4.4 0-8 3.6-8 8 0 4.4 3.6 8 8.1 8 4.4 0 8-3.6 8-8zm9.6 28.7c-0.1 3.6 3 6.7 6.7 6.7 3.8 0.1 6.9-2.9 6.9-6.7 0.1-3.7-3-6.7-6.7-6.8-3.8 0-6.9 3-6.9 6.8zm29.7 102.4q-0.1-0.2-0.3-0.3c-0.4 0.3-0.9 0.6-1.3 1-3 2.9-6 5.9-9.2 8.7-5 4.2-10.5 7.8-16.2 11-0.5 0.3-1 0.8-1.4 1.1q0.1 0.2 0.2 0.4c0.5-0.2 1-0.4 1.5-0.6 4.7-2.5 9.1-5.5 13.4-8.7 4.6-3.3 8.9-7.1 12.5-11.4 0.3-0.4 0.6-0.8 0.8-1.2zm4-98.6c2.4 0 4.4-1.9 4.4-4.3 0-2.4-1.9-4.3-4.3-4.3-2.5-0.1-4.5 1.9-4.5 4.2 0 2.4 1.9 4.4 4.4 4.4zm6.8 84.3c-0.8 0.3-5.8 7.3-5.8 8 1.5 0 6-6.1 5.8-8zm24.9-43c-0.4 0.1-0.6 0-0.7 0.1q-2 1.4-3.9 2.9c-0.2 0.1-0.1 0.5-0.2 0.7 0.3 0 0.6 0.1 0.8 0q1.8-1.3 3.5-2.7c0.2-0.1 0.3-0.5 0.5-1zm2-6.8c-0.4 0-0.8-0.1-1 0q-1.3 0.9-2.5 1.8c-0.2 0.1-0.3 0.5-0.3 0.7 0.2 0.1 0.5 0.2 0.7 0.1q1.3-0.9 2.7-1.9c0.1-0.1 0.2-0.2 0.4-0.7zm1-6.4c-1 0.4-3.6 2.7-3.7 3.3 1.4 0.2 4.2-2.3 3.7-3.3zm2.3-6.1c0-0.2-0.1-0.3-0.1-0.5-0.2 0-0.5 0.1-0.6 0.2-0.6 0.6-1.1 1.1-1.7 1.7-0.5 0.4-1 0.8-1.6 1.3-0.1 0.1-0.1 0.4-0.2 0.7 0 0 0.2 0.2 0.3 0.2 0.8 0 3.9-2.8 3.9-3.6zm1-4.6c0.2-0.1 0.3-0.3 0.4-0.6-0.1-0.1-0.2-0.3-0.2-0.3-0.3 0-0.5 0-0.6 0.1q-1.3 1.1-2.5 2.3c-0.1 0.1-0.2 0.5-0.2 0.7 0.2 0 0.6 0.1 0.7-0.1 0.9-0.6 1.6-1.3 2.4-2.1z"/>
				<path id="Layer" fill-rule="evenodd" class="s2" d="m321.3 173.3c0 81.8-66.5 148.1-148.6 148-81.5 0-147.8-66.5-147.8-148.2 0-81.9 66.4-148.3 148.3-148.2 81.8 0 148.1 66.4 148.1 148.4zm-279.1 58.4c-0.2-0.6-0.2-1.2-0.4-1.8q-0.7-2.9-1.4-5.7c-0.1-0.3-0.1-0.7-0.2-1-0.1-0.2-0.3-0.4-0.4-0.4-0.2 0.1-0.4 0.3-0.4 0.4-0.1 0.3-0.1 0.6-0.1 0.8q0.8 3.5 1.8 6.9c0.1 0.4 0.4 0.7 0.7 1q0.2-0.1 0.4-0.2zm25.6 33.5c-1.3-1-2.6-2-3.8-3-4.5-3.5-8.6-7.3-11.9-12-2.5-3.6-4.5-7.5-6.4-11.4-0.1-0.3-0.5-0.5-0.8-0.7 0 0.3-0.2 0.8-0.1 1q0.8 2 1.8 3.9c4.2 8.7 10.5 15.7 18.4 21.3 0.8 0.5 1.7 0.9 2.5 1.3q0.1-0.2 0.3-0.4zm181.7-136.6c0 2.9 2.4 5.2 5.2 5.3 2.9 0 5.3-2.3 5.4-5.1 0-2.9-2.4-5.3-5.3-5.3-2.9 0-5.3 2.3-5.3 5.1zm5.3 86.3c-2.9 0-5.3 2.3-5.3 5.1 0 2.9 2.4 5.2 5.2 5.2 2.9 0 5.3-2.2 5.4-5.1 0-2.9-2.4-5.2-5.3-5.2zm-33.3-128.4c0 2.3 2 4.3 4.4 4.3 2.4 0 4.4-1.9 4.4-4.3 0-2.3-1.9-4.3-4.3-4.3-2.5 0-4.5 1.9-4.5 4.3zm-15.4 24c0 3.7 3.1 6.7 6.8 6.7 3.8 0 6.8-3 6.9-6.7 0-3.8-3.1-6.8-6.9-6.8-3.8 0-6.8 3.1-6.8 6.8zm4.5 47.8c-8.5 0-15.5 6.9-15.5 15.5 0 8.6 6.8 15.6 15.3 15.6 8.5 0.1 15.4-6.9 15.4-15.5 0-8.5-6.8-15.5-15.2-15.6zm-17.9-28.5c-8.5-0.1-15.4 6.9-15.4 15.5 0 8.6 6.9 15.5 15.3 15.6 8.5 0 15.4-7 15.4-15.6 0-8.5-6.8-15.5-15.3-15.5zm-11-98.3c0 0.2 0 0.5 0.2 0.7 0.1 0.1 0.4 0.2 0.6 0.3 2 1 4 2.1 6 3 0.4 0.2 0.9 0.3 1.3 0.4q0.1-0.1 0.2-0.2c-0.2-0.3-0.3-0.6-0.5-0.7-2.4-1.3-4.7-2.5-7.1-3.7 0 0-0.1 0-0.1 0-0.3 0.1-0.6 0.1-0.6 0.2zm-5.8 76.9c-4.4 0-8 3.7-8 8.1 0 4.4 3.7 8 8.1 8 4.4 0 8-3.7 7.9-8.1 0-4.4-3.6-8-8-8zm-2.7 37c0-8.6-6.8-15.6-15.3-15.6-8.5-0.1-15.4 6.8-15.4 15.4-0.1 8.6 6.8 15.6 15.2 15.7 8.5 0 15.4-6.9 15.5-15.5zm-30.6 12.9c-8.4 0-15.4 6.9-15.4 15.5 0 8.6 6.8 15.6 15.3 15.6 8.5 0.1 15.4-6.9 15.4-15.5 0.1-8.5-6.8-15.5-15.3-15.6zm30.7-126.3c0.1 0.2 0.2 0.5 0.4 0.6q1.4 0.9 2.9 1.6c0.3 0.2 0.7 0.2 1.2 0.3-0.1-0.3-0.1-0.5-0.1-0.5q-1.9-1.2-3.7-2.3c-0.2 0-0.5 0.2-0.7 0.3zm-2.9 50.1c0 2.8 2.4 5.1 5.2 5.2 3 0 5.4-2.2 5.4-5.1 0.1-2.9-2.3-5.3-5.2-5.3-2.9 0-5.3 2.3-5.4 5.2zm-4.3-49.7c0.2 0.2 0.2 0.5 0.3 0.6q2.1 1 4.2 1.9c0.2 0 0.5-0.1 0.8-0.1-0.1-0.3-0.2-0.6-0.3-0.7q-2.2-1-4.3-2c-0.2-0.1-0.4 0.2-0.7 0.3zm-7.7-0.4c0.2 0.2 0.3 0.5 0.5 0.7q2.3 1.2 4.6 2.3c0.3 0.1 0.7 0 1 0-0.2-0.3-0.3-0.7-0.6-0.9-1.4-0.8-2.8-1.5-4.3-2.2-0.2-0.1-0.4-0.2-0.7-0.3-0.2 0.1-0.5 0.3-0.5 0.4zm-6.6 1.1c0.2 0.1 0.4 0.2 0.6 0.3q1.9 1 3.9 2c0.3 0.1 0.6 0.3 1 0.5 0.2 0 0.4-0.1 0.7-0.2-0.1-0.2-0.1-0.5-0.3-0.6q-2.4-1.3-4.9-2.5c-0.3-0.1-0.6 0.1-1 0.2zm-5.4 1.2c0.3 0.2 0.5 0.6 0.8 0.7q1.9 0.5 3.8 1c0.4 0.1 0.9 0.1 1.3 0.1q0.1-0.2 0.2-0.4c-0.4-0.2-0.7-0.5-1-0.7-1.4-0.4-2.7-0.7-4.1-1.1-0.3 0-0.6 0.3-1 0.4zm-14.3 76.3c0 3.6 3.1 6.6 6.8 6.6 3.8 0 6.9-3 6.9-6.7 0-3.8-3.1-6.8-6.9-6.8-3.7 0-6.8 3.1-6.8 6.9zm-10.6-24c0 2.3 2 4.2 4.5 4.2 2.4 0 4.3-2 4.3-4.3 0-2.4-2-4.3-4.4-4.3-2.4 0-4.4 2-4.4 4.4zm-3.5 59c0 4.4 3.6 8 8 8 4.5 0 8.1-3.6 8.1-8 0-4.4-3.6-8-8.1-8-4.4 0-8 3.6-8 8zm-26.2-16.9c0 2.8 2.3 5.1 5.2 5.2 2.9 0 5.3-2.3 5.3-5.1 0.1-2.9-2.3-5.3-5.2-5.3-2.9 0-5.3 2.3-5.3 5.2zm-11.8 45.1c0-2.4-1.9-4.3-4.4-4.3-2.4 0-4.4 1.9-4.4 4.3 0 2.4 2 4.3 4.5 4.3 2.4 0 4.4-2 4.3-4.3zm22.3 46.3c0.1-2.9-2.3-5.2-5.2-5.2-2.9 0-5.3 2.3-5.3 5.1 0 2.9 2.3 5.2 5.2 5.3 2.9 0 5.3-2.3 5.3-5.2zm6.1-45.9c0-3.7-3.1-6.7-6.8-6.7-3.8 0-6.9 3.1-6.9 6.8 0 3.7 3.1 6.7 6.8 6.7 3.8 0 6.9-3 6.9-6.8zm21.9 87c0-2.3-2-4.3-4.4-4.3-2.4 0.1-4.4 2-4.4 4.4 0.1 2.3 2 4.3 4.5 4.2 2.4 0 4.3-1.9 4.3-4.3zm3.8-59.3c0-4.5-3.6-8.1-8-8.1-4.4-0.1-8.1 3.5-8.1 7.9 0 4.4 3.5 8.1 7.9 8.1 4.5 0 8.1-3.5 8.2-7.9zm11.7 37c0-3.7-3-6.8-6.8-6.8-3.8 0-6.9 3-6.9 6.8 0 3.6 3 6.7 6.7 6.7 3.9 0 7-3 7-6.7zm11.9-19.3c8.5 0 15.4-6.9 15.5-15.5 0-8.6-6.8-15.6-15.2-15.6-8.6-0.1-15.5 6.9-15.5 15.4-0.1 8.6 6.8 15.6 15.2 15.7zm23.3 46.9c0-2.9-2.3-5.3-5.3-5.3-2.8 0-5.2 2.4-5.3 5.2 0 2.8 2.4 5.2 5.3 5.2 2.9 0 5.3-2.2 5.3-5.1zm2.7-34.4c0-4.4-3.5-8-8-8-4.4-0.1-8 3.6-8 8 0 4.4 3.6 8 8 8 4.4 0 8-3.6 8-8zm24.3-28c0-8.6-6.8-15.6-15.2-15.6-8.5-0.1-15.5 6.8-15.5 15.4 0 8.6 6.8 15.6 15.3 15.7 8.5 0 15.4-6.9 15.4-15.5zm11.8 34.8c0-3.7-3.1-6.8-6.9-6.8-3.7 0-6.8 3-6.8 6.7-0.1 3.7 3 6.8 6.7 6.8 3.8 0 6.9-3 7-6.7zm10.5 22.4c0-2.4-1.9-4.3-4.3-4.4-2.5 0-4.5 2-4.5 4.3 0 2.4 2 4.3 4.4 4.3 2.4 0.1 4.4-1.9 4.4-4.2zm2.8-59.5c0-4.4-3.6-8-8-8-4.4-0.1-8.1 3.5-8.1 8 0 4.4 3.6 8 8 8 4.4 0 8.1-3.6 8.1-8zm0-56.2c0-4.4-3.6-8-8.1-8-4.4 0-8 3.6-8 8 0 4.4 3.6 8 8.1 8 4.4 0 8-3.6 8-8zm9.6 28.7c-0.1 3.6 3 6.7 6.7 6.7 3.8 0.1 6.9-2.9 6.9-6.7 0.1-3.7-3-6.7-6.7-6.8-3.8 0-6.9 3-6.9 6.8zm29.7 102.4q-0.1-0.2-0.3-0.3c-0.4 0.3-0.9 0.6-1.3 1-3 2.9-6 5.9-9.2 8.7-5 4.2-10.5 7.8-16.2 11-0.5 0.3-1 0.8-1.4 1.1q0.1 0.2 0.2 0.4c0.5-0.2 1-0.4 1.5-0.6 4.7-2.5 9.1-5.5 13.4-8.7 4.6-3.3 8.9-7.1 12.5-11.4 0.3-0.4 0.6-0.8 0.8-1.2zm4-98.6c2.4 0 4.4-1.9 4.4-4.3 0-2.4-1.9-4.3-4.3-4.3-2.5-0.1-4.5 1.9-4.5 4.2 0 2.4 1.9 4.4 4.4 4.4zm6.8 84.3c-0.8 0.3-5.8 7.3-5.8 8 1.5 0 6-6.1 5.8-8zm24.9-43c-0.4 0.1-0.6 0-0.7 0.1q-2 1.4-3.9 2.9c-0.2 0.1-0.1 0.5-0.2 0.7 0.3 0 0.6 0.1 0.8 0q1.8-1.3 3.5-2.7c0.2-0.1 0.3-0.5 0.5-1zm2-6.8c-0.4 0-0.8-0.1-1 0q-1.3 0.9-2.5 1.8c-0.2 0.1-0.3 0.5-0.3 0.7 0.2 0.1 0.5 0.2 0.7 0.1q1.3-0.9 2.7-1.9c0.1-0.1 0.2-0.2 0.4-0.7zm1-6.4c-1 0.4-3.6 2.7-3.7 3.3 1.4 0.2 4.2-2.3 3.7-3.3zm2.3-6.1c0-0.2-0.1-0.3-0.1-0.5-0.2 0-0.5 0.1-0.6 0.2-0.6 0.6-1.1 1.1-1.7 1.7-0.5 0.4-1 0.8-1.6 1.3-0.1 0.1-0.1 0.4-0.2 0.7 0 0 0.2 0.2 0.3 0.2 0.8 0 3.9-2.8 3.9-3.6zm1-4.6c0.2-0.1 0.3-0.3 0.4-0.6-0.1-0.1-0.2-0.3-0.2-0.3-0.3 0-0.5 0-0.6 0.1q-1.3 1.1-2.5 2.3c-0.1 0.1-0.2 0.5-0.2 0.7 0.2 0 0.6 0.1 0.7-0.1 0.9-0.6 1.6-1.3 2.4-2.1z"/>
				<path id="Layer" fill-rule="evenodd" class="s2" d="m321.3 173.3c0 81.8-66.5 148.1-148.6 148-81.5 0-147.8-66.5-147.8-148.2 0-81.9 66.4-148.3 148.3-148.2 81.8 0 148.1 66.4 148.1 148.4zm-279.1 58.4c-0.2-0.6-0.2-1.2-0.4-1.8q-0.7-2.9-1.4-5.7c-0.1-0.3-0.1-0.7-0.2-1-0.1-0.2-0.3-0.4-0.4-0.4-0.2 0.1-0.4 0.3-0.4 0.4-0.1 0.3-0.1 0.6-0.1 0.8q0.8 3.5 1.8 6.9c0.1 0.4 0.4 0.7 0.7 1q0.2-0.1 0.4-0.2zm25.6 33.5c-1.3-1-2.6-2-3.8-3-4.5-3.5-8.6-7.3-11.9-12-2.5-3.6-4.5-7.5-6.4-11.4-0.1-0.3-0.5-0.5-0.8-0.7 0 0.3-0.2 0.8-0.1 1q0.8 2 1.8 3.9c4.2 8.7 10.5 15.7 18.4 21.3 0.8 0.5 1.7 0.9 2.5 1.3q0.1-0.2 0.3-0.4zm181.7-136.6c0 2.9 2.4 5.2 5.2 5.3 2.9 0 5.3-2.3 5.4-5.1 0-2.9-2.4-5.3-5.3-5.3-2.9 0-5.3 2.3-5.3 5.1zm5.3 86.3c-2.9 0-5.3 2.3-5.3 5.1 0 2.9 2.4 5.2 5.2 5.2 2.9 0 5.3-2.2 5.4-5.1 0-2.9-2.4-5.2-5.3-5.2zm-33.3-128.4c0 2.3 2 4.3 4.4 4.3 2.4 0 4.4-1.9 4.4-4.3 0-2.3-1.9-4.3-4.3-4.3-2.5 0-4.5 1.9-4.5 4.3zm-15.4 24c0 3.7 3.1 6.7 6.8 6.7 3.8 0 6.8-3 6.9-6.7 0-3.8-3.1-6.8-6.9-6.8-3.8 0-6.8 3.1-6.8 6.8zm4.5 47.8c-8.5 0-15.5 6.9-15.5 15.5 0 8.6 6.8 15.6 15.3 15.6 8.5 0.1 15.4-6.9 15.4-15.5 0-8.5-6.8-15.5-15.2-15.6zm-17.9-28.5c-8.5-0.1-15.4 6.9-15.4 15.5 0 8.6 6.9 15.5 15.3 15.6 8.5 0 15.4-7 15.4-15.6 0-8.5-6.8-15.5-15.3-15.5zm-11-98.3c0 0.2 0 0.5 0.2 0.7 0.1 0.1 0.4 0.2 0.6 0.3 2 1 4 2.1 6 3 0.4 0.2 0.9 0.3 1.3 0.4q0.1-0.1 0.2-0.2c-0.2-0.3-0.3-0.6-0.5-0.7-2.4-1.3-4.7-2.5-7.1-3.7 0 0-0.1 0-0.1 0-0.3 0.1-0.6 0.1-0.6 0.2zm-5.8 76.9c-4.4 0-8 3.7-8 8.1 0 4.4 3.7 8 8.1 8 4.4 0 8-3.7 7.9-8.1 0-4.4-3.6-8-8-8zm-2.7 37c0-8.6-6.8-15.6-15.3-15.6-8.5-0.1-15.4 6.8-15.4 15.4-0.1 8.6 6.8 15.6 15.2 15.7 8.5 0 15.4-6.9 15.5-15.5zm-30.6 12.9c-8.4 0-15.4 6.9-15.4 15.5 0 8.6 6.8 15.6 15.3 15.6 8.5 0.1 15.4-6.9 15.4-15.5 0.1-8.5-6.8-15.5-15.3-15.6zm30.7-126.3c0.1 0.2 0.2 0.5 0.4 0.6q1.4 0.9 2.9 1.6c0.3 0.2 0.7 0.2 1.2 0.3-0.1-0.3-0.1-0.5-0.1-0.5q-1.9-1.2-3.7-2.3c-0.2 0-0.5 0.2-0.7 0.3zm-2.9 50.1c0 2.8 2.4 5.1 5.2 5.2 3 0 5.4-2.2 5.4-5.1 0.1-2.9-2.3-5.3-5.2-5.3-2.9 0-5.3 2.3-5.4 5.2zm-4.3-49.7c0.2 0.2 0.2 0.5 0.3 0.6q2.1 1 4.2 1.9c0.2 0 0.5-0.1 0.8-0.1-0.1-0.3-0.2-0.6-0.3-0.7q-2.2-1-4.3-2c-0.2-0.1-0.4 0.2-0.7 0.3zm-7.7-0.4c0.2 0.2 0.3 0.5 0.5 0.7q2.3 1.2 4.6 2.3c0.3 0.1 0.7 0 1 0-0.2-0.3-0.3-0.7-0.6-0.9-1.4-0.8-2.8-1.5-4.3-2.2-0.2-0.1-0.4-0.2-0.7-0.3-0.2 0.1-0.5 0.3-0.5 0.4zm-6.6 1.1c0.2 0.1 0.4 0.2 0.6 0.3q1.9 1 3.9 2c0.3 0.1 0.6 0.3 1 0.5 0.2 0 0.4-0.1 0.7-0.2-0.1-0.2-0.1-0.5-0.3-0.6q-2.4-1.3-4.9-2.5c-0.3-0.1-0.6 0.1-1 0.2zm-5.4 1.2c0.3 0.2 0.5 0.6 0.8 0.7q1.9 0.5 3.8 1c0.4 0.1 0.9 0.1 1.3 0.1q0.1-0.2 0.2-0.4c-0.4-0.2-0.7-0.5-1-0.7-1.4-0.4-2.7-0.7-4.1-1.1-0.3 0-0.6 0.3-1 0.4zm-14.3 76.3c0 3.6 3.1 6.6 6.8 6.6 3.8 0 6.9-3 6.9-6.7 0-3.8-3.1-6.8-6.9-6.8-3.7 0-6.8 3.1-6.8 6.9zm-10.6-24c0 2.3 2 4.2 4.5 4.2 2.4 0 4.3-2 4.3-4.3 0-2.4-2-4.3-4.4-4.3-2.4 0-4.4 2-4.4 4.4zm-3.5 59c0 4.4 3.6 8 8 8 4.5 0 8.1-3.6 8.1-8 0-4.4-3.6-8-8.1-8-4.4 0-8 3.6-8 8zm-26.2-16.9c0 2.8 2.3 5.1 5.2 5.2 2.9 0 5.3-2.3 5.3-5.1 0.1-2.9-2.3-5.3-5.2-5.3-2.9 0-5.3 2.3-5.3 5.2zm-11.8 45.1c0-2.4-1.9-4.3-4.4-4.3-2.4 0-4.4 1.9-4.4 4.3 0 2.4 2 4.3 4.5 4.3 2.4 0 4.4-2 4.3-4.3zm22.3 46.3c0.1-2.9-2.3-5.2-5.2-5.2-2.9 0-5.3 2.3-5.3 5.1 0 2.9 2.3 5.2 5.2 5.3 2.9 0 5.3-2.3 5.3-5.2zm6.1-45.9c0-3.7-3.1-6.7-6.8-6.7-3.8 0-6.9 3.1-6.9 6.8 0 3.7 3.1 6.7 6.8 6.7 3.8 0 6.9-3 6.9-6.8zm21.9 87c0-2.3-2-4.3-4.4-4.3-2.4 0.1-4.4 2-4.4 4.4 0.1 2.3 2 4.3 4.5 4.2 2.4 0 4.3-1.9 4.3-4.3zm3.8-59.3c0-4.5-3.6-8.1-8-8.1-4.4-0.1-8.1 3.5-8.1 7.9 0 4.4 3.5 8.1 7.9 8.1 4.5 0 8.1-3.5 8.2-7.9zm11.7 37c0-3.7-3-6.8-6.8-6.8-3.8 0-6.9 3-6.9 6.8 0 3.6 3 6.7 6.7 6.7 3.9 0 7-3 7-6.7zm11.9-19.3c8.5 0 15.4-6.9 15.5-15.5 0-8.6-6.8-15.6-15.2-15.6-8.6-0.1-15.5 6.9-15.5 15.4-0.1 8.6 6.8 15.6 15.2 15.7zm23.3 46.9c0-2.9-2.3-5.3-5.3-5.3-2.8 0-5.2 2.4-5.3 5.2 0 2.8 2.4 5.2 5.3 5.2 2.9 0 5.3-2.2 5.3-5.1zm2.7-34.4c0-4.4-3.5-8-8-8-4.4-0.1-8 3.6-8 8 0 4.4 3.6 8 8 8 4.4 0 8-3.6 8-8zm24.3-28c0-8.6-6.8-15.6-15.2-15.6-8.5-0.1-15.5 6.8-15.5 15.4 0 8.6 6.8 15.6 15.3 15.7 8.5 0 15.4-6.9 15.4-15.5zm11.8 34.8c0-3.7-3.1-6.8-6.9-6.8-3.7 0-6.8 3-6.8 6.7-0.1 3.7 3 6.8 6.7 6.8 3.8 0 6.9-3 7-6.7zm10.5 22.4c0-2.4-1.9-4.3-4.3-4.4-2.5 0-4.5 2-4.5 4.3 0 2.4 2 4.3 4.4 4.3 2.4 0.1 4.4-1.9 4.4-4.2zm2.8-59.5c0-4.4-3.6-8-8-8-4.4-0.1-8.1 3.5-8.1 8 0 4.4 3.6 8 8 8 4.4 0 8.1-3.6 8.1-8zm0-56.2c0-4.4-3.6-8-8.1-8-4.4 0-8 3.6-8 8 0 4.4 3.6 8 8.1 8 4.4 0 8-3.6 8-8zm9.6 28.7c-0.1 3.6 3 6.7 6.7 6.7 3.8 0.1 6.9-2.9 6.9-6.7 0.1-3.7-3-6.7-6.7-6.8-3.8 0-6.9 3-6.9 6.8zm29.7 102.4q-0.1-0.2-0.3-0.3c-0.4 0.3-0.9 0.6-1.3 1-3 2.9-6 5.9-9.2 8.7-5 4.2-10.5 7.8-16.2 11-0.5 0.3-1 0.8-1.4 1.1q0.1 0.2 0.2 0.4c0.5-0.2 1-0.4 1.5-0.6 4.7-2.5 9.1-5.5 13.4-8.7 4.6-3.3 8.9-7.1 12.5-11.4 0.3-0.4 0.6-0.8 0.8-1.2zm4-98.6c2.4 0 4.4-1.9 4.4-4.3 0-2.4-1.9-4.3-4.3-4.3-2.5-0.1-4.5 1.9-4.5 4.2 0 2.4 1.9 4.4 4.4 4.4zm6.8 84.3c-0.8 0.3-5.8 7.3-5.8 8 1.5 0 6-6.1 5.8-8zm24.9-43c-0.4 0.1-0.6 0-0.7 0.1q-2 1.4-3.9 2.9c-0.2 0.1-0.1 0.5-0.2 0.7 0.3 0 0.6 0.1 0.8 0q1.8-1.3 3.5-2.7c0.2-0.1 0.3-0.5 0.5-1zm2-6.8c-0.4 0-0.8-0.1-1 0q-1.3 0.9-2.5 1.8c-0.2 0.1-0.3 0.5-0.3 0.7 0.2 0.1 0.5 0.2 0.7 0.1q1.3-0.9 2.7-1.9c0.1-0.1 0.2-0.2 0.4-0.7zm1-6.4c-1 0.4-3.6 2.7-3.7 3.3 1.4 0.2 4.2-2.3 3.7-3.3zm2.3-6.1c0-0.2-0.1-0.3-0.1-0.5-0.2 0-0.5 0.1-0.6 0.2-0.6 0.6-1.1 1.1-1.7 1.7-0.5 0.4-1 0.8-1.6 1.3-0.1 0.1-0.1 0.4-0.2 0.7 0 0 0.2 0.2 0.3 0.2 0.8 0 3.9-2.8 3.9-3.6zm1-4.6c0.2-0.1 0.3-0.3 0.4-0.6-0.1-0.1-0.2-0.3-0.2-0.3-0.3 0-0.5 0-0.6 0.1q-1.3 1.1-2.5 2.3c-0.1 0.1-0.2 0.5-0.2 0.7 0.2 0 0.6 0.1 0.7-0.1 0.9-0.6 1.6-1.3 2.4-2.1z"/>
				<path id="Layer" fill-rule="evenodd" class="s1" d="m208 145.3c0 8.6-6.9 15.6-15.4 15.6-8.4-0.1-15.3-7-15.3-15.6 0-8.6 6.9-15.6 15.4-15.5 8.5 0 15.3 7 15.3 15.5zm-1.4 0.1c0.1-7.8-6.2-14.2-13.8-14.3-7.8 0-14.1 6.3-14.1 14.1-0.1 7.9 6.2 14.2 13.9 14.3 7.7 0 14-6.3 14-14.1z"/>
				<path id="Layer" fill-rule="evenodd" class="s1" d="m225.8 173.9c0 8.6-6.9 15.6-15.4 15.5-8.5 0-15.3-7-15.3-15.6 0-8.6 7-15.5 15.5-15.5 8.4 0.1 15.2 7.1 15.2 15.6zm-1.4 0c0.1-7.8-6.2-14.2-13.9-14.2-7.7 0-14 6.3-14 14.2 0 7.8 6.2 14.1 13.9 14.2 7.7 0 14-6.4 14-14.2z"/>
				<path id="Layer" fill-rule="evenodd" class="s1" d="m157.9 173.9c0 8.6-6.9 15.6-15.4 15.5-8.5 0-15.3-7-15.3-15.6 0-8.6 7-15.5 15.5-15.5 8.4 0.1 15.3 7.1 15.2 15.6zm-1.4 0c0.1-7.8-6.2-14.2-13.8-14.2-7.8 0-14.1 6.3-14.1 14.2 0 7.7 6.2 14.1 13.9 14.2 7.7 0 14-6.4 14-14.2z"/>
				<path id="Layer" fill-rule="evenodd" class="s1" d="m173.2 204.1c-0.1 8.6-7 15.5-15.5 15.5-8.4-0.1-15.3-7.1-15.2-15.7 0-8.6 6.9-15.5 15.5-15.4 8.4 0 15.2 7 15.2 15.6zm-1.4 0c0-7.9-6.2-14.2-13.9-14.3-7.7 0-14.1 6.4-14.1 14.2 0 7.8 6.3 14.2 13.9 14.2 7.8 0 14.1-6.3 14.1-14.1z"/>
				<path id="Layer" fill-rule="evenodd" class="s1" d="m208 204.1c0 8.6-6.9 15.5-15.4 15.5-8.5-0.1-15.3-7.1-15.3-15.7 0-8.6 7-15.5 15.5-15.4 8.4 0 15.2 7 15.2 15.6zm-1.4 0c0.1-7.8-6.2-14.2-13.8-14.3-7.8 0-14.1 6.3-14.1 14.2-0.1 7.8 6.2 14.2 13.9 14.2 7.7 0 14-6.3 14-14.1z"/>
				<path id="Layer" fill-rule="evenodd" class="s1" d="m173.2 145.4c-0.1 8.6-7 15.5-15.5 15.5-8.4-0.1-15.3-7.1-15.2-15.7 0-8.6 6.9-15.5 15.4-15.4 8.5 0 15.3 7 15.3 15.6zm-1.4 0c0.1-7.8-6.2-14.2-13.9-14.3-7.7 0-14 6.3-14.1 14.1 0 7.9 6.3 14.2 13.9 14.3 7.8 0 14.1-6.3 14.1-14.1z"/>
				<path id="Layer" fill-rule="evenodd" class="s1" d="m183.9 116.4c0.1 4.4-3.5 8.1-7.9 8.1-4.4 0-8.1-3.6-8.1-8 0-4.4 3.6-8.1 8-8.1 4.4 0 8 3.6 8 8zm-1.3 0.1c0-3.7-3-6.7-6.6-6.7-3.7 0-6.7 3-6.7 6.6 0 3.7 3 6.7 6.6 6.7 3.7 0 6.7-3 6.7-6.6z"/>
				<path id="Layer" fill-rule="evenodd" class="s1" d="m134.1 201.9c-0.1 4.4-3.7 7.9-8.2 7.9-4.4 0-7.9-3.7-7.9-8.1 0-4.4 3.7-8 8.1-7.9 4.4 0 8 3.6 8 8.1zm-1.4-0.2c0-3.6-3.1-6.6-6.7-6.6-3.7 0-6.6 3-6.6 6.7 0 3.7 3 6.6 6.7 6.6 3.6 0 6.6-3 6.6-6.7z"/>
				<path id="Layer" fill-rule="evenodd" class="s1" d="m233.1 201.8c0 4.4-3.7 8-8.1 8-4.4 0-8-3.6-8-8 0-4.5 3.7-8.1 8.1-8 4.4 0 8 3.5 8 8zm-1.4 0c0-3.7-3-6.7-6.7-6.7-3.6 0-6.6 3-6.6 6.7 0 3.6 3 6.6 6.7 6.6 3.6 0 6.6-3 6.6-6.6z"/>
				<path id="Layer" fill-rule="evenodd" class="s1" d="m183.7 232.1c0 4.4-3.6 8-8 8-4.4 0-8-3.6-8-8 0-4.4 3.6-8.1 8-8 4.5 0 8 3.6 8 8zm-1.3 0c0-3.7-3-6.7-6.7-6.7-3.6 0-6.6 3-6.6 6.7 0 3.6 3 6.6 6.6 6.6 3.7 0 6.7-3 6.7-6.6z"/>
				<path id="Layer" fill-rule="evenodd" class="s1" d="m134.1 145.6c0 4.4-3.6 8-8.1 8-4.4 0-8-3.6-8-8 0-4.4 3.6-8 8-8 4.5 0 8.1 3.6 8.1 8zm-1.4 0c0-3.7-3-6.7-6.7-6.7-3.6 0-6.6 3-6.6 6.7 0 3.6 3 6.6 6.6 6.6 3.7 0 6.7-2.9 6.7-6.6z"/>
				<path id="Layer" fill-rule="evenodd" class="s1" d="m233.1 145.6c0 4.4-3.6 8-8 8-4.5 0-8.1-3.6-8.1-8 0-4.4 3.6-8 8-8 4.5 0 8.1 3.6 8.1 8zm-1.4 0c0-3.6-3-6.6-6.6-6.7-3.7 0-6.7 3-6.7 6.7 0 3.6 3 6.6 6.6 6.6 3.7 0 6.7-2.9 6.7-6.6z"/>
				<path id="Layer" fill-rule="evenodd" class="s1" d="m145.8 238.9c0 3.7-3.2 6.7-7 6.7-3.7 0-6.7-3.1-6.7-6.7 0-3.8 3.1-6.8 6.9-6.8 3.8 0 6.8 3.1 6.8 6.8zm-1.4 0c0-3-2.5-5.5-5.5-5.4-3 0-5.4 2.4-5.4 5.4 0 2.9 2.4 5.3 5.4 5.3 3 0 5.5-2.4 5.5-5.3z"/>
				<path id="Layer" fill-rule="evenodd" class="s1" d="m145.8 110.5c0 3.7-3.1 6.7-6.9 6.7-3.7 0-6.8-3-6.8-6.6 0-3.8 3.1-6.9 6.8-6.9 3.8 0 6.9 3 6.9 6.8zm-1.4-0.1c0-2.9-2.5-5.3-5.5-5.3-3 0-5.4 2.4-5.4 5.3 0 3 2.4 5.4 5.4 5.5 3 0 5.5-2.5 5.5-5.5z"/>
				<path id="Layer" fill-rule="evenodd" class="s1" d="m219.8 110.5c-0.1 3.7-3.1 6.7-6.9 6.7-3.7 0-6.8-3-6.8-6.7 0-3.7 3-6.8 6.8-6.8 3.8 0 6.9 3 6.9 6.8zm-1.4 0c0-3-2.5-5.4-5.5-5.4-3 0-5.5 2.4-5.5 5.4 0 2.9 2.5 5.4 5.5 5.4 3 0 5.5-2.4 5.5-5.4z"/>
				<path id="Layer" fill-rule="evenodd" class="s1" d="m108.4 174.2c0 3.8-3.1 6.8-6.9 6.8-3.7 0-6.8-3-6.8-6.7 0-3.7 3.1-6.8 6.9-6.8 3.7 0 6.8 3 6.8 6.7zm-1.4 0.1c0-3-2.4-5.4-5.4-5.4-3 0-5.5 2.4-5.5 5.3 0 3 2.4 5.4 5.4 5.4 3.1 0.1 5.6-2.4 5.5-5.3z"/>
				<path id="Layer" fill-rule="evenodd" class="s1" d="m219.8 238.9c-0.1 3.7-3.2 6.7-7 6.7-3.7 0-6.8-3.1-6.7-6.8 0-3.7 3.1-6.7 6.8-6.7 3.8 0 6.9 3.1 6.9 6.8zm-1.4 0c0-3.1-2.5-5.5-5.6-5.4-3 0-5.4 2.4-5.4 5.4 0.1 2.9 2.5 5.3 5.5 5.3 3 0 5.5-2.4 5.5-5.3z"/>
				<path id="Layer" fill-rule="evenodd" class="s1" d="m256.3 174.3c0 3.8-3.1 6.8-6.9 6.7-3.7 0-6.8-3.1-6.7-6.7 0-3.8 3.1-6.8 6.9-6.8 3.7 0.1 6.8 3.1 6.7 6.8zm-1.3 0c0-3-2.5-5.4-5.6-5.4-3 0-5.4 2.4-5.4 5.4 0 2.9 2.5 5.4 5.5 5.3 3 0 5.5-2.4 5.5-5.3z"/>
				<path id="Layer" class="s1" d="m67.5 265.6c-0.8-0.4-1.7-0.8-2.5-1.3-7.9-5.5-14.2-12.5-18.4-21.3q-0.9-1.9-1.8-3.9c-0.1-0.3 0.1-0.7 0.1-1 0.3 0.2 0.7 0.4 0.9 0.7 1.8 3.9 3.8 7.8 6.3 11.4 3.3 4.6 7.4 8.5 11.9 12q1.9 1.5 3.7 3-0.1 0.2-0.2 0.4z"/>
				<path id="Layer" fill-rule="evenodd" class="s1" d="m102.3 128.8c0 2.8-2.4 5.1-5.3 5.1-2.9-0.1-5.2-2.4-5.2-5.2 0-2.9 2.4-5.2 5.3-5.2 2.9 0 5.3 2.4 5.2 5.3zm-1.3-0.1c0-2.1-1.8-3.8-3.9-3.8-2.1 0-3.9 1.6-3.9 3.7-0.1 2.2 1.7 3.9 3.9 3.9 2.1 0 3.9-1.7 3.9-3.8z"/>
				<path id="Layer" fill-rule="evenodd" class="s1" d="m260.1 128.8c-0.1 2.8-2.5 5.1-5.4 5.1-2.8-0.1-5.2-2.4-5.2-5.3 0-2.8 2.4-5.1 5.3-5.1 2.9 0 5.3 2.4 5.3 5.3zm-1.4-0.1c0-2.1-1.7-3.8-3.9-3.8-2.1-0.1-3.9 1.6-3.9 3.7-0.1 2.1 1.7 3.9 3.8 3.9 2.2 0 4-1.7 4-3.8z"/>
				<path id="Layer" fill-rule="evenodd" class="s1" d="m260.1 220.1c-0.1 2.9-2.5 5.2-5.4 5.2-2.8-0.1-5.2-2.4-5.2-5.3 0-2.8 2.4-5.1 5.3-5.1 2.9 0 5.3 2.3 5.3 5.2zm-1.4 0c0-2.1-1.7-3.8-3.8-3.9-2.2 0-4 1.7-4 3.9 0 2 1.7 3.7 3.8 3.8 2.2 0 4-1.7 4-3.8z"/>
				<path id="Layer" fill-rule="evenodd" class="s1" d="m102.3 220.1c0 2.9-2.4 5.2-5.3 5.2-2.9-0.1-5.2-2.4-5.2-5.3 0-2.8 2.4-5.1 5.3-5.1 2.9 0 5.3 2.3 5.2 5.2zm-1.3 0c0-2.1-1.7-3.8-3.9-3.9-2.1 0-3.9 1.7-3.9 3.8-0.1 2.1 1.7 3.8 3.8 3.9 2.2 0 4-1.7 4-3.8z"/>
				<path id="Layer" fill-rule="evenodd" class="s1" d="m181 82.2c0 2.9-2.4 5.1-5.4 5.1-2.8-0.1-5.2-2.4-5.2-5.2 0.1-2.9 2.5-5.2 5.4-5.2 2.9 0 5.3 2.4 5.2 5.3zm-1.4-0.1c0-2.1-1.7-3.8-3.9-3.8-2.1 0-3.8 1.7-3.9 3.8 0 2.1 1.7 3.8 3.9 3.8 2.2 0.1 3.9-1.7 3.9-3.8z"/>
				<path id="Layer" fill-rule="evenodd" class="s1" d="m181 266.5c0 2.8-2.4 5.1-5.3 5.1-2.9 0-5.3-2.4-5.3-5.2 0.1-2.8 2.5-5.2 5.3-5.2 3 0 5.3 2.4 5.3 5.3zm-1.4 0c0.1-2.1-1.7-3.9-3.8-3.9-2.1 0-3.9 1.7-4 3.7 0 2.2 1.7 3.9 3.9 3.9 2.2 0 3.9-1.6 3.9-3.7z"/>
				<path id="Layer" class="s1" d="m244 298.2c0.4-0.4 0.9-0.8 1.4-1.1 5.7-3.2 11.2-6.8 16.2-11.1 3.2-2.7 6.2-5.7 9.2-8.6 0.4-0.4 0.9-0.7 1.3-1q0.2 0.1 0.3 0.3c-0.2 0.4-0.5 0.8-0.8 1.2-3.6 4.3-7.9 8-12.5 11.4-4.3 3.2-8.7 6.2-13.4 8.7-0.5 0.2-1 0.4-1.5 0.5q-0.1-0.1-0.2-0.3z"/>
				<path id="Layer" fill-rule="evenodd" class="s1" d="m130.3 86.5c0 2.3-1.9 4.3-4.3 4.3-2.5 0-4.5-1.9-4.5-4.3 0-2.3 2-4.3 4.4-4.3 2.4 0 4.4 1.9 4.4 4.3zm-1.3 0c-0.1-1.6-1.4-2.9-3.1-2.9-1.7 0-3 1.3-3 2.9 0 1.6 1.4 3 3.1 2.9 1.6 0 3-1.3 3-2.9z"/>
				<path id="Layer" fill-rule="evenodd" class="s1" d="m230.3 86.5c0 2.4-2 4.3-4.4 4.3-2.4 0-4.4-2-4.4-4.3 0-2.4 2-4.3 4.5-4.3 2.4 0 4.3 2 4.3 4.3zm-1.3 0c0-1.6-1.4-2.9-3.1-2.9-1.6 0-3 1.3-3 2.9 0 1.6 1.3 2.9 3 2.9 1.7 0 3.1-1.3 3.1-2.9z"/>
				<path id="Layer" fill-rule="evenodd" class="s1" d="m230.3 261.3c0 2.3-2 4.3-4.4 4.2-2.4 0-4.4-1.9-4.4-4.3 0-2.3 2-4.3 4.5-4.3 2.4 0.1 4.3 2 4.3 4.4zm-1.3-0.1c-0.1-1.6-1.5-2.9-3.1-2.9-1.7 0-3 1.4-3 3 0 1.6 1.4 2.9 3.1 2.9 1.6 0 3-1.4 3-3z"/>
				<path id="Layer" fill-rule="evenodd" class="s1" d="m80 173.8c0.1 2.3-1.9 4.3-4.3 4.3-2.5 0-4.5-2-4.5-4.3 0-2.4 2-4.3 4.4-4.3 2.5 0 4.4 1.9 4.4 4.3zm-1.3 0c0-1.6-1.4-2.9-3-2.9-1.7 0-3.1 1.2-3.1 2.9 0 1.6 1.4 2.9 3 2.9 1.7 0 3.1-1.3 3.1-2.9z"/>
				<path id="Layer" fill-rule="evenodd" class="s1" d="m130.3 261.2c0 2.4-1.9 4.3-4.3 4.3-2.5 0.1-4.4-1.9-4.5-4.2 0-2.4 2-4.3 4.4-4.4 2.4 0 4.4 2 4.4 4.3zm-1.3 0.1c0-1.6-1.4-3-3.1-3-1.6 0-3 1.3-3 2.9 0 1.6 1.3 3 3 3 1.7 0 3-1.3 3.1-2.9z"/>
				<path id="Layer" fill-rule="evenodd" class="s1" d="m280.8 173.8c0 2.4-2 4.3-4.4 4.3-2.5 0-4.4-2-4.4-4.4 0-2.3 2-4.3 4.5-4.2 2.4 0 4.3 1.9 4.3 4.3zm-1.4 0c0-1.6-1.3-2.9-3-2.9-1.6 0-3 1.3-3 2.9 0 1.6 1.4 2.9 3 2.9 1.7 0 3-1.3 3-2.9z"/>
				<path id="Layer" class="s1" d="m283.2 262.4c0.2 1.9-4.3 8-5.8 8 0-0.7 5-7.7 5.8-8z"/>
				<path id="Layer" class="s1" d="m189.8 35.9c-0.4-0.1-0.9-0.2-1.3-0.4q-3-1.5-6-3c-0.2-0.1-0.5-0.2-0.6-0.3-0.2-0.2-0.2-0.5-0.2-0.7 0-0.1 0.3-0.1 0.6-0.2q0.1 0 0.1 0 3.6 1.8 7 3.7c0.3 0.1 0.4 0.4 0.6 0.7q-0.1 0.1-0.2 0.2z"/>
				<path id="Layer" class="s1" d="m41.8 231.9c-0.3-0.3-0.6-0.6-0.7-1q-0.9-3.4-1.8-6.9c0-0.2 0-0.5 0.1-0.8 0-0.1 0.2-0.3 0.4-0.4 0.1 0 0.3 0.2 0.4 0.4 0.1 0.3 0.1 0.7 0.2 1q0.7 2.8 1.4 5.7c0.2 0.6 0.3 1.2 0.4 1.8q-0.2 0.1-0.4 0.2z"/>
				<path id="Layer" class="s1" d="m158.9 31.6c0.3 0.1 0.5 0.2 0.7 0.3 1.5 0.7 2.9 1.4 4.3 2.2 0.3 0.1 0.4 0.6 0.6 0.9-0.3 0-0.7 0.1-1 0q-2.3-1.1-4.6-2.3c-0.2-0.2-0.4-0.5-0.5-0.7 0 0 0.3-0.3 0.5-0.4z"/>
				<path id="Layer" class="s1" d="m151.9 32.8c0.3-0.1 0.7-0.3 0.9-0.2q2.5 1.2 5 2.5c0.1 0.1 0.1 0.4 0.2 0.6-0.3 0.1-0.5 0.2-0.7 0.1-0.4-0.1-0.7-0.3-1-0.4q-2-1-3.9-2c-0.2-0.1-0.4-0.2-0.6-0.3q0-0.2 0.1-0.3z"/>
				<path id="Layer" class="s1" d="m152.3 36.1c-0.4 0-0.9 0-1.3-0.1q-1.9-0.5-3.8-1.1c-0.3 0-0.5-0.4-0.8-0.6 0.4-0.2 0.8-0.4 1-0.4q2.1 0.5 4.1 1.1c0.3 0.1 0.6 0.5 1 0.7q-0.1 0.2-0.2 0.4z"/>
				<path id="Layer" class="s1" d="m171.4 34.8c-0.3 0-0.6 0.1-0.8 0.1q-2.1-0.9-4.1-1.9c-0.2-0.1-0.3-0.4-0.4-0.6 0.3-0.1 0.5-0.4 0.7-0.3q2.2 1 4.3 2c0.1 0.1 0.2 0.4 0.3 0.7z"/>
				<path id="Layer" class="s1" d="m308.2 219.4c-0.3 0.5-0.4 0.9-0.6 1q-1.7 1.4-3.5 2.7c-0.2 0.1-0.5 0-0.8 0 0.1-0.2 0-0.6 0.2-0.7q1.9-1.5 3.9-2.9c0.1-0.1 0.3 0 0.8-0.1z"/>
				<path id="Layer" class="s1" d="m309.5 203.7c0-0.1-0.3-0.2-0.3-0.2 0.1-0.3 0.1-0.6 0.3-0.7 0.5-0.5 1-0.9 1.5-1.3 0.6-0.5 1.1-1.1 1.7-1.7 0.1-0.1 0.4-0.1 0.6-0.2 0 0.1 0.2 0.3 0.1 0.5 0 0.8-3.1 3.6-3.9 3.6z"/>
				<path id="Layer" class="s1" d="m177.8 34.5c-0.5-0.1-0.9-0.1-1.2-0.3q-1.5-0.7-2.9-1.6c-0.2-0.1-0.3-0.4-0.4-0.6 0.2-0.1 0.5-0.3 0.6-0.3q1.9 1.1 3.8 2.3c0.1 0 0 0.2 0.1 0.5z"/>
				<path id="Layer" class="s1" d="m307.4 209.5c0.1-0.6 2.7-2.9 3.8-3.3 0.4 1-2.4 3.4-3.8 3.3z"/>
				<path id="Layer" class="s1" d="m314.8 194.9c-0.1 0.3-0.2 0.5-0.4 0.6q-1.1 1.1-2.4 2.1c-0.1 0.2-0.5 0.1-0.8 0.1 0.1-0.2 0.2-0.6 0.3-0.7q1.2-1.2 2.5-2.3c0.1-0.1 0.3-0.1 0.6-0.1 0 0 0.1 0.2 0.2 0.3z"/>
				<path id="Layer" class="s1" d="m310.1 212.6c-0.3 0.5-0.3 0.6-0.4 0.7-0.9 0.7-1.8 1.3-2.7 1.9-0.2 0.1-0.5 0-0.7-0.1 0-0.2 0.1-0.6 0.2-0.7q1.3-0.9 2.6-1.8c0.2-0.1 0.6 0 1 0z"/>
				<g id="Layer">
					<path id="Layer" fill-rule="evenodd" class="s0" d="m206.6 145.4c0 7.8-6.3 14.1-14 14.1-7.7-0.1-14-6.4-13.9-14.3 0-7.8 6.3-14.1 14.1-14.1 7.6 0.1 13.9 6.5 13.8 14.3zm-8.3-10.3q0 0 0 0c0-0.1 0-0.2 0-0.3q-0.3-0.4-0.6-0.9c-0.2 0.3-0.5 0.6-0.5 0.9-0.2 0.5-0.3 1.2-0.4 1.8 0 0.2 0.2 0.5 0.3 0.8 0.3-0.2 0.7-0.3 0.8-0.5 0.2-0.6 0.3-1.2 0.4-1.8zm1.6 3.9c0.3-0.6 0.4-1.4 0.7-2.1q-0.3-0.5-0.6-1c-0.2 0.3-0.5 0.6-0.6 1q-0.3 0.9-0.4 1.8c-0.1 0.3 0.1 0.6 0.2 0.8 0.2-0.1 0.6-0.3 0.7-0.5zm1.4 2.2c0.4-0.7 0.7-1.4 1.1-2.2-0.2-0.3-0.3-0.5-0.5-0.6-0.1-0.1-0.4 0.1-0.5 0.2q-0.5 1.1-0.9 2.2c0 0.2 0.1 0.4 0.1 0.6 0.3 0 0.6-0.1 0.7-0.2zm0.3 3q0.2 0 0.5 0.1c0.4-0.5 0.9-1 1.2-1.6 0.2-0.5 0.3-1.1 0.5-1.7-0.3 0.1-0.7-0.1-0.9 0.1q-0.8 1.1-1.4 2.2c-0.1 0.2 0.1 0.6 0.1 0.9zm2.5 1.5c0-0.1-0.1-0.3-0.2-0.5 0-0.1-0.4-0.1-0.4 0q-1 1.4-1.9 2.7 0.2 0.2 0.3 0.3c1.1-0.5 1.7-1.4 2.2-2.5z"/>
					<path id="Layer" fill-rule="evenodd" class="s0" d="m224.4 173.9c0 7.8-6.3 14.2-14 14.2-7.7-0.1-13.9-6.4-13.9-14.2 0-7.9 6.3-14.2 14-14.2 7.7 0 14 6.4 13.9 14.2zm-2-2.4c-0.2-0.1-0.5-0.1-0.6 0.1-0.5 0.6-1.1 1.3-1.6 2.1-0.2 0.4 0.2 0.9 0.6 0.6 0.8-0.6 1.4-1.4 2.1-2.1-0.3-0.4-0.4-0.6-0.5-0.7zm-2.6 0.4c0.1 0.1 0.5 0.1 0.5 0 0.7-0.8 1.2-1.5 1.8-2.3-0.2-0.3-0.3-0.6-0.4-0.6-0.2-0.1-0.5 0-0.6 0.1-0.5 0.7-0.9 1.5-1.3 2.3-0.1 0.1-0.1 0.4 0 0.5zm-0.3 10c-0.1-0.1-0.4-0.3-0.5-0.3-0.7 0.2-1.5 0.3-2 1.2 0.9 0.4 1.7 0.2 2.3-0.3 0.2-0.1 0.3-0.4 0.2-0.6zm2.7-3.3c-0.4-0.2-0.7-0.4-0.9-0.4-0.6 0.3-1.1 0.7-1.6 1-0.2 0.1 0 0.5 0 0.8 0.4-0.1 0.9-0.1 1.3-0.3 0.4-0.3 0.7-0.6 1.2-1.1zm0.7-2.9c0.2-0.1 0.2-0.3 0.3-0.6-0.2-0.1-0.5-0.2-0.7-0.2q-1.1 0.7-2.2 1.5c-0.1 0.1-0.1 0.5-0.2 0.7 0.3 0 0.6 0.2 0.8 0.1 0.7-0.4 1.3-0.9 2-1.5z"/>
					<path id="Layer" fill-rule="evenodd" class="s0" d="m156.5 173.9c0 7.8-6.3 14.2-14 14.2-7.7-0.1-13.9-6.5-13.9-14.2 0-7.9 6.3-14.2 14.1-14.2 7.6 0 13.9 6.4 13.8 14.2zm-24.1-6.5c-0.2 0.2 0.1 0.6 0.1 0.8 0.3-0.1 0.7-0.1 0.8-0.4 0.6-0.7 1.2-1.5 1.8-2.3 0.1-0.1 0.1-0.3 0.3-0.8-0.4 0-0.9-0.1-1 0q-1.1 1.3-2 2.7zm4.1 14.6c-0.3-0.3-0.7-0.7-1-0.9-1.4-0.9-2.4-2.1-2.8-3.7-0.4-1.5-0.4-3.1-0.6-4.6-0.1-0.5-0.3-0.9-0.5-1.4-0.2 0.5-0.5 0.9-0.6 1.4-0.3 3.7 0.8 6.9 4 9.1 0.4 0.3 0.9 0.3 1.3 0.5q0.1-0.2 0.2-0.4z"/>
					<path id="Layer" fill-rule="evenodd" class="s0" d="m171.8 204.1c0 7.8-6.3 14.1-14.1 14.1-7.6 0-13.9-6.4-13.9-14.2 0-7.8 6.4-14.2 14.1-14.2 7.7 0.1 13.9 6.4 13.9 14.3zm-25.9-1q1.3-1.7 2.5-3.3c0 0-0.3-0.5-0.5-0.5-1.1 0.3-2.4 2.5-2 3.8zm2.6 4c-1.2 0.2-1.7 1.9-0.8 3.1 0.6-1 0.8-2 0.8-3.1zm0.5-4.5q-0.1-0.1-0.2-0.2c-0.3 0.2-0.7 0.3-0.8 0.5-0.6 1.1-1.2 2.2-1.7 3.3-0.1 0.2 0.1 0.6 0.2 0.8 0.2-0.1 0.5-0.2 0.7-0.5q0.8-1.5 1.6-3.1c0.1-0.2 0.1-0.5 0.2-0.8z"/>
					<path id="Layer" fill-rule="evenodd" class="s0" d="m206.6 204.1c0 7.8-6.3 14.1-14 14.1-7.7 0-14-6.4-13.9-14.2 0-7.9 6.3-14.2 14.1-14.2 7.6 0.1 13.9 6.5 13.8 14.3zm-7.8 9.5q-2.4 1-4.8 1.9 0 0.2 0.1 0.4c1.4 0.4 2.6-0.2 3.8-0.9 0.5-0.2 1.1-0.5 0.9-1.4zm4.6-3.4c-0.3-0.4-0.3-0.6-0.5-0.7-0.1-0.1-0.5 0-0.6 0.2q-0.7 1-1.2 2c-0.1 0.2-0.1 0.5 0 0.6 0.1 0.1 0.5 0.1 0.6 0 0.6-0.7 1.1-1.4 1.7-2.1z"/>
					<path id="Layer" fill-rule="evenodd" class="s0" d="m171.8 145.4c0 7.8-6.3 14.1-14.1 14.1-7.6-0.1-13.9-6.4-13.9-14.3 0.1-7.8 6.4-14.1 14.1-14.1 7.7 0.1 14 6.5 13.9 14.3zm-22.5-8c-1.6 0.2-3.8 3.9-3.2 5.4 1.1-1.8 2.1-3.5 3.2-5.4zm4.8-4.2c-0.4-0.1-0.7-0.3-0.9-0.2-0.7 0.4-1.5 0.8-2.2 1.3-0.2 0.1-0.1 0.5-0.2 0.7 0.3 0 0.6 0.1 0.8 0 0.6-0.3 1.3-0.8 1.9-1.2 0.2-0.1 0.3-0.3 0.6-0.6z"/>
					<path id="Layer" class="s0" d="m182.6 116.5c0 3.6-3 6.6-6.7 6.6-3.6 0-6.6-3-6.6-6.7 0-3.6 3-6.6 6.7-6.6 3.6 0 6.6 3 6.6 6.7z"/>
					<path id="Layer" fill-rule="evenodd" class="s0" d="m132.7 201.7c0 3.7-3 6.7-6.6 6.7-3.7 0-6.7-2.9-6.7-6.6 0-3.7 2.9-6.7 6.6-6.7 3.6 0 6.7 3 6.7 6.6zm-11.1 0.1c0.2-0.7 0.3-1.3 0.4-2 0.1-0.3 0-0.6-0.1-0.8-0.2 0.1-0.6 0.2-0.7 0.4-0.3 0.7-0.5 1.4-0.6 1.8 0 0.4 0 0.5 0 0.6q0.3 0.4 0.6 0.8c0.1-0.3 0.3-0.5 0.4-0.8zm2.3 4.3q-0.9-1-1.7-2c-0.1-0.1-0.4-0.1-0.4 0-0.2 0.1-0.3 0.3-0.3 0.5 0 0.9 1.4 1.9 2.4 1.5z"/>
					<path id="Layer" class="s0" d="m231.7 201.8c0 3.6-3 6.6-6.6 6.6-3.7 0-6.7-3-6.7-6.6 0-3.7 3-6.7 6.6-6.7 3.7 0 6.7 3 6.7 6.7z"/>
					<path id="Layer" class="s0" d="m182.4 232.1c0 3.7-3 6.6-6.7 6.6-3.6 0.1-6.6-2.9-6.6-6.6 0-3.7 3-6.7 6.6-6.7 3.7 0 6.7 3 6.7 6.7z"/>
					<path id="Layer" class="s0" d="m132.7 145.6c0 3.7-3 6.6-6.7 6.7-3.6 0-6.6-3-6.6-6.7 0-3.7 3-6.7 6.6-6.6 3.7 0 6.7 3 6.7 6.6z"/>
					<path id="Layer" fill-rule="evenodd" class="s0" d="m231.7 145.6c0 3.7-3 6.6-6.7 6.6-3.6 0-6.6-3-6.6-6.6 0-3.7 3-6.7 6.7-6.7 3.6 0.1 6.6 3.1 6.6 6.7zm-1.4-1.4c-0.1-0.3-0.3-0.5-0.5-0.7q-0.1 0-0.2 0c0.1 3.4-1.3 5.8-4.7 6.9q0.1 0.1 0.2 0.2c0.2 0 0.5 0.1 0.7 0.1 2.7-0.2 5.3-4 4.5-6.5z"/>
					<path id="Layer" class="s0" d="m138.9 244.2c-2.9 0-5.4-2.4-5.4-5.3 0-3 2.4-5.4 5.4-5.4 3-0.1 5.5 2.4 5.5 5.4 0 2.9-2.4 5.3-5.5 5.3z"/>
					<path id="Layer" fill-rule="evenodd" class="s0" d="m144.4 110.4c0 3-2.5 5.5-5.5 5.5-3-0.1-5.4-2.5-5.4-5.5 0-2.9 2.4-5.3 5.4-5.3 3 0 5.5 2.4 5.5 5.3zm-3.3-3.3c0.1-0.1 0-0.4-0.1-0.5-0.1 0-0.4-0.1-0.5 0-0.6 0.8-1.4 1.5-1.6 2.8 0.9-0.2 2.2-1.6 2.2-2.3zm-0.8 3.4c0 0 0.4 0.3 0.4 0.3 0.4-0.5 0.8-0.9 1.1-1.4 0.1-0.1 0.1-0.4 0.1-0.5 0-0.2-0.2-0.3-0.3-0.3-0.1 0-0.3 0-0.3 0.1q-0.5 0.9-1 1.8zm2.3 0.5c0-0.1-0.5-0.3-0.5-0.3-0.6 0.6-1 1.2-1.6 1.9 1 0.1 2.2-0.9 2.1-1.6z"/>
					<path id="Layer" class="s0" d="m212.9 115.9c-3 0-5.5-2.5-5.5-5.4 0-3 2.5-5.4 5.5-5.4 3 0 5.5 2.4 5.5 5.4 0 3-2.5 5.4-5.5 5.4z"/>
					<path id="Layer" class="s0" d="m101.6 168.9c3 0 5.4 2.4 5.4 5.3 0.1 3-2.4 5.5-5.5 5.4-3 0-5.4-2.4-5.4-5.4 0-2.9 2.5-5.3 5.5-5.3z"/>
					<path id="Layer" class="s0" d="m212.9 244.2c-3 0-5.4-2.4-5.5-5.3 0-3 2.4-5.4 5.4-5.4 3.1-0.1 5.6 2.4 5.6 5.3 0 3-2.5 5.4-5.5 5.4z"/>
					<path id="Layer" class="s0" d="m249.5 179.6c-3 0.1-5.5-2.4-5.5-5.3 0-3 2.5-5.4 5.5-5.4 3 0 5.5 2.4 5.5 5.4 0 2.9-2.5 5.3-5.5 5.3z"/>
					<path id="Layer" class="s0" d="m101 128.7c0 2.1-1.8 3.8-3.9 3.8-2.2 0-4-1.7-3.9-3.9 0-2.1 1.8-3.8 3.9-3.7 2.1 0 3.9 1.7 3.9 3.8z"/>
					<path id="Layer" class="s0" d="m254.8 124.9c2.2 0 3.9 1.7 3.9 3.8 0 2.1-1.8 3.8-4 3.8-2.1-0.1-3.9-1.8-3.8-3.9 0-2.1 1.8-3.8 3.9-3.7z"/>
					<path id="Layer" class="s0" d="m254.8 223.9c-2.2 0-3.9-1.8-3.9-3.8 0-2.2 1.8-3.9 4-3.9 2.1 0.1 3.8 1.8 3.8 3.9 0 2.1-1.8 3.8-3.9 3.8z"/>
					<path id="Layer" class="s0" d="m97 223.9c-2.1 0-3.8-1.8-3.8-3.9 0-2.1 1.8-3.8 4-3.8 2.1 0.1 3.8 1.8 3.8 3.9-0.1 2.1-1.8 3.8-4 3.8z"/>
					<path id="Layer" class="s0" d="m175.7 78.3c2.2 0 3.9 1.7 3.9 3.8 0 2.1-1.8 3.9-3.9 3.8-2.2 0-3.9-1.7-3.9-3.8 0-2.1 1.8-3.8 3.9-3.8z"/>
					<path id="Layer" class="s0" d="m179.6 266.5c0 2.1-1.7 3.8-3.9 3.7-2.2 0-3.9-1.7-3.9-3.9 0.1-2 1.9-3.7 4-3.7 2.1 0 3.9 1.8 3.8 3.9z"/>
					<path id="Layer" class="s0" d="m129 86.5c0 1.6-1.4 2.9-3 2.9-1.7 0.1-3.1-1.3-3.1-2.9 0-1.6 1.3-2.9 3-2.9 1.7 0 3 1.3 3.1 2.9z"/>
					<path id="Layer" class="s0" d="m228.9 86.5c0 1.6-1.3 2.9-3 2.9-1.7 0-3-1.3-3-2.9 0-1.6 1.4-2.9 3-2.9 1.7 0 3.1 1.3 3 2.9z"/>
					<path id="Layer" class="s0" d="m225.9 258.3c1.7 0 3 1.3 3.1 2.9 0 1.6-1.4 3-3 3-1.7 0-3.1-1.3-3.1-2.9 0-1.6 1.3-3 3-3z"/>
					<path id="Layer" class="s0" d="m75.7 170.8c1.6 0.1 3 1.4 3 3 0 1.6-1.4 2.9-3.1 2.9-1.6 0-3-1.3-3-2.9 0-1.6 1.4-3 3.1-3z"/>
					<path id="Layer" class="s0" d="m126 258.3c1.6 0 3 1.4 3 3-0.1 1.6-1.4 2.9-3.1 2.9-1.6 0-3-1.4-3-3 0-1.6 1.4-2.9 3.1-2.9z"/>
					<path id="Layer" class="s0" d="m279.4 173.8c0 1.6-1.3 2.9-3 2.9-1.7 0-3-1.3-3-2.9 0-1.6 1.3-3 3-3 1.7 0 3 1.4 3 3z"/>
				</g>
				<path id="Layer" fill-rule="evenodd" class="s3" d="m206.6 145.4c0 7.8-6.3 14.1-14 14.1-7.7-0.1-14-6.4-13.9-14.3 0-7.8 6.3-14.1 14.1-14.1 7.6 0.1 13.9 6.5 13.8 14.3zm-8.3-10.3q0 0 0 0c0-0.1 0-0.2 0-0.3q-0.3-0.4-0.6-0.9c-0.2 0.3-0.5 0.6-0.5 0.9-0.2 0.5-0.3 1.2-0.4 1.8 0 0.2 0.2 0.5 0.3 0.8 0.3-0.2 0.7-0.3 0.8-0.5 0.2-0.6 0.3-1.2 0.4-1.8zm1.6 3.9c0.3-0.6 0.4-1.4 0.7-2.1q-0.3-0.5-0.6-1c-0.2 0.3-0.5 0.6-0.6 1q-0.3 0.9-0.4 1.8c-0.1 0.3 0.1 0.6 0.2 0.8 0.2-0.1 0.6-0.3 0.7-0.5zm1.4 2.2c0.4-0.7 0.7-1.4 1.1-2.2-0.2-0.3-0.3-0.5-0.5-0.6-0.1-0.1-0.4 0.1-0.5 0.2q-0.5 1.1-0.9 2.2c0 0.2 0.1 0.4 0.1 0.6 0.3 0 0.6-0.1 0.7-0.2zm0.3 3q0.2 0 0.5 0.1c0.4-0.5 0.9-1 1.2-1.6 0.2-0.5 0.3-1.1 0.5-1.7-0.3 0.1-0.7-0.1-0.9 0.1q-0.8 1.1-1.4 2.2c-0.1 0.2 0.1 0.6 0.1 0.9zm2.5 1.5c0-0.1-0.1-0.3-0.2-0.5 0-0.1-0.4-0.1-0.4 0q-1 1.4-1.9 2.7 0.2 0.2 0.3 0.3c1.1-0.5 1.7-1.4 2.2-2.5z"/>
				<path id="Layer" fill-rule="evenodd" class="s3" d="m224.4 173.9c0 7.8-6.3 14.2-14 14.2-7.7-0.1-13.9-6.4-13.9-14.2 0-7.9 6.3-14.2 14-14.2 7.7 0 14 6.4 13.9 14.2zm-2-2.4c-0.2-0.1-0.5-0.1-0.6 0.1-0.5 0.6-1.1 1.3-1.6 2.1-0.2 0.4 0.2 0.9 0.6 0.6 0.8-0.6 1.4-1.4 2.1-2.1-0.3-0.4-0.4-0.6-0.5-0.7zm-2.6 0.4c0.1 0.1 0.5 0.1 0.5 0 0.7-0.8 1.2-1.5 1.8-2.3-0.2-0.3-0.3-0.6-0.4-0.6-0.2-0.1-0.5 0-0.6 0.1-0.5 0.7-0.9 1.5-1.3 2.3-0.1 0.1-0.1 0.4 0 0.5zm-0.3 10c-0.1-0.1-0.4-0.3-0.5-0.3-0.7 0.2-1.5 0.3-2 1.2 0.9 0.4 1.7 0.2 2.3-0.3 0.2-0.1 0.3-0.4 0.2-0.6zm2.7-3.3c-0.4-0.2-0.7-0.4-0.9-0.4-0.6 0.3-1.1 0.7-1.6 1-0.2 0.1 0 0.5 0 0.8 0.4-0.1 0.9-0.1 1.3-0.3 0.4-0.3 0.7-0.6 1.2-1.1zm0.7-2.9c0.2-0.1 0.2-0.3 0.3-0.6-0.2-0.1-0.5-0.2-0.7-0.2q-1.1 0.7-2.2 1.5c-0.1 0.1-0.1 0.5-0.2 0.7 0.3 0 0.6 0.2 0.8 0.1 0.7-0.4 1.3-0.9 2-1.5z"/>
				<path id="Layer" fill-rule="evenodd" class="s3" d="m156.5 173.9c0 7.8-6.3 14.2-14 14.2-7.7-0.1-13.9-6.5-13.9-14.2 0-7.9 6.3-14.2 14.1-14.2 7.6 0 13.9 6.4 13.8 14.2zm-24.1-6.5c-0.2 0.2 0.1 0.6 0.1 0.8 0.3-0.1 0.7-0.1 0.8-0.4 0.6-0.7 1.2-1.5 1.8-2.3 0.1-0.1 0.1-0.3 0.3-0.8-0.4 0-0.9-0.1-1 0q-1.1 1.3-2 2.7zm4.1 14.6c-0.3-0.3-0.7-0.7-1-0.9-1.4-0.9-2.4-2.1-2.8-3.7-0.4-1.5-0.4-3.1-0.6-4.6-0.1-0.5-0.3-0.9-0.5-1.4-0.2 0.5-0.5 0.9-0.6 1.4-0.3 3.7 0.8 6.9 4 9.1 0.4 0.3 0.9 0.3 1.3 0.5q0.1-0.2 0.2-0.4z"/>
				<path id="Layer" fill-rule="evenodd" class="s3" d="m171.8 204.1c0 7.8-6.3 14.1-14.1 14.1-7.6 0-13.9-6.4-13.9-14.2 0-7.8 6.4-14.2 14.1-14.2 7.7 0.1 13.9 6.4 13.9 14.3zm-25.9-1q1.3-1.7 2.5-3.3c0 0-0.3-0.5-0.5-0.5-1.1 0.3-2.4 2.5-2 3.8zm2.6 4c-1.2 0.2-1.7 1.9-0.8 3.1 0.6-1 0.8-2 0.8-3.1zm0.5-4.5q-0.1-0.1-0.2-0.2c-0.3 0.2-0.7 0.3-0.8 0.5-0.6 1.1-1.2 2.2-1.7 3.3-0.1 0.2 0.1 0.6 0.2 0.8 0.2-0.1 0.5-0.2 0.7-0.5q0.8-1.5 1.6-3.1c0.1-0.2 0.1-0.5 0.2-0.8z"/>
				<path id="Layer" fill-rule="evenodd" class="s3" d="m206.6 204.1c0 7.8-6.3 14.1-14 14.1-7.7 0-14-6.4-13.9-14.2 0-7.9 6.3-14.2 14.1-14.2 7.6 0.1 13.9 6.5 13.8 14.3zm-7.8 9.5q-2.4 1-4.8 1.9 0 0.2 0.1 0.4c1.4 0.4 2.6-0.2 3.8-0.9 0.5-0.2 1.1-0.5 0.9-1.4zm4.6-3.4c-0.3-0.4-0.3-0.6-0.5-0.7-0.1-0.1-0.5 0-0.6 0.2q-0.7 1-1.2 2c-0.1 0.2-0.1 0.5 0 0.6 0.1 0.1 0.5 0.1 0.6 0 0.6-0.7 1.1-1.4 1.7-2.1z"/>
				<path id="Layer" fill-rule="evenodd" class="s3" d="m171.8 145.4c0 7.8-6.3 14.1-14.1 14.1-7.6-0.1-13.9-6.4-13.9-14.3 0.1-7.8 6.4-14.1 14.1-14.1 7.7 0.1 14 6.5 13.9 14.3zm-22.5-8c-1.6 0.2-3.8 3.9-3.2 5.4 1.1-1.8 2.1-3.5 3.2-5.4zm4.8-4.2c-0.4-0.1-0.7-0.3-0.9-0.2-0.7 0.4-1.5 0.8-2.2 1.3-0.2 0.1-0.1 0.5-0.2 0.7 0.3 0 0.6 0.1 0.8 0 0.6-0.3 1.3-0.8 1.9-1.2 0.2-0.1 0.3-0.3 0.6-0.6z"/>
				<path id="Layer" class="s3" d="m182.6 116.5c0 3.6-3 6.6-6.7 6.6-3.6 0-6.6-3-6.6-6.7 0-3.6 3-6.6 6.7-6.6 3.6 0 6.6 3 6.6 6.7z"/>
				<path id="Layer" fill-rule="evenodd" class="s3" d="m132.7 201.7c0 3.7-3 6.7-6.6 6.7-3.7 0-6.7-2.9-6.7-6.6 0-3.7 2.9-6.7 6.6-6.7 3.6 0 6.7 3 6.7 6.6zm-11.1 0.1c0.2-0.7 0.3-1.3 0.4-2 0.1-0.3 0-0.6-0.1-0.8-0.2 0.1-0.6 0.2-0.7 0.4-0.3 0.7-0.5 1.4-0.6 1.8 0 0.4 0 0.5 0 0.6q0.3 0.4 0.6 0.8c0.1-0.3 0.3-0.5 0.4-0.8zm2.3 4.3q-0.9-1-1.7-2c-0.1-0.1-0.4-0.1-0.4 0-0.2 0.1-0.3 0.3-0.3 0.5 0 0.9 1.4 1.9 2.4 1.5z"/>
				<path id="Layer" class="s3" d="m231.7 201.8c0 3.6-3 6.6-6.6 6.6-3.7 0-6.7-3-6.7-6.6 0-3.7 3-6.7 6.6-6.7 3.7 0 6.7 3 6.7 6.7z"/>
				<path id="Layer" class="s3" d="m182.4 232.1c0 3.7-3 6.6-6.7 6.6-3.6 0.1-6.6-2.9-6.6-6.6 0-3.7 3-6.7 6.6-6.7 3.7 0 6.7 3 6.7 6.7z"/>
				<path id="Layer" class="s3" d="m132.7 145.6c0 3.7-3 6.6-6.7 6.7-3.6 0-6.6-3-6.6-6.7 0-3.7 3-6.7 6.6-6.6 3.7 0 6.7 3 6.7 6.6z"/>
				<path id="Layer" fill-rule="evenodd" class="s3" d="m231.7 145.6c0 3.7-3 6.6-6.7 6.6-3.6 0-6.6-3-6.6-6.6 0-3.7 3-6.7 6.7-6.7 3.6 0.1 6.6 3.1 6.6 6.7zm-1.4-1.4c-0.1-0.3-0.3-0.5-0.5-0.7q-0.1 0-0.2 0c0.1 3.4-1.3 5.8-4.7 6.9q0.1 0.1 0.2 0.2c0.2 0 0.5 0.1 0.7 0.1 2.7-0.2 5.3-4 4.5-6.5z"/>
				<path id="Layer" class="s3" d="m138.9 244.2c-2.9 0-5.4-2.4-5.4-5.3 0-3 2.4-5.4 5.4-5.4 3-0.1 5.5 2.4 5.5 5.4 0 2.9-2.4 5.3-5.5 5.3z"/>
				<path id="Layer" fill-rule="evenodd" class="s3" d="m144.4 110.4c0 3-2.5 5.5-5.5 5.5-3-0.1-5.4-2.5-5.4-5.5 0-2.9 2.4-5.3 5.4-5.3 3 0 5.5 2.4 5.5 5.3zm-3.3-3.3c0.1-0.1 0-0.4-0.1-0.5-0.1 0-0.4-0.1-0.5 0-0.6 0.8-1.4 1.5-1.6 2.8 0.9-0.2 2.2-1.6 2.2-2.3zm-0.8 3.4c0 0 0.4 0.3 0.4 0.3 0.4-0.5 0.8-0.9 1.1-1.4 0.1-0.1 0.1-0.4 0.1-0.5 0-0.2-0.2-0.3-0.3-0.3-0.1 0-0.3 0-0.3 0.1q-0.5 0.9-1 1.8zm2.3 0.5c0-0.1-0.5-0.3-0.5-0.3-0.6 0.6-1 1.2-1.6 1.9 1 0.1 2.2-0.9 2.1-1.6z"/>
				<path id="Layer" class="s3" d="m212.9 115.9c-3 0-5.5-2.5-5.5-5.4 0-3 2.5-5.4 5.5-5.4 3 0 5.5 2.4 5.5 5.4 0 3-2.5 5.4-5.5 5.4z"/>
				<path id="Layer" class="s3" d="m101.6 168.9c3 0 5.4 2.4 5.4 5.3 0.1 3-2.4 5.5-5.5 5.4-3 0-5.4-2.4-5.4-5.4 0-2.9 2.5-5.3 5.5-5.3z"/>
				<path id="Layer" class="s3" d="m212.9 244.2c-3 0-5.4-2.4-5.5-5.3 0-3 2.4-5.4 5.4-5.4 3.1-0.1 5.6 2.4 5.6 5.3 0 3-2.5 5.4-5.5 5.4z"/>
				<path id="Layer" class="s3" d="m249.5 179.6c-3 0.1-5.5-2.4-5.5-5.3 0-3 2.5-5.4 5.5-5.4 3 0 5.5 2.4 5.5 5.4 0 2.9-2.5 5.3-5.5 5.3z"/>
				<path id="Layer" class="s3" d="m101 128.7c0 2.1-1.8 3.8-3.9 3.8-2.2 0-4-1.7-3.9-3.9 0-2.1 1.8-3.8 3.9-3.7 2.1 0 3.9 1.7 3.9 3.8z"/>
				<path id="Layer" class="s3" d="m254.8 124.9c2.2 0 3.9 1.7 3.9 3.8 0 2.1-1.8 3.8-4 3.8-2.1-0.1-3.9-1.8-3.8-3.9 0-2.1 1.8-3.8 3.9-3.7z"/>
				<path id="Layer" class="s3" d="m254.8 223.9c-2.2 0-3.9-1.8-3.9-3.8 0-2.2 1.8-3.9 4-3.9 2.1 0.1 3.8 1.8 3.8 3.9 0 2.1-1.8 3.8-3.9 3.8z"/>
				<path id="Layer" class="s3" d="m97 223.9c-2.1 0-3.8-1.8-3.8-3.9 0-2.1 1.8-3.8 4-3.8 2.1 0.1 3.8 1.8 3.8 3.9-0.1 2.1-1.8 3.8-4 3.8z"/>
				<path id="Layer" class="s3" d="m175.7 78.3c2.2 0 3.9 1.7 3.9 3.8 0 2.1-1.8 3.9-3.9 3.8-2.2 0-3.9-1.7-3.9-3.8 0-2.1 1.8-3.8 3.9-3.8z"/>
				<path id="Layer" class="s3" d="m179.6 266.5c0 2.1-1.7 3.8-3.9 3.7-2.2 0-3.9-1.7-3.9-3.9 0.1-2 1.9-3.7 4-3.7 2.1 0 3.9 1.8 3.8 3.9z"/>
				<path id="Layer" class="s3" d="m129 86.5c0 1.6-1.4 2.9-3 2.9-1.7 0.1-3.1-1.3-3.1-2.9 0-1.6 1.3-2.9 3-2.9 1.7 0 3 1.3 3.1 2.9z"/>
				<path id="Layer" class="s3" d="m228.9 86.5c0 1.6-1.3 2.9-3 2.9-1.7 0-3-1.3-3-2.9 0-1.6 1.4-2.9 3-2.9 1.7 0 3.1 1.3 3 2.9z"/>
				<path id="Layer" class="s3" d="m225.9 258.3c1.7 0 3 1.3 3.1 2.9 0 1.6-1.4 3-3 3-1.7 0-3.1-1.3-3.1-2.9 0-1.6 1.3-3 3-3z"/>
				<path id="Layer" class="s3" d="m75.7 170.8c1.6 0.1 3 1.4 3 3 0 1.6-1.4 2.9-3.1 2.9-1.6 0-3-1.3-3-2.9 0-1.6 1.4-3 3.1-3z"/>
				<path id="Layer" class="s3" d="m126 258.3c1.6 0 3 1.4 3 3-0.1 1.6-1.4 2.9-3.1 2.9-1.6 0-3-1.4-3-3 0-1.6 1.4-2.9 3.1-2.9z"/>
				<path id="Layer" class="s3" d="m279.4 173.8c0 1.6-1.3 2.9-3 2.9-1.7 0-3-1.3-3-2.9 0-1.6 1.3-3 3-3 1.7 0 3 1.4 3 3z"/>
				<path id="Layer" class="s1" d="m201.6 144.2c0-0.3-0.2-0.7-0.1-0.9q0.6-1.1 1.4-2.2c0.1-0.1 0.6-0.1 0.8-0.1-0.1 0.6-0.1 1.2-0.4 1.7-0.3 0.6-0.8 1.1-1.2 1.6q-0.3-0.1-0.5-0.1z"/>
				<path id="Layer" class="s1" d="m198.4 135.1c-0.2 0.6-0.3 1.2-0.5 1.8-0.1 0.2-0.5 0.3-0.8 0.4-0.1-0.2-0.3-0.5-0.3-0.7q0.1-0.9 0.3-1.8c0.1-0.3 0.4-0.6 0.6-0.9q0.3 0.5 0.6 0.9c0 0.1 0 0.2 0 0.3q0 0 0.1 0z"/>
				<path id="Layer" class="s1" d="m200.6 136.9c-0.3 0.8-0.4 1.5-0.7 2.1-0.1 0.3-0.5 0.4-0.7 0.5-0.1-0.2-0.3-0.5-0.2-0.8q0.1-0.9 0.4-1.8c0.1-0.4 0.4-0.7 0.6-1q0.3 0.5 0.6 1z"/>
				<path id="Layer" class="s1" d="m202.4 139c-0.4 0.8-0.7 1.5-1.1 2.2-0.1 0.1-0.4 0.1-0.7 0.2 0-0.2-0.1-0.4-0.1-0.6q0.4-1.1 0.9-2.2c0.1-0.1 0.4-0.3 0.5-0.2 0.2 0.1 0.3 0.3 0.5 0.6z"/>
				<path id="Layer" class="s1" d="m201.6 147.9q0.9-1.3 1.9-2.7c0.1-0.1 0.4-0.1 0.4 0 0.1 0.1 0.2 0.4 0.2 0.5-0.4 1.1-1.1 2-2.2 2.5q-0.1-0.1-0.3-0.3z"/>
				<path id="Layer" class="s1" d="m222.9 172.2c-0.7 0.7-1.3 1.5-2.1 2.1-0.4 0.3-0.8-0.2-0.6-0.6 0.5-0.8 1.1-1.5 1.6-2.1 0.1-0.1 0.4-0.2 0.6-0.1 0.1 0.1 0.2 0.3 0.5 0.7z"/>
				<path id="Layer" class="s1" d="m223.3 175.1c-0.2 0.3-0.2 0.5-0.4 0.6-0.6 0.6-1.3 1.1-2 1.5-0.2 0.1-0.5-0.1-0.8-0.1 0.1-0.3 0.1-0.6 0.2-0.7q1.1-0.8 2.2-1.5c0.2-0.1 0.5 0.1 0.7 0.2z"/>
				<path id="Layer" class="s1" d="m222.1 169.6c-0.5 0.8-1.1 1.6-1.8 2.3 0 0.1-0.4 0.1-0.5 0-0.1-0.1-0.1-0.4 0-0.5q0.6-1.2 1.3-2.3c0.1-0.1 0.4-0.2 0.6-0.1 0.1 0 0.2 0.3 0.4 0.6z"/>
				<path id="Layer" class="s1" d="m222.2 178.6c-0.5 0.5-0.8 0.8-1.2 1.1-0.4 0.2-0.9 0.2-1.3 0.3 0-0.3-0.1-0.7 0-0.8q0.7-0.6 1.6-1c0.2 0 0.5 0.2 0.9 0.4z"/>
				<path id="Layer" class="s1" d="m217 182.8c0.5-0.9 1.3-1 2-1.2 0.1 0 0.4 0.2 0.5 0.3 0.1 0.2 0 0.5-0.2 0.6-0.7 0.5-1.4 0.7-2.3 0.3z"/>
				<path id="Layer" class="s1" d="m136.3 182.4c-0.4-0.2-0.9-0.2-1.3-0.5-3.2-2.2-4.3-5.4-4-9.1 0.1-0.5 0.4-1 0.6-1.4 0.2 0.5 0.4 0.9 0.5 1.4 0.2 1.5 0.3 3.1 0.6 4.6 0.4 1.6 1.4 2.8 2.8 3.7 0.3 0.2 0.7 0.6 1 0.9q-0.1 0.2-0.2 0.4z"/>
				<path id="Layer" class="s1" d="m135.4 164.7c-0.2 0.5-0.2 0.7-0.4 0.8-0.5 0.8-1.1 1.6-1.7 2.4-0.2 0.2-0.5 0.2-0.8 0.3 0-0.3-0.3-0.6-0.1-0.8q0.9-1.4 2-2.7c0.1-0.1 0.6 0 1 0z"/>
				<path id="Layer" class="s1" d="m149 202.6c-0.1 0.3-0.1 0.6-0.2 0.8q-0.8 1.6-1.6 3.1c-0.2 0.3-0.5 0.4-0.7 0.5-0.1-0.3-0.3-0.6-0.2-0.8q0.8-1.7 1.7-3.3c0.1-0.2 0.5-0.3 0.8-0.5q0.1 0.1 0.2 0.2z"/>
				<path id="Layer" class="s1" d="m145.9 203.1c-0.4-1.3 0.9-3.5 2-3.7 0.1-0.1 0.5 0.4 0.5 0.4q-1.2 1.7-2.5 3.3z"/>
				<path id="Layer" class="s1" d="m148.5 207.1c0 1.1-0.2 2.1-0.8 3.1-0.9-1.2-0.4-2.9 0.8-3.1z"/>
				<path id="Layer" class="s1" d="m194 215.5c1.6-0.6 3.2-1.2 4.8-1.9 0.2 0.9-0.4 1.2-0.9 1.4-1.2 0.7-2.4 1.3-3.8 0.9q-0.1-0.2-0.1-0.4z"/>
				<path id="Layer" class="s1" d="m203.3 210.2c-0.5 0.7-1 1.4-1.6 2.1-0.1 0.1-0.5 0.1-0.6 0-0.1-0.1-0.1-0.4-0.1-0.6q0.6-1 1.3-2c0.1-0.2 0.5-0.3 0.6-0.2 0.1 0.1 0.2 0.3 0.4 0.7z"/>
				<path id="Layer" class="s1" d="m149.3 137.4c-1.1 1.9-2.1 3.6-3.2 5.4-0.6-1.5 1.6-5.2 3.2-5.4z"/>
				<path id="Layer" class="s1" d="m154.1 133.2c-0.3 0.3-0.4 0.5-0.6 0.6-0.6 0.4-1.2 0.9-1.9 1.2-0.2 0.1-0.5 0-0.8 0 0.1-0.2 0.1-0.6 0.2-0.7q1.1-0.7 2.2-1.3c0.2-0.1 0.5 0.1 0.9 0.2z"/>
				<path id="Layer" class="s1" d="m120.6 201.2c0.1-0.4 0.3-1.2 0.6-1.8 0.1-0.2 0.5-0.3 0.7-0.4 0.1 0.2 0.2 0.5 0.2 0.8q-0.2 1-0.5 2c-0.1 0.3-0.3 0.5-0.4 0.8q-0.3-0.4-0.6-0.8c0-0.1 0-0.2 0-0.6z"/>
				<path id="Layer" class="s1" d="m123.9 206.1c-1.1 0.4-2.4-0.6-2.4-1.5 0-0.2 0.1-0.4 0.3-0.5 0-0.1 0.3-0.1 0.4 0q0.8 1 1.7 2z"/>
				<path id="Layer" class="s1" d="m224.9 150.3c3.4-1 4.8-3.4 4.6-6.8q0.2 0 0.3 0c0.2 0.2 0.4 0.4 0.5 0.7 0.8 2.5-1.8 6.3-4.5 6.5-0.2 0-0.5-0.1-0.7-0.1q-0.1-0.1-0.2-0.3z"/>
				<path id="Layer" class="s1" d="m138.9 109.4c0.2-1.3 1-2 1.6-2.8 0.1-0.1 0.4-0.1 0.5 0 0.1 0.1 0.2 0.4 0.1 0.5 0 0.7-1.3 2.1-2.2 2.3z"/>
				<path id="Layer" class="s1" d="m140.5 112.6c0.5-0.7 1-1.3 1.6-1.9 0-0.1 0.5 0.2 0.5 0.3 0.1 0.7-1.1 1.7-2.1 1.6z"/>
				<path id="Layer" class="s1" d="m141.6 108.5c0.1 0.1 0.3 0.2 0.3 0.4 0 0.2 0 0.4-0.1 0.5q-0.5 0.7-1.1 1.4c0 0-0.4-0.3-0.4-0.3q0.5-0.9 1-1.8c0-0.1 0.2-0.1 0.3-0.2z"/>
			</g>
			<g id="Layer" style="opacity: .3">
				<path id="Layer" fill-rule="evenodd" class="s4" d="m345 167.1v11.8q-0.2 2.5-0.4 4.9-2.1 34.4-17.4 65.4c-22.2 45.1-63.9 78.7-112.6 90.7-11.4 2.8-22.9 4.5-34.6 4.9-0.4 0.1-0.8 0.1-1.1 0.2h-11.8q-2.4-0.2-4.8-0.4-31.2-1.9-59.8-14.7c-45.6-20.3-80.9-60.8-94.7-108.8-3.9-13.4-6.1-27.1-6.7-41.1 0-0.4 0-0.9-0.1-1.3v-11.4q0.2-2.6 0.4-5.1c2.2-34.4 13.6-65.5 34.5-92.9 24.1-31.7 55.6-52.7 94.2-62.9 11.7-3.1 23.6-4.8 35.7-5.2 0.5-0.1 1-0.1 1.5-0.2h11.4c1.7 0.1 3.4 0.2 5.1 0.4 30.8 1.9 59.2 11.3 84.7 28.6 37.5 25.4 61.5 60.3 72.1 104.3 2.5 10.4 3.8 20.9 4.2 31.6 0 0.4 0.1 0.8 0.2 1.2zm-2.7 5.9c0-93.4-76-169.3-169.3-169.3-93.4 0-169.3 75.9-169.3 169.3 0 93.4 75.9 169.3 169.3 169.3 93.3 0 169.3-75.9 169.3-169.3z"/>
			</g>
			<g id="Layer" style="opacity: .3">
				<path id="Layer" fill-rule="evenodd" class="s4" d="m173 328.2c-85.6 0-155.2-69.6-155.2-155.2 0-85.6 69.6-155.2 155.2-155.2 85.6 0 155.2 69.6 155.2 155.2 0 85.6-69.6 155.2-155.2 155.2zm0-307.5c-84 0-152.3 68.3-152.3 152.3 0 83.9 68.3 152.3 152.3 152.3 83.9 0 152.2-68.4 152.2-152.3 0-84-68.3-152.3-152.2-152.3z"/>
			</g>
			<g id="Layer" style="opacity: .5">
				<path id="Layer" fill-rule="evenodd" class="s4" d="m173 321.3c-81.8 0-148.3-66.5-148.3-148.3 0-81.8 66.5-148.3 148.3-148.3 81.8 0 148.3 66.5 148.3 148.3 0 81.8-66.5 148.3-148.3 148.3zm0-293.8c-80.3 0-145.5 65.3-145.5 145.5 0 80.2 65.2 145.5 145.5 145.5 80.2 0 145.5-65.3 145.5-145.5 0-80.2-65.3-145.5-145.5-145.5z"/>
			</g>
			<path id="Layer" class="s3" d="m106.8 315.7c-6.4-1.7-11-4.9-16.5-8.3-0.9-0.5-1.7-0.5-2.5-0.1-0.9-0.8-1.8-1.5-2.6-1.9q-3-1.8-5.8-3.5c-2.5-2.5-4.7-4.8-6.4-6.6-9.9-10.2-18.4-21.4-27-32.6-2.9-3.7-8.7-13.4-14.1-12.9-3.9 0.4-4.7 3.4-4.1 7 1.3 7 10.8 13.9 15.4 18.7q0.6 0.7 1.2 1.4c9.1 12.3 19.3 24.8 31.4 34 8.2 6.3 21.2 16.2 31.8 11.3 2.8-1.3 1.9-5.8-0.8-6.5z"/>
			<path id="Layer" class="s3" d="m132.9 326.9c-5.5-0.5-11.3-1.2-16.5-3.1-2.1-0.8-3.1 2.3-1.5 3.4 5.4 3.5 10.6 6.2 17 7.1 5.3 0.8 6.4-6.8 1-7.4z"/>
			<path id="Layer" class="s3" d="m176.1 9.4c-13.3-7.7-38.8-0.2-52.4 3.6-10.1 2.9-17.4 7.1-26.4 12.2-7.9 4.5-19 6.4-25.3 13.2-3.1 3.4 0.9 8.3 4.4 6.9 2 0.5 4.1 0.3 6.9-0.6 8.3-2.6 16.9-9.4 24.8-13.2 22.1-10.8 42.1-16.7 66.7-17.2 2.5-0.1 3.6-3.5 1.3-4.9z"/>
			<path id="Layer" class="s3" d="m229.5 18.3c-1.3-4.7-10.4-7-14.5-8.1-7.1-2-16.1-3.3-23.3-1.9-4.1 0.8-3.2 7.9 1 7.5q0.2 0 0.3-0.1c4.1 2.4 9.1 3.1 13.7 4 3.8 0.8 7.7 1.4 11.5 2 2.8 0.4 6.3 1.6 9 0.6 1.7-0.6 2.8-2.2 2.3-4z"/>
			<path id="Layer" class="s3" d="m338.5 161.4c-0.3-3-3.9-3.7-5.4-1.8-1-0.5-2.4 0.1-2.6 1.5-1.8 18.2-1.2 35.8-5.8 53.8-4.2 16.2-12.9 29.9-18.6 45.4-0.2 0.4 0 0.9 0.4 1.1 0 0.5 0.2 0.9 0.7 1.2q0.7 0.4 1.5 0.8c0.5 0.4 1.3 0.4 1.9 0 12.2-7.7 17.8-30.3 21.5-43.2 5.4-18.7 8.4-39.4 6.4-58.8z"/>
			<path id="Layer" class="s3" d="m330.3 127.4c-1.2-1.5-4.1-0.7-4.4 1.2-0.4 2.1-0.4 4 0.4 5.9-0.6 5.6 1.5 14.9 7.3 12.2 7.4-3.5-0.3-15.6-3.3-19.3z"/>
			<path id="Layer" class="s3" d="m288.5 285.7c-9.3 4.7-17.7 10-25.9 16.6-6.4 5.2-18 8.2-21.8 15.9-0.9 1.8-0.5 3.9 1.3 5q0.7 0.4 1.4 0.8c2.7 1.7 5.2-0.7 5.1-3.2 8-3.2 15.4-7.8 22.7-12.5 8-5.1 15.7-10.7 21-18.7 1.7-2.5-1.5-5-3.8-3.9z"/>
			<path id="Layer" class="s3" d="m210.7 288.6c-3-2.6-6.5-3-10.3-2.9-3.6 0.2-7 1.8-10.7 2.2-7.9 0.8-14.8-2-20.4-7.5-5.2-5.1-6.4-10.2-13.6-11.9-5.8-1.5-12.5-0.4-18.3 0.7-2.2 0.4-3.1 2.7-3 4.7-7.6 4-9.7-3.5-16.5-4.1-6.2-0.5-17.5 5.2-23.2 7.8-5.4 2.4-8.1 4.6-4.6 10.3 5.7 9.3 24.4 13.2 33.3 17.6 13.5 6.8 28.2 10.3 43.3 10.6 9.2 0.2 65.6-8.4 44-27.5z"/>
			<path id="Layer" class="s3" d="m115.6 78c-2.9-20.7-24.2-22.5-37.6-9.6-7.4 7.2-13.7 16.6-19.4 25.9-7.4 9.2-13.7 19.3-18.7 30.4-1.3 2.8-0.6 5.5 0.9 7.4q-0.1 0.2-0.3 0.5c-1.7 3.3 0.4 8.9 4.9 8.4 10.4-1.2 23.7 5.7 32.7-2.8 3-2.8 4.2-6.6 5.3-10.4 0.5-1.9 0.4-4.6 1.3-6.3 4.3-7.7 7.5-4.7 13.5-4.8 7.5-0.2 11.6-2.2 12.4-9.8 0.3-3.6-1.1-5.7 0.4-9.5 0.9-2.3 2.8-4.1 3.7-6.6 1.5-4 1.6-8.6 0.9-12.8z"/>
			<path id="Layer" class="s3" d="m157.1 36.6c-7.8-1.7-16.5 1.3-24.2 2.9-2.9 0.6-5.9 1.3-8.2 2.8q-1.4 0.6-2.9 1.7c-3.9 2.8-8.2 8.3-5.7 13.3 2.2 4.5 8.3 4.9 12.7 5 8.9 0.2 17.8-3.3 26.1-6.1 5.2-1.8 12-3.1 12.2-9.8 0.2-5.6-5.2-8.8-10-9.8z"/>
			<path id="Layer" class="s3" d="m267.6 255.2c-6.6-1.9-14.1 6.9-18.8 10.5-3.8 2.9-8.7 5.9-11.9 9.8-7.9 4-14.3 9.3-9.3 16 7.3 9.9 26-4.1 32.2-9.2 5.2-4.4 22.9-22.8 7.8-27.1z"/>
			<path id="Layer" class="s3" d="m278.9 88.1c-0.6-0.5-1.3-0.4-1.7 0.1-1.6-0.1-3.2 1.4-3.4 3.1-0.5 5 1.1 11.1 3.5 15.6 2.1 3.9 7.1 6.5 11 3.7 10-7.2-4.7-18-9.4-22.5z"/>
			<path id="Layer" class="s3" d="m311.3 80.1c-4.8-8.9-9.9-17.8-17.7-24.5-2.3-1.9-4.7-3.5-7.2-4.9-5.6-5.4-12.6-11.3-19.5-12.5-2.5-0.4-4.1 2.2-2.4 4.2 1.9 2.3 4.2 3.7 6.6 5.3 3.8 3.8 8 7 12.5 10.2q0.2 0.1 0.3 0.2 1 1 2 2c7.1 7.3 13 15.5 18.9 23.8 2.8 3.9 8.9 0.5 6.5-3.8z"/>
			<path id="Layer" class="s5" d="m143.4 234.2c-0.4-0.3-0.8 0.2-0.5 0.6 1.5 1.6 2.1 3 1.7 5.2-0.3 2-1.2 3.5-3.2 4.1-3.9 1.2-7.8-1-8-5.2-0.1-0.4-0.6-0.5-0.7-0.1-2 5.9 5.5 9.3 10.3 7.8 2.5-0.9 4.6-3.4 4.6-6.2-0.1-2.5-2.2-5-4.2-6.2z"/>
			<path id="Layer" class="s5" d="m181.2 226.9c-0.7-0.4-1.4 0.4-0.8 1 3.4 3.4 2.4 9.4-2.7 10.7-2.3 0.6-4.7-0.3-6.4-2-1.6-1.6-1.8-3.6-2.2-5.6-0.1-0.3-0.6-0.4-0.7-0.1-3 6.4 5.1 12.4 11 10.6 6.8-2.1 8.3-11.1 1.8-14.6z"/>
			<path id="Layer" class="s5" d="m168.8 193.5c-0.4-0.2-0.7 0.3-0.4 0.6 8.1 5.8 3.6 18.7-3.6 23-4.3 2.5-8.4 2.8-12.9 0.7-4.7-2.2-6-6.1-8-10.5-0.1-0.3-0.6-0.1-0.5 0.1 1.5 12.5 14.2 18.1 24.6 11.2 8-5.5 9.4-19.4 0.7-25.1z"/>
			<path id="Layer" class="s5" d="m202 191.5c-0.5-0.3-0.9 0.3-0.6 0.7 3.2 3.7 5.5 7.8 5.6 12.8 0.1 6.4-4 9.8-9.6 11.8-4.9 1.9-10.1 1.5-14.3-1.9-5.1-4.2-5-9.5-4.1-15.5 0.1-0.3-0.3-0.6-0.6-0.2-7.6 12.3 7.4 25.1 19.3 21.2 6.3-1.9 11-5.2 11.5-12 0.5-6.5-2-13-7.2-16.9z"/>
			<path id="Layer" class="s5" d="m222.2 164.8c-0.4-0.3-0.8 0.3-0.5 0.6 8.1 8.4 0.7 21.9-9.8 23.8-12 2.2-14.6-9-16-17.7-0.1-0.3-0.5-0.3-0.6 0-2.9 12.2 7.5 24.4 20.2 20.7 11.3-3.3 16.8-19.7 6.7-27.4z"/>
			<path id="Layer" class="s5" d="m205.1 135.6c-0.3-0.3-0.8 0.1-0.6 0.4 2.5 3.8 2.9 8.2 2.4 12.6-0.6 6-4.5 8.8-9.7 10.7-1.8 0.7-3.6 1.2-5.3 1.4-1.5-0.1-2.8-0.3-4.2-1-1.1-0.5-2.2-1.2-3.4-1.6-0.2-0.1-0.4 0.2-0.2 0.4q0.3 0.4 0.7 0.7c-0.6-0.4-1.3-0.9-1.8-1.5-2.8-3-3.7-7.4-5.3-11.1-0.1-0.4-0.7-0.2-0.7 0.2 0.1 5.5 1.8 11.7 6.5 15.1 5 3.7 11.7 2.1 17-0.1 4.5-1.9 7.9-4.6 8.4-9.7 0.5-5.4-0.1-12.3-3.8-16.5z"/>
			<path id="Layer" class="s5" d="m167.6 134.8c-0.4-0.2-0.7 0.4-0.3 0.6 8.6 5 5.9 18.3-1.5 23.2-7.9 5.1-14.7 0.4-20.3-5.3-0.3-0.2-0.6 0.1-0.5 0.3 5 8.9 16.2 13.6 24.9 6.6 7.9-6.3 7.1-20.8-2.3-25.4z"/>
			<path id="Layer" class="s5" d="m186.2 116.7c-0.3-3.9-3.2-5.5-6.6-7-0.2-0.1-0.4 0.2-0.1 0.3 3.6 1.6 4.5 4.3 3.8 8.1-0.3 1.6-0.7 3.2-1.5 4.4-0.1-0.1-0.2-0.2-0.3-0.2-1.3-0.1-3.1 0.6-3.5 1.9q0 0.1 0 0.1c-4.5 0.1-7.5-2.9-9.4-6.7-0.1-0.4-0.6-0.2-0.6 0.1-0.6 6.7 8.2 11.9 14 9 3.7-1.9 4.5-6.2 4.2-10z"/>
			<path id="Layer" class="s5" d="m155.4 164.6c-0.4-0.3-1 0.2-0.6 0.6 6.9 7.7 2.3 19.8-6.9 23.1-8.7 3.1-14.9-2.8-19.4-9.4-0.1-0.1-0.2-0.1-0.2 0 1.3 10.6 14.1 14.9 23.1 11.8 4.6-1.6 8.2-5.1 8.6-10.1 0.5-5.5 0-12.3-4.6-16z"/>
			<path id="Layer" class="s5" d="m133.3 198.2c-0.3-0.6-1.1-0.1-0.9 0.5 2.1 4.2 0.5 9.2-4.3 10.6-4.4 1.2-7.1-2.1-8.8-5.6-0.1-0.2-0.3-0.1-0.4 0-1.9 5.3 6.3 8.7 10.4 7.9 2.8-0.5 5.3-2.4 6.5-5 1.4-3.2-0.6-5.9-2.5-8.4z"/>
			<path id="Layer" class="s5" d="m105.2 169.6c-0.3 0.1-0.3 0.6-0.1 0.7q0.7 0.5 1.2 0.9c-0.4-0.3-1.1-0.1-1.1 0.6 0 0.4-0.2 1-0.3 1.4q-0.1 1-0.6 1.9c-0.5 1-1.4 2.2-2.5 2.7-0.6 0.3-0.2 1.1 0.3 1 1.8-0.4 3.1-1.1 4.1-2.6 0.4-0.7 0.7-1.5 0.8-2.3 0.1-0.5 0.2-0.9 0.1-1.3-0.1-0.5-0.3-0.6-0.4-1q-0.2-0.3-0.4-0.4c1 0.7 1.7 1.5 1.8 2.9 0.1 1.9-0.2 4-1.8 5.1-3.6 2.5-8-0.4-10.5-3.1-0.3-0.3-0.7 0.1-0.5 0.4 2.4 5.3 10 9 14.5 3.9 3.3-3.9 1.3-11.7-4.6-10.8z"/>
			<path id="Layer" class="s5" d="m132.4 141.2c-0.4-0.2-1 0.4-0.6 0.8 1.6 1.3 1 4.5 0.4 6.2-0.8 2.1-2.8 3.7-5.1 4-4.6 0.5-6.1-3.3-8.2-6.5-0.2-0.3-0.7-0.2-0.7 0.2-0.4 6 6.7 10.1 11.9 8.2 5.1-1.8 7.9-9.8 2.3-12.9z"/>
			<path id="Layer" class="s5" d="m144.8 106.2c-0.3-0.3-0.7 0.1-0.6 0.4 0.9 1.8 1.7 3.6 1.1 5.6-0.5 1.9-2 3.3-3.9 3.8-3.9 1-6.2-1.9-7.9-4.8-0.2-0.3-0.6-0.1-0.7 0.2-0.6 5.3 5.9 8.1 10.3 6.7 2.2-0.8 4.5-2.5 4.9-5 0.4-2.5-1.5-5.1-3.2-6.9z"/>
			<path id="Layer" class="s5" d="m218.4 107.6c-0.3-0.2-0.8 0.1-0.6 0.4 1.2 1.9 1.2 3.5 0.1 5.4-1.1 1.7-1.8 3.7-4.2 3.7-1.6 0-3.9-1-5.2-2.2-1.1-1-1.7-4.9-0.9-6.3 0.2-0.2-0.1-0.5-0.3-0.4-1.9 1-1.8 5.1-1.1 6.8 1.1 2.4 5.2 4.2 7.6 4.6 3.5 0.6 6-1.2 7.2-4.4 1.2-3-0.3-5.6-2.6-7.6z"/>
			<path id="Layer" class="s5" d="m232.1 140.6c-0.5-0.5-1.3 0.1-0.9 0.6 2.7 4.1 2.1 11.5-4 11.5-2.3 0-4.4-1.1-5.9-2.7-0.7-0.7-3.8-5-2.5-5.9 0.3-0.2 0.1-0.7-0.2-0.6-2.2 1-1.1 5.7-0.4 7.2 1.6 3.3 5 5.2 8.5 5.4 9.2 0.5 11.4-10 5.4-15.5z"/>
			<path id="Layer" class="s5" d="m262.1 129.7c-0.2-1.9-1.6-3.7-3.5-4.1-0.4-0.1-0.7 0.5-0.3 0.7 2.6 1.9 1.8 5.4-1.1 6.5-3.5 1.3-6.3-1.1-6.7-4.5 0-0.3-0.4-0.4-0.5-0.1-1.8 4.9 4.7 8.7 8.8 6.8 2.1-1 3.6-3 3.3-5.3z"/>
			<path id="Layer" class="s5" d="m254.9 170.2c-0.5-0.3-1.1 0.4-0.6 0.8 3.1 2.8 1.1 7.5-2.3 9-5.5 2.3-7.2-2.8-8.7-6.9-0.1-0.4-0.6-0.3-0.6 0-0.4 6.4 4.4 12.1 11.1 9.2 5.2-2.2 6.3-9.2 1.1-12.1z"/>
			<path id="Layer" class="s5" d="m234.3 198.8c-0.9-1.4-1.8-1-3-2-0.3-0.3-0.7 0-0.6 0.4 0.6 1.4 1.5 1.7 1.6 3.4 0 2.2-0.5 4.7-2 6.4-3.9 4.3-10.4-0.1-12.5-4-0.1-0.3-0.5-0.2-0.5 0.1 0.5 5.6 7.7 10 12.9 7.5 2.8-1.4 4.7-4.8 4.9-7.8 0.1-1.4-0.1-2.8-0.8-4z"/>
			<path id="Layer" class="s5" d="m259 217.2c-0.3 0-0.4 0.4-0.2 0.6 1.1 1.4 1 2.9 0.5 4.5-0.6 1.8-1.9 2.6-3.8 2.4-3.7-0.3-4.3-3.4-4.9-6.3 0-0.2-0.2-0.2-0.3-0.1-1.5 1.9-0.6 4.8 0.8 6.5 1.6 1.9 4.1 2.8 6.6 2.4 2.7-0.5 4.3-2.5 4.7-5.1 0.3-2.2-1-4.9-3.4-4.9z"/>
			<path id="Layer" class="s5" d="m280.8 171.4c-0.3-0.2-0.8 0-0.8 0.4 0 0.6 0.2 0.9 0.3 1.5 0.1 0.8-0.1 1.3-0.5 2-0.7 1.2-1.7 1.9-3 2-1.4 0-2.5-0.6-3.1-1.8-0.6-1.1-0.3-2.2-0.6-3.3 0-0.1-0.2-0.2-0.4-0.1-1.5 0.9-1.2 3.4-0.6 4.8 0.8 1.9 2.8 3.1 4.9 3.1 2.1 0 4.4-1.1 5.1-3.2 0.6-1.5 0.4-4.6-1.3-5.4z"/>
			<path id="Layer" class="s6" d="m217.8 234.6c-0.4-0.1-0.8 0.5-0.4 0.8 1.7 1.6 1.5 3.9 0.2 5.8 0.5-1 0.5-2.1 0-3.1-0.3-0.6-1.2-0.4-1.3 0.2-0.8 2.2-2.3 4.7-5.1 3.7-0.6-0.2-0.9 0.6-0.4 0.9 1.4 0.9 3.1 1.2 4.6 0.5-0.8 0.5-1.6 0.8-2.4 0.8-4.1 0.2-4.8-3.4-6.6-6.1-0.3-0.5-0.9-0.3-0.9 0.2-0.4 5.8 5 10.4 10.5 8 4.5-1.9 8.2-9.6 1.8-11.7z"/>
			<path id="Layer" class="s5" d="m230.6 258.6c-0.2-0.4-0.8-0.1-0.8 0.3 0 2-0.8 4.3-2.6 5.3-2.6 1.5-4.6-0.7-4.5-3.4 0-0.2-0.4-0.3-0.5-0.1-2.1 3.5 1.6 6.8 5 6.7 2-0.1 3.9-1.7 4.6-3.5 0.7-1.8 0-3.9-1.2-5.3z"/>
			<path id="Layer" class="s5" d="m183.6 266.3c-0.4-3.1-3.8-3.5-6.3-4.2-0.5-0.1-0.9 0.7-0.4 1 1.4 0.7 3.2 1.5 3.5 3.1 0.3 1.6-1 3.6-2.6 4.1-3.1 1-5.4-2.1-6.4-4.7-0.2-0.4-0.9-0.4-0.9 0.2-0.3 5 4.8 9.5 9.6 6.8 2.1-1.1 3.8-3.9 3.5-6.3z"/>
			<path id="Layer" class="s5" d="m128.6 258c-0.5-0.1-0.8 0.5-0.5 0.9 1.3 1.4 1.7 3.9-0.2 5-1.6 1-4.7-0.4-5.3-2.1 0-0.1-0.1-0.1-0.2-0.1q-0.1 0-0.2 0.1c-0.2 0-0.3 0.1-0.3 0.3-0.3 1.5 1.4 3.1 2.6 3.9 1.6 0.9 3.5 0.8 5-0.1 3.1-1.9 3-6.9-0.9-7.9z"/>
			<path id="Layer" class="s5" d="m101.1 216.3c-0.4-0.2-1.1 0.2-0.7 0.7 1.3 2.1 1.6 5.1-0.9 6.6-1.4 0.8-2.8 0.4-4.1-0.3-0.7-0.5-3-1.8-2.9-2.6 0-0.2-0.3-0.3-0.4-0.1-1.1 1.6 1.4 3.8 2.5 4.6 1.8 1.3 3.9 1.7 5.9 0.9 4.1-1.7 5-7.9 0.6-9.8z"/>
			<path id="Layer" class="s5" d="m78.4 170.8c-0.7 0.2-0.6 1 0 1.2 1.3 0.5 1.4 1.9 1.2 3.2-0.3 1.4-1.1 2-2.5 1.9-2.6 0-4.6-1.6-4.9-4.2 0-0.4-0.6-0.6-0.8-0.2-2.1 4.6 4.3 8.1 8.2 6.6 3.9-1.5 3.6-9.8-1.2-8.5z"/>
			<path id="Layer" class="s5" d="m100.9 125.1c-0.6-0.4-1.5 0.5-0.8 1.1 2.5 2 1.1 6.1-1.9 6.7-3.7 0.7-5.5-2.9-4.9-6 0.1-0.3-0.2-0.5-0.4-0.3-1.7 1.6-1.7 4.3-0.5 6.2 1.3 2 4 3 6.3 2.7 5.3-0.8 7.7-7.9 2.2-10.4z"/>
			<path id="Layer" class="s5" d="m130.5 83.6c-0.4-0.4-1.2-0.1-1.2 0.5 0.2 2-0.1 5.1-2.5 5.7-0.9 0.3-2.1 0-2.9-0.5-1.7-1.1-1.3-3.1-1-4.8 0.1-0.5-0.5-0.9-0.8-0.5-3.4 3.6 0 8.9 4.5 8.6 4.2-0.3 7.1-5.8 3.9-9z"/>
			<path id="Layer" class="s3" d="m142 183.9c-3.9-1.7-7.4-7.2-6.8-11.3 0.4-3.3 3.1-5 4.4-7.9 0.3-0.6 0.1-1.4-0.6-1.6-10.9-2.8-10.1 22.8 2.8 21.6 0.5-0.1 0.6-0.7 0.2-0.8z"/>
			<path id="Layer" class="s3" d="m152.9 138c1.4-1.3 3.4-1.8 5-2.7 1.1-0.7 1-2.6-0.4-2.8-7.2-1.6-11.7 4.1-12.4 10.8-0.3 3.3 0.6 6.4 2.6 9 2.3 3 4.3 3.7 7.9 3.8 0.7 0 0.8-1 0.2-1.2-3.6-1.1-5.7-8.1-5.3-11.2 0.2-2.1 0.9-4.3 2.4-5.7z"/>
			<path id="Layer" class="s3" d="m156.5 213.2c-4.4-0.1-4.5-5.8-4.6-8.9-0.1-3.6 2-5 4.2-7.4 0.5-0.5 0.4-1.7-0.5-1.8-14-2.2-8.9 23.6 1.1 19 0.5-0.2 0.2-0.9-0.2-0.9z"/>
			<path id="Layer" class="s6" d="m148.9 164.7c-0.7-0.3-1.5 0.5-1.2 1.2 1.2 3.1 3.4 5.4 3.3 9 0 4.4-3.2 7.7-6.8 9.8-0.3 0.1-0.1 0.5 0.2 0.4 4.8-0.7 8.2-4.6 9.1-9.3 0.8-4-0.5-9.5-4.6-11.1z"/>
			<path id="Layer" class="s6" d="m165.6 138.2c-0.6-0.1-1.2 0-1.6 0.6-0.3 0.5-0.1 0.9 0 1.4 0.4 1.7 1.2 2.7 1.2 4.6 0.1 4.1 0 8.9-3.1 11.9-0.3 0.3 0.1 0.9 0.5 0.6 3.6-2.2 5.3-5.8 5.8-9.8 0.4-2.7 1-8.8-2.8-9.3z"/>
			<path id="Layer" class="s6" d="m167.1 194.3c-0.4-0.2-1.2 0-1.1 0.6 0.4 3 2 5.6 1.9 8.7-0.1 3.9-2 8.1-5.3 10.3-0.4 0.3 0 1 0.5 0.8 3.9-2.2 7-4.8 7.9-9.4 0.7-3.9-0.1-9.2-3.9-11z"/>
			<path id="Layer" class="s6" d="m199.6 195.1c-0.7-0.2-1.4 0.5-1.2 1.2 1.2 3.7 3.3 7 2.2 11-1.2 4.2-5.6 7.2-9.5 8.3-0.3 0.1-0.3 0.6 0 0.7 5.7 1.7 11.2-1.4 13.4-6.8 2-4.9 0.9-12.8-4.9-14.4z"/>
			<path id="Layer" class="s6" d="m219.3 163.6c-1.5-0.6-2.6 1.3-1.9 2.5 1.6 3.1 1.8 6.2 1.5 9.7-0.3 4-3.6 5.7-5.4 8.9-0.2 0.4 0.3 0.8 0.6 0.5 4-3.7 8.6-4.3 9.1-10.6 0.4-3.9 0.3-9.3-3.9-11z"/>
			<path id="Layer" class="s6" d="m202.3 140.4c-1.3-3.3-4-6.5-7.8-5.9-0.7 0.1-0.8 1-0.4 1.5 1.9 2.2 4.2 3.6 5.3 6.5 1.5 3.8 1 8.5-0.2 12.3-0.1 0.4 0.5 0.7 0.8 0.3 2.5-4.7 4.5-9.5 2.3-14.7z"/>
			<path id="Layer" class="s6" d="m178.2 229.5c-1.5-1.3-2.6 0.1-2.7 1.7-0.1 1.6-0.7 3.1-1.8 4.3-0.4 0.5-0.1 1.1 0.4 1.1 1.7 0.1 3.1-0.7 4-2.1 1-1.4 1.6-3.8 0.1-5z"/>
			<path id="Layer" class="s6" d="m142.9 235.1c-0.3-0.2-0.9 0-1.1 0.3-0.6 1.1-0.6 2.4-1.3 3.5-0.6 1.1-2 2.6-3.4 2.6-0.5 0-0.7 0.9-0.1 1 2.3 0.4 4.1 0.1 5.7-1.7 1.2-1.5 2.1-4.4 0.2-5.7z"/>
			<path id="Layer" class="s6" d="m129.3 198.3c-0.5-0.3-1 0-1.1 0.6 0 1.3 0.3 2.5 0 3.9-0.3 1.5-1.4 2.8-2.9 3.3-0.5 0.1-0.4 1 0.1 0.9 2.1-0.2 3.7-1.3 4.7-3.2 0.9-1.7 1.1-4.5-0.8-5.5z"/>
			<path id="Layer" class="s5" d="m129.3 142.4c-0.6-0.1-1.3 0.3-1.2 1 0 1.2 0.7 2.4 0.5 3.7-0.1 1.7-1.5 3.1-3.2 3.3-0.7 0.1-0.7 1 0 1.1 2.4 0.3 4.7-0.8 5.8-3 0.9-2.1 0.6-5.4-1.9-6.1z"/>
			<path id="Layer" class="s6" d="m180.7 113.9c-0.5-1.6-1.3-2.4-2.7-3.3-0.8-0.5-1.6 0.5-1.3 1.3 0.6 1.2 1.3 2.8 1.4 4.1 0.1 1.8-1.1 3.9-3.2 4-0.4 0-0.6 0.8-0.1 0.9 2.6 0.5 4.8-0.7 5.8-3.1 0.5-1.2 0.5-2.6 0.1-3.9z"/>
		</g>
	</g>
</svg>