<svg version="1.2" xmlns="http://www.w3.org/2000/svg" viewBox="0 0 111 134" width="111" height="134">
	<title>monster-set-svg</title>
	<defs>
		<radialGradient id="g1" cx="0" cy="0" r="1" gradientUnits="userSpaceOnUse" gradientTransform="matrix(30.068,0,0,30.068,32.488,107.981)">
			<stop offset="0" stop-color="#535c80"/>
			<stop offset=".342" stop-color="#4d5577"/>
			<stop offset=".905" stop-color="#3d445e"/>
			<stop offset="1" stop-color="#3a4059"/>
		</radialGradient>
		<radialGradient id="g2" cx="0" cy="0" r="1" gradientUnits="userSpaceOnUse" gradientTransform="matrix(27.129,0,0,27.129,38.9,108.967)">
			<stop offset="0" stop-color="#dbcacc"/>
			<stop offset=".532" stop-color="#dac8ca"/>
			<stop offset=".737" stop-color="#d5c2c3"/>
			<stop offset=".885" stop-color="#cdb6b7"/>
			<stop offset="1" stop-color="#c2a7a7"/>
		</radialGradient>
		<radialGradient id="g3" cx="0" cy="0" r="1" gradientUnits="userSpaceOnUse" gradientTransform="matrix(30.069,0,0,30.069,32.488,107.981)">
			<stop offset="0" stop-color="#535c80"/>
			<stop offset=".342" stop-color="#4d5577"/>
			<stop offset=".905" stop-color="#3d445e"/>
			<stop offset="1" stop-color="#3a4059"/>
		</radialGradient>
		<radialGradient id="g4" cx="0" cy="0" r="1" gradientUnits="userSpaceOnUse" gradientTransform="matrix(30.069,0,0,30.069,32.488,107.981)">
			<stop offset="0" stop-color="#535c80"/>
			<stop offset=".342" stop-color="#4d5577"/>
			<stop offset=".905" stop-color="#3d445e"/>
			<stop offset="1" stop-color="#3a4059"/>
		</radialGradient>
		<radialGradient id="g5" cx="0" cy="0" r="1" gradientUnits="userSpaceOnUse" gradientTransform="matrix(30.069,0,0,30.069,32.488,107.981)">
			<stop offset="0" stop-color="#535c80"/>
			<stop offset=".342" stop-color="#4d5577"/>
			<stop offset=".905" stop-color="#3d445e"/>
			<stop offset="1" stop-color="#3a4059"/>
		</radialGradient>
		<radialGradient id="g6" cx="0" cy="0" r="1" gradientUnits="userSpaceOnUse" gradientTransform="matrix(27.129,0,0,27.129,38.9,108.968)">
			<stop offset="0" stop-color="#dbcacc"/>
			<stop offset=".532" stop-color="#dac8ca"/>
			<stop offset=".737" stop-color="#d5c2c3"/>
			<stop offset=".885" stop-color="#cdb6b7"/>
			<stop offset="1" stop-color="#c2a7a7"/>
		</radialGradient>
		<radialGradient id="g7" cx="0" cy="0" r="1" gradientUnits="userSpaceOnUse" gradientTransform="matrix(30.068,0,0,30.068,32.488,107.981)">
			<stop offset="0" stop-color="#535c80"/>
			<stop offset=".342" stop-color="#4d5577"/>
			<stop offset=".905" stop-color="#3d445e"/>
			<stop offset="1" stop-color="#3a4059"/>
		</radialGradient>
		<radialGradient id="g8" cx="0" cy="0" r="1" gradientUnits="userSpaceOnUse" gradientTransform="matrix(-30.069,0,0,-30.069,50,107.981)">
			<stop offset="0" stop-color="#535c80"/>
			<stop offset=".342" stop-color="#4d5577"/>
			<stop offset=".905" stop-color="#3d445e"/>
			<stop offset="1" stop-color="#3a4059"/>
		</radialGradient>
		<radialGradient id="g9" cx="0" cy="0" r="1" gradientUnits="userSpaceOnUse" gradientTransform="matrix(-27.129,0,0,-27.129,43.588,108.967)">
			<stop offset="0" stop-color="#dbcacc"/>
			<stop offset=".532" stop-color="#dac8ca"/>
			<stop offset=".737" stop-color="#d5c2c3"/>
			<stop offset=".885" stop-color="#cdb6b7"/>
			<stop offset="1" stop-color="#c2a7a7"/>
		</radialGradient>
		<radialGradient id="g10" cx="0" cy="0" r="1" gradientUnits="userSpaceOnUse" gradientTransform="matrix(-30.069,0,0,-30.069,50,107.981)">
			<stop offset="0" stop-color="#535c80"/>
			<stop offset=".342" stop-color="#4d5577"/>
			<stop offset=".905" stop-color="#3d445e"/>
			<stop offset="1" stop-color="#3a4059"/>
		</radialGradient>
		<radialGradient id="g11" cx="0" cy="0" r="1" gradientUnits="userSpaceOnUse" gradientTransform="matrix(-30.068,0,0,-30.068,50,107.981)">
			<stop offset="0" stop-color="#535c80"/>
			<stop offset=".342" stop-color="#4d5577"/>
			<stop offset=".905" stop-color="#3d445e"/>
			<stop offset="1" stop-color="#3a4059"/>
		</radialGradient>
		<radialGradient id="g12" cx="0" cy="0" r="1" gradientUnits="userSpaceOnUse" gradientTransform="matrix(-30.068,0,0,-30.068,50,107.981)">
			<stop offset="0" stop-color="#535c80"/>
			<stop offset=".342" stop-color="#4d5577"/>
			<stop offset=".905" stop-color="#3d445e"/>
			<stop offset="1" stop-color="#3a4059"/>
		</radialGradient>
		<radialGradient id="g13" cx="0" cy="0" r="1" gradientUnits="userSpaceOnUse" gradientTransform="matrix(-27.129,0,0,-27.129,43.588,108.968)">
			<stop offset="0" stop-color="#dbcacc"/>
			<stop offset=".532" stop-color="#dac8ca"/>
			<stop offset=".737" stop-color="#d5c2c3"/>
			<stop offset=".885" stop-color="#cdb6b7"/>
			<stop offset="1" stop-color="#c2a7a7"/>
		</radialGradient>
		<radialGradient id="g14" cx="0" cy="0" r="1" gradientUnits="userSpaceOnUse" gradientTransform="matrix(-30.068,0,0,-30.068,50,107.981)">
			<stop offset="0" stop-color="#535c80"/>
			<stop offset=".342" stop-color="#4d5577"/>
			<stop offset=".905" stop-color="#3d445e"/>
			<stop offset="1" stop-color="#3a4059"/>
		</radialGradient>
		<radialGradient id="g15" cx="0" cy="0" r="1" gradientUnits="userSpaceOnUse" gradientTransform="matrix(40.94,0,0,40.94,40.74,55.458)">
			<stop offset="0" stop-color="#5fffd4"/>
			<stop offset=".232" stop-color="#59e6c8"/>
			<stop offset=".725" stop-color="#48a5a9"/>
			<stop offset="1" stop-color="#3e7e97"/>
		</radialGradient>
		<radialGradient id="g16" cx="0" cy="0" r="1" gradientUnits="userSpaceOnUse" gradientTransform="matrix(32.667,0,0,32.667,88.578,77.569)">
			<stop offset="0" stop-color="#535c80"/>
			<stop offset=".342" stop-color="#4d5577"/>
			<stop offset=".905" stop-color="#3d445e"/>
			<stop offset="1" stop-color="#3a4059"/>
		</radialGradient>
		<radialGradient id="g17" cx="0" cy="0" r="1" gradientUnits="userSpaceOnUse" gradientTransform="matrix(30.599,0,0,30.599,7.697,94.501)">
			<stop offset="0" stop-color="#535c80"/>
			<stop offset=".342" stop-color="#4d5577"/>
			<stop offset=".905" stop-color="#3d445e"/>
			<stop offset="1" stop-color="#3a4059"/>
		</radialGradient>
		<radialGradient id="g18" cx="0" cy="0" r="1" gradientUnits="userSpaceOnUse" gradientTransform="matrix(40.94,0,0,40.94,40.74,55.458)">
			<stop offset="0" stop-color="#5fffd4"/>
			<stop offset=".232" stop-color="#59e6c8"/>
			<stop offset=".725" stop-color="#48a5a9"/>
			<stop offset="1" stop-color="#3e7e97"/>
		</radialGradient>
		<linearGradient id="g19" x2="1" gradientUnits="userSpaceOnUse" gradientTransform="matrix(0,22.53,-72.494,0,41.162,29.409)">
			<stop offset="0" stop-color="#ffffff"/>
			<stop offset=".374" stop-color="#9e9e9e"/>
			<stop offset="1" stop-color="#000000"/>
		</linearGradient>
		<radialGradient id="g20" cx="0" cy="0" r="1" gradientUnits="userSpaceOnUse" gradientTransform="matrix(11.345,0,0,11.345,11.644,17.643)">
			<stop offset="0" stop-color="#535c80"/>
			<stop offset=".342" stop-color="#4d5577"/>
			<stop offset=".905" stop-color="#3d445e"/>
			<stop offset="1" stop-color="#3a4059"/>
		</radialGradient>
		<radialGradient id="g21" cx="0" cy="0" r="1" gradientUnits="userSpaceOnUse" gradientTransform="matrix(-11.345,0,0,-11.345,68.319,17.643)">
			<stop offset="0" stop-color="#535c80"/>
			<stop offset=".342" stop-color="#4d5577"/>
			<stop offset=".905" stop-color="#3d445e"/>
			<stop offset="1" stop-color="#3a4059"/>
		</radialGradient>
		<linearGradient id="g22" x2="1" gradientUnits="userSpaceOnUse" gradientTransform="matrix(0,-7.912,32.507,0,41.244,80.286)">
			<stop offset="0" stop-color="#ffffff"/>
			<stop offset=".374" stop-color="#9e9e9e"/>
			<stop offset="1" stop-color="#000000"/>
		</linearGradient>
		<radialGradient id="g23" cx="0" cy="0" r="1" gradientUnits="userSpaceOnUse" gradientTransform="matrix(10.914,0,0,10.914,32.804,43.536)">
			<stop offset="0" stop-color="#ffffff"/>
			<stop offset=".71" stop-color="#ddc6c5"/>
			<stop offset=".802" stop-color="#e4cfce"/>
			<stop offset=".954" stop-color="#f8e8e7"/>
			<stop offset="1" stop-color="#fff1f0"/>
		</radialGradient>
		<radialGradient id="g24" cx="0" cy="0" r="1" gradientUnits="userSpaceOnUse" gradientTransform="matrix(3.315,0,0,3.315,34.555,45.191)">
			<stop offset="0" stop-color="#d9855b"/>
			<stop offset=".302" stop-color="#ce7c52"/>
			<stop offset=".769" stop-color="#b5683c"/>
			<stop offset=".946" stop-color="#ba6c41"/>
			<stop offset="1" stop-color="#bd6e44"/>
		</radialGradient>
		<radialGradient id="g25" cx="0" cy="0" r="1" gradientUnits="userSpaceOnUse" gradientTransform="matrix(3.47,0,0,3.47,34.555,45.191)">
			<stop offset=".594" stop-color="#c47848"/>
			<stop offset="1" stop-color="#a05c2d"/>
		</radialGradient>
		<radialGradient id="g26" cx="0" cy="0" r="1" gradientUnits="userSpaceOnUse" gradientTransform="matrix(11.416,0,0,11.416,46.657,41.693)">
			<stop offset="0" stop-color="#ffffff"/>
			<stop offset=".71" stop-color="#ddc6c5"/>
			<stop offset=".802" stop-color="#e4cfce"/>
			<stop offset=".954" stop-color="#f8e8e7"/>
			<stop offset="1" stop-color="#fff1f0"/>
		</radialGradient>
		<radialGradient id="g27" cx="0" cy="0" r="1" gradientUnits="userSpaceOnUse" gradientTransform="matrix(3.429,0,0,3.429,44.789,44.266)">
			<stop offset="0" stop-color="#d9855b"/>
			<stop offset=".302" stop-color="#ce7c52"/>
			<stop offset=".769" stop-color="#b5683c"/>
			<stop offset=".946" stop-color="#ba6c41"/>
			<stop offset="1" stop-color="#bd6e44"/>
		</radialGradient>
		<radialGradient id="g28" cx="0" cy="0" r="1" gradientUnits="userSpaceOnUse" gradientTransform="matrix(3.59,0,0,3.59,44.789,44.266)">
			<stop offset=".594" stop-color="#c47848"/>
			<stop offset="1" stop-color="#a05c2d"/>
		</radialGradient>
		<linearGradient id="g29" x2="1" gradientUnits="userSpaceOnUse" gradientTransform="matrix(0,-8.574,25.276,0,39.466,70.343)">
			<stop offset="0" stop-color="#5c577e"/>
			<stop offset=".336" stop-color="#4b4868"/>
			<stop offset=".731" stop-color="#3c3b54"/>
			<stop offset="1" stop-color="#36364d"/>
		</linearGradient>
	</defs>
	<style>
		.s0 { fill: url(#g1) } 
		.s1 { opacity: .8;fill: #d1bcbb } 
		.s2 { fill: url(#g2) } 
		.s3 { fill: url(#g3) } 
		.s4 { fill: url(#g4) } 
		.s5 { fill: url(#g5) } 
		.s6 { opacity: .7;fill: #ceb1b2 } 
		.s7 { fill: url(#g6) } 
		.s8 { fill: url(#g7) } 
		.s9 { opacity: .3;fill: #ffffff } 
		.s10 { fill: url(#g8) } 
		.s11 { fill: url(#g9) } 
		.s12 { fill: url(#g10) } 
		.s13 { fill: url(#g11) } 
		.s14 { fill: url(#g12) } 
		.s15 { fill: url(#g13) } 
		.s16 { fill: url(#g14) } 
		.s17 { fill: url(#g15) } 
		.s18 { opacity: .3;fill: #386197 } 
		.s19 { opacity: .1;fill: #ffffff } 
		.s20 { fill: url(#g16) } 
		.s21 { fill: url(#g17) } 
		.s22 { fill: url(#g18) } 
		.s23 { opacity: .2;fill: url(#g19) } 
		.s24 { fill: #386197 } 
		.s25 { fill: url(#g20) } 
		.s26 { fill: #3a4059 } 
		.s27 { opacity: .3;fill: #3a4059 } 
		.s28 { fill: url(#g21) } 
		.s29 { opacity: .3;fill: url(#g22) } 
		.s30 { fill: url(#g23) } 
		.s31 { opacity: .4;fill: #ffffff } 
		.s32 { fill: #ffffff } 
		.s33 { fill: url(#g24) } 
		.s34 { fill: url(#g25) } 
		.s35 { fill: url(#g26) } 
		.s36 { fill: url(#g27) } 
		.s37 { fill: url(#g28) } 
		.s38 { fill: url(#g29) } 
		.s39 { fill: #36364d } 
		.s40 { opacity: .5;fill: #386197 } 
		.s41 { fill: #fdf3de } 
		.s42 { fill: #aae3de } 
	</style>
	<g id="Layer">
		<g id="Layer">
			<g id="Layer">
				<path id="Layer" class="s0" d="m15.2 132.6h6.4c0 0 1.1-3.7-1.4-3.9-2.4-0.3-5 3.9-5 3.9z"/>
				<path id="Layer" class="s1" d="m15.2 132.6h6.4c0 0 1.1-3.7-1.4-3.9-2.4-0.3-5 3.9-5 3.9z"/>
				<path id="Layer" class="s2" d="m41.4 80.6v52h-8.4c0 0 4.5-15 4.5-27.3 0-12.4-4.1-25.6-4.1-25.6z"/>
				<g id="Layer">
					<path id="Layer" class="s3" d="m41.4 87.9h-5.9c0.3 1.8 0.7 3.8 1.1 5.9h4.8z"/>
					<path id="Layer" class="s4" d="m41.4 101.9h-4q0.1 1.7 0.1 3.4 0 1.2 0 2.5h3.9z"/>
					<path id="Layer" class="s5" d="m41.4 115.9h-4.7c-0.3 2-0.7 4-1.1 5.9h5.8z"/>
				</g>
				<path id="Layer" class="s6" d="m39.6 80.4v47c-1.4-1.2-3-2.5-4.4-3.5-1.1 5.1-2.2 8.7-2.2 8.7h6.6 1.8v-3.5-48.5z"/>
				<path id="Layer" class="s7" d="m41.4 132.6h-22.7c0 0 3.9-10.4 7.9-10.6 3.9-0.1 14.8 10.6 14.8 10.6z"/>
				<path id="Layer" class="s8" d="m20.9 132.6h6.4c0 0 0.3-3.7-2.2-3.9-2.5-0.3-4.2 3.9-4.2 3.9z"/>
				<path id="Layer" class="s9" d="m27.3 123c-1.4-1.6-5.9 2.7-4.2 4.5 1.1 1.3 5.6-2.7 4.2-4.5z"/>
				<path id="Layer" class="s1" d="m25.1 128.7q-0.1 0-0.1 0c1.4 0.9 0.7 3.9 0.7 3.9h1.6c0 0 0.3-3.7-2.2-3.9z"/>
				<path id="Layer" class="s9" d="m21.4 132.6h2.7c0 0 0.6-2.4-0.4-2.6-1-0.1-2.3 2.6-2.3 2.6z"/>
			</g>
			<g id="Layer">
				<path id="Layer" class="s10" d="m67.3 132.6h-6.4c0 0-1.1-3.7 1.4-3.9 2.4-0.3 5 3.9 5 3.9z"/>
				<path id="Layer" class="s1" d="m67.3 132.6h-6.4c0 0-1.1-3.7 1.4-3.9 2.4-0.3 5 3.9 5 3.9z"/>
				<path id="Layer" class="s11" d="m41.1 80.6v52h8.4c0 0-4.6-15-4.6-27.3 0-12.4 4.2-25.6 4.2-25.6z"/>
				<g id="Layer">
					<path id="Layer" class="s12" d="m41.1 87.9h5.9c-0.4 1.8-0.7 3.8-1.1 5.9h-4.8z"/>
					<path id="Layer" class="s13" d="m41.1 101.9h3.9q-0.1 1.7-0.1 3.4 0 1.2 0.1 2.5h-3.9z"/>
					<path id="Layer" class="s14" d="m41.1 115.9h4.7c0.3 2 0.7 4 1.1 5.9h-5.8z"/>
				</g>
				<path id="Layer" class="s6" d="m49.5 132.6c-0.4-1.2-1.2-4.4-2.1-8-1.2-5.4-2.5-12.8-2.5-19.3 0-12.4 4.2-25.6 4.2-25.6l-1.7 0.2c-0.6 1.7-4.2 13.9-4.2 25.4 0 7 0.8 13.8 2 19.3-1.7 1.3-2.7 2.2-4.1 3.5v4.5z"/>
				<path id="Layer" class="s15" d="m41.1 132.6h22.7c0 0-3.9-10.4-7.9-10.6-3.9-0.1-14.8 10.6-14.8 10.6z"/>
				<path id="Layer" class="s16" d="m61.6 132.6h-6.4c0 0-0.3-3.7 2.2-3.9 2.5-0.3 4.2 3.9 4.2 3.9z"/>
				<path id="Layer" class="s9" d="m57 123.7c1.3 1.9-4.6 5.2-6 2.9-0.9-1.6 4.7-5 6-2.9z"/>
				<path id="Layer" class="s9" d="m50.6 127.1c0.7 0.8-1.8 2.7-2.6 1.6-0.5-0.7 1.8-2.5 2.6-1.6z"/>
				<path id="Layer" class="s1" d="m57.4 128.7q-0.2 0-0.4 0.1c1.9 0.6 2.9 3.8 2.9 3.8h1.7c0 0-1.7-4.2-4.2-3.9z"/>
				<path id="Layer" class="s9" d="m55.9 132.6h2.6c0 0-0.2-2.4-1.3-2.6-1.1-0.1-1.3 2.6-1.3 2.6z"/>
			</g>
			<path id="Layer" class="s6" d="m49.1 79.7l-1.8 0.2-6.1 0.7-1.6-0.2-6.3-0.7c0 0 0.7 2.2 1.6 5.7 4.2 1.6 6.3 3.2 6.3 3.2v-0.1q0 0 0.1 0.1c0 0 2.1-1.6 6.3-3.2 0.8-3.5 1.5-5.7 1.5-5.7z"/>
		</g>
		<g id="Layer">
			<path id="Layer" class="s17" d="m35.7 27.6c0 0-1.5-2-3-6-1.5-4.1-1.3-9.4 0.5-9.9 1.9-0.5 2.2 3.4 3.5 7.8 0 0-0.5-4 2.1-10.3 2.6-6.3 7-8.4 9.6-7 2.6 1.4-2.9 7.2-4.5 10.5-2.2 4.7-2.3 7.9-2.3 7.9 0 0 1.6-3.9 4.6-6.3 2.9-2.5 6.1-3 6.9-1.5 1 1.8-3.5 5.1-5.6 8.1-2.5 3.8-3.3 6.7-3.3 6.7 0 0-8.5 0-8.5 0z"/>
			<path id="Layer" class="s18" d="m53.1 12.8c-0.8-1.5-4-1-6.9 1.5-3 2.4-4.6 6.3-4.6 6.3 0 0 0.1-3.2 2.3-7.9 1.6-3.3 7.1-9.2 4.5-10.5-2.6-1.4-7 0.7-9.6 7-2.6 6.3-2.1 10.3-2.1 10.3-1.3-4.4-1.6-8.3-3.5-7.8-1.8 0.5-2 5.8-0.5 9.9 1.5 4 3 6 3 6l0.9-0.2c0 0-2.4-2.8-3.4-6.5-1.1-3.8-1.2-7.6 0.2-7.7 0.9 0 1.1 2.7 1.9 5 0.8 2.3 1.7 4.1 2.2 4 0.6-0.2-0.7-6 1.5-11.8 2.2-5.7 6.5-8.1 7.6-7.4 2 1.3-1.6 5-3.6 10-3.3 7.8-2.7 10.7-2.2 10.8 0.5 0.1 1.9-4.7 4.5-7.6 2.6-2.9 5.3-4.1 6-2.7 0.6 1.4-2 2.6-4.3 6-2.3 3.3-3.9 7.8-3.9 7.8l1 0.3h0.1c0 0 0.8-2.9 3.3-6.7 2.1-3 6.6-6.3 5.6-8.1z"/>
			<path id="Layer" class="s19" d="m45.6 4c-1.3-1.3-6.8 4.9-5.2 6.3 1.1 0.9 6.5-5 5.2-6.3z"/>
			<path id="Layer" class="s19" d="m49.7 13.9c-0.6-0.9-4.9 2.6-4 3.6 0.5 0.6 4.7-2.7 4-3.6z"/>
			<path id="Layer" class="s19" d="m33.2 14.7c-0.9 0.1-0.4 5.6 0.7 5.4 0.7-0.1 0.2-5.4-0.7-5.4z"/>
			<path id="Layer" class="s19" d="m40.1 11.6c-1-0.4-2.3 3.6-1 4 0.8 0.3 2.2-3.6 1-4z"/>
		</g>
		<path id="Layer" class="s20" d="m109.7 55c-0.4-0.5-1.5 0.8-2.6 1.5-1.2 0.8-2.6 1.5-2.6 1.5l-0.1-0.4c3.8-2.4 5.1-5.1 4.5-5.5-0.5-0.4-1.8 1.5-2.8 2.5-1.1 1-2.1 1.5-2.1 1.5l-0.2-0.2c2.1-2.1 3.3-4.7 2.6-5-0.8-0.2-1.7 2.1-3.4 3.9-0.9 0.8-2.5 1.8-2.5 1.8 0 0 1.2-3.1 0.5-3.3-0.6-0.2-2.6 4.7-3.9 7.8-1.1 2.2-2.7 6-4.5 12.2-2.8 10.1-5.5 10.9-7.8 11.2-4.1 0.4-10.8-6.7-14.5-19.9l-4.4 5c6.8 3 10.4 19.1 19.5 18.2 8.3-0.8 8.3-16.3 13.9-24.5 0.2-0.2 1.5-1.6 4.6-2.4 2.7-0.7 4.7-1.9 4.4-2.4-0.2-0.5-1.3 0.2-2.1 0.5-0.7 0.4-1.4 0.5-1.4 0.5v-0.5c3.2-1.3 5.3-3.5 4.9-4z"/>
		<path id="Layer" class="s21" d="m9.7 87.4c2.9-14 6.1-19.1 6.1-19.1l-4.5-7.4c0 6.7-2.8 15.5-4.2 26-1.3 9.7-1.6 19.4 0.1 26 0.1 0.9 0.2 2.4-0.3 4.1-0.7 2.3-0.7 4.4-0.2 4.5 0.5 0.2 0.5-1.1 0.6-1.8 0.1-0.7 0.3-1.3 0.3-1.3l0.4 0.3c-0.5 3 0.4 5.8 1 5.8 0.6-0.1 0-1.5 0-2.8-0.1-1.3 0-2.7 0-2.7l0.4 0.2c0.1 4.1 1.8 6.5 2.3 6.3 0.6-0.2-0.4-2.1-0.7-3.4-0.3-1.4-0.2-2.4-0.2-2.4h0.3c0.7 2.7 2.3 5 2.8 4.6 0.7-0.4-0.9-2.4-1.5-4.5-0.3-1.1-0.3-2.9-0.3-2.9 0 0 2 2.6 2.5 2.3 0.5-0.4-1.9-4-3.9-6.7-0.8-2.4-3.6-12.8-1-25.1z"/>
		<g id="Layer">
			<path id="Layer" class="s22" d="m80.2 33.7c-3.6-8.2-38.9-6.6-38.9-6.6q-0.1 0.5-0.1 1v-1c0 0-35.3-1.6-38.9 6.6-1.9 4.2-1.3 11.4 0.6 17.7 1.8 6 5 11.1 5.3 13.3 0 0 1-0.8 1.1-3.6 0 0 1.2 4.6 6.1 9.4 5 4.8 7.6 5.9 9.4 8.5 0 0 0.2-0.3-0.3-3.1 0 0 3.2 2.9 8.7 4.8 5.3 1.8 8 3.8 8 3.8v-0.1q0 0 0.1 0.1c0 0 2.7-2 8-3.8 5.5-1.9 8.6-4.8 8.6-4.8-0.5 2.8-0.2 3.1-0.2 3.1 1.8-2.6 4.4-3.7 9.4-8.5 4.9-4.8 6-9.4 6-9.4 0.2 2.8 1.2 3.6 1.2 3.6 0.3-2.2 3.5-7.3 5.3-13.3 1.9-6.3 2.5-13.5 0.6-17.7z"/>
			<path id="Layer" class="s23" d="m41.3 29.9c0 0.2-32.7-0.4-36 6.9-2.3 4.9-0.7 8.5 0.3 11.6 9.3 2.8 21.8 4.5 35.6 4.5 13.9 0 26.4-1.7 35.7-4.5 1.3-4 2-7.9 0.3-11.6-3.3-7.1-35.9-6.9-35.9-6.9z"/>
			<path id="Layer" fill-rule="evenodd" class="s18" d="m79.6 51.4c-1.8 6-5 11.1-5.3 13.3 0 0-1-0.8-1.2-3.6 0 0-1.1 4.6-6 9.4-5 4.8-7.6 5.9-9.4 8.5 0 0-0.3-0.3 0.2-3.1 0 0-3.1 2.9-8.6 4.8-5.3 1.8-8 3.8-8 3.8q-0.1-0.1-0.1-0.1v0.1c0 0-2.7-2-8-3.8-5.5-1.9-8.7-4.8-8.7-4.8 0.5 2.8 0.3 3.1 0.3 3.1-1.8-2.6-4.4-3.7-9.4-8.5-4.9-4.8-6.1-9.4-6.1-9.4-0.1 2.8-1.1 3.6-1.1 3.6-0.3-2.2-3.5-7.3-5.3-13.3-1.9-6.3-2.5-13.5-0.6-17.7 3.6-8.2 38.9-6.6 38.9-6.6v1q0-0.5 0.1-1c0 0 35.3-1.6 38.9 6.6 1.9 4.2 1.3 11.4-0.6 17.7zm-2.1-16.5c-7.2-6.8-29.5-6.2-36.2-6.2-6.8 0-29.1-0.6-36.3 6.2-1.7 1.6-3.3 6.4-1.3 14.3 1 3.9 3.4 7.4 4 10.1l0.9-4.1c0 0 1 7 7.2 13.2 2.3 2.3 4 3.2 5.4 4.1 0-1.9-1.1-4.8-1.1-4.8 0 0 3.4 5.7 7.1 7.9 6.2 3.7 7.3 2.1 14 6.1v0.1q0 0 0.1 0 0 0 0 0v-0.1c6.7-4 7.8-2.4 14-6.1 3.7-2.2 7.1-7.9 7.1-7.9 0 0-1.1 2.9-1.1 4.8 1.4-0.9 3.1-1.8 5.5-4.1 6.1-6.2 7.1-13.2 7.1-13.2l0.9 4.1c0.6-2.7 3.1-6.2 4-10.1 2-7.9 0.4-12.7-1.3-14.3z"/>
			<g id="Layer" style="opacity: .2">
				<path id="Layer" class="s24" d="m5.7 40.6c0 1.4 0.1 2.8 0.5 4.1 0.3 1.3 0.8 2.6 1.6 3.6l-0.7-0.1q0.9-0.8 1.6-1.9 0.3-0.5 0.5-1.1c0.2-0.4 0.3-0.8 0.6-1.2l0.3-0.8 0.1 0.9c0.1 1.5 0.3 2.9 0.9 4.3 0.5 1.4 1.3 2.6 2.3 3.7l-0.8 0.1c0.5-0.7 0.8-1.6 1.2-2.4 0.3-0.8 0.7-1.7 1.1-2.5-0.3 0.9-0.5 1.8-0.7 2.7-0.1 0.8-0.3 1.7-0.7 2.7l-0.3 0.6-0.5-0.5v-0.1c-1.1-1.1-1.9-2.5-2.3-4-0.5-1.5-0.6-3.1-0.7-4.6l0.5 0.1c-0.3 0.7-0.5 1.6-0.9 2.5q-0.6 1.2-1.6 2.3l-0.4 0.4-0.3-0.5c-0.7-1.3-1.1-2.7-1.3-4.1-0.2-1.4-0.2-2.8 0-4.2z"/>
				<path id="Layer" class="s24" d="m13.9 60.7c0.4 1.1 0.9 2.3 1.6 3.2 0.7 1 1.6 1.9 2.5 2.7l-0.8 0.2c0.5-1.4 0.8-3 1.6-4.4-0.5 1.5-0.4 3-0.7 4.7l-0.1 0.9-0.7-0.7c-0.9-0.9-1.6-2-2.2-3.1-0.6-1.1-0.9-2.3-1.2-3.5z"/>
				<path id="Layer" class="s24" d="m64.7 60c0 0.9 0.2 1.8 0.4 2.6 0.2 0.9 0.4 1.8 0.5 2.7l-0.9-0.3c1.2-1.4 2.4-2.6 3.4-4q0.7-1.1 1.2-2.3 0.2-0.2 0.3-0.6c0-0.2 0.1-0.4 0.2-0.6q0.1-0.6 0.2-1.3 0 0.7-0.1 1.4c0 0.2-0.1 0.4-0.1 0.6q-0.1 0.3-0.2 0.6-0.5 1.3-1.1 2.5c-0.9 1.5-2 2.9-2.9 4.3l-0.9 1.4v-1.6c0-0.9-0.1-1.8-0.1-2.7 0-0.9 0-1.8 0.1-2.7z"/>
				<path id="Layer" class="s24" d="m64.6 38.9c0.5 1.1 1 2.1 1.5 3.2q0.6 1.7 1.1 3.4l-0.8-0.3c0.7-0.5 1.2-1.1 1.7-1.8 0.5-0.7 1-1.5 1.3-2.2l0.6-1.2 0.4 1.2q0.5 1.9 0.8 3.7c0.2 1.3 0.3 2.6 0.3 3.9l-0.7-0.5q0.5-0.3 1-0.6 0.5-0.4 1-0.9 0.9-0.9 1.5-2c0.8-1.5 1.3-3.3 1.3-5 0.2 1.7-0.1 3.5-0.9 5.2q-0.5 1.2-1.4 2.3-0.4 0.6-0.9 1-0.5 0.5-1.1 0.9l-0.7 0.5-0.1-0.9c0.1-1.3-0.1-2.5-0.3-3.7q-0.3-1.8-0.8-3.6l0.9 0.1q-0.6 1.2-1.4 2.3c-0.5 0.8-1.1 1.5-1.9 2.1l-0.6 0.5-0.2-0.8q-0.2-1.7-0.6-3.4c-0.3-1.1-0.6-2.3-1-3.4z"/>
				<path id="Layer" class="s24" d="m51.5 71.2c0.1 0.6 0.4 1.1 0.7 1.6 0.3 0.6 0.6 1.1 0.9 1.8l-0.8-0.3 0.5-0.3c0.1-0.1 0.3-0.2 0.4-0.3q0.5-0.4 0.8-0.8 0.2-0.2 0.4-0.5 0.1-0.2 0.3-0.4 0.3-0.5 0.5-1 0.5-1.1 0.8-2.2c0.2-0.8 0.4-1.6 0.6-2.3-0.1 0.8-0.2 1.5-0.3 2.3q-0.2 1.2-0.6 2.4-0.2 0.5-0.5 1.1c0 0.2-0.2 0.3-0.3 0.5q-0.1 0.3-0.3 0.5-0.3 0.6-0.8 1c-0.1 0.1-0.3 0.3-0.5 0.4l-0.5 0.4-0.6 0.5-0.1-0.8c0-0.5-0.2-1.2-0.3-1.8-0.2-0.6-0.4-1.2-0.3-1.8z"/>
				<path id="Layer" class="s24" d="m27.8 70.7c0.3 0.9 0.7 1.7 1.2 2.4 0.5 0.7 1.3 1.2 2 1.7l-0.7 0.4c0.2-1.2 0.5-2.4 1-3.5-0.2 1.2-0.1 2.3-0.1 3.5l0.1 1-0.8-0.6c-0.8-0.6-1.5-1.3-1.9-2.2-0.5-0.9-0.7-1.8-0.8-2.7z"/>
				<path id="Layer" class="s24" d="m17.4 36.4c0.1 1.2 0.5 2.2 1 3.2 0.6 0.9 1.3 1.8 1.9 2.8l-0.8-0.1q1.3-1.3 2.2-3-0.5 1.8-1.4 3.6l-0.5 0.8-0.4-0.9c-0.4-1-1-2-1.4-3-0.4-1.1-0.6-2.2-0.6-3.4z"/>
				<path id="Layer" class="s24" d="m57.4 42.5c0.1 1.1 0.5 2.2 1 3.1 0.6 1 1.3 1.9 1.9 2.8h-0.8q1.3-1.3 2.2-3-0.5 1.8-1.5 3.6l-0.4 0.8-0.4-0.9c-0.4-1-1-2-1.4-3-0.5-1.1-0.7-2.3-0.6-3.4z"/>
			</g>
		</g>
		<g id="Layer">
			<path id="Layer" class="s25" d="m6.1 31.2c0 0-2.5-5.9-3-12.7-0.5-6.8 0.4-13.8 5.8-14.3 5.5-0.5 11.1 2.7 10.9 3.8-0.3 1.1-4.3 0-5.3 1.7-1 1.7 2.4 12.2 5.8 18.3z"/>
			<g id="Layer" style="opacity: .3">
				<path id="Layer" class="s26" d="m7.7 26.1c1.5-0.9 3.1-1.7 4.8-2.4 1.6-0.7 3.3-1.2 5-1.8q-0.2-0.4-0.3-0.8-2.6 0.7-5 1.7-2.7 1-5 2.5-1.2 0.8-2.3 1.8-0.1 0-0.1 0.1 0.1 0.4 0.2 0.8 0.2-0.2 0.4-0.3 1.1-0.9 2.3-1.6z"/>
				<path id="Layer" class="s26" d="m5.3 21.8l1.4-0.4 1.4-0.3q1.5-0.2 3-0.4 1.4-0.2 2.9-0.3l2.8-0.1q-0.2-0.6-0.4-1.1l-0.9-0.1-1.5 0.1q-1.6 0-3.1 0.2-1.5 0.2-3 0.5-1.5 0.3-3 0.8l-1.4 0.6q0 0.5 0.1 1l0.3-0.1z"/>
				<path id="Layer" class="s26" d="m7.3 15.2q0.8-0.3 1.6-0.5c0.6-0.1 1.1-0.2 1.6-0.4 1.1-0.2 2-0.4 2.9-0.5q0.7-0.1 1.3-0.2 0-0.4-0.1-0.8-0.6 0-1.3 0-0.7 0.1-1.4 0.1c-0.5 0.1-1.1 0.2-1.6 0.2-1.1 0.2-2.2 0.5-3.4 0.9-1.1 0.3-2.2 0.8-3.2 1.2q-0.3 0.2-0.7 0.4 0 0.6 0 1.2 0.6-0.3 1.2-0.5c1-0.4 2-0.8 3.1-1.1z"/>
				<path id="Layer" class="s26" d="m8.4 10.5c2 0.2 4.1 0.5 5.6 0.9q0.2 0 0.4 0-0.1-0.3-0.1-0.6-0.1 0-0.2 0c-1.5-0.4-3.6-0.7-5.7-0.9-1.7-0.1-3.4 0-4.9 0.1q0 0.3-0.1 0.6c1.5-0.1 3.2-0.2 5-0.1z"/>
				<path id="Layer" class="s26" d="m14 6.1q0.8 0.7 1.5 1.4 0.3 0.4 0.6 0.7 0.3 0.3 0.4 0.5 0.5-0.1 0.9-0.1 0-0.1-0.1-0.2c-0.3-0.4-0.7-1-1.2-1.5q-0.7-0.8-1.6-1.5-0.7-0.5-1.4-1-1.2-0.2-2.4-0.3c0.5 0.2 1 0.5 1.5 0.9q0.9 0.5 1.8 1.1z"/>
			</g>
			<path id="Layer" class="s27" d="m11.6 7c-0.9 1.2-1.4 5.3-0.4 11.3 0.6 4.4 2.1 8.8 2.6 11.1l6.5-1.4c-3.4-6.1-6.8-16.6-5.8-18.3 1-1.7 5-0.6 5.3-1.7 0.1-0.6-1.3-1.6-3.3-2.5 1.3 1.5-3.8-0.2-4.9 1.5z"/>
			<path id="Layer" class="s9" d="m6.3 7c0 0-2.5 2.5-2 10.2 0.4 6.7 2 10.5 3.6 9.7 1.2-0.5-0.6-5.3-1.4-9.8-0.9-5.3-0.2-10.1-0.2-10.1z"/>
		</g>
		<g id="Layer">
			<path id="Layer" class="s28" d="m73.9 31.2c0 0 2.4-5.9 2.9-12.7 0.5-6.8-0.3-13.8-5.8-14.3-5.4-0.5-11.1 2.7-10.8 3.8 0.2 1.1 4.3 0 5.3 1.7 1 1.7-2.5 12.2-5.8 18.3z"/>
			<g id="Layer" style="opacity: .3">
				<path id="Layer" class="s26" d="m72.3 26.1c-1.5-0.9-3.2-1.7-4.9-2.4-1.6-0.7-3.2-1.2-4.9-1.8q0.2-0.4 0.3-0.8 2.6 0.7 5 1.7 2.6 1 5 2.5 1.2 0.8 2.3 1.8 0 0 0.1 0.1-0.1 0.4-0.2 0.8-0.2-0.2-0.4-0.3-1.1-0.9-2.3-1.6z"/>
				<path id="Layer" class="s26" d="m74.7 21.8l-1.4-0.4-1.5-0.3q-1.4-0.2-2.9-0.4-1.5-0.2-2.9-0.3l-2.9-0.1q0.2-0.6 0.4-1.1l1-0.1 1.5 0.1q1.5 0 3.1 0.2 1.5 0.2 3 0.5 1.5 0.3 2.9 0.8l1.5 0.6q-0.1 0.5-0.2 1l-0.2-0.1z"/>
				<path id="Layer" class="s26" d="m72.7 15.2q-0.9-0.3-1.7-0.5c-0.5-0.1-1-0.2-1.6-0.4-1-0.2-2-0.4-2.8-0.5q-0.8-0.1-1.4-0.2 0.1-0.4 0.2-0.8 0.6 0 1.3 0 0.6 0.1 1.4 0.1c0.5 0.1 1 0.2 1.6 0.2 1.1 0.2 2.2 0.5 3.3 0.9 1.1 0.3 2.2 0.8 3.2 1.2q0.4 0.2 0.7 0.4 0 0.6 0 1.2-0.5-0.3-1.1-0.5c-1-0.4-2.1-0.8-3.1-1.1z"/>
				<path id="Layer" class="s26" d="m71.6 10.5c-2.1 0.2-4.1 0.5-5.6 0.9q-0.2 0-0.4 0 0-0.3 0-0.6 0.1 0 0.2 0c1.6-0.4 3.7-0.7 5.8-0.9 1.7-0.1 3.4 0 4.8 0.1q0.1 0.3 0.1 0.6c-1.4-0.1-3.1-0.2-4.9-0.1z"/>
				<path id="Layer" class="s26" d="m66 6.1q-0.8 0.7-1.5 1.4-0.4 0.4-0.7 0.7-0.2 0.3-0.4 0.5-0.4-0.1-0.8-0.1 0-0.1 0.1-0.2c0.3-0.4 0.6-1 1.1-1.5q0.7-0.8 1.6-1.5 0.7-0.5 1.4-1 1.2-0.2 2.5-0.3c-0.5 0.2-1 0.5-1.6 0.9q-0.9 0.5-1.7 1.1z"/>
			</g>
			<path id="Layer" class="s9" d="m67.4 7.9c0 0 2.2 2.7 0.7 9.8-1.2 6.2-3.2 9.5-4.7 8.6-1.1-0.7 1.2-4.9 2.5-9 1.6-4.8 1.5-9.4 1.5-9.4z"/>
			<path id="Layer" class="s27" d="m71 4.2c-1-0.1-2.1-0.1-3.1 0.1 5.8-0.4 5.6 6.5 4.7 13.1-0.7 5.4-2.4 11-3.1 12.8l4.4 1c0 0 2.4-5.9 2.9-12.7 0.5-6.8-0.3-13.8-5.8-14.3z"/>
		</g>
		<path id="Layer" class="s29" d="m24.5 72.2c0 0 2.5 2.9 8.3 4.7 5.6 1.8 8.4 3.5 8.4 3.5 0 0 2.9-1.7 8.5-3.5 5.8-1.8 8.2-4.7 8.2-4.7z"/>
		<g id="Layer">
			<path id="Layer" class="s18" d="m55.1 43.1c0.4 6.8-2.9 12.6-7.3 13-4.5 0.3-8.5-5-8.9-11.9-0.4-6.8 2.9-12.7 7.4-13 4.4-0.3 8.4 5 8.8 11.9z"/>
			<path id="Layer" class="s18" d="m40.7 44.8c0.4 6.5-2.7 12-7 12.2-4.2 0.3-8-4.6-8.4-11.1-0.4-6.4 2.7-11.9 7-12.2 4.3-0.3 8 4.7 8.4 11.1z"/>
			<g id="Layer">
				<path id="Layer" class="s30" d="m40 44.6c0.4 5.8-2.4 10.7-6.2 10.9-3.8 0.3-7.2-4.2-7.6-10-0.3-5.8 2.5-10.7 6.3-10.9 3.8-0.3 7.2 4.2 7.5 10z"/>
				<path id="Layer" class="s31" d="m39.4 42.7c0.6 4.6-1.5 8.7-4.9 9.2-3.3 0.5-6.6-2.8-7.2-7.4-0.7-4.6 1.5-8.7 4.9-9.2 3.3-0.4 6.6 2.9 7.2 7.4z"/>
				<path id="Layer" class="s32" d="m36.1 39.7c-0.8-0.9-1.2-2-0.9-2.3 0.3-0.4 1.2 0.1 2 1 0.9 1 1.3 2 1 2.3-0.4 0.4-1.3-0.1-2.1-1z"/>
				<path id="Layer" class="s33" d="m37.8 45.2c0 1.9-1.5 3.4-3.2 3.4-1.8 0-3.2-1.5-3.2-3.4 0-1.9 1.4-3.4 3.2-3.4 1.7 0 3.2 1.5 3.2 3.4z"/>
				<path id="Layer" class="s32" d="m35.3 42.1c-0.5 0.8-0.6 1.9 0 2.5 0.6 0.5 1.5 0.6 2.2 0.1-0.3-1.6-1.1-2.3-2.2-2.6z"/>
				<path id="Layer" fill-rule="evenodd" class="s34" d="m37.9 45.2c0 2-1.5 3.6-3.3 3.6-1.9 0-3.4-1.6-3.4-3.6 0-2 1.5-3.6 3.4-3.6 1.8 0 3.3 1.6 3.3 3.6zm-0.5 0c0-1.7-1.3-3-2.8-3-1.6 0-2.9 1.3-2.9 3 0 1.7 1.3 3 2.9 3 1.5 0 2.8-1.3 2.8-3z"/>
			</g>
			<g id="Layer">
				<path id="Layer" class="s35" d="m54.2 42.8c0.4 6.2-2.5 11.4-6.5 11.7-4 0.2-7.5-4.5-7.9-10.7-0.4-6.1 2.6-11.4 6.5-11.7 4-0.2 7.5 4.5 7.9 10.7z"/>
				<path id="Layer" class="s31" d="m53.6 40.8c0.6 4.9-1.7 9.3-5.2 9.8-3.5 0.5-6.8-3-7.5-7.9-0.7-4.8 1.6-9.2 5.1-9.7 3.5-0.5 6.9 3 7.6 7.8z"/>
				<path id="Layer" class="s32" d="m50.1 37.6c-0.9-1-1.3-2.1-1-2.5 0.4-0.3 1.3 0.2 2.2 1.2 0.9 0.9 1.3 2.1 0.9 2.4-0.3 0.4-1.3-0.1-2.1-1.1z"/>
				<path id="Layer" class="s36" d="m44.8 47.8c-1.8 0-3.3-1.6-3.3-3.5 0-2 1.5-3.6 3.3-3.6 1.8 0 3.3 1.6 3.3 3.6 0 1.9-1.5 3.5-3.3 3.5z"/>
				<path id="Layer" class="s32" d="m45.6 41.1c-0.6 0.8-0.6 1.9 0 2.5 0.6 0.6 1.5 0.6 2.3 0.2-0.4-1.7-1.2-2.5-2.3-2.7z"/>
				<path id="Layer" fill-rule="evenodd" class="s37" d="m48.3 44.3c0 2-1.6 3.7-3.5 3.7-1.9 0-3.5-1.7-3.5-3.7 0-2.1 1.6-3.7 3.5-3.7 1.9 0 3.5 1.6 3.5 3.7zm-0.6 0c0-1.8-1.3-3.2-2.9-3.2-1.6 0-2.9 1.4-2.9 3.2 0 1.7 1.3 3.1 2.9 3.1 1.6 0 2.9-1.4 2.9-3.1z"/>
			</g>
		</g>
		<g id="Layer">
			<path id="Layer" class="s18" d="m23.5 56c0 0.4-0.4 0.7-0.8 0.7-0.4 0-0.7-0.3-0.7-0.7 0-0.5 0.3-0.8 0.7-0.8 0.4 0 0.8 0.3 0.8 0.8z"/>
			<path id="Layer" class="s18" d="m57.1 56.3c0 0.3-0.3 0.6-0.6 0.6-0.3 0-0.6-0.3-0.6-0.6 0-0.3 0.3-0.6 0.6-0.6 0.3 0 0.6 0.3 0.6 0.6z"/>
			<path id="Layer" class="s18" d="m57.9 52.4c0 0.4-0.3 0.7-0.6 0.7-0.4 0-0.7-0.3-0.7-0.7 0-0.3 0.3-0.6 0.7-0.6 0.3 0 0.6 0.3 0.6 0.6z"/>
			<path id="Layer" class="s18" d="m18.5 54.7c-0.2 0-0.4-0.3-0.4-0.5 0-0.3 0.2-0.5 0.4-0.5 0.3 0 0.5 0.2 0.5 0.5 0 0.2-0.2 0.5-0.5 0.5z"/>
			<path id="Layer" class="s18" d="m26.3 54.8c0 0.2-0.2 0.4-0.4 0.4-0.1 0-0.3-0.2-0.3-0.4 0-0.1 0.2-0.3 0.3-0.3 0.2 0 0.4 0.2 0.4 0.3z"/>
			<path id="Layer" class="s18" d="m63.5 50c0 0.2-0.2 0.3-0.4 0.3-0.1 0-0.3-0.1-0.3-0.3 0-0.2 0.2-0.4 0.3-0.4 0.2 0 0.4 0.2 0.4 0.4z"/>
			<path id="Layer" class="s18" d="m27.6 59c0 0.2-0.1 0.4-0.3 0.4-0.2 0-0.3-0.2-0.3-0.4 0-0.1 0.1-0.3 0.3-0.3 0.2 0 0.3 0.2 0.3 0.3z"/>
			<path id="Layer" class="s18" d="m66.7 53c0 0.2-0.1 0.4-0.3 0.4-0.2 0-0.3-0.2-0.3-0.4 0-0.1 0.1-0.3 0.3-0.3 0.2 0 0.3 0.2 0.3 0.3z"/>
			<path id="Layer" class="s18" d="m17.6 49.9c0 0.1-0.1 0.3-0.3 0.3-0.2 0-0.3-0.2-0.3-0.3 0-0.2 0.1-0.4 0.3-0.4 0.2 0 0.3 0.2 0.3 0.4z"/>
			<path id="Layer" class="s18" d="m53.6 56.2c-0.2 0-0.4-0.2-0.4-0.4 0-0.2 0.2-0.3 0.4-0.3 0.1 0 0.3 0.1 0.3 0.3 0 0.2-0.2 0.4-0.3 0.4z"/>
			<path id="Layer" class="s18" d="m16.2 56.4c0 0.2-0.2 0.4-0.4 0.4-0.1 0-0.3-0.2-0.3-0.4 0-0.1 0.2-0.3 0.3-0.3 0.2 0 0.4 0.2 0.4 0.3z"/>
			<path id="Layer" class="s18" d="m22.6 52.2c0 0.2-0.2 0.5-0.4 0.5-0.3 0-0.5-0.3-0.5-0.5 0-0.3 0.2-0.5 0.5-0.5 0.2 0 0.4 0.2 0.4 0.5z"/>
			<path id="Layer" class="s18" d="m64 56.7c0 0.2-0.2 0.5-0.5 0.5-0.2 0-0.4-0.3-0.4-0.5 0-0.3 0.2-0.5 0.4-0.5 0.3 0 0.5 0.2 0.5 0.5z"/>
			<path id="Layer" class="s18" d="m61.8 53.7c0 0.3-0.2 0.5-0.4 0.5-0.3 0-0.5-0.2-0.5-0.5 0-0.2 0.2-0.4 0.5-0.4 0.2 0 0.4 0.2 0.4 0.4z"/>
		</g>
		<g id="Layer">
			<g id="Layer">
				<path id="Layer" class="s38" d="m24.9 60.4c0 0 4.6 10.6 15.7 9.9 11.6-0.8 13.5-9.7 13.5-9.7 0 0-12.9 5.7-29.2-0.2z"/>
				<path id="Layer" class="s39" d="m22 58.1q0 0 0.4 0.2 0.3 0.2 1 0.5 0.7 0.4 1.7 0.8c0.7 0.2 1.5 0.6 2.3 0.8 0.9 0.3 1.8 0.6 2.8 0.8q1.5 0.4 3.2 0.7c1.1 0.2 2.2 0.4 3.4 0.4q0.9 0.1 1.8 0.2h1.7c1.2 0 2.4-0.2 3.6-0.2q0.9-0.1 1.7-0.3 0.9-0.1 1.7-0.3 0.8-0.1 1.6-0.3 0.8-0.2 1.5-0.4c1-0.3 1.9-0.6 2.8-1 0.8-0.3 1.6-0.5 2.2-0.9q1-0.4 1.7-0.8c1-0.5 1.5-0.7 1.5-0.7l0.5 0.8c0 0-0.6 0.3-1.6 0.7q-0.7 0.4-1.7 0.8c-0.7 0.3-1.5 0.6-2.4 0.9-0.8 0.3-1.7 0.7-2.8 0.9q-0.7 0.2-1.5 0.4-0.8 0.2-1.7 0.3-0.8 0.2-1.7 0.3-0.8 0.2-1.7 0.2c-1.2 0.1-2.4 0.2-3.6 0.2h-1.9q-0.9 0-1.8-0.1c-1.2 0-2.3-0.2-3.5-0.4q-1.6-0.3-3.2-0.6c-1-0.3-1.9-0.5-2.8-0.8-1.8-0.5-3.2-1.1-4.2-1.5q-0.7-0.4-1.1-0.6-0.4-0.2-0.4-0.2z"/>
				<path id="Layer" class="s39" d="m22.4 58.8c-0.2 0.3-1.1 0.5-1.9 0.1-0.8-0.3-1.1-1-1-1.4 0.2-0.4 0.9-0.5 1.7-0.2 0.8 0.4 1.3 1.1 1.2 1.5z"/>
				<path id="Layer" class="s39" d="m58.4 58.1c0.2 0.4 1.1 0.5 1.9 0.2 0.8-0.3 1.1-1 0.9-1.4-0.1-0.4-0.8-0.5-1.6-0.2-0.8 0.4-1.4 1.1-1.2 1.4z"/>
			</g>
			<path id="Layer" class="s40" d="m36.1 71.9q0.1 0.1 0.4 0.1 0.3 0.1 0.9 0.2c0.7 0.2 1.7 0.3 2.7 0.3 1.1 0 2.1-0.2 2.8-0.3 0.8-0.1 1.3-0.2 1.3-0.2 0.3-0.1 0.6 0.1 0.6 0.4 0.1 0.2-0.1 0.5-0.3 0.5q0 0-0.4 0.1c-0.2 0.1-0.5 0.2-0.9 0.3q-0.6 0.2-1.4 0.3-0.8 0.1-1.7 0.1c-1.1 0-2.2-0.1-3-0.4-0.8-0.2-1.3-0.4-1.3-0.4-0.3-0.2-0.4-0.5-0.3-0.7 0.2-0.2 0.4-0.3 0.6-0.3z"/>
			<g id="Layer">
				<path id="Layer" class="s41" d="m28.3 64.6c3.2 0.5 3.8-1.7 3.9-2.2q-3.1-0.6-6.4-1.7c0 0.4-0.3 3.4 2.5 3.9z"/>
				<path id="Layer" class="s41" d="m42.6 65.5c3.3-0.1 3.4-2.3 3.3-2.9-2 0.3-4.4 0.5-7.1 0.4 0.1 0.8 0.5 2.7 3.8 2.5z"/>
				<path id="Layer" class="s41" d="m53.7 63.5c2.8-0.9 2.4-2.8 2.2-3.6-1.8 0.7-3.7 1.4-6.5 2.1 0.2 0.5 1.1 2.6 4.3 1.5z"/>
			</g>
		</g>
		<g id="Layer">
			<path id="Layer" class="s18" d="m20.9 29.7c-0.4 1.1 1.6 4.3 3.4 4.3 2 0 7.8-3.3 8.6-5 1-2.1-1-5.5-2.2-5.7-1.9-0.2-9.1 4.1-9.8 6.4z"/>
			<path id="Layer" class="s42" d="m20.9 27.8c-0.4 1.1 1.6 4.2 3.4 4.2 2 0 7.8-3.2 8.6-4.9 1-2.1-1-5.6-2.2-5.7-1.9-0.2-9.1 4-9.8 6.4z"/>
			<g id="Layer">
				<path id="Layer" class="s18" d="m22.9 25.4q-0.4 0.3-0.7 0.6c0.6 1.4 1.8 3.7 3.8 5.6q0.5-0.2 1.1-0.4c-2.3-2-3.6-4.5-4.2-5.8z"/>
				<path id="Layer" class="s18" d="m25.8 23.3c0.5 1.6 1.6 4.4 3.3 6.8q0.6-0.3 1.1-0.6c-1.8-2.4-2.9-5.4-3.3-6.8q-0.5 0.3-1.1 0.6z"/>
			</g>
			<path id="Layer" class="s31" d="m21.8 27.5c-0.3 0.9 0.9 2.7 2.2 2.7 1.3 0 6.7-2.8 7.4-4.3 0.8-1.7-0.4-3.6-1.3-3.7-1.6-0.2-7.6 3.4-8.3 5.3z"/>
		</g>
		<g id="Layer">
			<path id="Layer" class="s18" d="m59.1 29.7c0.4 1.1-1.4 4.3-3.1 4.4-2.1 0.2-8-2.7-9-4.3-1.1-2 0.7-5.6 1.8-5.8 1.9-0.4 9.4 3.4 10.3 5.7z"/>
			<path id="Layer" class="s42" d="m59.1 28.1c0.4 1.1-1.4 4.3-3.1 4.4-2.1 0.2-8-2.7-9-4.3-1.1-2.1 0.7-5.6 1.8-5.8 1.9-0.4 9.4 3.4 10.3 5.7z"/>
			<g id="Layer">
				<path id="Layer" class="s18" d="m56.9 25.8q0.4 0.4 0.8 0.7c-0.6 1.4-1.7 3.7-3.5 5.7q-0.5-0.1-1.1-0.3c2.1-2.1 3.3-4.7 3.8-6.1z"/>
				<path id="Layer" class="s18" d="m53.8 24c-0.4 1.6-1.2 4.5-2.8 7q-0.6-0.3-1.1-0.6c1.6-2.5 2.5-5.5 2.8-6.9q0.6 0.2 1.1 0.5z"/>
			</g>
			<path id="Layer" class="s31" d="m58.1 27.9c0.3 0.9-0.7 2.8-2 2.9-1.3 0-6.9-2.4-7.6-3.8-1-1.7 0.1-3.7 1-3.9 1.6-0.2 7.8 2.9 8.6 4.8z"/>
		</g>
	</g>
</svg>