<svg version="1.2" xmlns="http://www.w3.org/2000/svg" viewBox="0 0 552 658" width="552" height="658">
	<title>monster--all2-svg</title>
	<style>
		.s0 { fill: #02a484 } 
		.s1 { fill: #005948 } 
		.s2 { fill: #006d58 } 
		.s3 { fill: #44f2d1 } 
		.s4 { fill: #31e8c5 } 
		.s5 { fill: #433352 } 
		.s6 { fill: #625275 } 
		.s7 { fill: #ffffff } 
		.s8 { fill: #992f1d } 
		.s9 { fill: #530700 } 
		.s10 { fill: #600100 } 
		.s11 { fill: #a32440 } 
		.s12 { fill: #fffa9c } 
		.s13 { fill: #d0e000 } 
		.s14 { fill: #9aa000 } 
		.s15 { fill: #2d0100 } 
		.s16 { fill: #570a04 } 
		.s17 { fill: #848400 } 
		.s18 { fill: #f3f912 } 
		.s19 { fill: #aa3333 } 
		.s20 { fill: #fce6bb } 
		.s21 { fill: #8e8e00 } 
		.s22 { fill: #fcfc15 } 
		.s23 { fill: #610202 } 
	</style>
	<g id="Object">
		<g id="Layer">
			<g id="Layer">
				<g id="Layer">
					<g id="Layer">
						<path id="Layer" class="s0" d="m426.4 634.2q-1 1.8-2.5 3.7c0 0-5.1 22.5-31.9 15.7 0 0-1.4 1.2-4.4 2.4-5.5 2.2-16.2 4.6-33.1 0.1-10.5-2.8-18.3-2.2-24.4-1.7-9 0.6-14.3 0.9-18.9-11.3-7.6-19.9 8.4-26.2-0.5-87.2q-0.3-1.9-0.6-4c-10.2-64.7 79.6-53.6 79.6-53.6 0 0 5 13.9 9.8 33.1q0.6 2.3 1.1 4.8c4.5 19.3 8.3 42.9 6.5 63.3 0 0 31.8 12.9 19.3 34.7z"/>
						<path id="Layer" class="s1" d="m413.3 623.5c6.8 2.3 10.6 14.4 10.6 14.4q1.5-1.9 2.5-3.7c-6.3-11.4-13.1-10.7-13.1-10.7z"/>
						<path id="Layer" class="s1" d="m387.6 656c3-1.2 4.4-2.4 4.4-2.4 0 0 0.8-18.2-15.6-21.6 0.6 0.2 10.3 5.5 11.2 24z"/>
					</g>
					<path id="Layer" class="s2" d="m401.1 532.7c0 0 0 1.2-0.5 3.5-1.9 9.5-10.8 36.8-52.4 61.5-27.1 16.1-25.6 38.8-18.1 56.7-9 0.6-14.3 0.9-18.9-11.3-7.6-19.9 8.4-26.2-0.5-87.2 24.9-22.8 52.7-47.7 54.9-48.1 3.5-0.6 27.3 18.3 33.9 23.6 1 0.8 1.6 1.3 1.6 1.3z"/>
				</g>
				<g id="Layer">
					<g id="Layer">
						<path id="Layer" class="s0" d="m181.2 529.7c-4.6 21.1-13.2 52.8-27.7 75.2 0 0 22.1 26.2 0.9 39.7q-1.7 1.1-3.9 2.1c0 0-15 17.5-35.5-1 0 0-1.8 0.4-5 0.1-5.9-0.6-16.6-3.5-29.4-15.3-19.7-18.4-35-10.1-32.3-31.7 2.6-20.9 19.4-19.3 39.7-75.8q0.9-2.6 1.9-5.4c5.9-17.6 16.2-26 27.8-29.1 29.4-7.8 67.5 18.7 67.5 18.7 0 0-1.2 9.1-4 22.5z"/>
						<path id="Layer" class="s1" d="m147.8 629c5 5.2 2.7 17.7 2.7 17.7q2.2-1 3.9-2.1c-0.2-13-6.6-15.6-6.6-15.6z"/>
						<path id="Layer" class="s1" d="m110 645.8c3.2 0.3 5-0.1 5-0.1 0 0 9.2-15.7-3.7-26.4 0.3 0.5 6.5 9.7-1.3 26.5z"/>
					</g>
					<path id="Layer" class="s2" d="m181.2 529.7c-4.6 21.1-13.2 52.8-27.7 75.2 0 0-27-5.1-65.5-81.9q0.9-2.6 1.9-5.4c5.9-17.6 16.2-26 27.8-29.1 23.7 6.8 49.9 20.8 49.9 20.8 0 0 6.6 9.5 13.6 20.4z"/>
				</g>
				<g id="Layer">
					<g id="Layer">
						<path id="Layer" class="s0" d="m528.3 208.1q0 0 0 0.1c-0.1 1.6-2.7 26.9-27.9 28.6 0 0-10.4 75.9-76.3 92.3-7 1.7-14.7 2.8-23.1 3l-52.8-42.8 28.5-31.4c0 0 44.6-0.6 74.9-51 0 0-14.5-24.9-8.9-43 5.7-18.2 26.1 11.3 26.1 11.3 0 0 9.8-34.9 22.2-33.9 12.3 1 10.1 21.6 10.1 21.6 0 0 17.5-15 24.7-6.1 7.2 9-1.9 27-1.9 27 0 0 24-7.9 25.3 1.5 1.4 9.4-20.9 22.8-20.9 22.8z"/>
						<path id="Layer" class="s3" d="m456.9 207.2c-30.3 50.4-74.9 51-74.9 51l-28.5 31.4 52.1 42.3q-2.3 0.2-4.6 0.2l-52.8-42.8 28.5-31.5c0 0 44.6-0.5 74.9-50.9 0 0-14.5-24.9-8.9-43 1.9-6.1 5.4-6.8 9.3-5.2-1.7 0.8-3.1 2.5-4 5.5-5.7 18.2 8.9 43 8.9 43z"/>
						<g id="Layer" style="opacity: .7">
							<path id="Layer" class="s2" d="m474.4 175.5c5.1 0.8 9.9 2 14.5 3.6q7 2.2 13.3 5.7c4.2 2.3 8.2 5.1 11.9 8.2 3.7 3.1 7.2 6.7 10.8 10.4-1.6-4.9-4.3-9.5-7.7-13.5-3.5-4-7.7-7.4-12.3-9.9-4.7-2.6-9.8-4.3-15-5.1-2.6-0.4-5.2-0.6-7.8-0.5-2.6 0.1-5.2 0.3-7.7 1.1z"/>
						</g>
					</g>
					<g id="Layer" style="opacity: .7">
						<path id="Layer" class="s2" d="m528.3 208.2c-0.1 1.6-2.7 26.9-27.9 28.6 0 0-10.4 75.9-76.3 92.3-21.5-12.9-49.4-33-5.4-32.2 63.5 1.2 77.2-70.4 77.2-70.4 24.5 6.8 31.9-16.8 32.4-18.3z"/>
					</g>
				</g>
				<g id="Layer">
					<path id="Layer" class="s0" d="m416.6 505.2c-6.3 13.6-13.6 25.7-21.9 36.4-55.5 71.4-151.9 77.2-224 48.4-64.1-25.5-108.9-78.5-88.8-137.1 30.4-88.6 80.1-130 57.5-223-22.6-93 49.9-157.7 119.1-152.9 165.5 11.5 245.7 236.2 158.1 428.2z"/>
					<path id="Layer" class="s3" d="m416.6 505.2q-2.9 6.2-6 12c77.7-176.6 21.9-377.7-109.9-432.2 136.3 43.4 195.7 245.4 115.9 420.2z"/>
					<path id="Layer" class="s4" d="m394.7 541.6c-55.5 71.4-151.9 77.2-224 48.4-5.4-23.4-4-49 5.5-73.7 23.9-62.6 90.4-95.4 148.4-73.2 41.2 15.7 67 54.8 70.1 98.5z"/>
					<g id="Layer" style="opacity: .7">
						<path id="Layer" class="s2" d="m415.9 506.6c-6.1 13.1-13.2 24.7-21.2 35-55.5 71.4-151.9 77.2-224 48.4-64.1-25.5-108.9-78.5-88.8-137.1 30.4-88.6 80.1-130 57.5-223-21.5-88.8 43.6-151.8 109.7-153.1-43 19.8-75 69.2-59.8 133 20.6 86.4-24.7 124.9-52.4 207.2-18.3 54.5 22.5 103.7 80.8 127.5 63.2 25.7 147 21.6 198.2-37.9z"/>
					</g>
				</g>
				<g id="Layer">
					<path id="Layer" class="s5" d="m323.2 108.8c0 0-56.1-40.5-117.8-21.9 0 0-36.9-64.2 41-84.7l-4 29.2c0 0 29.7-22.9 75.1-12.4l-27.5 13.8c0.1 0 50.6 4 33.2 76z"/>
					<path id="Layer" class="s6" d="m315.6 89.3c0 0-46.5-38.4-102.9-9.7 0 0 2.9-19.1 17.9-31l2.7 6.6c0 0 21.2-21.7 66.5-10l-11.4 4.5c0 0 23.7 4.3 27.2 39.6z"/>
				</g>
				<g id="Layer">
					<g id="Layer">
						<path id="Layer" class="s0" d="m188.6 353.4q0 0-0.1 0.1-3 3.9-7 7.2l-16.3 13.2-4.9 4q-2.2 0-4.4-0.2c-88.4-5.3-101.7-101.4-101.7-101.4-27.7-1.9-29.7-30.7-29.7-30.7 0 0-23.8-14.3-22.4-24.3 1.5-10.1 27.1-1.6 27.1-1.6 0 0-9.7-19.2-2-28.8 7.6-9.6 26.3 6.5 26.3 6.5 0 0-2.3-22 10.8-23.1 13.2-1 23.7 36.2 23.7 36.2 0 0 21.8-31.4 27.8-12.1 6 19.4-9.5 45.9-9.5 45.9 32.4 53.8 79.9 54.4 79.9 54.4 14.2 15.6 14.6 38.7 2.4 54.7z"/>
						<path id="Layer" class="s3" d="m189.8 305.7c0 0-53-0.7-89.1-60.7 0 0 17.3-29.5 10.6-51.1q-0.3-0.9-0.6-1.6c2.1 0.5 3.9 2.3 5.1 6.1 6 19.4-9.5 45.9-9.5 45.9 32.4 53.8 79.9 54.4 79.9 54.4 3.5 3.8 5.2 8.7 3.6 7z"/>
						<g id="Layer" style="opacity: .7">
							<path id="Layer" class="s2" d="m82 210.8c-5.4 0.9-10.5 2.2-15.5 3.8q-7.4 2.4-14.2 6.1c-4.5 2.5-8.7 5.5-12.7 8.8-3.9 3.3-7.7 7.1-11.5 11.1 1.7-5.3 4.7-10.1 8.3-14.4 3.7-4.2 8.1-7.9 13.1-10.6 5-2.7 10.4-4.6 15.9-5.4 2.8-0.5 5.6-0.7 8.4-0.6 2.8 0.1 5.6 0.4 8.2 1.2z"/>
						</g>
					</g>
					<g id="Layer" style="opacity: .7">
						<path id="Layer" class="s2" d="m188.6 353.4q0 0-0.1 0.1c-0.4 0.8-7.2 12.4-23.3 20.4-2.8 1.4-5.9 2.7-9.3 3.8-88.4-5.3-101.7-101.4-101.7-101.4-27.7-1.9-29.7-30.7-29.7-30.7 0 0 10.8 24.3 36.5 19.2 0 0 9.9 80.2 104.6 85.5 10.8 0.6 18.2 1.6 23 3.1z"/>
					</g>
				</g>
				<g id="Layer">
					<g id="Layer">
						<g id="Layer">
							<path id="Layer" class="s2" d="m361.2 272.4c-23.1 0-41.9-18.8-41.9-41.9 0-23.2 18.8-42 41.9-42 23.2 0 41.9 18.8 41.9 42 0 23.1-18.7 41.9-41.9 41.9z"/>
							<path id="Layer" class="s7" d="m365.6 268c-23.1 0-41.9-18.8-41.9-41.9 0-23.2 18.8-42 41.9-42 23.2 0 41.9 18.8 41.9 42 0 23.1-18.7 41.9-41.9 41.9z"/>
							<path id="Layer" class="s8" d="m353.5 251.9c-12.4 0-22.4-10.1-22.4-22.5 0-12.4 10-22.4 22.4-22.4 12.4 0 22.4 10 22.4 22.4 0 12.4-10 22.5-22.4 22.5z"/>
							<path id="Layer" class="s9" d="m364.7 231.2c-1 6.2-6.8 10.4-13 9.4-6.2-1-10.3-6.8-9.3-13 1-6.2 6.8-10.4 12.9-9.3 6.2 1 10.4 6.8 9.4 12.9z"/>
							<path id="Layer" class="s7" d="m351.4 221.2c0 3.1-2.5 5.6-5.7 5.6-3.1 0-5.6-2.5-5.6-5.6 0-3.1 2.5-5.6 5.6-5.6 3.2 0 5.7 2.5 5.7 5.6z"/>
						</g>
						<g id="Layer">
							<path id="Layer" class="s2" d="m298.8 204c-21.1 0-38.1-17.1-38.1-38.1 0-21.1 17-38.1 38.1-38.1 21.1 0 38.1 17 38.1 38.1 0 21-17 38.1-38.1 38.1z"/>
							<path id="Layer" class="s7" d="m303.2 198.5c-21.1 0-38.1-17.1-38.1-38.1 0-21.1 17-38.1 38.1-38.1 21.1 0 38.1 17 38.1 38.1 0 21-17 38.1-38.1 38.1z"/>
							<path id="Layer" class="s8" d="m312.3 166.7c-1.8 11.1-12.2 18.7-23.4 16.9-11.1-1.9-18.6-12.3-16.8-23.4 1.8-11.2 12.2-18.7 23.4-16.9 11.1 1.8 18.6 12.3 16.8 23.4z"/>
							<path id="Layer" class="s9" d="m302.3 165.9c-1.3 5.6-6.9 9-12.4 7.7-5.6-1.3-9-6.8-7.7-12.4 1.3-5.5 6.9-8.9 12.4-7.6 5.5 1.3 9 6.8 7.7 12.3z"/>
							<path id="Layer" class="s7" d="m290.2 155.9c0 2.9-2.3 5.2-5.1 5.2-2.8 0-5.1-2.3-5.1-5.2 0-2.8 2.3-5.1 5.1-5.1 2.8 0 5.1 2.3 5.1 5.1z"/>
						</g>
						<g id="Layer">
							<path id="Layer" class="s2" d="m248.2 282.6c-23.2 0-41.9-18.7-41.9-41.9 0-23.2 18.7-41.9 41.9-41.9 23.2 0 41.9 18.7 41.9 41.9 0 23.2-18.7 41.9-41.9 41.9z"/>
							<path id="Layer" class="s7" d="m252.6 278.2c-23.2 0-41.9-18.7-41.9-41.9 0-23.2 18.7-41.9 41.9-41.9 23.2 0 41.9 18.7 41.9 41.9 0 23.2-18.7 41.9-41.9 41.9z"/>
							<path id="Layer" class="s8" d="m240.4 262.1c-12.4 0-22.4-10-22.4-22.4 0-12.4 10-22.4 22.4-22.4 12.4 0 22.5 10 22.5 22.4 0 12.4-10.1 22.4-22.5 22.4z"/>
							<path id="Layer" class="s9" d="m240.4 251c-6.2 0-11.3-5.1-11.3-11.3 0-6.3 5.1-11.3 11.3-11.3 6.3 0 11.4 5 11.4 11.3 0 6.2-5.1 11.3-11.4 11.3z"/>
							<path id="Layer" class="s7" d="m238.3 231.4c0 3.1-2.5 5.7-5.6 5.7-3.1 0-5.6-2.6-5.6-5.7 0-3.1 2.5-5.6 5.6-5.6 3.1 0 5.6 2.5 5.6 5.6z"/>
						</g>
					</g>
					<g id="Layer">
						<path id="Layer" class="s1" d="m284.9 410.1c4.8 1.6 9.6 3 14.4 3.9q7.3 1.4 14.6 1.9c9.8 0.6 19.6 0.1 29.3-1.1 4.8-0.7 9.6-1.5 14.2-2.7 4.7-1.3 9.2-2.9 13.6-4.9 8.7-4.1 16.4-10.2 22.7-18.1-1.8 4.7-4.6 9.1-8 13-3.5 4-7.6 7.3-12.1 10-4.5 2.8-9.3 4.9-14.3 6.5-5 1.5-10.1 2.6-15.2 3.3-10.2 1.2-20.6 1.3-30.8-0.5-5.1-0.8-10.1-2.2-14.9-4-4.8-1.9-9.4-4.3-13.5-7.3z"/>
						<g id="Layer">
							<path id="Layer" class="s10" d="m289.1 394.4c12.1 6.5 28.1 10 49.2 8.2 27.6-2.3 43.1-13.4 51.2-27.5 18.2-31.5 0.4-78.2 0.4-78.2 0 0-4.1 3.4-11.9 7.7-5.2 2.9-12.1 6.2-20.5 9.1-4.6 1.7-9.7 3.1-15.2 4.4-6.7 1.5-14.1 2.7-22.1 3.3q-7.2 0.6-15.1 0.4c-7-0.2-14.5-0.8-22.3-2.1-9.8-1.6-20.2-4.1-31.1-7.8 0 0-5.1 59.8 37.4 82.5z"/>
							<path id="Layer" class="s11" d="m289.1 394.4c12.1 6.5 28.1 10 49.2 8.2 27.6-2.3 43.1-13.4 51.2-27.5-10.8-12.5-26.8-20.4-44.5-20.4-25.9 0-47.8 16.6-55.9 39.7z"/>
							<path id="Layer" class="s12" d="m357.5 313.7c5 11.5 13.7 18.8 19.4 16.2 5.7-2.5 6.2-13.8 1.1-25.3-5.2 2.9-12.1 6.2-20.5 9.1z"/>
							<path id="Layer" class="s12" d="m291.1 344c6.2 0.8 12.4-8.7 13.9-21.2q0.1-0.5 0.1-1c-7-0.2-14.5-0.8-22.3-2.1q-0.1 0.2-0.1 0.4c-1.5 12.5 2.3 23.2 8.4 23.9z"/>
							<path id="Layer" class="s12" d="m320.2 321.4c2.1 10.9 7.8 18.7 13.5 18 5.7-0.7 9.3-10 8.6-21.3-6.7 1.5-14.1 2.7-22.1 3.3z"/>
						</g>
						<path id="Layer" class="s1" d="m384.1 280.8c0 0-1.8 22.8 23.4 20 0 0-16.8-3.9-23.4-20z"/>
						<path id="Layer" class="s1" d="m257 297.3c0 0 1.8 22.8-23.5 20 0 0 16.8-3.9 23.5-20z"/>
					</g>
				</g>
			</g>
		</g>
		<g id="Layer">
			<g id="Layer">
				<g id="Layer">
					<g id="Layer">
						<path id="Layer" class="s13" d="m-452.9 544.1c-6.8 57.9-89 39-133.6 54.8-44.5 15.8 13.4 52.2 11.2 64.5-0.6 3.2-10.4 3.8-24.5 1.8-5.1-0.7-10.9-1.7-17-3.1-41.9-9.5-99.9-34.8-94.8-74.4 1.8-14.6 7.3-24.5 15.1-32.4 5.7-5.9 12.8-10.8 20.6-15.7 3.8-2.3 7.7-4.7 11.7-7.2 13.9-8.8 29.4-19.3 44.2-36.9 3.7-4.3 7.3-9 10.8-14.3 6.4-9.5 12.6-20.7 18.3-34q3.9-9 7.7-17.5 4.3-9.4 8.6-18.2c8.9-18.4 17.6-34.3 25.7-47.9 25.2-42.8 43.9-62.4 43.9-62.4 0 0 35.3 110.7 48.1 187.7 3.7 22.5 5.5 42.1 4 55.2z"/>
						<path id="Layer" class="s14" d="m-460.5 565.2q-2.8 3.9-6.4 6.9c-6.6 5.8-15.2 9.6-24.8 12.2-4.6 1.3-9.4 2.3-14.4 3.1-26.9 4.4-58.2 3.6-80.4 11.5-44.5 15.8 13.4 52.2 11.2 64.5-16.7-31.1-111.8-56.5-20.1-91.1 38.9-14.7 59.9-34.5 71.3-52.5q0.1-0.2 0.3-0.5c1.6 2 5.9 7.1 12.9 13.5 10.8 9.9 27.7 22.9 50.4 32.4z"/>
					</g>
					<path id="Layer" class="s15" d="m-592.5 641.7c5.7 10.6-18.3 23.5-24 12.9-9.2-17.1-4.7-37.5-4.7-37.5 0 0 19.4 7.4 28.7 24.6z"/>
					<path id="Layer" class="s15" d="m-592.5 642.8c5.7 10.6-18.3 23.5-24 12.9-9.2-17.1-4.7-37.5-4.7-37.5 0 0 19.4 7.4 28.7 24.6z"/>
					<path id="Layer" class="s15" d="m-592.5 643.9c5.7 10.6-18.3 23.5-24 12.9-9.2-17.1-4.7-37.5-4.7-37.5 0 0 19.4 7.4 28.7 24.6z"/>
					<g id="Layer">
						<g id="Layer">
							<path id="Layer" class="s14" d="m-691.2 579.2c-4-7.8-5.3-16.3-5.3-23.9 5.7-5.9 12.8-10.8 20.6-15.7 7.5 4.9 15.6 11.9 20.5 21.7 6.7 13.4-29.1 31.4-35.8 17.9z"/>
							<path id="Layer" class="s16" d="m-654.9 553.1c6.5 13-28.2 30.5-34.7 17.4-10.6-21-1.7-46.7-1.7-46.7 0 0 25.9 8.3 36.4 29.3z"/>
							<path id="Layer" class="s15" d="m-689.6 570.5c-3.7-7.2-5-15-5.2-22.1 0.8 5.2 2.2 10.6 4.8 15.9 6.1 12 34.4-2.2 28.4-14.3-5.8-11.4-15.9-19.1-23.1-23.5 8.4 3.9 22.6 12.3 29.8 26.6 6.5 13-28.2 30.5-34.7 17.4z"/>
						</g>
						<g id="Layer">
							<path id="Layer" class="s14" d="m-624 612.4c4 15.1-30.1 24.1-34.1 9-6.5-24.4 5.4-48.6 5.4-48.6 0 0 22.2 15.2 28.7 39.6z"/>
							<path id="Layer" class="s15" d="m-625.1 604.6c3.9 15.2-30.2 24.2-34.1 9-6.5-24.3 5.4-48.6 5.4-48.6 0 0 22.2 15.3 28.7 39.6z"/>
							<path id="Layer" class="s16" d="m-628.6 599.9c3.5 13.3-26.5 21.2-30 7.9-5.6-21.4 4.8-42.8 4.8-42.8 0 0 19.6 13.5 25.2 34.9z"/>
						</g>
						<g id="Layer">
							<path id="Layer" class="s14" d="m-599.8 665.2c-5.1-0.7-10.9-1.7-17-3.1-8.2-16.8-3.9-35.9-3.9-35.9 0 0 19.5 7.4 28.7 24.6 2.9 5.3-1.7 11.2-7.8 14.4z"/>
							<path id="Layer" class="s15" d="m-592.5 645c5.7 10.6-18.3 23.5-24 12.9-9.2-17.1-4.7-37.5-4.7-37.5 0 0 19.4 7.4 28.7 24.6z"/>
							<path id="Layer" class="s16" d="m-596.6 638.1c4.9 9.2-15.7 20.2-20.6 11.1-7.9-14.7-4-32.1-4-32.1 0 0 16.7 6.4 24.6 21z"/>
						</g>
						<g id="Layer">
							<path id="Layer" class="s14" d="m-661 537.8q-1.8-2.6-3.2-5.4c13.9-8.8 29.4-19.3 44.2-36.9 2.9 2.4 5.4 5.1 7.6 8.2 10 14.3-38.6 48.4-48.6 34.1z"/>
							<path id="Layer" class="s16" d="m-612.6 501.2c8.4 12-32.3 40.5-40.7 28.6-13.5-19.2-4-49.1-4-49.1 0 0 31.2 1.3 44.7 20.5z"/>
							<path id="Layer" class="s15" d="m-641.3 531.8c11.6-7.1 21.8-18.7 17.2-25.3-8.6-12.3-24.5-17.2-34.8-19.2 0.8-4.1 1.6-6.6 1.6-6.6 0 0 31.2 1.3 44.7 20.5 6.1 8.8-14.1 26.5-28.7 30.6z"/>
						</g>
						<g id="Layer">
							<path id="Layer" class="s14" d="m-572.9 413q-0.9-0.7-1.7-1.5c8.9-18.4 17.6-34.3 25.7-47.9 3.6 1.4 7.1 3.3 10.2 5.8 12.8 10.1-21.4 53.6-34.2 43.6z"/>
							<path id="Layer" class="s16" d="m-538.9 365.5c11.5 9-19.2 48.1-30.7 39.1-18.4-14.5-18-45.8-18-45.8 0 0 30.3-7.8 48.7 6.7z"/>
							<path id="Layer" class="s15" d="m-560.5 404.7c10.7-10.1 19.9-27.3 12.8-32.9-12.1-9.5-29.3-9.4-39.7-8.3-0.3-2.9-0.2-4.7-0.2-4.7 0 0 30.3-7.8 48.7 6.7 9.1 7.1-8.3 33.2-21.6 39.2z"/>
						</g>
						<g id="Layer">
							<path id="Layer" class="s14" d="m-609.2 481.2c6.4-9.5 12.6-20.7 18.3-34q3.9-9 7.7-17.5c3.4 1.5 6.8 3.4 9.8 5.7 13.4 10.6-22.3 56-35.8 45.8z"/>
							<path id="Layer" class="s16" d="m-572.3 430.9c11.5 9-19.2 48.1-30.7 39.1-18.5-14.5-18.1-45.8-18.1-45.8 0 0 30.4-7.8 48.8 6.7z"/>
							<path id="Layer" class="s15" d="m-593.9 470.1c9.8-10.3 17.6-25.8 10.8-31.1-11.3-8.9-27.1-9.4-37.6-8.4-0.4-3.9-0.4-6.4-0.4-6.4 0 0 30.4-7.8 48.8 6.7 9.1 7.1-8.3 33.1-21.6 39.2z"/>
						</g>
					</g>
				</g>
				<g id="Layer">
					<g id="Layer">
						<g id="Layer">
							<g id="Layer">
								<path id="Layer" class="s14" d="m-79.3 491.1c-4.9 11.4-23.7 2.8-23.7 2.8 0 0 8.6 21.3-2.1 25.3-10.8 3.9-25-10.4-25-10.4 0 0-0.1 25.3-9.5 23.6-9.4-1.7-15-27.1-15-27.1v-0.1q0 0 0 0c-1.5-0.6-24.7-11.1-18.3-35.5 0 0-37.6-18.7-54.9-55.7-6.1-13.1-9.7-28.4-8.3-46 0.6-7.2 2-14.9 4.5-22.9l62.2-21.7 3.8-1.4c0 0-0.3 6.1 0.3 15.5 1.5 23.4 8 68 36.3 95.5 0 0 28.2-5.9 43.6 5.2 3 2.2 4.1 4.3 4 6.3-0.6 8.3-23 14.8-23 14.8 0 0 29.9 20.4 25.1 31.8z"/>
								<g id="Layer" style="opacity: .7">
									<path id="Layer" class="s14" d="m-106.5 464.5c-2.4 4.6-5 8.7-8 12.7q-4.3 5.9-9.6 10.7c-3.6 3.3-7.4 6.2-11.6 8.7-4.2 2.6-8.6 4.7-13.3 6.9 5.2 0.1 10.3-1.1 15.2-3 4.9-2 9.5-4.9 13.4-8.5 3.9-3.6 7.2-7.9 9.6-12.5 1.2-2.4 2.2-4.8 3-7.3 0.7-2.5 1.3-5.1 1.3-7.7z"/>
								</g>
							</g>
						</g>
						<path id="Layer" class="s17" d="m-154.6 505.2q0 0 0 0c-1.5-0.6-24.7-11.1-18.3-35.5 0 0-37.6-18.7-54.9-55.7l15-57 47.2-35c0 0 0.3 6 0.3 15.5 0.2 18.2-0.4 49.2-4.8 77-6.7 42.3 8.9 50 8.9 50 0 0-10.5 26.8 6.6 40.7z"/>
					</g>
					<path id="Layer" class="s18" d="m-81.4 444.5c0 0-8.8-15.3-48.5-7.5 0 0-37.3-29.9-40.2-103.4-0.3-5.3-1.3-7.1 0.7-10.2l3.8-1.4c0 0-0.3 6.1 0.3 15.5 1.5 23.4 8 68 36.3 95.5 0 0 28.2-5.9 43.6 5.2 3 2.2 4.1 4.3 4 6.3z"/>
				</g>
				<g id="Layer">
					<path id="Layer" class="s16" d="m-202.6 189.8c0 0-6.2 5.1-18 4.4-10.4-0.6-25.2-5.8-43.9-23.1-5-4.7-10.4-10.3-16-16.9q-1.4-1.7-2.8-3.4c0 0 41.8-15.1 46.9-68 2.2-22.6 10.7-29.9 19.7-25.8 17.9 8.4 37.9 62.6 14.1 132.8z"/>
					<path id="Layer" class="s19" d="m-215.2 194.1q-2.4 0.2-5.4 0.1c-10.4-0.6-25.2-5.8-43.9-23.1-5-4.7-10.4-10.3-16-16.9q-1.4-1.6-2.8-3.4c0 0 41.8-15.1 46.9-68 2.1-21.5 9.9-29.2 18.4-26.3-5.7 2.2-10.3 10.6-11.8 26.3-5.1 52.9-46.9 68-46.9 68q1.4 1.8 2.8 3.4c5.6 6.6 10.9 12.2 16 16.9 18 16.7 32.4 22.1 42.7 23z"/>
					<path id="Layer" class="s15" d="m-202.6 189.8c0 0-6.2 5.1-18 4.4-14.2-7.4-30.1-15.7-43.9-23.1-33.4-18-55.3-31.5-16-16.9 1.2 0.5 2.4 1.2 3.8 1.4 85 13.3 61.9-85.9 60-98.6 17.9 8.4 37.9 62.6 14.1 132.8z"/>
				</g>
				<g id="Layer">
					<g id="Layer">
						<path id="Layer" class="s13" d="m-375.8 632.8q-0.1 0.2-0.2 0.4-0.5 1.1-1.2 2.3-0.6 1.1-1.3 2.1-0.7 1-1.5 2.1 0 0 0 0 0 0.1-0.1 0.5c-0.8 2.8-6.2 18.8-25.2 18.9q-2.4 0.1-5.2-0.3-2.8-0.3-5.9-1.2c0 0-0.9 0.7-2.6 1.7q-1 0.5-2.5 1.1 0 0 0 0c-5.4 2.2-15.3 4.5-30.3 1.8q-3.6-0.7-7.5-1.7-3-0.8-5.8-1.3c-9.1-1.7-16.3-1.1-22.1-0.7-10.3 0.8-16.3 1.1-21.6-12.8-7.9-20.9 7-28.7 1.4-84.1q0-0.1 0-0.1-0.7-7.2-1.9-15.4c-0.2-1.5-0.5-3-0.7-4.5q-0.7-4.6-0.9-8.8c-1.3-33.3 23.5-46.2 47.6-50.8 24.8-4.9 49.1 10.8 55.2 35.4q0.1 0.3 0.2 0.6 0.6 2.7 1.3 5.6c3.8 16.4 7.2 35.6 7.8 53.9 0.2 6.3 0.1 12.4-0.5 18.3 0 0 12.1 5 19.6 13.9 5 6 8 13.8 3.9 23.1z"/>
						<path id="Layer" class="s14" d="m-410.5 658.8q-2.8-0.3-5.9-1.2c0 0-0.9 0.8-2.6 1.7-3.3-29.4-19.2-38-20.1-38.4 25.8 5.3 28.4 30.8 28.6 37.9z"/>
						<path id="Layer" class="s20" d="m-421.5 660.1q0 0.2 0 0.3c-5.4 2.2-15.3 4.5-30.3 1.8q-0.4-1.5-0.7-3.1c-1.9-11.5 3.3-22 11.8-23.4 6.8-1.2 13.6 3.9 17 11.8q1.3 3 1.9 6.5 0.5 3.1 0.3 6.1z"/>
						<path id="Layer" class="s20" d="m-376 633.2c-2.3-1.6-4.5-4.1-5.9-7.3-2.9-6.4-1.8-13.2 2.2-16.2 5.1 6.1 8.1 14 3.7 23.5z"/>
						<path id="Layer" class="s14" d="m-375.8 632.8q-0.1 0.2-0.2 0.4-0.5 1.1-1.2 2.4-0.6 1-1.3 2-0.7 1-1.5 2.1 0 0 0 0.1 0 0-0.1 0.4-0.1 0.1-0.2 0.2 0 0.1-0.1 0.1c0 0-2.1-6.5-5.9-13.3-3.6-6.3-8.7-12.9-15.1-15.1 0 0 13.4-1.3 25.6 20.7z"/>
						<path id="Layer" class="s20" d="m-380 639.7q0 0 0 0c0 0-4.4 19.3-25.3 19.4-2.3-3-3.9-6.9-4.7-11.3-1.9-11.6 3.4-22.1 11.8-23.5 5.6-0.9 11 2.2 14.7 7.7 1.5 2.2 2.7 4.8 3.5 7.7z"/>
					</g>
					<path id="Layer" class="s21" d="m-491.7 584.3c9.1 19.3 28 49.8 26.6 74.9-9.1-1.7-16.3-1.1-22.1-0.7-10.3 0.8-16.3 1.1-21.6-12.8-6.5-17.1 2.3-25.4 2.7-58.3 0-7.3-0.3-15.8-1.3-25.8q0 0 0-0.1c-0.9-1.7-11.6-22.8-16.7-41.7q-0.2-0.6-0.4-1.3 0.1 0.1 0.7 0.8c1.6 2 5.9 7.1 12.9 13.5 10.8 9.9 27.7 22.9 50.4 32.4 17.3 7.2 38 12.3 61.7 12.3-0.7 0.2-28.3 5.8-68.1-5.4q-6.2-1.7-12.8-4c-20.2-7.2-19.2 1-12 16.2z"/>
				</g>
				<g id="Layer">
					<g id="Layer">
						<path id="Layer" class="s13" d="m-209.9 613q-0.1 0.2-0.2 0.4-0.5 1.2-1.2 2.4-0.6 1-1.3 2-0.7 1.1-1.5 2.1 0 0 0 0.1 0 0-0.1 0.4c-0.8 2.8-6.2 18.8-25.2 19q-2.4 0-5.2-0.4-2.8-0.3-5.9-1.1c0 0-0.9 0.7-2.6 1.6q-1 0.5-2.5 1.1 0 0 0 0c-5.4 2.2-15.3 4.6-30.3 1.8q-3.5-0.6-7.5-1.7-0.1 0-0.2 0c-11.8-3.2-20.7-2.5-27.6-1.9-10.4 0.7-16.4 1-21.7-12.9-7.4-19.7 5.3-27.7 2.2-75-0.5-7.2-1.4-15.3-2.7-24.6-0.2-1.4-0.5-3-0.7-4.5-11.7-73.9 90.9-61.3 90.9-61.3 0 0 5.8 15.8 11.2 37.8q0.7 2.7 1.3 5.5c1.1 4.8 2.2 9.9 3.2 15.2 3.5 18.6 5.8 38.9 4.2 57.1 0 0 12 4.9 19.5 13.8 5 6 8 13.8 3.9 23.1z"/>
						<path id="Layer" class="s14" d="m-244.6 639q-2.8-0.3-5.9-1.1c0 0-0.9 0.7-2.6 1.6-3.3-29.4-19.2-38-20.1-38.4 25.9 5.4 28.4 30.8 28.6 37.9z"/>
						<path id="Layer" class="s20" d="m-255.6 640.3q0 0.2 0 0.3c-5.4 2.2-15.3 4.6-30.3 1.8q-0.4-1.5-0.7-3.1c-1.9-11.5 3.4-22 11.8-23.4 6.8-1.2 13.6 3.9 17 11.9q1.3 2.9 1.9 6.4 0.5 3.1 0.3 6.1z"/>
						<path id="Layer" class="s20" d="m-210.1 613.4c-2.3-1.6-4.4-4.1-5.9-7.3-2.8-6.3-1.8-13.2 2.2-16.2 5.1 6.1 8.1 14 3.7 23.5z"/>
						<path id="Layer" class="s14" d="m-209.9 613q-0.1 0.2-0.2 0.4-0.5 1.2-1.2 2.4-0.6 1-1.3 2.1-0.7 1-1.5 2 0 0 0 0.1 0 0-0.1 0.4-0.1 0.1-0.2 0.2 0 0.1-0.1 0.2c0 0-2-6.5-5.9-13.4-3.6-6.3-8.7-12.9-15.1-15 0 0 13.4-1.4 25.6 20.6z"/>
						<path id="Layer" class="s20" d="m-214.1 619.9q0 0 0 0.1c0 0-4.4 19.2-25.3 19.4-2.3-3.1-3.9-7-4.7-11.4-1.9-11.5 3.4-22 11.9-23.5 5.5-0.9 11 2.3 14.7 7.7 1.4 2.3 2.6 4.8 3.4 7.7z"/>
					</g>
					<path id="Layer" class="s21" d="m-237.5 519c0 0.9-11.8 32.7-59.2 55.5-32.8 15.7-14.7 43 3.1 66.2-11.8-3.2-20.7-2.5-27.6-1.9-10.4 0.7-16.4 1-21.7-12.9-7.4-19.7 5.3-27.7 2.2-75 12-8.9 23.3-16.9 23.3-16.9z"/>
				</g>
				<g id="Layer">
					<path id="Layer" class="s13" d="m-184.2 419c-15.4 50.4-39.2 86.6-67.3 111.6-63 56.2-147.5 55.6-206.1 31.1-32.3-13.6-56.7-34.5-65.4-57.1-44.5-117.4 26.8-388.3 190.6-382.8 81.6 2.7 217.3 71.3 148.2 297.2z"/>
					<path id="Layer" class="s18" d="m-184.2 419c-13.7 44.9-34.2 78.6-58.3 103 21.4-23.9 39.4-55.6 52-96.6 69.6-227.8-67.1-296.9-149.5-299.7-23-0.7-44.2 3.9-63.5 12.7 21.3-11.3 45-17.5 71.1-16.6 81.6 2.7 217.3 71.3 148.2 297.2z"/>
					<path id="Layer" class="s22" d="m-251.5 530.6c-63 56.2-147.5 55.6-206.1 31.1 25.5-44.6 63.4-76.8 112.7-75.2 29 1 67.2 13.2 93.4 44.1z"/>
				</g>
				<g id="Layer">
					<g id="Layer">
						<path id="Layer" class="s14" d="m-207.8 252.9c-5.2 21.8-26.9 35.2-48.6 30-21.7-5.1-35.1-26.8-30-48.5 5.1-21.7 26.8-35.1 48.6-30 21.7 5.1 35.1 26.8 30 48.5z"/>
						<path id="Layer" class="s7" d="m-214.4 267.9c-15.8 15.7-41.3 15.7-57.1 0-15.8-15.8-15.8-41.3 0-57.1 15.8-15.8 41.3-15.8 57.1 0 15.7 15.8 15.7 41.3 0 57.1z"/>
						<path id="Layer" class="s8" d="m-220.4 247.7c-2.8 11.6-14.4 18.8-26 16-11.6-2.7-18.8-14.3-16.1-26 2.8-11.6 14.4-18.8 26-16 11.6 2.7 18.8 14.3 16.1 26z"/>
						<path id="Layer" class="s9" d="m-241.5 253.5c-6 0-10.9-4.9-10.9-10.9 0-6 4.9-10.9 10.9-10.9 6 0 10.9 4.9 10.9 10.9 0 6-4.9 10.9-10.9 10.9z"/>
						<path id="Layer" class="s7" d="m-243.5 234.6c0 3-2.5 5.5-5.5 5.5-3 0-5.4-2.5-5.4-5.5 0-3 2.4-5.4 5.4-5.4 3 0 5.5 2.4 5.5 5.4z"/>
					</g>
					<g id="Layer">
						<path id="Layer" class="s14" d="m-340.4 272.1c-15.7 15.8-41.3 15.8-57 0-15.8-15.8-15.8-41.3 0-57.1 15.7-15.7 41.3-15.7 57 0 15.8 15.8 15.8 41.3 0 57.1z"/>
						<path id="Layer" class="s7" d="m-325.3 248.7c-5.1 21.7-26.8 35.1-48.6 30-21.7-5.1-35.1-26.8-30-48.5 5.2-21.8 26.9-35.2 48.6-30 21.7 5.1 35.1 26.8 30 48.5z"/>
						<path id="Layer" class="s8" d="m-342.1 247.7c-2.8 11.6-14.4 18.7-26 16-11.6-2.7-18.8-14.3-16.1-26 2.8-11.6 14.4-18.8 26-16 11.6 2.7 18.8 14.3 16.1 26z"/>
						<path id="Layer" class="s9" d="m-363.2 253.5c-6 0-10.9-4.9-10.9-10.9 0-6 4.9-10.9 10.9-10.9 6 0 10.9 4.9 10.9 10.9 0 6-4.9 10.9-10.9 10.9z"/>
						<path id="Layer" class="s7" d="m-365.2 234.6c0 3-2.5 5.5-5.5 5.5-3 0-5.4-2.5-5.4-5.5 0-3 2.4-5.4 5.4-5.4 3 0 5.5 2.4 5.5 5.4z"/>
					</g>
					<g id="Layer">
						<path id="Layer" class="s23" d="m-344.5 419.7c7.9 20.4 22.5 35.2 48.1 35.1 21.6-0.1 34.6-10.5 41.9-25.9 17.9-37.3 2.7-103.6-1.6-120.3-4.1 3.5-10.1 7.8-17.9 11.1-6.4 2.7-14 4.8-23 5.4q-2 0.1-4.1 0.2c-7 0.1-14.7-0.7-23.1-2.6-7.5-1.8-15.7-4.6-24.5-8.6-3.4 21.7-8.9 71.5 4.2 105.6z"/>
						<path id="Layer" class="s14" d="m-344.5 435.1c5.2 8.4 11 16 18.2 21.4 7.2 5.4 15.6 8.3 24.5 9.1 9 0.7 18.2 0 26.3-3.5 8.3-3.3 15.2-9.8 21-17.8q-0.5 1.8-1.1 3.6c-0.4 1.1-0.8 2.3-1.4 3.4q-0.8 1.7-1.8 3.4c-0.6 1.1-1.3 2.1-2.1 3.1-2.9 4.2-6.9 7.8-11.4 10.5-4.6 2.7-9.6 4.4-14.8 5.4-2.5 0.4-5.1 0.7-7.7 0.8-1.3 0.1-2.6 0-3.9 0-1.3 0-2.6 0-3.9-0.2-1.3-0.1-2.6-0.3-3.8-0.5l-3.9-0.8c-2.5-0.7-5.1-1.4-7.5-2.5-4.9-2.1-9.3-5.1-13-8.8-3.7-3.7-6.7-7.9-9-12.5q-1.7-3.3-2.8-6.9c-0.4-1.2-0.8-2.4-1.1-3.5-0.2-1.3-0.5-2.5-0.8-3.7z"/>
						<path id="Layer" class="s11" d="m-344.5 419.7c7.9 20.4 22.5 35.2 48.1 35.1 21.6-0.1 34.6-10.5 41.9-25.9-9.3-17.4-24.6-29.2-48.7-29-19.5 0-32.7 7.8-41.3 19.8z"/>
						<path id="Layer" class="s20" d="m-274 319.7c-6.4 2.7-14 4.8-23 5.4l2.5 39.4 23.1-1.4z"/>
						<path id="Layer" class="s20" d="m-324.2 322.7l-3.7 38.4 23 2.3 3.8-38.1c-7 0.1-14.7-0.7-23.1-2.6z"/>
						<path id="Layer" class="s14" d="m-358.3 309.3c8.2 5.7 17.1 10.5 26.7 13.9 9.6 3.3 19.8 5.3 30.1 5.2 10.3-0.1 20.7-2.5 29.9-7.1 4.6-2.3 8.9-5.2 12.8-8.6 3.8-3.3 7.3-7.1 9.7-11.5-3.5 3.5-7.5 6.5-11.6 9.1-4.1 2.6-8.4 4.7-12.9 6.5-1.1 0.4-2.3 0.8-3.4 1.2l-1.7 0.6-1.7 0.4-3.5 1-3.5 0.7-1.7 0.3-1.8 0.2-3.5 0.5c-1.2 0.1-2.4 0.1-3.6 0.2-1.2 0.1-2.4 0.2-3.6 0.2-9.5 0.1-19.1-1.3-28.6-3.6-9.5-2.4-18.7-5.8-28.1-9.2z"/>
					</g>
				</g>
				<g id="Layer">
					<path id="Layer" class="s14" d="m-447.7 323.3v103.9c0 0-50.3 62.8-70.6-16.7q-0.8-3.1-1.5-6.4c-15.8-73.6 12.3-88.8 28.3-91.6q0.1 0 0.1 0c5.8-1 10-0.4 10-0.4z"/>
					<g id="Layer" style="opacity: .7">
						<path id="Layer" class="s14" d="m-447.7 326.5v100.7c0 0-50.3 62.8-70.6-16.7 6.8-18.2 16.5-36.1 16.5-57.5 0-34.5 9.7-40.2 10.3-40.5q0.1 0 0.1 0z"/>
					</g>
					<path id="Layer" class="s14" d="m-413.1 347.4c3.4 70.6-39.9 109-66.6 105.7-8.3-1-15-6-18.3-15.3-13.7-39.3 15.1-86.9 15.1-86.9-16.3-16.7-6.7-46.3-6.7-46.3 0 0-19.4-32.9-14.6-43.6q0.6-1.4 1.8-2.3c10.2-7.1 28.7 10.6 28.7 10.6 0 0-2.2-36.6 13.7-38 15.8-1.3 21.1 34.9 21.1 34.9 0 0 1.6-31 19.4-28.7 16.8 2.2 10.6 64.4 10.6 64.4 0 0 36.2 6.6 36.2 18.5-0.1 22.6-40.4 27-40.4 27z"/>
					<path id="Layer" class="s18" d="m-413.1 347.4c3.4 70.6-39.9 109-66.6 105.7 26.7-3 63.1-40.6 60-105.7 0 0 40.3-4.4 40.4-27 0-11.9-36.2-18.5-36.2-18.5 0 0 5.9-58.7-9.2-64 1.6-0.5 3.3-0.6 5.2-0.4 16.8 2.2 10.6 64.4 10.6 64.4 0 0 36.2 6.6 36.2 18.5-0.1 22.6-40.4 27-40.4 27z"/>
					<path id="Layer" class="s17" d="m-486.1 305.7c-2.5 43.9 30.7 49.6 30.7 49.6-63.1 52.9-24.3 97.8-24.3 97.8-8.3-1-15-6-18.3-15.3-13.7-39.3 15.1-86.9 15.1-86.9-16.3-16.7-6.7-46.3-6.7-46.3 0 0-19.4-32.9-14.6-43.6 3.2 22.6 15.8 38.4 15.8 38.4 35.6-11.2 62.2-0.4 62.2-0.4-46.6-6.3-59.9 6.7-59.9 6.7z"/>
				</g>
				<g id="Layer">
					<path id="Layer" class="s16" d="m-372.2 141.9q-1.5 1.7-2.9 3.4c-5.6 6.6-10.9 12.2-15.9 16.9-18.7 17.3-33.5 22.5-44 23.1-11.7 0.6-17.9-4.4-17.9-4.4-23.8-70.2-3.8-124.4 14.1-132.8 9-4.2 17.4 3.2 19.6 25.8 5.2 52.9 47 68 47 68z"/>
					<path id="Layer" class="s19" d="m-372.2 141.9q-1.5 1.7-2.9 3.4-0.8 0.9-1.5 1.8c-7.1-3.1-43.1-20.8-48-70.8-1.8-18.4-7.5-27.1-14.3-28.1q0 0 0.1-0.1c9-4.2 17.5 3.2 19.6 25.8 5.2 52.9 47 68 47 68z"/>
					<path id="Layer" class="s15" d="m-375.1 145.3c-5.6 6.6-10.9 12.2-15.9 16.9-18.7 17.3-33.5 22.5-44 23.1-11.7 0.6-17.9-4.4-17.9-4.4-23.8-70.2-3.8-124.4 14.1-132.8-1.9 12.7-25 111.9 60 98.6 1.3-0.2 2.5-1 3.7-1.4z"/>
				</g>
			</g>
		</g>
	</g>
</svg>