<svg version="1.2" xmlns="http://www.w3.org/2000/svg" viewBox="0 0 92 129" width="92" height="129">
	<title>monster-set-svg</title>
	<defs>
		<radialGradient id="g1" cx="0" cy="0" r="1" gradientUnits="userSpaceOnUse" gradientTransform="matrix(62.893,0,0,62.893,51.917,63.336)">
			<stop offset="0" stop-color="#f5614b"/>
			<stop offset=".179" stop-color="#f05e49"/>
			<stop offset=".402" stop-color="#e05443"/>
			<stop offset=".647" stop-color="#c7453a"/>
			<stop offset=".906" stop-color="#a4302c"/>
			<stop offset="1" stop-color="#962727"/>
		</radialGradient>
		<radialGradient id="g2" cx="0" cy="0" r="1" gradientUnits="userSpaceOnUse" gradientTransform="matrix(58.079,0,0,58.079,45.774,64.153)">
			<stop offset="0" stop-color="#f5614b"/>
			<stop offset=".179" stop-color="#f05e49"/>
			<stop offset=".402" stop-color="#e05443"/>
			<stop offset=".647" stop-color="#c7453a"/>
			<stop offset=".906" stop-color="#a4302c"/>
			<stop offset="1" stop-color="#962727"/>
		</radialGradient>
		<radialGradient id="g3" cx="0" cy="0" r="1" gradientUnits="userSpaceOnUse" gradientTransform="matrix(22.048,3.956,-3.956,22.048,15.429,24.871)">
			<stop offset="0" stop-color="#ffe433"/>
			<stop offset=".424" stop-color="#ffba27"/>
			<stop offset=".792" stop-color="#ff9c1e"/>
			<stop offset="1" stop-color="#ff911b"/>
		</radialGradient>
		<radialGradient id="g4" cx="0" cy="0" r="1" gradientUnits="userSpaceOnUse" gradientTransform="matrix(-22.083,3.761,-3.761,-22.083,77.314,25.182)">
			<stop offset="0" stop-color="#ffe433"/>
			<stop offset=".424" stop-color="#ffba27"/>
			<stop offset=".792" stop-color="#ff9c1e"/>
			<stop offset="1" stop-color="#ff911b"/>
		</radialGradient>
		<radialGradient id="g5" cx="0" cy="0" r="1" gradientUnits="userSpaceOnUse" gradientTransform="matrix(47.426,.27,-0.27,47.426,46.716,62.851)">
			<stop offset="0" stop-color="#f5614b"/>
			<stop offset=".185" stop-color="#ea5a47"/>
			<stop offset=".508" stop-color="#cd493c"/>
			<stop offset=".929" stop-color="#9f2c2a"/>
			<stop offset="1" stop-color="#962727"/>
		</radialGradient>
		<radialGradient id="g6" cx="0" cy="0" r="1" gradientUnits="userSpaceOnUse" gradientTransform="matrix(56.433,0,0,56.433,47.546,72.487)">
			<stop offset="0" stop-color="#f5614b"/>
			<stop offset=".185" stop-color="#ea5a47"/>
			<stop offset=".508" stop-color="#cd493c"/>
			<stop offset=".929" stop-color="#9f2c2a"/>
			<stop offset="1" stop-color="#962727"/>
		</radialGradient>
		<linearGradient id="g7" x2="1" gradientUnits="userSpaceOnUse" gradientTransform="matrix(-0.579,-18.326,9.951,-0.314,34.281,125.679)">
			<stop offset="0" stop-color="#ffffff"/>
			<stop offset=".374" stop-color="#9e9e9e"/>
			<stop offset="1" stop-color="#000000"/>
		</linearGradient>
		<linearGradient id="g8" x2="1" gradientUnits="userSpaceOnUse" gradientTransform="matrix(.579,-18.326,10.585,.334,58.762,125.679)">
			<stop offset="0" stop-color="#ffffff"/>
			<stop offset=".374" stop-color="#9e9e9e"/>
			<stop offset="1" stop-color="#000000"/>
		</linearGradient>
		<linearGradient id="g9" x2="1" gradientUnits="userSpaceOnUse" gradientTransform="matrix(0,28.892,-35.543,0,46.355,12.684)">
			<stop offset="0" stop-color="#ffffff"/>
			<stop offset=".374" stop-color="#9e9e9e"/>
			<stop offset="1" stop-color="#000000"/>
		</linearGradient>
		<radialGradient id="g10" cx="0" cy="0" r="1" gradientUnits="userSpaceOnUse" gradientTransform="matrix(14.261,.633,-0.633,14.261,38.347,40.309)">
			<stop offset="0" stop-color="#ffffff"/>
			<stop offset=".71" stop-color="#ddc6c5"/>
			<stop offset=".802" stop-color="#e4cfce"/>
			<stop offset=".954" stop-color="#f8e8e7"/>
			<stop offset="1" stop-color="#fff1f0"/>
		</radialGradient>
		<radialGradient id="g11" cx="0" cy="0" r="1" gradientUnits="userSpaceOnUse" gradientTransform="matrix(4.167,.082,-0.082,4.167,38.789,42.352)">
			<stop offset="0" stop-color="#e89d2c"/>
			<stop offset=".302" stop-color="#dd9525"/>
			<stop offset=".769" stop-color="#c48114"/>
			<stop offset=".946" stop-color="#c98518"/>
			<stop offset="1" stop-color="#cc871a"/>
		</radialGradient>
		<radialGradient id="g12" cx="0" cy="0" r="1" gradientUnits="userSpaceOnUse" gradientTransform="matrix(4.362,.086,-0.086,4.362,38.789,42.352)">
			<stop offset=".594" stop-color="#d3911d"/>
			<stop offset="1" stop-color="#af7609"/>
		</radialGradient>
		<radialGradient id="g13" cx="0" cy="0" r="1" gradientUnits="userSpaceOnUse" gradientTransform="matrix(11.617,.529,-0.529,11.617,55.353,41.254)">
			<stop offset="0" stop-color="#ffffff"/>
			<stop offset=".71" stop-color="#ddc6c5"/>
			<stop offset=".802" stop-color="#e4cfce"/>
			<stop offset=".954" stop-color="#f8e8e7"/>
			<stop offset="1" stop-color="#fff1f0"/>
		</radialGradient>
		<radialGradient id="g14" cx="0" cy="0" r="1" gradientUnits="userSpaceOnUse" gradientTransform="matrix(3.538,.07,-0.07,3.538,55.61,42.551)">
			<stop offset="0" stop-color="#e89d2c"/>
			<stop offset=".302" stop-color="#dd9525"/>
			<stop offset=".769" stop-color="#c48114"/>
			<stop offset=".946" stop-color="#c98518"/>
			<stop offset="1" stop-color="#cc871a"/>
		</radialGradient>
		<radialGradient id="g15" cx="0" cy="0" r="1" gradientUnits="userSpaceOnUse" gradientTransform="matrix(3.704,.073,-0.073,3.704,55.61,42.551)">
			<stop offset=".594" stop-color="#d3911d"/>
			<stop offset="1" stop-color="#af7609"/>
		</radialGradient>
		<linearGradient id="g16" x2="1" gradientUnits="userSpaceOnUse" gradientTransform="matrix(0,-19.584,36.375,0,46.782,74.722)">
			<stop offset="0" stop-color="#814653"/>
			<stop offset=".345" stop-color="#6a3a48"/>
			<stop offset=".735" stop-color="#562f3e"/>
			<stop offset="1" stop-color="#4f2b3b"/>
		</linearGradient>
		<linearGradient id="g17" x2="1" gradientUnits="userSpaceOnUse" gradientTransform="matrix(0,-19.584,36.375,0,46.782,75.581)">
			<stop offset="0" stop-color="#814653"/>
			<stop offset=".345" stop-color="#6a3a48"/>
			<stop offset=".735" stop-color="#562f3e"/>
			<stop offset="1" stop-color="#4f2b3b"/>
		</linearGradient>
		<radialGradient id="g18" cx="0" cy="0" r="1" gradientUnits="userSpaceOnUse" gradientTransform="matrix(11.795,0,0,11.795,46.013,76.03)">
			<stop offset="0" stop-color="#ff599b"/>
			<stop offset=".311" stop-color="#ff5699"/>
			<stop offset=".526" stop-color="#ff4d93"/>
			<stop offset=".713" stop-color="#ff3e89"/>
			<stop offset=".882" stop-color="#ff287b"/>
			<stop offset="1" stop-color="#ff146e"/>
		</radialGradient>
	</defs>
	<style>
		.s0 { fill: url(#g1) } 
		.s1 { opacity: .1;fill: #ffffff } 
		.s2 { opacity: .3;fill: #916839 } 
		.s3 { opacity: .2;fill: #916839 } 
		.s4 { fill: url(#g2) } 
		.s5 { fill: url(#g3) } 
		.s6 { fill: #ffffff } 
		.s7 { fill: #a63838 } 
		.s8 { opacity: .3;fill: #a63838 } 
		.s9 { fill: url(#g4) } 
		.s10 { fill: url(#g5) } 
		.s11 { fill: url(#g6) } 
		.s12 { opacity: .2;fill: url(#g7) } 
		.s13 { opacity: .2;fill: url(#g8) } 
		.s14 { opacity: .2;fill: url(#g9) } 
		.s15 { fill: #35323a } 
		.s16 { fill: url(#g10) } 
		.s17 { opacity: .4;fill: #ffffff } 
		.s18 { fill: url(#g11) } 
		.s19 { fill: url(#g12) } 
		.s20 { fill: url(#g13) } 
		.s21 { fill: url(#g14) } 
		.s22 { fill: url(#g15) } 
		.s23 { opacity: .3;fill: #ffffff } 
		.s24 { fill: url(#g16) } 
		.s25 { fill: url(#g17) } 
		.s26 { fill: url(#g18) } 
		.s27 { opacity: .5;fill: #800d74 } 
		.s28 { fill: #fdf3de } 
		.s29 { opacity: .4;fill: #916839 } 
		.s30 { fill: #ff7d6e } 
		.s31 { opacity: .1;fill: #916839 } 
	</style>
	<g id="Layer">
		<g id="Layer">
			<path id="Layer" class="s0" d="m22.7 61.3c0 0-3 9.2-7.9 15.6-4.3 5.5-12.7 8.9-11.1 15 1.6 6 18 1.4 20.5-3.2 3.5-6.1-1.5-27.4-1.5-27.4z"/>
			<path id="Layer" class="s1" d="m7.7 87.3c0.5 1.5 5.4-0.2 8.9-3 3.6-2.8 5-4.9 3.1-6.3-1.6-1.1-4.1 1.8-6 3.7-3.3 3.2-6.4 4.4-6 5.6z"/>
			<path id="Layer" fill-rule="evenodd" class="s2" d="m24.2 88.7c-2.5 4.6-18.9 9.2-20.5 3.2-1.6-6.1 6.8-9.5 11.1-15 4.9-6.4 7.9-15.6 7.9-15.6 0 0 5 21.3 1.5 27.4zm-1.5-22.9c0 0-2.7 7.4-7 12.4-3.7 4.3-11.3 8.4-10.6 12.1 0.8 4.9 14.6 0.4 17.9-3.9 3.4-4.4-0.3-20.6-0.3-20.6z"/>
			<path id="Layer" class="s3" d="m22.3 90.7l-6.2 1.6 2-6.9-4.1-0.7 0.9-6.1-1.9 0.2c-1.1 1.2-2.4 2.3-3.6 3.3h1.3l-1 6 5.8-0.5-1.8 6.6c3.2-0.7 6.5-2 8.6-3.5z"/>
		</g>
		<g id="Layer">
			<path id="Layer" class="s4" d="m69.5 59.8c0 0 1.9 6.8 5.1 6.8 4.3 0 5.2-12.1 10.4-10.3 4.4 1.6 3.8 20.6-8.1 24.5-9.9 3.2-13.2-5.1-13.2-5.1z"/>
			<path id="Layer" class="s2" d="m75.9 78c-4.2 1.2-6.2-1-6.2-1l-2 3.2c2.1 1.3 5.1 1.9 9.2 0.6 11.9-3.9 12.5-22.9 8.1-24.5-5.2-1.8-6.1 10.3-10.4 10.3-2.4 0-4.1-3.7-4.8-5.7l-0.6 1.3c0 0 1.1 6.3 5.8 5.8 4.7-0.4 6.7-11.2 9.1-10.1 2.5 1.2 1.6 7.7 0.7 10.7-0.8 3-4.8 8.3-8.9 9.4z"/>
			<path id="Layer" class="s3" d="m85.5 70.9l-4.4 1.1-0.1-3.8-4.3 0.3c0 0 0.6-2.8 0.8-4.1-0.5 0.8-1 1.4-1.6 1.8q-0.1 0.1-0.1 0.1l-1.3 4h5l0.1 3.5 4.5-0.9 0.3 1.8q0.8-1.3 1.4-2.7z"/>
			<path id="Layer" class="s1" d="m84 59c-1.2-0.6-2.3 2.7-3.4 4.6-1.5 2.3-1.9 2.8-1.5 3.4 0.6 1.1 2.9-0.9 4-2.7 1.1-1.7 1.9-4.7 0.9-5.3z"/>
		</g>
		<g id="Layer">
			<g id="Layer">
				<path id="Layer" class="s5" d="m36.9 13.1c-3.4-0.4-10.6-5.6-14.4-5.6-3.7 0-13.5 5.5-18.1 15-4.6 9.6-4 20.8 4.4 23 8.3 2.2 13.9-6.6 10.6-10.6-3.1-3.8-6.7-0.3-6.7-0.3 0 0 3.2 0.2 3.5 2.1 0.2 1.7-2.8 3.4-5.2 2.4-2.5-1.1-1.6-7.3 1-11.4 2.5-4.2 6.6-8.2 8.8-8.4 2.3-0.3 7.2 2.7 8.2 4.5 1.1 1.8 7.9-10.7 7.9-10.7z"/>
				<g id="Layer" style="opacity: .5">
					<path id="Layer" class="s6" d="m14 14c-1.4-1.2-4.7 3-6.5 5.9-1.7 2.7-3.8 7.4-3.2 7.8 0.6 0.4 2.6-2.5 5.1-6.3 2.7-4 5.6-6.5 4.6-7.4z"/>
					<path id="Layer" class="s6" d="m4.1 28.8c0.8 0.2 0.1 3.4-0.7 3.3-0.8-0.1-0.2-3.4 0.7-3.3z"/>
				</g>
				<g id="Layer" style="opacity: .3">
					<path id="Layer" class="s7" d="m30.8 10.6c-2.1 1.7-5.6 5-7 9.4q0.7 0.3 1.3 0.6c1.4-4.4 5.2-7.9 7.1-9.3q-0.7-0.3-1.4-0.7z"/>
					<path id="Layer" class="s7" d="m25.9 8.3q-0.5-0.2-1-0.3c-1 1.7-2.6 5.5-2.5 11.5q0.5 0.1 1 0.3c-0.1-6.1 1.6-9.8 2.5-11.5z"/>
					<path id="Layer" class="s7" d="m12.9 12.1q-0.3 0.3-0.7 0.6c0.7 2 2.4 5.2 6.7 7.4q0.5-0.3 1-0.5c-4.9-2.2-6.4-5.6-7-7.5z"/>
					<path id="Layer" class="s7" d="m10 14.7q-0.7 0.7-1.4 1.5c0.3 2.8 1.2 7.2 4.7 9.5q0.4-0.5 0.8-1.1c-3.6-2.4-4.1-7.8-4.1-9.9z"/>
					<path id="Layer" class="s7" d="m3.8 23.9q-0.2 0.5-0.4 1c1.1 0.7 2.7 1.5 5.1 1.9q1.7 0.3 3.9 0.3 0.3-0.6 0.7-1.1c-4.8 0.3-7.8-1.1-9.3-2.1z"/>
					<path id="Layer" class="s7" d="m2.7 27q-0.2 0.4-0.3 0.8c1.1 0.6 2.9 1.3 5 1.6 1.1 0.2 2.3 0.3 3.5 0.3q0.2-0.5 0.4-0.9c-3.6 0.3-7-1-8.6-1.8z"/>
					<path id="Layer" class="s7" d="m1.6 32.8q-0.1 1 0 1.9c1.3 1.3 3.5 2.8 6.5 3.3q1 0.2 2 0.2-0.3-0.5-0.5-1.3c-4.4-0.4-6.9-2.8-8-4.1z"/>
					<path id="Layer" class="s7" d="m4.9 43.4q0.5 0.4 1 0.8c3.3-1 5.2-3.8 5.8-4.9q-0.4-0.1-0.7-0.2-0.2-0.1-0.3-0.3c-0.7 1.1-2.6 4-5.8 4.6z"/>
					<path id="Layer" class="s7" d="m15.6 44.8q0.8-0.4 1.4-0.9c-0.2-2.5-1.5-4.1-2.5-5-0.5 0.3-1.1 0.4-1.7 0.5 0.8 0.4 2.9 2.1 2.8 5.4z"/>
					<path id="Layer" class="s7" d="m19.4 34.9q0 0 0 0-0.4-0.4-0.8-0.7c-1.1 0.2-2.1 1-2.8 1.6q0.3 0.4 0.4 0.9c0.8-0.8 2.1-1.8 3.2-1.8z"/>
				</g>
				<path id="Layer" class="s8" d="m32.1 21.1c-1.9-1-8.1-4-11.1-3.9-3.5 0.2-8.3 3.8-11.4 10.6-3.2 6.8-2 12.4 1.3 13 3.4 0.6 5.7-1.1 6.4-3.3 0.7-2.3-2.3-4.2-4.6-2.9 0 0 3.2 0.2 3.5 2.1 0.2 1.7-2.8 3.4-5.2 2.4-2.5-1.1-1.6-7.3 1-11.4 2.5-4.2 6.6-8.2 8.8-8.4 2-0.2 6 2 7.7 3.8l3-1.3q0.3-0.3 0.6-0.7z"/>
				<path id="Layer" class="s8" d="m36.9 13.1c-3.4-0.4-10.6-5.6-14.4-5.6-2.2 0-6.7 2-10.9 5.7 3.7-2.6 8.4-3.9 10.3-3.8 2.3 0.1 9.1 5 13.1 7.1 1.1-1.9 1.9-3.4 1.9-3.4z"/>
				<g id="Layer" style="opacity: .3">
					<path id="Layer" class="s7" d="m19.4 34.9q-0.6-0.7-1.3-1.1c1.8 1.2 3.2 6.4-2.7 9.6-6.4 3.3-11.6-1.3-11.6-1.3 1.1 1.6 2.8 2.8 5 3.4 8.3 2.2 13.9-6.6 10.6-10.6z"/>
				</g>
			</g>
			<g id="Layer">
				<path id="Layer" class="s9" d="m55.9 13.3c3.4-0.5 10.7-5.6 14.5-5.5 3.7 0 13.4 5.5 17.9 15.1 4.6 9.6 3.9 20.9-4.5 23-8.4 2-13.9-6.7-10.5-10.7 3.1-3.7 6.7-0.2 6.7-0.2 0 0-3.2 0.1-3.5 2-0.3 1.7 2.7 3.4 5.1 2.4 2.6-1.1 1.7-7.2-0.8-11.4-2.6-4.1-6.6-8.2-8.8-8.4-2.3-0.3-7.2 2.6-8.3 4.4-1.1 1.7-7.8-10.7-7.8-10.7z"/>
				<g id="Layer" style="opacity: .5">
					<path id="Layer" class="s6" d="m75.1 17.8c1.4-1.3 4.9 2.8 6.8 5.6 1.8 2.7 4.1 7.3 3.5 7.7-0.6 0.4-2.7-2.4-5.3-6.1-2.9-3.9-5.9-6.3-5-7.2z"/>
					<path id="Layer" class="s6" d="m85.7 32.2c-0.9 0.2 0 3.3 0.8 3.2 0.8-0.1 0.1-3.4-0.8-3.2z"/>
				</g>
				<g id="Layer" style="opacity: .3">
					<path id="Layer" class="s7" d="m62.1 10.8c2 1.7 5.5 5.1 6.9 9.4q-0.7 0.3-1.3 0.7c-1.3-4.5-5.2-8-7-9.4q0.7-0.4 1.4-0.7z"/>
					<path id="Layer" class="s7" d="m67 8.6q0.5-0.2 1-0.4c1 1.8 2.5 5.5 2.4 11.5q-0.5 0.2-1.1 0.4c0.2-6.1-1.4-9.9-2.3-11.5z"/>
					<path id="Layer" class="s7" d="m79.9 12.4q0.4 0.3 0.7 0.6c-0.7 2.1-2.4 5.2-6.8 7.3q-0.4-0.3-0.9-0.5c4.9-2.1 6.5-5.4 7-7.4z"/>
					<path id="Layer" class="s7" d="m82.8 15.1q0.7 0.7 1.4 1.5c-0.3 2.7-1.2 7.1-4.8 9.4q-0.4-0.5-0.8-1c3.7-2.4 4.2-7.8 4.2-9.9z"/>
					<path id="Layer" class="s7" d="m88.9 24.3q0.2 0.5 0.4 1c-1 0.7-2.7 1.5-5 1.9q-1.7 0.3-3.9 0.2-0.4-0.5-0.8-1.1c4.8 0.4 7.9-1 9.3-2z"/>
					<path id="Layer" class="s7" d="m90.1 27.5q0.1 0.4 0.2 0.8c-1.1 0.5-2.9 1.2-5 1.5-1.1 0.2-2.3 0.3-3.5 0.2q-0.2-0.4-0.4-0.8c3.6 0.3 7-1 8.7-1.7z"/>
					<path id="Layer" class="s7" d="m91.1 33.2q0 1 0 2c-1.4 1.2-3.5 2.7-6.6 3.2q-0.9 0.2-2 0.2 0.4-0.6 0.5-1.4c4.4-0.3 7-2.7 8.1-4z"/>
					<path id="Layer" class="s7" d="m87.7 43.8q-0.5 0.4-1 0.8c-3.3-1-5.1-3.9-5.7-5q0.3 0 0.6-0.2 0.2-0.1 0.4-0.2c0.6 1.1 2.5 3.9 5.7 4.6z"/>
					<path id="Layer" class="s7" d="m77 45.1q-0.8-0.4-1.4-0.9c0.2-2.5 1.5-4.1 2.5-4.9 0.5 0.2 1.1 0.4 1.7 0.4-0.8 0.5-2.9 2.1-2.8 5.4z"/>
					<path id="Layer" class="s7" d="m73.2 35.2q0.1 0 0.1 0 0.3-0.4 0.7-0.7c1.1 0.2 2.2 1 2.9 1.6q-0.3 0.4-0.4 0.9c-0.8-0.8-2.1-1.8-3.3-1.8z"/>
				</g>
				<path id="Layer" class="s8" d="m76.6 37.9c0.6 1.3 3 2.4 5 1.5 2.6-1.1 1.7-7.2-0.8-11.4q-0.5-0.8-1.1-1.6c3 3 6.2 10.3 3.8 13.1-2.5 2.8-6.3 0-6.9-1.6z"/>
				<path id="Layer" class="s8" d="m88.3 22.9c-4.5-9.6-14.2-15.1-17.9-15.1-1 0-2.3 0.3-3.7 0.9 6.6-1.7 14.6 5.7 19.5 14.4 5.2 9 3.3 21-4.7 21.3-7.9 0.3-8.8-8.1-8.8-8.3-2 4.3 3.3 11.7 11.1 9.8 8.4-2.1 9.1-13.4 4.5-23z"/>
				<path id="Layer" class="s8" d="m63.7 24c1.1-1.8 6-4.7 8.3-4.4 1.5 0.1 3.7 1.9 5.7 4.3-0.2-0.3-3.9-5.7-7.4-5.8-2.1-0.1-7.3 2.7-9.2 3.7 1.2 1.7 2.3 2.8 2.6 2.2z"/>
			</g>
		</g>
		<path id="Layer" class="s10" d="m23.7 36c1.3-8.6 2.7-25.9 4.7-26.2 2-0.3 0.5 5.1 1.9 4.9 1.4-0.3 0.8-9.6 3.4-9.8 2.6-0.1 0.8 5.6 2.8 5.5 2-0.2 1.6-8.7 3.5-9 1.8-0.3 1.4 8 3.2 8.2 1.9 0.1 0.8-9 3.1-9 2.2 0 1.1 8.4 3.1 8.6 1.9 0.1 0.7-7.4 3.1-7.3 2.5 0.2 1 8.2 2.8 8.6 1.9 0.4 1.2-5.9 3.2-5.6 2 0.3 0.7 7.4 2.5 7.9 1.9 0.4 0.9-3.8 2.6-3.8 2.1-0.1 4.8 23.1 5.1 25.9 0.2 2.9-45 1.1-45 1.1z"/>
		<path id="Layer" class="s2" d="m23.7 36c1.3-8.6 2.7-25.9 4.7-26.2 2-0.3 0.5 5.1 1.9 4.9 1.4-0.3 0.8-9.6 3.4-9.8 2.6-0.1 0.8 5.6 2.8 5.5 2-0.2 1.6-8.7 3.5-9 1.8-0.3 1.4 8 3.2 8.2 1.9 0.1 0.8-9 3.1-9 2.2 0 1.1 8.4 3.1 8.6 1.9 0.1 0.7-7.4 3.1-7.3 2.5 0.2 1 8.2 2.8 8.6 1.9 0.4 1.2-5.9 3.2-5.6 2 0.3 0.7 7.4 2.5 7.9 1.9 0.4 0.9-3.8 2.6-3.8 2.1-0.1 4.8 23.1 5.1 25.9 0.2 2.9-45 1.1-45 1.1z"/>
		<path id="Layer" class="s11" d="m65.4 22.5c-4-7.5-10.7-12.2-19.1-11.7-8.6-0.5-14.9 4-19 11.7-4.4 8.2-5.1 26.9-4.8 47.1 0.1 12.9-2.3 58.5 12.3 58.5 9.4 0 8.4-21.6 8.8-22.5 0.4-0.9 5.1-0.6 5.4 0 0.3 0.7-0.7 22.5 8.7 22.5 15.6 0 12.4-48.4 12.5-58.7 0.2-20.2-0.4-38.7-4.8-46.9z"/>
		<path id="Layer" class="s12" d="m40.1 102.8c0.1 6-0.3 11-0.8 14-0.8 5.4-2.5 8.6-4.7 8.4-2.4 0.1-4.3-3.9-5.6-9.4-0.8-2.9-1.5-6.8-1.9-12.6 1.8-2.4 11-2.5 13-0.4z"/>
		<path id="Layer" class="s13" d="m52.6 102.8c-0.2 6 0.2 11 0.8 14 1 5.4 2.4 8.6 4.9 8.4 2.8 0.1 5.2-3.9 6.5-9.4 0.7-2.9 1.4-6.8 1.6-12.6-2.2-2.4-11.6-2.5-13.8-0.4z"/>
		<path id="Layer" class="s14" d="m46.8 45.4c7.3 0 14-1.6 19.3-4.2-0.6-7.5-2.3-13.7-4.2-17.4-3.2-6.7-9.2-10.7-15.6-10.5-6.9-0.2-12.2 3.6-15.6 10.5-1.8 3.6-3.5 9.6-4.1 16.9 5.5 2.9 12.5 4.7 20.2 4.7z"/>
		<path id="Layer" class="s2" d="m49.1 41.6c0.4 6-4.2 11.2-10.3 11.2-6.1 0.1-10.8-5.1-10.5-11.1 0.3-5.6 4.9-9.9 10.3-9.9 5.4 0 10.1 4.2 10.5 9.8z"/>
		<path id="Layer" class="s2" d="m64.1 42.2c0.3 5-3.4 9.2-8.4 9.2-4.9 0.1-8.7-4.2-8.5-9.1 0.2-4.6 4-8.1 8.3-8.1 4.4 0 8.2 3.5 8.6 8z"/>
		<g id="Layer">
			<g id="Layer">
				<path id="Layer" class="s15" d="m33.8 36q-0.1 0-0.2-0.1c-0.1 0-0.1-0.2 0-0.3 1-1.4 1-3.4-0.2-4.6-0.9-1-1.9-1.1-2.6-0.7-0.4 0.3-0.6 0.7-0.4 1.1 0.1 0.3 0.4 0.4 0.5 0.4 0.2 0 0.4-0.1 0.5-0.2 0 0 0-0.1 0-0.3-0.1-0.1-0.1-0.2 0-0.3 0.2 0 0.3 0 0.4 0.1 0.1 0.3 0.1 0.5-0.1 0.7-0.1 0.3-0.5 0.5-0.9 0.4-0.4 0-0.7-0.3-0.8-0.6-0.3-0.6 0-1.3 0.6-1.7 0.8-0.5 2.1-0.4 3.2 0.8 1.3 1.4 1.3 3.6 0.2 5.2q-0.1 0.1-0.2 0.1z"/>
				<path id="Layer" class="s15" d="m31.7 36.7q-0.1 0-0.1 0c-0.1 0-0.2-0.1-0.2-0.2 0.1-1-0.5-2-1.5-2.4-1.1-0.6-1.8-0.2-2.1 0.1-0.5 0.4-0.6 1-0.5 1.3q0.1 0.4 0.5 0.4c0.3 0.1 0.5 0 0.6-0.2q0.1-0.2 0-0.3-0.1 0-0.2 0c-0.1 0.1-0.3 0-0.3-0.1-0.1-0.1 0-0.2 0.1-0.3 0.4-0.1 0.7 0.1 0.7 0.2 0.2 0.1 0.2 0.4 0.1 0.7-0.2 0.3-0.6 0.5-1.1 0.5-0.4-0.1-0.7-0.3-0.8-0.7-0.2-0.6 0-1.4 0.6-1.9 0.7-0.5 1.6-0.6 2.6-0.1 1.1 0.5 1.8 1.7 1.8 2.8 0 0.1-0.1 0.2-0.2 0.2z"/>
			</g>
			<path id="Layer" class="s16" d="m48.1 41.1c0.4 5.4-3.8 10.2-9.3 10.2-5.6 0-9.8-4.7-9.5-10.1 0.2-5.1 4.4-9.1 9.3-9.1 4.9 0 9.1 3.9 9.5 9z"/>
			<path id="Layer" class="s17" d="m47 39.4c0.8 4.2-2.8 8.5-8 8.7-5.9 0.2-9.4-3.9-8.9-7.9 0.6-4 3.4-7.2 7.8-7.5 4.3-0.2 8.4 2.7 9.1 6.7z"/>
			<path id="Layer" class="s6" d="m43.6 38.5c-0.7-1.3-0.8-2.6-0.3-2.9 0.5-0.2 1.5 0.7 2.2 2 0.7 1.4 0.9 2.8 0.3 3-0.5 0.3-1.5-0.7-2.2-2.1z"/>
			<path id="Layer" class="s18" d="m42.8 42.4c0 2.3-1.9 4.1-4.1 4.1-2.2-0.1-4-2-3.9-4.2 0-2.3 1.8-4.1 4.1-4.1 2.2 0.1 4 2 3.9 4.2z"/>
			<path id="Layer" class="s6" d="m39.6 38.7c-0.8 1.1-0.9 2.4-0.1 3.3 0.8 0.7 2 0.8 3.1 0.2-0.5-2.1-1.5-3.1-3-3.5z"/>
			<path id="Layer" fill-rule="evenodd" class="s19" d="m43 42.4c0 2.4-2 4.3-4.3 4.3-2.3-0.1-4.2-2.1-4.1-4.4 0-2.4 1.9-4.3 4.3-4.3 2.3 0.1 4.1 2.1 4.1 4.4zm-0.6 0c0-2-1.6-3.7-3.5-3.7-2 0-3.6 1.6-3.7 3.6 0 2 1.5 3.7 3.5 3.7 2 0 3.6-1.6 3.7-3.6z"/>
		</g>
		<g id="Layer">
			<g id="Layer">
				<path id="Layer" class="s15" d="m59.2 38.5q-0.1 0-0.2 0c-1.2-1.6-1.2-3.8 0-5.3 1.1-1.2 2.4-1.2 3.2-0.8 0.6 0.4 0.9 1 0.7 1.6-0.2 0.4-0.5 0.7-0.9 0.7-0.4 0.1-0.7-0.1-0.9-0.3-0.1-0.2-0.2-0.5 0-0.8 0-0.1 0.2-0.1 0.3-0.1 0.1 0.1 0.1 0.2 0.1 0.3-0.1 0.2 0 0.3 0 0.3 0.1 0.1 0.3 0.2 0.5 0.2 0.1 0 0.3-0.1 0.5-0.4 0.1-0.4-0.1-0.8-0.5-1.1-0.7-0.4-1.7-0.3-2.6 0.7-1.1 1.3-1.1 3.3 0 4.7 0 0.1 0 0.2-0.1 0.3q-0.1 0-0.1 0z"/>
				<path id="Layer" class="s15" d="m61.3 39.2c-0.1 0-0.2 0-0.2-0.2-0.1-1.1 0.6-2.3 1.7-2.9 1-0.5 1.9-0.4 2.6 0.2 0.6 0.4 0.9 1.2 0.7 1.8-0.1 0.4-0.4 0.6-0.9 0.7-0.4 0.1-0.9-0.1-1-0.5-0.2-0.2-0.2-0.5 0-0.7 0.1-0.1 0.3-0.3 0.7-0.1 0.1 0 0.2 0.1 0.2 0.2-0.1 0.2-0.2 0.2-0.3 0.2q-0.2-0.1-0.3 0 0 0.1 0.1 0.2c0.1 0.2 0.3 0.3 0.6 0.2q0.3 0 0.4-0.3c0.2-0.4 0-1-0.5-1.4-0.3-0.3-1-0.6-2.1 0-0.9 0.4-1.5 1.4-1.5 2.4 0 0.1 0 0.2-0.2 0.2q0 0 0 0z"/>
			</g>
			<path id="Layer" class="s20" d="m63.3 41.9c0.3 4.4-3 8.3-7.6 8.4-4.5 0-8-3.9-7.7-8.4 0.2-4.1 3.6-7.3 7.5-7.3 4-0.1 7.5 3.1 7.8 7.3z"/>
			<path id="Layer" class="s17" d="m62.6 40.1c0.6 3.3-2.2 7.4-6.6 7.6-4.4 0.2-8-3-7.2-7.2 0.6-2.7 2.8-5.2 6.4-5.4 3.5-0.2 6.8 2 7.4 5z"/>
			<path id="Layer" class="s6" d="m59.9 39.6c-0.6-1.2-0.7-2.3-0.3-2.5 0.4-0.3 1.2 0.5 1.7 1.6 0.6 1.2 0.8 2.3 0.4 2.6-0.4 0.2-1.3-0.5-1.8-1.7z"/>
			<path id="Layer" class="s21" d="m59 42.6c0 2-1.6 3.6-3.5 3.6-1.8 0-3.3-1.7-3.3-3.7 0-2 1.6-3.6 3.5-3.6 1.9 0 3.4 1.7 3.3 3.7z"/>
			<path id="Layer" class="s6" d="m56.3 39.3c-0.7 1-0.8 2.2-0.1 2.9 0.7 0.7 1.7 0.7 2.6 0.2-0.3-1.9-1.3-2.7-2.5-3.1z"/>
			<path id="Layer" fill-rule="evenodd" class="s22" d="m59.2 42.6c-0.1 2.1-1.7 3.8-3.7 3.8-1.9-0.1-3.5-1.8-3.5-3.9 0.1-2.1 1.7-3.8 3.7-3.8 2 0.1 3.5 1.8 3.5 3.9zm-0.6 0c0.1-1.8-1.3-3.3-2.9-3.3-1.7 0-3.1 1.4-3.1 3.2-0.1 1.8 1.3 3.3 2.9 3.3 1.7 0 3.1-1.4 3.1-3.2z"/>
		</g>
		<g id="Layer">
			<path id="Layer" class="s23" d="m29.1 57.9c-2.9 2.4-3.7 17.9 16.9 18.7 20.6 0.8 21.5-16.4 19-19-4.4-4.5-12.2 1.5-18.4 1.5-6.1 0-12.8-5.1-17.5-1.2z"/>
			<path id="Layer" class="s24" d="m29.1 55.8c-2.9 2.4-3.7 17.9 16.9 18.7 20.6 0.8 21.5-16.4 19-19-4.4-4.6-12.2 1.4-18.4 1.4-6.1 0-12.8-5-17.5-1.1z"/>
			<path id="Layer" class="s25" d="m29.1 56.7c-2.9 2.4-3.7 17.8 16.9 18.6 20.6 0.8 21.5-16.4 19-18.9-4.4-4.6-12.2 1.4-18.4 1.4-6.1 0-12.8-5-17.5-1.1z"/>
			<path id="Layer" class="s26" d="m46 75.3c4.9 0.2 8.7-0.6 11.6-2-0.3-2.2-2.2-6.6-5.3-7.3-3.5-0.8-5.2 1.2-6.3 1.1-1.2 0-2.4-2-5.8-1.5-3.2 0.4-5.2 4.5-5.8 6.9 2.7 1.5 6.5 2.6 11.6 2.8z"/>
			<path id="Layer" class="s27" d="m53.1 66.3c1 0.7 1.5 1.6 1.5 2.6 0 2.5-3.9 4.5-8.7 4.5-4.9 0-8.8-2-8.8-4.5 0-1.3 1-2.4 2.5-3.2-2.8 0.8-4.6 4.5-5.2 6.8 2.7 1.5 6.5 2.6 11.6 2.8 4.9 0.2 8.7-0.6 11.6-2-0.3-2-1.9-5.8-4.5-7z"/>
			<path id="Layer" class="s23" d="m50.7 68.3c-1.1 0.3-2.1 0.1-2.2-0.4-0.1-0.5 0.7-1.1 1.8-1.5 1.1-0.3 2.1-0.1 2.2 0.4 0.1 0.5-0.7 1.2-1.8 1.5z"/>
			<path id="Layer" class="s23" d="m40.5 67.9c-0.9 0.2-1.7 0-1.8-0.5-0.1-0.5 0.6-1.1 1.5-1.3 0.9-0.2 1.7 0.1 1.8 0.6 0.1 0.5-0.6 1-1.5 1.2z"/>
			<g id="Layer">
				<path id="Layer" class="s28" d="m33.5 59.5c2.7-0.1 3.2-2.7 3.4-3.8-2.3-0.6-4.5-0.8-6.4 0.1 0.2 1.5 0.9 3.8 3 3.7z"/>
				<path id="Layer" class="s28" d="m41.6 62.6c3.6 0.1 4.1-3.4 4.2-4.8-2.6-0.2-5.2-1.1-7.7-1.8-0.2 1.6-0.4 6.4 3.5 6.6z"/>
				<path id="Layer" class="s28" d="m58.6 60.2c3.1-0.2 3.1-4.1 3-5.5-1.9-0.2-4.1 0.4-6.4 1.1 0.1 1.3 0.7 4.6 3.4 4.4z"/>
				<path id="Layer" class="s28" d="m51.2 62.6c3.9-0.2 3.6-5.2 3.5-6.7-2.6 0.9-5.3 1.8-7.7 1.9 0 1.5 0.6 4.9 4.2 4.8z"/>
				<path id="Layer" class="s28" d="m34.1 66.5c-2.6-0.5-3.2 2.1-3.4 3.1 1.3 1.4 3.1 2.7 5.5 3.7 0.1-1.4 0.6-6.4-2.1-6.8z"/>
				<path id="Layer" class="s28" d="m41.2 69.6c-3.5-0.3-3.9 3.5-3.9 4.2 2.1 0.7 4.5 1.2 7.5 1.4 0-0.7 0-5.3-3.6-5.6z"/>
				<path id="Layer" class="s28" d="m58.4 66.6c-3 0.5-2.1 6.6-2 7.2 2.2-0.9 4-2.1 5.3-3.4q0.1-0.1 0.1-0.2c0 0-0.2-4.1-3.4-3.6z"/>
				<path id="Layer" class="s28" d="m50.4 69.6c-3.7 0.3-3.5 5.4-3.5 5.7 2.9 0.1 5.4-0.2 7.5-0.8 0-0.1-0.1-5.3-4-4.9z"/>
			</g>
			<path id="Layer" class="s27" d="m51 65.9c-2.7-0.2-4 1.3-5 1.2-1.1 0-2.2-1.6-4.8-1.6 4.2 0.7 4.1 4.1 5 4.3 0.6 0.1 1.1-3.5 4.8-3.9z"/>
		</g>
		<g id="Layer">
			<path id="Layer" class="s29" d="m32.6 27.9c-0.8-1.8 5.5-7 7.5-4.2 1.8 2.6-6.1 7.3-7.5 4.2z"/>
			<path id="Layer" class="s30" d="m32.6 26.7c-0.8-1.8 5.5-6.9 7.5-4.1 1.8 2.5-6.1 7.3-7.5 4.1z"/>
			<path id="Layer" class="s17" d="m33.3 26.4c-0.7-1.4 4.6-5.8 6-3.5 0.7 1.1-5.3 4.8-6 3.5z"/>
		</g>
		<g id="Layer">
			<path id="Layer" class="s29" d="m61.2 29.2c0.8-1.9-5.3-6.5-7.2-3.6-1.8 2.8 5.8 6.8 7.2 3.6z"/>
			<path id="Layer" class="s30" d="m61.2 28c0.8-1.8-5.3-6.5-7.2-3.5-1.8 2.7 5.8 6.8 7.2 3.5z"/>
			<path id="Layer" class="s17" d="m60.5 27.7c0.7-1.4-4.4-5.3-5.8-3-0.7 1.3 5.2 4.5 5.8 3z"/>
		</g>
		<path id="Layer" fill-rule="evenodd" class="s2" d="m70.2 69.4c-0.1 10.3 3.1 58.7-12.5 58.7-9.3 0-8.4-21.8-8.7-22.5-0.3-0.6-5-0.9-5.4 0-0.4 0.9 0.6 22.5-8.8 22.5-14.6 0-12.2-45.6-12.3-58.5-0.3-20.2 0.4-38.9 4.8-47.1 4.1-7.7 10.4-12.2 19-11.7 8.4-0.5 15.1 4.2 19.1 11.7 4.4 8.2 5 26.7 4.8 46.9zm-6.8-45.8c-4.4-8.3-9.9-11.1-17.2-11.4-7.7-0.4-13.2 4.4-16.9 11.4-4.1 7.5-5 25.4-4.7 46 0.1 10.9-1.5 56.7 10.4 56.7 5.2 0 5.7-10.8 6.1-19.5 0.1-1.3 0.2-1.7 0.4-2.1 0.8-1.8 3-2 4.5-2 4.2 0 4.8 1.4 5 2 0.2 0.4 0.4 0.7 0.4 1.7 0.3 11.4 1.5 19.9 6.3 19.9 11.2 0 10.1-26.3 10.4-57 0.2-20.5-0.7-38.2-4.7-45.7z"/>
		<g id="Layer">
			<path id="Layer" class="s2" d="m70.3 76.8l-0.1-0.2-4.5 9.3-4-6-3.1 2.7-4.2-4.7-4.5 7.5-4-4.8-2.7 2.6-4.5-5.5-5.9 8.2-4.8-7.4-2.3 2.1-3.2-7.3c0 2-0.1 4.2-0.1 6.6l3.5 6.5 2.4-3.8 5 6.5 5.4-5.4 4 4.7 3.6-4.5 3.8 4.5 4.3-5.1 3.9 4.7 3.4-4.7 4 5.8 4.5-7.5 0.2 0.2q-0.1-2.7-0.1-5z"/>
			<path id="Layer" class="s3" d="m70.2 88.1l-3.7 7.1-2.1-2.3-5.9 6.9-5.4-7.6-4.2 4.5-2.6-2.8-4.2 4.6-4.2-7.8-4.4 4.5-2.9-2.9-4.4 5.7-3.7-8.9q0 2.3 0.1 4.6l3.4 6.4 4.3-5.6 3.1 4.9 4.2-4.4 4 5.3 4.1-4.3 3.4 4.8 4.2-4.5 4.7 6 5.8-6.4 2.2 3.9 4.1-6.7 0.2 0.1q0-2.5 0.1-4.8z"/>
			<path id="Layer" class="s31" d="m68.5 111.3l-4.2-7.7-4.4 4.4-3-2.9-4.3 5.8c0 0-3.7-5.5-3.6-5.3 0 0.2 0 1.7 0.1 3.9l3.3 3.5 4.3-5.6 3.1 4.9 4.2-4.5 4 5.4 0.4-0.4q0.1-0.8 0.3-1.7z"/>
			<path id="Layer" class="s31" d="m43.3 107.6l-2.2-2.3-5.8 7-5.4-7.7-4.3 4.5-2-2.2q0.2 2 0.5 3.9l1.7 2.4 4.3-4.5 4.7 6 5.8-6.4 2.2 3.9 0.5-0.6c0.1-1.6 0.1-3 0.2-4z"/>
			<path id="Layer" class="s31" d="m65.7 121.7l-3.8-5.2-4.2 4.4-2.5-2.7-3.9 4.1q0.2 0.5 0.4 1l2.8-3 3.4 4.7 4.3-4.4 2.4 3q0.6-0.9 1.1-1.9z"/>
			<path id="Layer" class="s31" d="m39.4 116.5l-4.4 5.8-4.2-6.5-3.4 6.4q0.1 0.2 0.2 0.5l2.8-3.1 4.4 4.8 4.4-5.6 2.1 3.3q0.5-1.4 0.9-2.9z"/>
		</g>
	</g>
</svg>