<svg version="1.2" xmlns="http://www.w3.org/2000/svg" viewBox="0 0 507 655" width="507" height="655">
	<title>monster--all2-svg</title>
	<style>
		.s0 { fill: #ed7000 } 
		.s1 { fill: #fc8104 } 
		.s2 { fill: #ffffff } 
		.s3 { fill: #249fbe } 
		.s4 { fill: #032d38 } 
		.s5 { fill: #600100 } 
		.s6 { fill: #a32440 } 
		.s7 { fill: #fffa9c } 
		.s8 { fill: #d72d32 } 
		.s9 { fill: #ff6675 } 
		.s10 { fill: #590801 } 
		.s11 { fill: #c43a33 } 
		.s12 { fill: #c94343 } 
	</style>
	<g id="Object">
		<g id="Layer">
			<g id="Layer">
				<g id="Layer">
					<g id="Layer">
						<path id="Layer" class="s0" d="m178.3 643.8c-28.5-1.1-56.9 3.9-81.4 9.5-23.9 5.4-20.2-8.2-20-8.9q0 0 0 0c0 0-2.6 0.6-5.9 0.6-4.7 0-10.6-1.5-12-8.4-2.2-11.7 27.5-45.5 27.5-45.5-3.6-14.6-5.9-30.6-7.5-45.9-3.7-37.2-2.5-70.4-2.5-70.4l118.4-8.7c0 0-4.4 70.2-2.7 106.4 0.3 7.2 1.7 16.5 2.8 25.9 2.6 22.6 3.3 46.2-16.7 45.4z"/>
						<g id="Layer">
							<path id="Layer" class="s0" d="m76.9 644.4c0 0-2.6 0.6-5.9 0.6 3.9-18.8 21.2-28.7 21.7-29-16.8 13.7-15.8 28.4-15.8 28.4z"/>
						</g>
					</g>
					<g id="Layer" style="opacity: .7">
						<path id="Layer" class="s0" d="m192.2 572.5c0.3 7.2 1.7 16.5 2.8 25.9q-3.8-1.8-7.5-4v8.9c0 0-17.3-3.9-34.5-16.7l1.4 13.1c0 0-20.4 0-36-30.7l-2.2 9.8c0 0-14.5-0.6-27.3-36.5l-5 8.9c0 0-2.1-1.9-4.9-6-3.7-37.2-2.5-70.4-2.5-70.4l118.4-8.7c0 0-4.4 70.2-2.7 106.4z"/>
					</g>
				</g>
				<g id="Layer">
					<g id="Layer">
						<path id="Layer" class="s0" d="m384.1 636.6c-1.3 6.9-7.3 8.4-12 8.4-3.3 0-5.9-0.6-5.9-0.6q0 0 0.1 0c0.1 0.7 3.8 14.3-20.1 8.9-24.5-5.6-52.9-10.6-81.3-9.5-21.1 0.9-19.2-25-16.4-48.5 1-8.3 2.1-16.3 2.4-22.8 1.7-36.2-2.7-106.4-2.7-106.4l118.4 8.7c0 0 0.7 18.8-0.6 44-1.1 22-3.6 48.9-9.3 72.3 0 0 29.6 33.8 27.4 45.5z"/>
						<g id="Layer">
							<path id="Layer" class="s0" d="m366.2 644.4c0 0 2.7 0.6 5.9 0.6-3.9-18.8-21.2-28.7-21.7-29 16.8 13.7 15.8 28.4 15.8 28.4z"/>
						</g>
					</g>
					<g id="Layer" style="opacity: .7">
						<path id="Layer" class="s0" d="m366 518.8l-1.9-3c0 0-0.5 31.2-19.5 46.8l-5-18.4c0 0 0.5 28.5-16.7 34.6l-0.6-19c0 0-12.2 28.5-31.7 31.8l-5-11.7c0 0-12.6 13.3-37.1 15.4 1-8.3 2.1-16.3 2.4-22.8 1.7-36.2-2.7-106.4-2.7-106.4l118.4 8.7c0 0 0.7 18.8-0.6 44z"/>
					</g>
				</g>
				<g id="Layer">
					<g id="Layer">
						<path id="Layer" class="s1" d="m432.7 57.6c-26.1-5.5-51.7 9.9-59.4 34.8-0.7 2.2-2.3 3.9-4.5 4.6-4.2 1.3-8.5 2.9-12.9 5-37.5 17.7-64.8 58.9-81.1 122.5l21.3 5.5c14.6-56.8 37.7-93.1 68.9-108q0.1 0 0.1 0c3.6-1.8 7.8 0.1 9.2 3.8 6.1 15.9 19.9 28.4 37.8 32 28.3 5.6 55.9-13.3 60.5-42.1 4.3-26.7-13.4-52.5-39.9-58.1z"/>
						<g id="Layer" style="opacity: .7">
							<path id="Layer" class="s1" d="m412.1 157.8c-17.9-3.6-31.7-16.1-37.8-32-1.4-3.7-5.6-5.5-9.2-3.9q0 0.1-0.1 0.1c-31.2 14.9-54.4 51.2-68.9 108l-21.3-5.5q0.7-2.6 1.4-5.2l19.9 5.1c14.5-56.8 37.7-93.1 68.9-108q0.1 0 0.1-0.1c3.6-1.7 7.8 0.2 9.2 3.9 6.1 15.9 19.9 28.4 37.8 32 28.3 5.6 55.9-13.3 60.5-42.1q0.4-2.6 0.6-5.2 0.3 5.3-0.6 10.8c-4.6 28.8-32.2 47.7-60.5 42.1z"/>
						</g>
						<g id="Layer">
							<path id="Layer" class="s1" d="m470.1 90.1c-6.6-14.2-19.6-25.4-35.9-28.8-26.1-5.6-51.7 9.9-59.4 34.8-0.7 2.2-2.3 3.9-4.5 4.5q-6.3 2-12.8 5c-37 17.5-64 57.7-80.4 119.5l-2.3-0.6c16.3-63.6 43.6-104.8 81.1-122.5q6.6-3.1 12.9-5c2.2-0.7 3.8-2.4 4.5-4.6 7.7-24.9 33.3-40.3 59.4-34.8 17.7 3.7 31.5 16.5 37.4 32.5z"/>
						</g>
						<path id="Layer" class="s2" d="m452.1 137.6c-16.6 16.6-43.4 16.6-60 0-16.6-16.6-16.6-43.4 0-59.9 16.6-16.6 43.4-16.6 60 0 16.5 16.5 16.5 43.3 0 59.9z"/>
						<path id="Layer" class="s3" d="m429.3 133c-12 3.6-24.6-3.3-28.2-15.3-3.5-12 3.3-24.6 15.3-28.2 12-3.6 24.6 3.3 28.2 15.3 3.6 12-3.3 24.6-15.3 28.2z"/>
						<path id="Layer" class="s4" d="m434.1 113.5c-1.2 6.2-7.2 10.3-13.4 9-6.2-1.2-10.3-7.2-9-13.4 1.2-6.2 7.2-10.3 13.4-9 6.2 1.2 10.3 7.2 9 13.4z"/>
						<path id="Layer" class="s2" d="m422.5 102.7c-0.7 3.1-3.7 5.1-6.7 4.5-3.1-0.7-5.1-3.7-4.5-6.7 0.6-3.1 3.6-5.1 6.7-4.5 3.1 0.6 5.1 3.6 4.5 6.7z"/>
					</g>
					<g id="Layer">
						<path id="Layer" class="s1" d="m197.5 5.3c24.6 10.3 36.9 37.5 29.1 62.4-0.7 2.2-0.3 4.5 1.1 6.3 2.7 3.5 5.3 7.2 7.7 11.4 20.8 35.9 19.9 85.3-2.9 146.9l-20.6-7.6c20.3-55 21.9-98 4.7-128q0 0-0.1-0.1c-1.9-3.4-6.5-4.3-9.7-2-14 9.6-32.5 12-49.3 4.8-26.5-11.5-38.4-42.7-25.8-69 11.6-24.4 40.8-35.6 65.8-25.1z"/>
						<g id="Layer" style="opacity: .7">
							<path id="Layer" class="s1" d="m157.5 99.4c16.8 7.2 35.3 4.8 49.3-4.8 3.2-2.3 7.8-1.4 9.7 2q0.1 0.1 0.1 0.1c17.2 30 15.6 73-4.7 128l20.6 7.6q1-2.5 1.9-5.1l-19.3-7.1c20.3-55 21.9-98 4.7-128q0 0-0.1-0.1c-2-3.4-6.5-4.3-9.7-2-14 9.6-32.6 12-49.3 4.8-26.5-11.5-38.4-42.7-25.9-69q1.2-2.4 2.5-4.6-3.3 4.2-5.6 9.2c-12.6 26.3-0.7 57.5 25.8 69z"/>
						</g>
						<g id="Layer">
							<path id="Layer" class="s1" d="m148.2 10.8c13.5-8 30.5-9.8 46-3.4 24.6 10.3 36.8 37.6 29 62.5-0.6 2.1-0.2 4.5 1.2 6.2q4.1 5.2 7.7 11.4c20.5 35.4 19.9 83.8-1.8 144l2.2 0.8c22.8-61.6 23.8-111 2.9-146.9q-3.6-6.2-7.7-11.4c-1.4-1.8-1.8-4.1-1.1-6.3 7.8-24.9-4.5-52.1-29.1-62.4-16.7-7-35.3-4.3-49.3 5.5z"/>
						</g>
						<path id="Layer" class="s2" d="m214.1 74c-12 20.2-37.9 26.8-58.1 14.8-20.1-12-26.7-38-14.7-58.1 11.9-20.2 37.9-26.8 58.1-14.8 20.1 12 26.7 38 14.7 58.1z"/>
						<path id="Layer" class="s3" d="m197.6 57.5c-1.4 12.4-12.6 21.4-25.1 20-12.4-1.3-21.4-12.5-20-25 1.3-12.5 12.5-21.4 25-20 12.5 1.3 21.4 12.5 20.1 25z"/>
						<path id="Layer" class="s4" d="m164.5 50.5c-2.5 5.8 0.2 12.5 6 15 5.8 2.5 12.5-0.1 15-6 2.5-5.8-0.1-12.5-5.9-15-5.8-2.5-12.6 0.2-15.1 6z"/>
						<path id="Layer" class="s2" d="m180.3 48.2c-1.3 2.9 0.1 6.2 3 7.5 2.9 1.2 6.2-0.1 7.5-3 1.2-2.9-0.1-6.2-3-7.5-2.9-1.2-6.3 0.1-7.5 3z"/>
					</g>
				</g>
				<g id="Layer">
					<path id="Layer" class="s1" d="m147.4 316c-0.4 23.8-8.6 48.7-45.1 33-63.1-27.1-63.1-110.3-63.1-110.3-27.5-3.7-22.7-31.9-22.7-31.9 0 0-16-23-11.1-30.1 7.1-10.4 18.5 0.7 18.5 0.7 0 0-4.1-21.9 6.7-22.6 10.8-0.8 16.4 14.5 16.4 14.5 0 0 2.6-22.7 13.3-22.3 10.8 0.4 16.7 26.4 16.7 26.4q0 0 0.1-0.1c0.9-0.4 23.8-12.3 28.2 1.9 6.7 21.7-17.1 43.5-17.1 43.5 18.6 46 55.7 63.1 55.7 63.1 0 0 0.3 1.3 0.7 3.6 1.1 5.8 3.1 18.1 2.8 30.6z"/>
					<g id="Layer">
						<path id="Layer" class="s1" d="m147.4 316c-0.4 23.8-8.6 48.7-45.1 33-63.1-27.1-63.1-110.3-63.1-110.3-27.5-3.7-22.7-31.9-22.7-31.9 0 0-16-23-11.1-30.1 0 0 0 13.7 16.7 26.4 0 0-1.9 27.5 24.1 29.7 0 0 1.1 73.9 82.8 81 7 0.5 13.1 1.3 18.4 2.2z"/>
					</g>
					<g id="Layer">
						<path id="Layer" class="s1" d="m63.7 176.7c0 0-26.8 3.3-41.6 26.4l-5.8-0.8c0 0 12.5-24.5 47.4-25.6z"/>
					</g>
					<g id="Layer">
						<path id="Layer" class="s1" d="m144.6 285.4c-0.7-0.2-28.3-8.4-43.7-34.9-15.1-26.3-26.6-24.9-27.2-24.8 0.8-0.6 25.1-21.8 27.1-40.5 2-18.5-22.7-12.1-23.7-11.9 0.9-0.4 23.8-12.3 28.2 1.9 6.7 21.7-17.1 43.5-17.1 43.5 18.6 46 55.7 63.1 55.7 63.1 0 0 0.3 1.3 0.7 3.6z"/>
					</g>
				</g>
				<g id="Layer">
					<g id="Layer">
						<path id="Layer" class="s1" d="m500 483.5c-7.1 10.4-18.5-0.8-18.5-0.8 0 0 4 22-6.7 22.7-10.8 0.7-16.4-14.5-16.4-14.5 0 0-2.6 22.7-13.3 22.3-10.8-0.4-16.8-26.4-16.8-26.4q0 0 0 0c-0.9 0.5-23.8 12.4-28.2-1.8-6.7-21.8 17.1-43.5 17.1-43.5-18.6-46-55.7-63.1-55.7-63.1 0 0-0.3-1.3-0.7-3.6-1.1-5.8-3.1-18.1-2.8-30.6 0-3.9 0.3-7.7 0.9-11.5 1.9-12.6 7.1-23.5 19-25.9 6.3-1.3 14.6-0.2 25.2 4.3 63.1 27.2 63.1 110.4 63.1 110.4 27.5 3.7 22.7 31.9 22.7 31.9 0 0 16 23 11.1 30.1z"/>
					</g>
					<g id="Layer">
						<path id="Layer" class="s1" d="m500 483.5c0 0-2.7-15.6-15.8-29.6 0 0 6.7-23.4-20.8-29 0 0 8.5-88.7-85.5-118.1 6.3-1.3 14.6-0.2 25.2 4.3 63.1 27.2 63.1 110.4 63.1 110.4 27.5 3.7 22.7 31.9 22.7 31.9 0 0 16 23 11.1 30.1z"/>
					</g>
					<g id="Layer">
						<path id="Layer" class="s1" d="m429.4 444.3c0 0-25.7 10.1-29.3 40.7-6.7-21.8 17.1-43.5 17.1-43.5-18.6-46-55.7-63.1-55.7-63.1 0 0-0.3-1.3-0.7-3.6-1.1-5.8-3.1-18.1-2.8-30.6 0-3.9 0.3-7.7 0.9-11.5 17 16.4 56.3 58.6 70.5 111.6z"/>
					</g>
				</g>
				<g id="Layer">
					<path id="Layer" class="s1" d="m92.6 322.6l-1.4 0.2c0 0 0.4-0.7 1.3-1.9l2.9-0.3q-1.4 1-2.8 2z"/>
				</g>
				<g id="Layer">
					<path id="Layer" class="s1" d="m259.8 150.7c61.1 5.1 127 55.7 134.8 84.7h-15.6c0 0 20.6 15 25.6 37.3h-18.4c0 0 22.9 20.6 23.4 37.9l-11.7-2.8c0 0 11.7 31.2 11.7 57.9l-19.5-6.1c0 0 16.2 25.6 16.8 50.2l-14.5-5.1c0 0 7.8 21.2 7.2 44.1l-15-5.6c0 0 1.6 25.6-9.5 44l-7.8-12.3c0 0-0.6 31.2-19.5 46.8l-5-18.3c0 0 0.5 28.4-16.7 34.5l-0.6-18.9c0 0-12.2 28.4-31.7 31.7l-5.1-11.7c0 0-19.4 20.6-57.3 14.5l7.8 11.7c0 0-25.7 2.2-48.5-11.7v8.9c0 0-17.3-3.9-34.5-16.7l1.3 13.1c0 0-20.3 0-35.9-30.7l-2.2 9.8c0 0-14.5-0.6-27.3-36.5l-5 8.9c0 0-12.8-11.4-15.9-38.4l-7 3.9c0 0-6.1-22 0-41.2l-6.9 1.9c0 0-5.3-19.5 3.3-37.9l-7.8 3.1c0 0 3.6-24.3 13.9-36.8l-5.5-1.4c0 0 9.7-26.4 34.2-42.9l-14.6 1.3c0 0 10.4-15.6 28.2-26l-9.3-2.6c0 0 21.9-19.7 27.1-27.8l-11.9-1.9c0 0 13.4-25.2 29.7-33h-12.2c0 0 18.6-12.3 31.2-32l-12.6 2.6c0 0 14.6-25.5 39.7-36 25.6-10.8 48.1-16.2 69.1-14.5z"/>
					<g id="Layer">
						<path id="Layer" class="s1" d="m106.8 321.4c-26.1 17.4-36.4 45.5-36.4 45.5l5.9 1.5c-11 13.3-14.8 39.1-14.8 39.1l8.3-3.3c-9.2 19.5-3.6 40.2-3.6 40.2l7.4-2c-3.2 10.2-3.2 21.1-2.4 29.5l-7 3.9c0 0-6.1-22 0-41.2l-6.9 1.9c0 0-5.3-19.5 3.3-37.9l-7.8 3.1c0 0 3.6-24.3 13.9-36.8l-5.5-1.4c0 0 8.9-24.4 31.4-40.9z"/>
					</g>
					<g id="Layer">
						<path id="Layer" class="s1" d="m165.7 194.6l13.4-2.8c-13.4 20.9-33.1 33.9-33.1 33.9h13c-17.3 8.3-31.5 35.1-31.5 35.1l12.6 2c-5.5 8.7-28.8 29.6-28.8 29.6l9.9 2.8c-15.1 8.7-25.2 21-28.7 25.7l-11.7 1c0 0 10.4-15.6 28.2-26l-9.3-2.6c0 0 21.9-19.7 27.1-27.8l-11.9-1.9c0 0 13.4-25.2 29.7-33h-12.2c0 0 18.6-12.3 31.2-32l-12.6 2.6c0 0 14.6-25.5 39.7-36q2.2-0.9 4.3-1.8c-18.7 12.8-29.3 31.2-29.3 31.2z"/>
					</g>
					<g id="Layer" style="opacity: .7">
						<path id="Layer" class="s1" d="m409.6 365.8l-19.5-6.2c0 0 16.2 25.6 16.8 50.2l-14.5-5c0.2 0.6 7.8 21.5 7.2 44l-15-5.6c0 0 1.6 25.6-9.5 44l-7.8-12.3c0 0-0.5 31.2-19.5 46.8l-5-18.3c0 0 0.5 28.4-16.7 34.5l-0.6-18.9c0 0-12.2 28.4-31.7 31.7l-5.1-11.7c0 0-19.5 20.6-57.3 14.5l7.8 11.7c0 0-25.7 2.2-48.5-11.7v8.9c0 0-17.3-3.9-34.5-16.7l1.3 13.1c0 0-20.3 0-35.9-30.6l-2.2 9.7c0 0-14.5-0.6-27.3-36.5l-5 8.9c0 0-12.8-11.4-15.9-38.4l-7 3.9c0 0-4-14.4-2.3-30.1 3.6 21.7 14.1 31 14.1 31l4.6-8.2c11.8 33.1 25.1 33.6 25.1 33.6l2.1-9c14.4 28.3 33.1 28.3 33.1 28.3l-1.3-12.1c15.9 11.8 31.8 15.4 31.8 15.4v-8.2c21.1 12.8 44.7 10.8 44.7 10.8l-7.2-10.8c34.9 5.6 52.9-13.4 52.9-13.4l4.6 10.8c18-3.1 29.3-29.2 29.3-29.2l0.5 17.4c15.9-5.6 15.4-31.8 15.4-31.8l4.6 16.9c17.5-14.4 18-43.1 18-43.1l7.2 11.3c10.2-17 8.7-40.6 8.7-40.6l13.9 5.2c0.5-20.8-6.5-40-6.7-40.6l13.3 4.6c-0.5-22.6-15.4-46.2-15.4-46.2l18 5.7c0-24.7-10.8-53.4-10.8-53.4l10.8 2.5c-0.5-15.9-21.6-34.9-21.6-34.9h17c-4.6-20.5-23.6-34.4-23.6-34.4h14.3c-5.9-22-48.5-57.8-94.9-72.1 59.8 7.1 122.6 55.9 130.2 84.2h-15.6c0 0 20.6 15 25.6 37.3h-18.4c0 0 22.9 20.6 23.4 37.9l-11.7-2.8c0 0 11.7 31.2 11.7 58z"/>
					</g>
				</g>
				<g id="Layer">
					<g id="Layer">
						<g id="Layer">
							<path id="Layer" class="s1" d="m255.1 341.9c-36 8.5-71.9-13.7-80.5-49.7-8.5-36 13.8-72 49.8-80.5 36-8.5 72 13.7 80.5 49.7 8.5 36.1-13.7 72-49.8 80.5z"/>
						</g>
						<path id="Layer" class="s2" d="m280.1 317.3c-26.2 26.2-68.5 26.2-94.6 0-26.2-26.2-26.2-68.5 0-94.6 26.1-26.2 68.4-26.2 94.6 0 26.2 26.1 26.2 68.4 0 94.6z"/>
						<path id="Layer" class="s3" d="m238.6 310.1c-19.3 4.5-38.5-7.4-43.1-26.7-4.5-19.2 7.4-38.5 26.6-43 19.3-4.6 38.6 7.3 43.1 26.6 4.6 19.3-7.3 38.5-26.6 43.1z"/>
						<path id="Layer" class="s4" d="m234.5 292.8c-9.7 2.3-19.4-3.7-21.7-13.4-2.3-9.7 3.7-19.5 13.4-21.8 9.7-2.3 19.5 3.7 21.7 13.5 2.3 9.7-3.7 19.4-13.4 21.7z"/>
						<path id="Layer" class="s2" d="m242.8 271.2c-5 0-9-4-9-9 0-5 4-9 9-9 5 0 9 4 9 9 0 5-4 9-9 9z"/>
					</g>
					<g id="Layer">
						<path id="Layer" class="s5" d="m263.4 387.8c-3.5 17-13.5 30.9-27.1 39.9-9.8 6.5-21.6 10.4-33.9 10.8-5.1 0.2-10.3-0.2-15.6-1.3-5.2-1.1-10.2-2.7-14.9-4.9-11.2-5.2-20.4-13.3-26.9-23.2-9-13.6-12.8-30.3-9.3-47.3 7-34.5 134.7-8.4 127.7 26z"/>
						<path id="Layer" class="s6" d="m236.3 427.7c-9.8 6.5-21.6 10.4-33.9 10.8-5.1 0.2-10.3-0.2-15.6-1.3-5.2-1.1-10.2-2.7-14.9-4.9-11.2-5.2-20.4-13.3-26.9-23.2 13.9-9.3 31.6-13.2 49.5-9.5 17.9 3.6 32.6 14.1 41.8 28.1z"/>
						<path id="Layer" class="s7" d="m207 415.9l-4.6 22.6c-5.1 0.2-10.3-0.2-15.6-1.3-5.2-1.1-10.2-2.7-14.9-4.9l4.6-22.6z"/>
						<path id="Layer" class="s7" d="m214.8 397.1l6.2-30.5 30.4 6.2-6.2 30.5z"/>
						<path id="Layer" class="s7" d="m146.9 383.2l6.2-30.4 30.5 6.2-6.2 30.5z"/>
						<path id="Layer" class="s8" d="m263.4 387.8q-0.4 2.1-1 4.1c-20.3-23.3-99.6-39.5-127.4-26q0.2-2 0.7-4.1c7-34.5 134.7-8.4 127.7 26z"/>
						<path id="Layer" class="s9" d="m263.3 382.2c-14.7-26.1-97.2-43.5-124.1-27.2 20.6-22.3 118-1.8 124.1 27.2z"/>
					</g>
				</g>
				<g id="Layer">
					<g id="Layer">
						<path id="Layer" class="s1" d="m300.1 187.7c-2 3.2-4.9 5.9-8.2 7.9-3.3 2-7 3.3-10.8 3.9-7.7 1.4-15.6 0.6-22.9-1.7-7.3-2.3-14.3-6.2-19.8-11.7-2.7-2.7-5-5.9-6.6-9.4-1.6-3.5-2.5-7.3-2.3-11.1 1.5 7.4 5.9 13.4 11.3 18 5.4 4.6 11.9 7.8 18.7 10 6.8 2.1 14 3.2 21.1 2.5 7.1-0.6 14.1-3.1 19.5-8.4z"/>
					</g>
					<g id="Layer">
						<path id="Layer" class="s10" d="m308 151.8c0 4-0.3 8-0.9 12q-0.7 3.9-2 7.9-0.8 2.7-2.2 5c-14.6 25.3-67.3 9.4-68-18.9q-0.1-4 1.2-8.2 1-3.1 2.3-5.9c1.8-4.1 4.1-8 6.6-11.5 3.4-4.7 7.2-8.9 11.2-12.6 16.1-15 34.7-22.4 34.7-22.4 0 0 9.2 14.3 14.1 33.3 1.7 6.7 2.9 13.9 3 21.3z"/>
						<path id="Layer" class="s11" d="m308 151.8c-7.2 1.4-14.8 1.6-22.7 0.6-16.6-2.3-30.9-9.9-40.3-20.2 3.4-4.7 7.2-8.9 11.2-12.6 8.3 5.5 18.4 9.3 29.5 10.8 6.6 0.9 13.1 0.9 19.3 0.1 1.7 6.7 2.9 13.9 3 21.3z"/>
						<path id="Layer" class="s11" d="m307.1 163.8q-0.7 3.9-2 7.9-0.8 2.7-2.2 5c-8.4 2.2-17.8 2.8-27.4 1.5-16.8-2.2-31.2-9.9-40.6-20.4q-0.1-4 1.2-8.2 1-3.1 2.3-5.9c9.4 11 24.2 19.2 41.5 21.6 9.6 1.2 18.8 0.6 27.2-1.5z"/>
						<g id="Layer" style="opacity: .5">
							<path id="Layer" class="s10" d="m308 151.8c0 4-0.3 8-0.9 12q-0.7 3.9-2 7.9-0.8 2.7-2.2 5c-11.9 20.7-49.3 13.9-62.9-4.8 19 8.6 43.6 7.7 53.4-9.2q1.5-2.6 2.5-5.8 1.4-4.5 2.2-9.1c0.8-4.5 1.1-9.1 1.1-13.6-0.1-8.6-1.5-16.9-3.5-24.6q-1.1-4.4-2.4-8.4c3 5.5 8.4 16.3 11.7 29.3 1.7 6.7 2.9 13.9 3 21.3z"/>
						</g>
						<g id="Layer">
							<path id="Layer" class="s12" d="m284.6 100.1c-6.6 4.2-13.9 9.5-20.8 15.9-4.9 4.6-9.6 9.7-13.7 15.4-3.1 4.4-5.9 9.1-8.1 14.1q-1.6 3.5-2.8 7.3c-1.1 3.4-1.5 6.7-1.4 9.9q0.1 4.1 1.3 7.9c-2.5-3.9-4.1-8.2-4.2-12.8q-0.1-4 1.2-8.2 1-3.1 2.3-5.9c1.8-4.1 4.1-8 6.6-11.5 3.4-4.7 7.2-8.9 11.2-12.6 10.3-9.6 21.6-16.1 28.4-19.5z"/>
						</g>
					</g>
				</g>
			</g>
		</g>
	</g>
</svg>