<svg version="1.2" xmlns="http://www.w3.org/2000/svg" viewBox="0 0 578 673" width="578" height="673">
	<title>monster--all2-svg</title>
	<style>
		.s0 { fill: #fce6bb } 
		.s1 { fill: #d92018 } 
		.s2 { fill: #b70401 } 
		.s3 { fill: #ff7878 } 
		.s4 { fill: #b20000 } 
		.s5 { fill: #990000 } 
		.s6 { fill: #ffffff } 
		.s7 { fill: #992f1d } 
		.s8 { fill: #530700 } 
		.s9 { fill: #433352 } 
		.s10 { fill: #645374 } 
	</style>
	<g id="Object">
		<g id="Layer">
			<g id="Layer">
				<g id="Layer">
					<path id="Layer" class="s0" d="m508.9 213.1c0 0 7.1-19.9 22.5-24.3 0 0-5.1 20.9-3.9 35.2z"/>
					<path id="Layer" class="s0" d="m537.9 220.1c0 0 13.8-16 29.7-14.6 0 0-12.3 17.8-16.3 31.5z"/>
					<path id="Layer" class="s0" d="m555.4 243.5c0 0 19.6-7.9 33.1 0.7 0 0-19.1 10.1-29 20.5z"/>
					<g id="Layer">
						<g id="Layer">
							<path id="Layer" class="s1" d="m555.3 268.1q0 0 0 0.1c-0.2 1.6-2.7 27-27.9 28.7 0 0-10.5 75.9-76.3 92.2-7 1.8-14.7 2.8-23.1 3l-52.8-42.8 28.5-31.4c0 0 44.6-0.6 74.9-51 0 0-14.6-24.8-8.9-43 0.6-2 1.4-3.3 2.3-4.3 7.5-7.9 23.7 15.7 23.7 15.7 0 0 9.9-35 22.2-34 12.4 1 10.2 21.6 10.2 21.6 0 0 17.5-15 24.6-6 7.2 8.9-1.8 26.9-1.8 26.9 0 0 23.9-7.9 25.3 1.5 1.4 9.4-20.9 22.8-20.9 22.8z"/>
							<path id="Layer" class="s2" d="m501.3 235.5c5.1 0.9 9.9 2.1 14.6 3.6q7 2.2 13.3 5.7c4.2 2.3 8.1 5.1 11.9 8.2 3.7 3.2 7.2 6.7 10.8 10.4-1.7-4.9-4.4-9.4-7.8-13.5-3.4-3.9-7.6-7.3-12.3-9.9-4.6-2.6-9.7-4.3-14.9-5.1-2.6-0.4-5.2-0.6-7.9-0.5-2.6 0.1-5.2 0.3-7.7 1.1z"/>
						</g>
						<path id="Layer" class="s2" d="m555.3 268.2c-0.2 1.6-2.7 27-27.9 28.7 0 0-10.5 75.9-76.3 92.2-21.5-12.9-49.4-33-5.4-32.2 63.5 1.2 77.2-70.3 77.2-70.3 24.5 6.7 31.9-16.9 32.4-18.4z"/>
					</g>
					<path id="Layer" class="s3" d="m485.8 268c-30.1 53.3-82.1 49.9-82.1 49.9 0 0 44.6-0.6 74.9-51 0 0-14.6-24.8-8.9-43 0.6-2 1.4-3.3 2.3-4.3-2.4 24.4 13.8 48.4 13.8 48.4z"/>
				</g>
				<g id="Layer">
					<path id="Layer" class="s0" d="m70.2 213.1c0 0-7-19.9-22.4-24.3 0 0 5.1 20.9 3.8 35.2z"/>
					<path id="Layer" class="s0" d="m41.2 220.1c0 0-13.7-16-29.7-14.6 0 0 12.3 17.8 16.3 31.5z"/>
					<path id="Layer" class="s0" d="m23.7 243.5c0 0-19.6-7.9-33.1 0.7 0 0 19.1 10.1 29 20.5z"/>
					<g id="Layer">
						<g id="Layer">
							<path id="Layer" class="s1" d="m23.9 268.1q0 0 0 0.1c0.1 1.6 2.6 27 27.9 28.7 0 0 10.4 75.9 76.3 92.2 7 1.8 14.7 2.8 23 3l52.9-42.8-28.5-31.4c0 0-44.6-0.6-74.9-51 0 0 14.5-24.8 8.9-43-0.6-2-1.4-3.3-2.3-4.3-7.5-7.9-23.8 15.7-23.8 15.7 0 0-9.8-35-22.2-34-12.3 1-10.1 21.6-10.1 21.6 0 0-17.5-15-24.7-6-7.2 8.9 1.9 26.9 1.9 26.9 0 0-24-7.9-25.4 1.5-1.3 9.4 21 22.8 21 22.8z"/>
							<path id="Layer" class="s2" d="m77.8 235.5c-5.1 0.9-9.9 2.1-14.5 3.6q-7 2.2-13.3 5.7c-4.2 2.3-8.2 5.1-11.9 8.2-3.8 3.2-7.2 6.7-10.8 10.4 1.6-4.9 4.3-9.4 7.7-13.5 3.5-3.9 7.7-7.3 12.3-9.9 4.7-2.6 9.8-4.3 15-5.1 2.6-0.4 5.2-0.6 7.8-0.5 2.6 0.1 5.2 0.3 7.7 1.1z"/>
						</g>
						<path id="Layer" class="s2" d="m23.9 268.2c0.1 1.6 2.6 27 27.9 28.7 0 0 10.4 75.9 76.3 92.2 21.4-12.9 49.3-33 5.4-32.2-63.5 1.2-77.3-70.3-77.3-70.3-24.4 6.7-31.9-16.9-32.3-18.4z"/>
					</g>
					<path id="Layer" class="s3" d="m93.3 268c30.1 53.3 82.2 49.9 82.2 49.9 0 0-44.6-0.6-75-51 0 0 14.6-24.8 9-43-0.6-2-1.4-3.3-2.3-4.3 2.3 24.4-13.9 48.4-13.9 48.4z"/>
				</g>
				<g id="Layer">
					<g id="Layer">
						<g id="Layer">
							<path id="Layer" class="s1" d="m218.8 579.7c-29.5 13.4-37.3 46.3-46.2 58.5-3.4 4.7-12.5 7.1-22.4 8.3-16.3 1.9-35 0.7-35 0.7-3.6 1.7-6.9 2.7-10 3.1-15.6 2.3-23.4-9.8-23.4-9.8-0.3 0-4.8-0.1-10-1.7-8.3-2.6-18-9.5-12.9-27.3 9.9-34.5 57.4-36.8 57.4-36.8l11.5-53.4q0-0.1 0-0.1l6.9-31.7 34-11.7 52.9 7.2c0 0 8.8 26.8 10.7 52.2 1.5 18.8-0.9 36.8-13.5 42.5z"/>
							<path id="Layer" class="s4" d="m81.8 640.5c-0.3 0-4.8-0.1-10-1.7-0.7-36.5 20.2-39.6 20.2-39.6-16.4 8.8-10.2 41.3-10.2 41.3z"/>
							<path id="Layer" class="s4" d="m115.2 647.2c-3.6 1.7-6.9 2.7-10 3.1-4.4-27 11.5-39.4 11.5-39.4-8.7 14.7-1.5 36.3-1.5 36.3z"/>
						</g>
						<path id="Layer" class="s0" d="m63.4 608.4c0 0-24 3.2-19.6 34.5 0 0 13.5-11.2 23.9-7 0 0 6.2-13.8-4.3-27.5z"/>
						<path id="Layer" class="s0" d="m92.9 621.9c0 0-24 3.2-19.6 34.5 0 0 13.6-11.2 24-7 0 0 6.1-13.8-4.4-27.5z"/>
						<path id="Layer" class="s0" d="m123.9 616.5c0 0-26.8 7.1-17.3 41.9 0 0 13.8-14.7 26.2-11.3 0 0 5-16.6-8.9-30.6z"/>
					</g>
					<path id="Layer" class="s5" d="m218.8 579.7c-29.5 13.4-37.3 46.3-46.2 58.5-3.4 4.7-12.5 7.1-22.4 8.3 10.4-14 22.3-37.6 1.9-56.1-30.4-27.5-24.5-67.6-24.3-69.1q0.1-0.1 0-0.1l57.7-7.7c0 0 26.1 12.3 46.8 23.7 1.5 18.8-0.9 36.8-13.5 42.5z"/>
				</g>
				<g id="Layer">
					<g id="Layer">
						<g id="Layer">
							<path id="Layer" class="s1" d="m480 657.8c-5.3 1-9.8 0.4-10.1 0.4 0 0-9.3 11-24.5 6.7-3-0.9-6.1-2.3-9.5-4.5 0 0-12.1-0.7-25.1-3.1-13.1-2.4-27-6.5-30.6-13.2-7.3-13.3-10.7-46.9-38.2-64-16.7-10.4-9.6-42.9-1.4-66.8 5.3-15.5 11-27.5 11-27.5l40.4-0.2 13-0.1 27.7 13.9 4.5 2.2 7.1 86.9c0 0 46.7 8.4 52.1 44 2.7 18.3-7.8 23.8-16.4 25.3z"/>
							<path id="Layer" class="s4" d="m469.9 658.2h0.1c0.2 0 4.7 0.6 10-0.4 5.5-36.1-14.8-41.8-14.8-41.8 15.1 10.8 4.7 42.2 4.7 42.2z"/>
							<path id="Layer" class="s4" d="m435.9 660.4c3.4 2.2 6.5 3.6 9.5 4.5 8-26.2-6.2-40.6-6.2-40.6 6.7 15.7-3.3 36.1-3.3 36.1z"/>
						</g>
						<path id="Layer" class="s0" d="m492.3 628.8c0 0 23.4 6.3 15 36.8 0 0-12-13-22.9-10.1 0 0-4.3-14.5 7.9-26.7z"/>
						<path id="Layer" class="s0" d="m462.5 637.4c0 0 23.4 6.3 15 36.8 0 0-12-12.9-22.9-10.1 0 0-4.3-14.5 7.9-26.7z"/>
						<path id="Layer" class="s0" d="m431.3 628.9c0 0 25.6 10.5 11.7 43.9 0 0-11.8-16.4-24.5-14.7 0 0-2.8-17.1 12.8-29.2z"/>
					</g>
					<path id="Layer" class="s3" d="m496.4 632.5c-16.2-33.8-60.5-38.2-60.5-38.2l-3.2-81.3v-13.6l4.5 2.2 7.1 86.9c0 0 46.7 8.4 52.1 44z"/>
					<path id="Layer" class="s5" d="m410.8 657.3c-13.1-2.5-27-6.5-30.6-13.2-7.2-13.3-10.7-46.9-38.2-64-16.7-10.4-9.6-42.9-1.4-66.8l51.4-27.7 30.4 27.2c0 0-6 44.6-24.6 78-12 21.5 1.7 49.4 13 66.5z"/>
				</g>
				<g id="Layer">
					<path id="Layer" class="s1" d="m332.5 2.4c-26.7-0.4-48.7 19.8-51.4 45.7-0.3 2.3-1.5 4.3-3.5 5.4-3.9 2.1-7.8 4.5-11.7 7.4-33.3 24.7-52 70.5-55.5 136l21.9 1.2c3.2-58.5 18.8-98.7 46.5-119.4q0 0 0 0c3.2-2.4 7.7-1.4 9.8 1.9 9.1 14.4 25.1 24 43.3 24 28.9 0 52.2-24 51.1-53.1-1-27-23.4-48.8-50.5-49.1z"/>
					<path id="Layer" class="s2" d="m331.9 104.6c-18.2 0-34.2-9.6-43.3-24-2.1-3.3-6.6-4.3-9.8-1.9q0 0 0 0c-27.7 20.7-43.3 60.9-46.5 119.4l-21.9-1.2q0.1-2.7 0.3-5.4l20.5 1.1c3.2-58.5 18.8-98.7 46.5-119.4q0 0 0 0c3.2-2.4 7.7-1.4 9.8 2 9.1 14.3 25.1 23.9 43.3 23.9 28.9 0 52.2-24 51.1-53.1q-0.1-2.6-0.4-5.2 1.3 5.2 1.5 10.7c1.1 29.1-22.2 53.1-51.1 53.1z"/>
					<path id="Layer" class="s3" d="m375.6 26.9c-9.2-12.7-24.2-21.1-40.9-21.3-26.7-0.3-48.7 19.9-51.4 45.8-0.3 2.3-1.5 4.3-3.5 5.4q-5.9 3.1-11.7 7.4c-32.8 24.3-51.4 69-55.4 132.8l-2.3-0.1c3.5-65.5 22.2-111.3 55.5-136q5.8-4.3 11.7-7.4c2-1.1 3.3-3.1 3.5-5.4 2.7-25.9 24.7-46.1 51.4-45.8 18.1 0.3 34.2 10.1 43.1 24.6z"/>
					<path id="Layer" class="s6" d="m373.2 63.3c-5.4 22.8-28.2 36.9-51 31.5-22.8-5.4-36.9-28.2-31.5-51 5.4-22.8 28.2-36.9 51-31.5 22.8 5.4 36.9 28.2 31.5 51z"/>
					<path id="Layer" class="s7" d="m355.6 62.2c-2.9 12.2-15.1 19.7-27.3 16.8-12.2-2.8-19.8-15-16.9-27.2 2.9-12.2 15.1-19.8 27.3-16.9 12.2 2.9 19.7 15.1 16.9 27.3z"/>
					<path id="Layer" class="s8" d="m344.6 59.6c-1.4 6.2-7.6 10-13.8 8.5-6.1-1.4-9.9-7.6-8.5-13.8 1.5-6.1 7.7-9.9 13.8-8.5 6.2 1.5 10 7.6 8.5 13.8z"/>
					<path id="Layer" class="s6" d="m331.3 48.6c0 3.1-2.5 5.7-5.7 5.7-3.1 0-5.7-2.6-5.7-5.7 0-3.2 2.6-5.7 5.7-5.7 3.2 0 5.7 2.5 5.7 5.7z"/>
				</g>
				<g id="Layer">
					<path id="Layer" class="s1" d="m447.3 486.7c-9.9 35.6-26.7 61.4-47.6 79.6-61.3 53.3-157.4 40.2-216.5 11.3-25.7-12.6-44.4-28.1-50.1-42.4-23.4-58.5-11.7-63 3.8-175.5 8.6-61.9-32.2-200.6 116.5-227.3 153.1-27.5 245.7 168.8 193.9 354.3z"/>
					<path id="Layer" class="s3" d="m447.3 486.7c-14.4 51.7-43.4 82.9-78.2 99.7 29.8-18.6 54.2-49 67.1-95.5 40.2-143.9-3.6-294.1-94.8-348.3 97.8 44.6 146.8 197.7 105.9 344.1z"/>
					<path id="Layer" class="s2" d="m348.3 594.6c-88 27.6-199.6-20.4-215.2-59.4-23.4-58.5-11.7-63 3.8-175.5 8.6-61.9-32.2-200.6 116.5-227.3q4.3-0.8 8.6-1.3c-121.8 36.2-85.8 163.5-93.9 222-15.6 112.4-27.2 116.9-3.8 175.4 13.8 34.6 102.7 76.1 184 66.1z"/>
				</g>
				<path id="Layer" class="s9" d="m205.9 145.1c5.8-30.8 35.2-22.4 47-40.1 11.8-17.7 22.6-17.8 22.6-17.8 0 0-7 8.8-6.7 16.9 0 0 20.3-13.9 28.7-4.6 0 0-10.9 5.3-13.9 15.7 0 0 28.2-6.5 36.3 18.3 0 0-10-5.9-18.4-0.9 0 0 16.4 14.1 3.3 34.1 0 0-7.7-15.8-21.3-20 0 0 1.6 22.2-11.9 29.2 0 0-0.8-16.3-11.5-21.3-10.8-5.1-15.3 10.3-34.8 5-19.8-5.5-19.4-14.5-19.4-14.5z"/>
				<path id="Layer" class="s10" d="m237.4 121.1c0 0-31.4 14.8-20.3 27.6 11.2 12.8 38.3-18.7 57.7-1.8 0 0 2.5-6.4 0.4-10.9 0 0 6.2-4.4 13.8 0.7 0 0-3.4-10.3-12-10.5 0 0-2.4-4.5-0.7-8.9 0 0-5.2-3.5-7.3 2.5 0 0-5.3-4.8-5.1-7.5 0 0-4.5 3.1-2.3 7.3 0 0-6-4.5-24.2 1.5z"/>
				<g id="Layer">
					<g id="Layer">
						<path id="Layer" class="s6" d="m239 358.5c0 4.1-0.2 7-0.2 7l-2.6-0.1q-6.6-3-12.7-6.8l-2.8-1.7q-1.3-0.9-2.6-1.9l-2.6-1.9c-0.9-0.7-1.7-1.4-2.5-2.1q-0.7-0.6-1.4-1.3l-0.8-2.3c0 0 0.2-0.3 0.6-0.9 2.5-3.3 12.1-15.4 20.1-15.3 6.6 0.1 7.5 17.3 7.5 27.3z"/>
						<path id="Layer" class="s6" d="m386.2 347.4l-0.4 1.3q-1.3 1.2-2.6 2.3c-0.8 0.7-1.6 1.4-2.5 2.1l-2.6 1.9q-1.2 1-2.6 1.9l-2.7 1.7c-4.2 2.6-8.5 4.8-12.9 6.8l-1.7 0.1c0 0-0.2-3-0.2-7.2 0-10.1 1-27 7.5-27.1 7.8-0.1 17.1 11.3 19.9 15 0.5 0.7 0.8 1.2 0.8 1.2z"/>
						<g id="Layer">
							<path id="Layer" class="s4" d="m336.3 310.3c-27.2 27.2-71.1 27.2-98.3 0-27.1-27.1-27.1-71 0-98.2 27.2-27.2 71.1-27.2 98.3 0 27.2 27.2 27.2 71.1 0 98.2z"/>
							<path id="Layer" class="s6" d="m343.6 303.1c-27.2 27.1-71.1 27.1-98.3 0-27.1-27.2-27.1-71.1 0-98.3 27.2-27.2 71.1-27.2 98.3 0 27.2 27.2 27.2 71.1 0 98.3z"/>
							<path id="Layer" class="s7" d="m323.2 285.8c-14.5 14.6-38 14.6-52.6 0-14.5-14.5-14.5-38 0-52.5 14.6-14.6 38.1-14.6 52.6 0 14.5 14.5 14.5 38 0 52.5z"/>
							<path id="Layer" class="s8" d="m310.2 272.8c-7.3 7.4-19.2 7.4-26.5 0-7.4-7.3-7.4-19.2 0-26.5 7.3-7.3 19.2-7.3 26.5 0 7.3 7.3 7.3 19.2 0 26.5z"/>
							<path id="Layer" class="s6" d="m284.1 255.2c-5.1 0-9.3-4.2-9.3-9.3 0-5.2 4.2-9.4 9.3-9.4 5.2 0 9.4 4.2 9.4 9.4 0 5.1-4.2 9.3-9.4 9.3z"/>
						</g>
						<path id="Layer" class="s4" d="m392 341.7q-0.1 0.1-0.2 0.3c-1.9 2.3-3.9 4.6-6 6.7q-1.3 1.2-2.6 2.3c-0.8 0.7-1.6 1.4-2.5 2.1l-2.6 1.9q-1.2 1-2.6 1.9l-2.7 1.7c-4.2 2.6-8.5 4.8-12.9 6.8q-5.3 2.3-10.7 4.2c-16.4 5.5-33.8 7.9-51.1 8-17.3 0-34.6-2.5-51.1-8q-5.5-1.9-10.8-4.2-6.6-3-12.7-6.8l-2.8-1.7q-1.3-0.9-2.6-1.9l-2.6-1.9c-0.9-0.7-1.7-1.4-2.5-2.1q-0.7-0.6-1.4-1.3c-2.6-2.3-5-5-7.1-7.7q0 0 0 0-0.2-0.2-0.3-0.3 1.3 0.9 2.6 1.8l1.3 0.9q0.6 0.5 1.3 0.9l2 1.2 0.6 0.5c0.9 0.5 1.9 1 2.8 1.5 0.9 0.5 1.8 1 2.7 1.5l2.8 1.3c1.8 1 3.8 1.7 5.6 2.5q6.5 2.7 13.1 4.7 5.1 1.6 10.4 2.8c16 3.7 32.3 5.2 48.7 5.3 16.4 0 32.8-1.6 48.7-5.3q5.7-1.3 11.2-3 6.3-2 12.3-4.4c1.9-0.9 3.8-1.6 5.6-2.6l2.8-1.3c1-0.5 1.9-1 2.8-1.5 0.9-0.5 1.8-1 2.7-1.5l1.2-0.8 1.4-0.9q0.7-0.4 1.4-0.9l1.2-0.9q1.3-0.9 2.6-1.8z"/>
						<path id="Layer" class="s3" d="m392 341.7q-0.1 0.1-0.2 0.3-0.8 0.7-1.6 1.3c-0.9 0.7-1.8 1.4-2.7 2.1l-2.8 1.9q-1.4 1-2.9 1.9l-2.9 1.7c-4.5 2.6-9.2 4.9-14 6.8q-5.6 2.3-11.5 4.2c-17.8 5.5-36.6 7.9-55.3 8-18.7 0-37.5-2.5-55.3-8q-5.9-1.9-11.6-4.2-7.2-2.9-13.8-6.7l-3-1.8q-1.5-0.9-2.9-1.9l-2.8-1.9c-0.9-0.7-1.8-1.4-2.6-2.1q-0.8-0.6-1.6-1.3 0 0 0 0-0.2-0.2-0.3-0.3 1.3 0.9 2.6 1.8l1.3 0.9q0.6 0.5 1.3 0.9l2 1.2 0.6 0.5c0.9 0.5 1.9 1 2.8 1.5 0.9 0.5 1.8 1 2.7 1.5l2.8 1.3c1.8 1 3.8 1.7 5.6 2.5q6.5 2.7 13.1 4.7 5.1 1.6 10.4 2.8c16 3.7 32.3 5.2 48.7 5.3 16.4 0 32.8-1.6 48.7-5.3q5.7-1.3 11.2-3 6.3-2 12.3-4.4c1.9-0.9 3.8-1.6 5.6-2.6l2.8-1.3c1-0.5 1.9-1 2.8-1.5 0.9-0.5 1.8-1 2.7-1.5l1.2-0.8 1.4-0.9q0.7-0.4 1.4-0.9l1.2-0.9q1.3-0.9 2.6-1.8z"/>
					</g>
					<path id="Layer" class="s4" d="m372.6 382.2c-10.2 8.4-22.2 14.6-34.9 18.8-12.7 4.2-26.1 6.3-39.6 6.4-13.5-0.1-26.9-2.2-39.6-6.4-12.7-4.2-24.7-10.3-34.9-18.7 12.4 4.3 24.7 8 37.1 10.4 12.4 2.4 24.9 3.6 37.4 3.7 12.5-0.1 25.1-1.3 37.4-3.7 12.5-2.4 24.7-6.1 37.1-10.5z"/>
					<g id="Layer">
						<path id="Layer" class="s4" d="m318.4 467.8q-0.1-0.1 0 0z"/>
						<path id="Layer" class="s4" d="m343.6 482.7c-0.1-0.1-0.5-0.5-0.7-0.7q-0.5-0.4-0.9-0.9-0.8-0.9-1.5-1.9-1.5-1.9-2.8-4.1c-1.7-2.9-3.1-6-4.1-9.3q-0.8-2.5-1.3-5-0.6-2.6-0.8-5.2-0.5-5.3-0.1-10.8c-1.2 3.5-2 7.1-2.3 10.7-0.4 3.7-0.3 7.5 0.2 11.2 0.6 3.8 1.6 7.5 3.1 11q0.5 1.3 1.2 2.6c-2.3-0.6-4.4-1.6-6.4-2.7-2-1.3-3.8-2.8-5.3-4.5q-1.2-1.3-2.1-2.7-0.5-0.7-0.9-1.4-0.2-0.4-0.3-0.7l-0.2-0.3c0-0.1 0-0.2 0-0.2l-5.7-10.1c0 0-5.2 17.9-5.9 21.4l-0.7 3.7q-2.1-1.5-3.9-3.4-2.1-2-3.7-4.5-0.7-1.2-1.4-2.5-0.3-0.6-0.6-1.3l-0.3-0.6-0.2-0.4-3.5-9.5-6 7.9c-1.2 1.5-2.6 3-4.2 4.2q-2.3 1.9-5.1 3.3-2.5 1.3-5.3 2.1 0.2-1.9 0.3-3.8 0.2-2.9 0.2-5.8c0-2 0-3.8-0.2-5.9l-0.7-10-7.2 6.7q-2 1.8-4.4 3.1-2.5 1.3-5.2 2-2.7 0.5-5.7 0.5-0.7 0-1.5-0.1 0.6-1.4 1.1-2.8c0.5-1.3 1-2.6 1.4-3.9q0.6-2 1.2-3.9c0.7-2.7 1.3-5.4 1.7-8.1 0.1-1.4 0.3-2.8 0.3-4.1 0-1.4-0.1-2.8-0.5-4.1-0.2 2.7-1.3 5.1-2.2 7.5-1.1 2.4-2.3 4.8-3.5 7.1q-1.9 3.4-3.9 6.7l-2.1 3.4-2.1 3.3-2.4 3.6 4.3 1.7c0.5 0.2 0.7 0.3 1.1 0.4l0.9 0.3q1 0.3 1.9 0.5 1.9 0.4 3.8 0.6c2.5 0.3 5.1 0.3 7.7-0.1q3.1-0.5 6.1-1.6 0 1.1-0.2 2.2-0.2 2.6-0.6 5.1c-0.3 1.7-0.7 3.4-1.1 5l-1.5 6.8 6.9-0.4c0.6 0 0.8 0 1.2-0.1l1.1-0.1q1-0.1 2.1-0.3 2-0.3 4-0.9c2.6-0.7 5.3-1.6 7.8-2.8 2.5-1.3 4.9-2.8 7.2-4.5q0.1-0.2 0.3-0.3 2.1 3.3 4.9 6.1c2 1.9 4.1 3.6 6.4 5 2.3 1.4 4.8 2.6 7.4 3.5l5.9 2 1-6.1q0.8-5.3 1.7-10.6c1.9 1.7 4 3.1 6.2 4.2 2.9 1.5 5.9 2.5 8.9 3.1 3.1 0.6 6.1 0.8 9.1 0.7l10.3-0.3z"/>
					</g>
				</g>
			</g>
		</g>
	</g>
</svg>