<svg version="1.2" xmlns="http://www.w3.org/2000/svg" viewBox="0 0 640 661" width="640" height="661">
	<title>monster--all2-svg</title>
	<style>
		.s0 { fill: #c9ecf4 } 
		.s1 { fill: #88ae34 } 
		.s2 { fill: #4d7a12 } 
		.s3 { fill: #d7f772 } 
		.s4 { fill: #647f18 } 
		.s5 { fill: #ffffff } 
		.s6 { fill: #249fbe } 
		.s7 { fill: #032d38 } 
		.s8 { fill: #487808 } 
		.s9 { fill: #600100 } 
		.s10 { fill: #a32440 } 
		.s11 { fill: #fffa9c } 
	</style>
	<g id="Object">
		<g id="Layer">
			<path id="Layer" class="s0" d="m321.6 659.1c-157.6 0-285-7.9-285-17.6 0-9.7 127.4-17.6 285-17.6 157.6 0 284.9 7.9 284.9 17.6 0 9.7-127.3 17.6-284.9 17.6z"/>
			<g id="Layer">
				<g id="Layer">
					<g id="Layer">
						<path id="Layer" class="s1" d="m18.5 359.6c1.2 12.2 33.8 1.8 33.8 1.8 0 0 11.3 17.3 34.3 11.6 0 0 55.7 42.7 67.8 39.5 10.4-2.7 50.9-46.3 62.6-59 2-2.2 3.1-3.5 3.1-3.5l5.4-63.9-14.7-4.1-7.9-2.2c0 0-44.8 35.4-61.1 73.9l-28.9-16.2c0 0-13-31.8-6.8-59 2.3-10.3-1.2-14.2-6.6-13.3-8.7 1.6-22.5 16.7-23.1 38.6 0 0-23.6-25.2-38.7-21-15 4.1 11.6 31.8 12.2 32.4-0.8-0.4-36-16-46.7-7.2-10.7 8.8 38.4 32.6 38.4 32.6 0 0-24.4 6.9-23.1 19z"/>
						<path id="Layer" class="s2" d="m63.5 305c-4.5 1.8-8.5 4.8-11.9 8.3-3.4 3.5-6.2 7.8-7.9 12.5-0.9 2.4-1.4 4.9-1.7 7.4-0.2 2.5-0.2 5 0.2 7.4 0.7 5 2.6 9.6 5.4 13.5-1.2-4.6-2.1-9.2-2.1-13.7 0-2.3 0.1-4.5 0.4-6.7q0.6-3.3 1.7-6.5c1.5-4.2 3.8-8.1 6.5-11.8 2.7-3.7 5.9-7.1 9.4-10.4z"/>
						<path id="Layer" class="s2" d="m52.3 361.4c0 0 11.3 17.3 34.3 11.6 0 0 55.7 42.7 67.8 39.5 10.4-2.7 50.9-46.3 62.6-59-6.5-17.1-15.4-37.6-15.4-37.6 0 0-25 79.2-51.2 78.6-26.2-0.6-56.9-31.2-56.9-31.2-24.5 8.3-36-8.9-36-8.9-28.3 15.8-39 5.2-39 5.2 1.2 12.2 33.8 1.8 33.8 1.8z"/>
						<path id="Layer" class="s3" d="m108.7 342.3l40.1 19.1c10.3-36.7 62-79.4 62-79.4l-7.9-2.2c0 0-44.8 35.4-61.1 73.9l-28.9-16.2c0 0-13-31.8-6.8-59 2.3-10.3-1.2-14.2-6.6-13.3 2.9 2.3 3.4 7.6 1.1 20.4-4.9 26.9 8.1 56.7 8.1 56.7z"/>
					</g>
					<g id="Layer">
						<path id="Layer" class="s4" d="m179.3 337.7c0 2.7-2.2 4.9-4.9 4.9-2.8 0-5-2.2-5-4.9 0-2.8 2.2-5 5-5 2.7 0 4.9 2.2 4.9 5z"/>
						<path id="Layer" class="s4" d="m155.4 386c-4.6 0-8.3-3.7-8.3-8.3 0-4.5 3.7-8.2 8.3-8.2 4.6 0 8.3 3.7 8.3 8.2 0 4.6-3.7 8.3-8.3 8.3z"/>
						<path id="Layer" class="s4" d="m126.1 371.5c-3.6 0-6.5-2.8-6.5-6.4 0-3.5 2.9-6.4 6.5-6.4 3.5 0 6.4 2.9 6.4 6.4 0 3.6-2.9 6.4-6.4 6.4z"/>
					</g>
				</g>
				<g id="Layer">
					<g id="Layer">
						<path id="Layer" class="s1" d="m636.4 206.6c6.7 10.2-25.1 22.7-25.1 22.7 0 0 2.2 20.5-19.3 30.7 0 0-16.3 68.2-27.7 73.4-9.7 4.4-68.7-3.8-85.8-6.3-2.9-0.5-4.6-0.7-4.6-0.7l-44.5-46.2 8.8-12.5 4.7-6.7c0 0 57.2-0.7 94 18.8l12.3-30.8c0 0-10-32.8-32-50.1-8.2-6.5-8-11.8-3.3-14.4 7.9-4.3 28-1.3 42.4 15.3 0 0 2.3-34.4 16.7-40.7 14.3-6.3 11 32 11 32.9 0.4-0.9 17.8-35.2 31.6-35.1 14 0.1-9.2 49.5-9.2 49.5 0 0 23.3-10 30 0.2z"/>
						<path id="Layer" class="s2" d="m567 192.6c4.6-1.4 9.6-1.6 14.5-1.1 4.8 0.6 9.7 2.1 14 4.7 2.1 1.4 4.2 2.9 5.9 4.7 1.8 1.8 3.3 3.8 4.6 5.9 2.5 4.3 4 9.1 4.3 13.9-2-4.4-4.2-8.5-7-12-1.4-1.8-2.9-3.4-4.6-4.9q-2.5-2.2-5.4-4c-3.8-2.3-8-3.9-12.5-5-4.4-1.2-9-1.9-13.8-2.2z"/>
						<path id="Layer" class="s2" d="m611.3 229.3c0 0 2.2 20.5-19.3 30.7 0 0-16.3 68.2-27.7 73.4-9.7 4.4-68.7-3.8-85.8-6.3-5.7-17.4-11.7-38.9-11.7-38.9 0 0 69.3 45.7 89.3 28.7 19.9-17 24.4-60.1 24.4-60.1 24.2-9 22.3-29.7 22.3-29.7 31.9-5.6 33.6-20.5 33.6-20.5 6.7 10.2-25.1 22.7-25.1 22.7z"/>
						<path id="Layer" class="s3" d="m555.5 250.1l-19 40.1c-31.3-22-98.3-22.5-98.3-22.5l4.7-6.7c0 0 57.2-0.7 94 18.8l12.3-30.8c0 0-10-32.8-32-50.1-8.2-6.5-8-11.8-3.3-14.4-0.8 3.5 2.2 8 12.1 16.4 20.7 17.8 29.5 49.2 29.5 49.2z"/>
					</g>
					<g id="Layer">
						<path id="Layer" class="s4" d="m515 294.4c0 1.5-1.2 2.7-2.7 2.7-1.5 0-2.7-1.2-2.7-2.7 0-1.5 1.2-2.7 2.7-2.7 1.5 0 2.7 1.2 2.7 2.7z"/>
						<path id="Layer" class="s4" d="m546.9 301.9c0 2.8-2.4 5.2-5.2 5.2-2.9 0-5.2-2.4-5.2-5.2 0-2.9 2.3-5.2 5.2-5.2 2.8 0 5.2 2.3 5.2 5.2z"/>
						<path id="Layer" class="s4" d="m569 270.6c0 3.9-3.2 7.1-7.1 7.1-3.9 0-7.1-3.2-7.1-7.1 0-3.9 3.2-7 7.1-7 3.9 0 7.1 3.1 7.1 7z"/>
					</g>
				</g>
				<g id="Layer">
					<g id="Layer">
						<path id="Layer" class="s1" d="m252 154.8q0.4 1.2 0.9 2.3c5.9 14.7 16.4 26 28.7 32.3l4 9.9-57.8 23.2-4-9.9c4.5-13.1 4.4-28.5-1.5-43.2q-0.6-1.4-1.2-2.7c-6-13.4-16-23.6-27.5-29.6l-4.2-10.3 57.8-23.2 4.2 10.4c-4.3 12.4-4.4 26.8 0.6 40.8z"/>
						<g id="Layer">
							<path id="Layer" class="s2" d="m247.2 103.6l4.2 10.4c-4.3 12.4-4.4 26.8 0.6 40.8-4.1 3.1-8.7 5.8-13.8 7.8-5.6 2.2-11.3 3.6-17.1 4.1-6-13.4-16-23.6-27.5-29.6l-4.2-10.3z"/>
							<path id="Layer" class="s1" d="m152.6 110.6c12.3 30.8 47.4 45.8 78.2 33.4 30.8-12.4 45.8-47.3 33.4-78.2-2.4-6-5.7-11.4-9.6-16.1-16.2-19.5-43.8-27.3-68.6-17.3-24.3 9.7-38.8 33.6-37.7 58.4 0.3 6.6 1.7 13.3 4.3 19.8z"/>
							<path id="Layer" class="s5" d="m221.8 136.3c-26.6 7.5-54.1-8-61.6-34.6-7.4-26.7 8.1-54.2 34.7-61.7 26.7-7.4 54.2 8.1 61.6 34.7 7.5 26.7-8 54.2-34.7 61.6z"/>
							<path id="Layer" class="s6" d="m235.4 117.3c-8.5 12.1-25.2 14.9-37.3 6.4-12-8.6-14.9-25.2-6.4-37.3 8.6-12.1 25.3-14.9 37.3-6.4 12.1 8.6 15 25.2 6.4 37.3z"/>
							<path id="Layer" class="s7" d="m219.9 113.8c-6.6 3.4-14.8 0.9-18.3-5.7-3.5-6.6-0.9-14.7 5.7-18.2 6.6-3.5 14.7-1 18.2 5.6 3.5 6.6 1 14.8-5.6 18.3z"/>
							<path id="Layer" class="s5" d="m225.2 90.1c-0.4 3.7-3.8 6.3-7.5 5.8-3.7-0.4-6.3-3.7-5.9-7.4 0.5-3.7 3.8-6.3 7.5-5.9 3.7 0.4 6.3 3.8 5.9 7.5z"/>
						</g>
					</g>
					<path id="Layer" class="s1" d="m150.6 92.3c25.2 1.9 85.9-21.6 103.4-40 2.1-2.2 2-5.8-0.2-8.1-17.4-17.7-44.3-24.2-68.8-14.4-24 9.6-38.8 32.2-39.8 56.4-0.1 3.2 2.2 5.9 5.4 6.1z"/>
					<path id="Layer" class="s3" d="m148.3 87.1c4.1-21.1 18.6-39.8 40.1-48.4 22-8.9 46-4.9 63.8 8.3-16.5-17.5-42.5-24.1-66.2-14.6-23.1 9.3-37.3 31.3-37.7 54.7z"/>
					<path id="Layer" class="s2" d="m159.6 79.2c1.6 0.7 3.4 1 5.2 1.3q2.7 0.2 5.4 0.1c3.7-0.2 7.3-0.7 10.9-1.4 7.2-1.4 14.2-3.5 20.9-6.1 6.8-2.7 13.4-5.8 19.7-9.6 3.1-1.9 6.1-3.9 8.9-6.3q2.1-1.7 4-3.7c1.2-1.4 2.3-2.9 3-4.5-2.5 2.6-5.4 4.5-8.5 6.2-3.1 1.7-6.2 3.3-9.4 4.8-6.4 3-12.9 5.7-19.5 8.2-6.6 2.6-13.3 5-20 7.1-3.4 1-6.8 2-10.2 2.8-3.4 0.7-6.9 1.4-10.4 1.1z"/>
				</g>
				<g id="Layer">
					<g id="Layer">
						<path id="Layer" class="s1" d="m398.5 138q-0.3 1.2-0.6 2.4c-4.2 15.2-13.4 27.6-24.9 35.3l-2.8 10.3 60 16.4 2.9-10.2c-6-12.5-7.6-27.9-3.4-43.1q0.4-1.4 0.8-2.8c4.5-14 13.2-25.3 24-32.5l3-10.8-60.1-16.4-2.9 10.7c5.6 11.8 7.4 26.2 4 40.7z"/>
						<g id="Layer">
							<path id="Layer" class="s2" d="m397.4 86.6l-2.9 10.7c5.6 11.8 7.4 26.2 4 40.7 4.4 2.6 9.3 4.7 14.6 6.1 5.8 1.6 11.7 2.3 17.4 2.2 4.5-14 13.2-25.3 24-32.5l3-10.8z"/>
							<path id="Layer" class="s1" d="m492.2 82.7c-8.7 32.1-41.8 50.9-73.9 42.1-32-8.7-50.8-41.8-42.1-73.9 1.7-6.2 4.4-12 7.8-17.1 13.9-21.2 40.3-32 66.1-25 25.3 7 42.4 29.1 44.1 53.8 0.5 6.6-0.1 13.4-2 20.1z"/>
							<path id="Layer" class="s5" d="m469.6 102.2c-19.6 19.5-51.2 19.5-70.7 0-19.6-19.6-19.6-51.2 0-70.7 19.5-19.6 51.1-19.6 70.7 0 19.5 19.5 19.5 51.1 0 70.7z"/>
							<path id="Layer" class="s6" d="m456.1 88.9c-4.4 14.1-19.4 22-33.5 17.6-14.1-4.4-21.9-19.4-17.5-33.5 4.4-14.1 19.4-22 33.5-17.6 14.1 4.4 21.9 19.4 17.5 33.5z"/>
							<path id="Layer" class="s7" d="m443.7 84.5c-2 7.2-9.4 11.4-16.6 9.5-7.2-2-11.5-9.4-9.5-16.6 2-7.2 9.4-11.4 16.6-9.5 7.2 2 11.4 9.4 9.5 16.6z"/>
							<path id="Layer" class="s5" d="m430.8 70.8c-1 3.6-4.7 5.7-8.2 4.7-3.6-1-5.7-4.7-4.7-8.3 0.9-3.5 4.6-5.7 8.2-4.7 3.6 1 5.7 4.7 4.7 8.3z"/>
						</g>
					</g>
					<path id="Layer" class="s1" d="m493.4 60.9c-23.8 5.7-89.8-11.5-107.9-28.1-1.6-1.6-1.9-4.1-0.5-5.9 14.9-20 41-29.9 66.4-22.9 25 6.9 42.2 27.9 45.3 52.1 0.3 2.2-1.1 4.3-3.3 4.8z"/>
					<path id="Layer" class="s3" d="m493.8 59c-6.5-20.6-23-37.5-45.3-43.6-22.9-6.3-46.3 0.3-62.5 15.4 14.4-19.2 39.6-28.7 64.1-22 24.1 6.6 40.7 26.9 43.7 50.2z"/>
					<path id="Layer" class="s2" d="m481.7 52.4c-1.5 0.9-3.2 1.4-5 1.8q-2.7 0.5-5.4 0.7c-3.7 0.3-7.3 0.2-11-0.1-7.2-0.5-14.4-1.9-21.5-3.7-7-1.9-13.9-4.2-20.6-7.3-3.3-1.5-6.5-3.2-9.6-5.2q-2.2-1.5-4.3-3.3c-1.4-1.2-2.6-2.6-3.5-4.1 2.7 2.3 5.9 3.8 9.1 5.2 3.3 1.4 6.6 2.6 9.9 3.7 6.7 2.2 13.5 4.2 20.3 6 6.9 1.7 13.8 3.4 20.7 4.7 3.5 0.6 6.9 1.2 10.4 1.6 3.5 0.4 7 0.6 10.5 0z"/>
				</g>
				<g id="Layer">
					<path id="Layer" class="s1" d="m362.9 157.3c-115.1-6.1-177.6 56-174.4 160 3.2 104.1 28.4 220.9-70.6 248.1-99 27.2-69 80 0 78.4 69-1.6 48.9-21.3 80.9-11.4 32 10 42 31.3 72.6 7.1 30.5-24.1 42.9 13.6 95.6 10.8 52.6-2.8 46.6-33.5 80.8-13.6 34.1 19.9 23.4 17.8 65.4 4.3 42-13.5 66.1 20.6 78.2-19.9 12.1-40.6-34.8-49.8-46.9-69-12.1-19.2 0.9-26.1-22.8-47-12.1-10.7 23.5-115.2-37-239-22.9-47.1-54.4-105.3-121.8-108.8z"/>
					<path id="Layer" class="s3" d="m591.4 621c-1.7 6-3.7 10.3-6 13.4q0.9-2.3 1.7-5c13.2-42.1-38-51.7-51.2-71.6-13.1-19.9 1-27.1-24.8-48.7-13.2-11.1 25.6-119.6-40.3-248.1-18.5-35.9-41.9-78.1-82.2-99.3 50.2 14.9 76.3 63.8 96.2 104.4 60.4 123.8 24.8 228.3 36.9 239 23.7 20.8 10.7 27.7 22.8 47 12.1 19.2 59 28.4 46.9 68.9z"/>
					<path id="Layer" class="s8" d="m591.8 619.9q-0.2 0.6-0.4 1.1c-12.1 40.6-36.2 6.5-78.2 20-42 13.5-31.3 15.6-65.4-4.3-34.2-19.9-28.2 10.8-80.8 13.6-52.7 2.8-65.1-34.9-95.6-10.8-30.6 24.2-40.6 2.9-72.6-7.1-32-9.9-11.9 9.8-80.9 11.4-69 1.6-99.1-51.2 0-78.4 99-27.2 73.8-144 70.6-248.1-3.2-104 59.3-166.1 174.4-160q3.6 0.2 7.1 0.6c-89.9 6.3-137.9 63.3-135.2 152.7 3.1 99.4 27.2 211.1-67.5 237.1-94.6 26-65.9 76.5 0 74.9 66-1.5 46.8-20.3 77.4-10.8 30.6 9.5 40.1 29.9 69.3 6.8 29.2-23.1 41.1 13 91.4 10.2 50.3-2.7 44.6-32 77.2-12.9 32.6 19 22.4 17 62.5 4 19.3-6.2 34.6-1.9 46.7 0z"/>
					<g id="Layer">
						<path id="Layer" class="s4" d="m388.1 202.3c-2.5 10.4-12.8 16.8-23.2 14.4-10.4-2.5-16.8-12.8-14.3-23.2 2.4-10.4 12.8-16.8 23.2-14.4 10.3 2.5 16.7 12.9 14.3 23.2z"/>
						<path id="Layer" class="s4" d="m389.3 258.7c-2.6 0-4.7-2.1-4.7-4.7 0-2.6 2.1-4.7 4.7-4.7 2.6 0 4.7 2.1 4.7 4.7 0 2.6-2.1 4.7-4.7 4.7z"/>
						<path id="Layer" class="s4" d="m316.9 269c-14.6 0-26.3-11.8-26.3-26.4 0-14.5 11.7-26.3 26.3-26.3 14.5 0 26.3 11.8 26.3 26.3 0 14.6-11.8 26.4-26.3 26.4z"/>
						<path id="Layer" class="s4" d="m422.9 234.9c-3.2 3.3-8.4 3.3-11.6 0-3.2-3.2-3.2-8.4 0-11.6 3.2-3.2 8.4-3.2 11.6 0 3.3 3.2 3.3 8.4 0 11.6z"/>
						<path id="Layer" class="s4" d="m490.6 424.2c-6.4 6.4-16.7 6.4-23.1 0-6.4-6.4-6.4-16.7 0-23.1 6.4-6.3 16.7-6.3 23.1 0 6.4 6.4 6.4 16.7 0 23.1z"/>
						<path id="Layer" class="s4" d="m323.1 478.7c-9.4 0-17-7.6-17-17 0-9.4 7.6-17 17-17 9.4 0 17 7.6 17 17 0 9.4-7.6 17-17 17z"/>
						<path id="Layer" class="s4" d="m417.1 512.8c-15.6 0-28.3-12.7-28.3-28.3 0-15.7 12.7-28.3 28.3-28.3 15.7 0 28.3 12.6 28.3 28.3 0 15.6-12.6 28.3-28.3 28.3z"/>
						<path id="Layer" class="s4" d="m511.4 563.9c-1.8 11.3-12.4 18.9-23.6 17.1-11.3-1.9-18.9-12.4-17.1-23.7 1.8-11.3 12.4-18.9 23.7-17 11.2 1.8 18.8 12.4 17 23.6z"/>
						<path id="Layer" class="s4" d="m273.5 581.9c-11.8 0-21.3-9.5-21.3-21.3 0-11.8 9.5-21.3 21.3-21.3 11.8 0 21.3 9.5 21.3 21.3 0 11.8-9.5 21.3-21.3 21.3z"/>
						<path id="Layer" class="s4" d="m394 591.4c-3.6 0-6.6-3-6.6-6.6 0-3.7 3-6.6 6.6-6.6 3.7 0 6.6 2.9 6.6 6.6 0 3.6-2.9 6.6-6.6 6.6z"/>
						<path id="Layer" class="s4" d="m193.3 580.5c-1.3 7.1-8.1 11.9-15.3 10.6-7.2-1.3-11.9-8.2-10.6-15.4 1.3-7.1 8.2-11.9 15.3-10.5 7.2 1.3 11.9 8.1 10.6 15.3z"/>
					</g>
				</g>
				<path id="Layer" class="s4" d="m113.6 357.1c0 1-0.9 1.9-1.9 1.9-1.1 0-2-0.9-2-1.9 0-1.1 0.9-2 2-2 1 0 1.9 0.9 1.9 2z"/>
				<g id="Layer">
					<g id="Layer">
						<path id="Layer" class="s9" d="m443.4 363.2q-2 3.3-4.5 6.3c-4.7 5.8-10.5 10.9-18 14.7-2.8 1.5-6 2.8-9.3 3.9-18.8 6.1-37.1 6.3-53.7 2q0.1 0 0 0c-6.3-1.7-12.5-4-18.3-6.9q-4.6-2.4-9-5.2c-23.9-15.2-41.3-40.6-47-68.9q-0.1-0.8-0.3-1.7c8.8-0.1 17.5-0.2 26.2-0.4 6.4-0.2 12.8-0.4 19.2-0.7q3.9-0.2 7.8-0.4c11-0.7 21.9-1.8 32.7-3.4q4.5-0.6 9-1.4c2.1-0.3 4.1-0.8 6.1-1.2 2-0.4 4.1-0.7 6.1-1.3q0.1 0 0.3 0 0 0 0 0c1.9-0.5 3.8-0.9 5.7-1.4 1.9-0.5 3.9-1.1 5.9-1.6q5.6-1.6 11.1-3.6 6.1-2.1 12-4.7c4.3-1.9 8.4-3.9 12.5-6.2q4.6-2.6 9-5.7 2.1-1.4 4.2-2.9c0.4 1.6 0.8 3.7 1.2 6 3.4 18.9 7.6 57.8-8.9 84.7z"/>
						<path id="Layer" class="s10" d="m438.9 369.5c-4.7 5.8-10.5 10.9-18 14.7-2.8 1.5-6 2.8-9.3 3.9-18.8 6.1-37.1 6.3-53.7 2q0.1 0 0 0c-6.3-1.7-12.5-4-18.3-6.9 4.7-5.8 10.6-10.9 18-14.7q4.4-2.2 9.4-3.9c18.8-6.1 37.1-6.3 53.6-2q0 0 0 0c6.4 1.7 12.5 4 18.3 6.9z"/>
						<path id="Layer" class="s2" d="m456.1 369.8c-1.4 5.4-4.2 10.4-7.5 15.1-3.3 4.6-7.2 8.8-11.7 12.4-4.5 3.7-9.5 6.7-14.8 9.1q-2 0.9-4 1.7c-1.3 0.6-2.7 1-4.1 1.5-1.3 0.5-2.8 0.8-4.1 1.2l-2.1 0.5q-1.1 0.3-2.2 0.5c-11.3 2.4-22.9 2.1-34 0.2-11.1-2-21.8-5.7-31.5-11.1 11 1.2 21.7 2.6 32.3 2.8 10.6 0.3 21.1-0.1 31.1-2.2q1-0.2 1.9-0.4l1.9-0.5c1.2-0.3 2.5-0.5 3.7-0.9 1.2-0.4 2.5-0.7 3.7-1.2q1.8-0.6 3.6-1.2 7.2-2.8 13.8-6.7c4.5-2.7 8.7-5.8 12.7-9.2 4-3.5 7.9-7.3 11.3-11.6z"/>
						<path id="Layer" class="s11" d="m435.8 319.8c-8.3 2.1-18.2-8.7-22.1-24q-0.5-2-0.3-3.8 6.1-2.1 12-4.7c4.3-1.9 8.4-3.9 12.5-6.2 2.9 1.3 5.1 3.5 6 7 3.9 15.4 0.3 29.5-8.1 31.7z"/>
						<path id="Layer" class="s11" d="m383.2 337.6c-8.6 0.3-15.9-12.4-16.2-28.3-0.1-2.7 0.7-4.9 2.2-6.8q4.5-0.6 9-1.4c2.1-0.3 4.1-0.8 6.1-1.2 2-0.4 4.1-0.7 6.1-1.3q0.1 0 0.3 0 0 0 0 0c4.2 1.7 7.3 5 7.4 10 0.4 15.8-6.3 28.8-14.9 29z"/>
						<path id="Layer" class="s11" d="m324 341.4c-8.6 0.2-15.9-12.5-16.3-28.4 0-2.3 0.6-4.3 1.8-6 6.4-0.2 12.8-0.4 19.2-0.7q3.9-0.2 7.8-0.4c1.4 1.7 2.3 3.8 2.4 6.4 0.3 15.8-6.3 28.8-14.9 29.1z"/>
						<path id="Layer" class="s11" d="m360.9 385.2c-0.6 2-1.6 3.6-3 4.9q0 0 0 0c-9.7-2.6-18.9-6.7-27.3-12.1q0.1-0.6 0.3-1.3c4.3-15.2 14.5-25.7 22.8-23.4 8.3 2.4 11.5 16.7 7.2 31.9z"/>
						<path id="Layer" class="s11" d="m443.4 363.2c-5.2 8.5-12.5 15.8-22.4 21-1.3-0.8-2.5-1.9-3.4-3.4-8.2-13.5-9-28.1-1.7-32.6 7.1-4.4 19.2 2.3 27.5 15z"/>
						<path id="Layer" class="s2" d="m465.6 258.8q0-0.1-0.1 0.2c-1.4 4-3.7 7.6-6.1 11.1-2.2 3-4.6 5.8-7.1 8.4q-0.7 0.8-1.5 1.6c-6.2 6.2-13.4 11.4-21 15.8-7.6 4.4-15.7 8-24 10.8-8.3 2.9-16.8 4.9-25.4 6.5-17.2 3.1-34.6 3.9-51.8 2.8-15.2-0.9-30.2-3.2-45-6.9q-2.8-0.8-5.7-1.6 2.7 0 5.4-0.1c15.3-0.3 30.4-0.3 45.4-1.1 16.7-0.7 33.3-2.4 49.5-5.2 2.1-0.3 4.1-0.8 6.1-1.2 2-0.4 4.1-0.7 6.1-1.3q3-0.6 5.9-1.4c2-0.5 4-1.1 6-1.6 7.9-2.3 15.6-5 23.1-8.3 7.5-3.3 14.8-7.2 21.5-11.9q2.1-1.4 4.2-2.9c5.3-4 10.3-8.4 14.5-13.8z"/>
					</g>
					<path id="Layer" class="s3" d="m465.6 258.8q0-0.1-0.1 0.2c-1.7 4.1-29.2 62.8-187.6 48.5q2.7 0 5.4-0.1c15.3-0.3 30.4-0.3 45.4-1.1 16.7-0.7 33.3-2.4 49.5-5.2 2.1-0.3 4.1-0.8 6.1-1.2 2-0.4 4.1-0.7 6.1-1.3q3-0.6 5.9-1.4c2-0.5 4-1.1 6-1.6 7.9-2.3 15.6-5 23.1-8.3 7.5-3.3 14.8-7.2 21.5-11.9q2.1-1.4 4.2-2.9c5.3-4 10.3-8.4 14.5-13.8z"/>
				</g>
			</g>
		</g>
	</g>
</svg>