<svg version="1.2" xmlns="http://www.w3.org/2000/svg" viewBox="0 0 100 118" width="100" height="118">
	<title>monster-set-svg</title>
	<defs>
		<radialGradient id="g1" cx="0" cy="0" r="1" gradientUnits="userSpaceOnUse" gradientTransform="matrix(24.089,0,0,24.089,73.725,93.556)">
			<stop offset=".004" stop-color="#a62549"/>
			<stop offset=".317" stop-color="#a3244b"/>
			<stop offset=".511" stop-color="#9b2350"/>
			<stop offset=".674" stop-color="#8c2059"/>
			<stop offset=".818" stop-color="#781c65"/>
			<stop offset=".949" stop-color="#5d1675"/>
			<stop offset="1" stop-color="#51147d"/>
		</radialGradient>
		<radialGradient id="g2" cx="0" cy="0" r="1" gradientUnits="userSpaceOnUse" gradientTransform="matrix(24.089,0,0,24.089,73.725,93.556)">
			<stop offset=".004" stop-color="#a62549"/>
			<stop offset=".317" stop-color="#a3244b"/>
			<stop offset=".511" stop-color="#9b2350"/>
			<stop offset=".674" stop-color="#8c2059"/>
			<stop offset=".818" stop-color="#781c65"/>
			<stop offset=".949" stop-color="#5d1675"/>
			<stop offset="1" stop-color="#51147d"/>
		</radialGradient>
		<radialGradient id="g3" cx="0" cy="0" r="1" gradientUnits="userSpaceOnUse" gradientTransform="matrix(24.09,0,0,24.09,73.725,93.556)">
			<stop offset=".004" stop-color="#a62549"/>
			<stop offset=".317" stop-color="#a3244b"/>
			<stop offset=".511" stop-color="#9b2350"/>
			<stop offset=".674" stop-color="#8c2059"/>
			<stop offset=".818" stop-color="#781c65"/>
			<stop offset=".949" stop-color="#5d1675"/>
			<stop offset="1" stop-color="#51147d"/>
		</radialGradient>
		<radialGradient id="g4" cx="0" cy="0" r="1" gradientUnits="userSpaceOnUse" gradientTransform="matrix(-47.641,0,0,-47.641,108.477,63.872)">
			<stop offset="0" stop-color="#fffb33"/>
			<stop offset=".329" stop-color="#ffe029"/>
			<stop offset=".757" stop-color="#ffc21f"/>
			<stop offset="1" stop-color="#ffb71b"/>
		</radialGradient>
		<radialGradient id="g5" cx="0" cy="0" r="1" gradientUnits="userSpaceOnUse" gradientTransform="matrix(48.922,0,0,48.922,50.062,66.57)">
			<stop offset="0" stop-color="#fffb33"/>
			<stop offset=".329" stop-color="#ffe029"/>
			<stop offset=".757" stop-color="#ffc21f"/>
			<stop offset="1" stop-color="#ffb71b"/>
		</radialGradient>
		<radialGradient id="g6" cx="0" cy="0" r="1" gradientUnits="userSpaceOnUse" gradientTransform="matrix(-48.922,0,0,-48.922,50.6,66.57)">
			<stop offset="0" stop-color="#fffb33"/>
			<stop offset=".329" stop-color="#ffe029"/>
			<stop offset=".757" stop-color="#ffc21f"/>
			<stop offset="1" stop-color="#ffb71b"/>
		</radialGradient>
		<radialGradient id="g7" cx="0" cy="0" r="1" gradientUnits="userSpaceOnUse" gradientTransform="matrix(34.158,0,0,34.158,24.54,25.891)">
			<stop offset=".004" stop-color="#a62549"/>
			<stop offset=".317" stop-color="#a3244b"/>
			<stop offset=".511" stop-color="#9b2350"/>
			<stop offset=".674" stop-color="#8c2059"/>
			<stop offset=".818" stop-color="#781c65"/>
			<stop offset=".949" stop-color="#5d1675"/>
			<stop offset="1" stop-color="#51147d"/>
		</radialGradient>
		<radialGradient id="g8" cx="0" cy="0" r="1" gradientUnits="userSpaceOnUse" gradientTransform="matrix(-34.158,0,0,-34.158,76.1,25.891)">
			<stop offset=".004" stop-color="#a62549"/>
			<stop offset=".317" stop-color="#a3244b"/>
			<stop offset=".511" stop-color="#9b2350"/>
			<stop offset=".674" stop-color="#8c2059"/>
			<stop offset=".818" stop-color="#781c65"/>
			<stop offset=".949" stop-color="#5d1675"/>
			<stop offset="1" stop-color="#51147d"/>
		</radialGradient>
		<radialGradient id="g9" cx="0" cy="0" r="1" gradientUnits="userSpaceOnUse" gradientTransform="matrix(48.923,0,0,48.923,50.062,66.57)">
			<stop offset="0" stop-color="#fffb33"/>
			<stop offset=".329" stop-color="#ffe029"/>
			<stop offset=".757" stop-color="#ffc21f"/>
			<stop offset="1" stop-color="#ffb71b"/>
		</radialGradient>
		<radialGradient id="g10" cx="0" cy="0" r="1" gradientUnits="userSpaceOnUse" gradientTransform="matrix(48.923,0,0,48.923,50.062,66.57)">
			<stop offset="0" stop-color="#fffb33"/>
			<stop offset=".329" stop-color="#ffe029"/>
			<stop offset=".757" stop-color="#ffc21f"/>
			<stop offset="1" stop-color="#ffb71b"/>
		</radialGradient>
		<radialGradient id="g11" cx="0" cy="0" r="1" gradientUnits="userSpaceOnUse" gradientTransform="matrix(48.922,0,0,48.922,50.062,66.57)">
			<stop offset="0" stop-color="#fffb33"/>
			<stop offset=".329" stop-color="#ffe029"/>
			<stop offset=".757" stop-color="#ffc21f"/>
			<stop offset="1" stop-color="#ffb71b"/>
		</radialGradient>
		<radialGradient id="g12" cx="0" cy="0" r="1" gradientUnits="userSpaceOnUse" gradientTransform="matrix(48.922,0,0,48.922,50.062,66.57)">
			<stop offset="0" stop-color="#fffb33"/>
			<stop offset=".329" stop-color="#ffe029"/>
			<stop offset=".757" stop-color="#ffc21f"/>
			<stop offset="1" stop-color="#ffb71b"/>
		</radialGradient>
		<linearGradient id="g13" x2="1" gradientUnits="userSpaceOnUse" gradientTransform="matrix(0,-18.199,34.437,0,49.274,81.682)">
			<stop offset="0" stop-color="#813c73"/>
			<stop offset=".726" stop-color="#572956"/>
			<stop offset=".996" stop-color="#432247"/>
		</linearGradient>
		<linearGradient id="g14" x2="1" gradientUnits="userSpaceOnUse" gradientTransform="matrix(0,38.878,-51.041,0,50.32,16.257)">
			<stop offset="0" stop-color="#ffffff"/>
			<stop offset=".374" stop-color="#9e9e9e"/>
			<stop offset="1" stop-color="#000000"/>
		</linearGradient>
		<linearGradient id="g15" x2="1" gradientUnits="userSpaceOnUse" gradientTransform="matrix(0,-18.199,34.437,0,49.274,82.465)">
			<stop offset="0" stop-color="#813c73"/>
			<stop offset=".726" stop-color="#572956"/>
			<stop offset=".996" stop-color="#432247"/>
		</linearGradient>
		<radialGradient id="g16" cx="0" cy="0" r="1" gradientUnits="userSpaceOnUse" gradientTransform="matrix(17.362,0,0,17.362,31.317,44.191)">
			<stop offset="0" stop-color="#ffffff"/>
			<stop offset=".699" stop-color="#ddc6c5"/>
			<stop offset=".794" stop-color="#e4cfce"/>
			<stop offset=".952" stop-color="#f8e8e7"/>
			<stop offset="1" stop-color="#fff1f0"/>
		</radialGradient>
		<radialGradient id="g17" cx="0" cy="0" r="1" gradientUnits="userSpaceOnUse" gradientTransform="matrix(5.765,0,0,5.765,36.612,45.976)">
			<stop offset="0" stop-color="#72b9cf"/>
			<stop offset=".263" stop-color="#69aec6"/>
			<stop offset=".72" stop-color="#5291ae"/>
			<stop offset=".769" stop-color="#4f8eab"/>
			<stop offset=".924" stop-color="#5393af"/>
			<stop offset="1" stop-color="#5798b3"/>
		</radialGradient>
		<radialGradient id="g18" cx="0" cy="0" r="1" gradientUnits="userSpaceOnUse" gradientTransform="matrix(6.036,0,0,6.036,36.612,45.976)">
			<stop offset=".594" stop-color="#5d98ba"/>
			<stop offset="1" stop-color="#3e6f96"/>
		</radialGradient>
		<radialGradient id="g19" cx="0" cy="0" r="1" gradientUnits="userSpaceOnUse" gradientTransform="matrix(-15.705,0,0,-15.705,69.322,46.402)">
			<stop offset="0" stop-color="#ffffff"/>
			<stop offset=".699" stop-color="#ddc6c5"/>
			<stop offset=".794" stop-color="#e4cfce"/>
			<stop offset=".952" stop-color="#f8e8e7"/>
			<stop offset="1" stop-color="#fff1f0"/>
		</radialGradient>
		<radialGradient id="g20" cx="0" cy="0" r="1" gradientUnits="userSpaceOnUse" gradientTransform="matrix(5.894,0,0,5.894,64.662,47.571)">
			<stop offset="0" stop-color="#72b9cf"/>
			<stop offset=".263" stop-color="#69aec6"/>
			<stop offset=".72" stop-color="#5291ae"/>
			<stop offset=".769" stop-color="#4f8eab"/>
			<stop offset=".924" stop-color="#5393af"/>
			<stop offset="1" stop-color="#5798b3"/>
		</radialGradient>
		<radialGradient id="g21" cx="0" cy="0" r="1" gradientUnits="userSpaceOnUse" gradientTransform="matrix(6.17,0,0,6.17,64.662,47.571)">
			<stop offset=".594" stop-color="#5d98ba"/>
			<stop offset="1" stop-color="#3e6f96"/>
		</radialGradient>
		<radialGradient id="g22" cx="0" cy="0" r="1" gradientUnits="userSpaceOnUse" gradientTransform="matrix(11.306,0,0,11.306,48.998,82.788)">
			<stop offset="0" stop-color="#f25c89"/>
			<stop offset=".318" stop-color="#f25987"/>
			<stop offset=".538" stop-color="#f25080"/>
			<stop offset=".729" stop-color="#f24174"/>
			<stop offset=".901" stop-color="#f22b64"/>
			<stop offset="1" stop-color="#f21b58"/>
		</radialGradient>
	</defs>
	<style>
		.s0 { fill: url(#g1) } 
		.s1 { fill: url(#g2) } 
		.s2 { fill: url(#g3) } 
		.s3 { fill: #8f1f44 } 
		.s4 { fill: url(#g4) } 
		.s5 { opacity: .3;fill: #ffffff } 
		.s6 { opacity: .3;fill: #a63838 } 
		.s7 { fill: #a63838 } 
		.s8 { fill: url(#g5) } 
		.s9 { opacity: .2;fill: #ffffff } 
		.s10 { fill: url(#g6) } 
		.s11 { fill: url(#g7) } 
		.s12 { opacity: .1;fill: #ffffff } 
		.s13 { fill: url(#g8) } 
		.s14 { fill: url(#g9) } 
		.s15 { fill: url(#g10) } 
		.s16 { fill: url(#g11) } 
		.s17 { opacity: .4;fill: #ffffff } 
		.s18 { fill: url(#g12) } 
		.s19 { fill: url(#g13) } 
		.s20 { opacity: .5;fill: #ffffff } 
		.s21 { opacity: .3;fill: url(#g14) } 
		.s22 { fill: url(#g15) } 
		.s23 { fill: url(#g16) } 
		.s24 { fill: #ffffff } 
		.s25 { fill: url(#g17) } 
		.s26 { fill: url(#g18) } 
		.s27 { fill: url(#g19) } 
		.s28 { fill: url(#g20) } 
		.s29 { fill: url(#g21) } 
		.s30 { fill: #fdf3de } 
		.s31 { opacity: .5;fill: #a63838 } 
		.s32 { fill: #f9e68a } 
		.s33 { fill: url(#g22) } 
		.s34 { opacity: .4;fill: #752f46 } 
	</style>
	<g id="Layer">
		<g id="Layer">
			<g id="Layer">
				<path id="Layer" class="s0" d="m74 93.8c0 0 3.8-1.3 4.2-1 0.4 0.3-0.1 5-0.1 5z"/>
				<path id="Layer" class="s1" d="m80.2 99.1c0 0 3.5-1.9 4-1.6 0.4 0.2 0.5 4.4 0.5 4.4z"/>
				<path id="Layer" class="s2" d="m86.7 103.2c0 0 3.1-0.9 3.5-0.7 0.4 0.3 0.2 3.9 0.2 3.9z"/>
				<g id="Layer" style="opacity: .3">
					<path id="Layer" class="s3" d="m78.2 92.8q-0.1-0.1-0.4-0.1 0.1 0.4 0.1 0.8c0 1-0.6 1.8-1.3 1.8-0.7 0-1.7-0.8-2-1.7-0.4 0.1-0.7 0.2-0.7 0.2l4.2 4c0 0 0.5-4.7 0.1-5z"/>
					<path id="Layer" class="s3" d="m84.2 97.5q-0.1-0.1-0.2 0 0.1 0.2 0.1 0.4c0.2 0.9-0.1 1.7-0.7 1.8-0.5 0.1-1.7-0.5-2-1.2-0.7 0.3-1.2 0.6-1.2 0.6l4.5 2.8c0 0-0.1-4.2-0.5-4.4z"/>
					<path id="Layer" class="s3" d="m90.2 102.5q-0.1 0-0.2 0 0.1 0.1 0.1 0.3c0.1 0.6-0.2 1.1-0.6 1.2-0.4 0.1-1.3-0.6-1.4-1.2q0 0 0 0c-0.8 0.2-1.4 0.4-1.4 0.4l3.7 3.2c0 0 0.2-3.6-0.2-3.9z"/>
				</g>
			</g>
			<path id="Layer" class="s4" d="m71.1 107.2c4.8 2.7 11.7 2.2 11.7 4.8 0 2.6-5.8 3.9-5.6 4.8 0.1 1 14.4 0.8 14.9-6 0.6-8.3-14.4-11.4-18.1-18z"/>
			<path id="Layer" class="s5" d="m82.2 107.9c-0.8 1.5 1.6 1.8 1.8 3.6 0.3 1.6-1.4 2.2-1.2 2.8 0.2 0.6 3.5-0.4 3.6-3.3 0.1-2.3-3.4-4.5-4.2-3.1z"/>
			<path id="Layer" class="s6" d="m74 92.8l-0.8 4.1c4.6 4.8 16.9 7.6 16.4 14.2-0.4 4.8-11.3 5.8-11.8 5-0.4 0.3-0.6 0.5-0.6 0.7 0.1 1 14.4 0.8 14.9-6 0.6-8.3-14.4-11.4-18.1-18z"/>
			<g id="Layer" style="opacity: .2">
				<path id="Layer" class="s7" d="m76.4 105.5c0.4-1.4 1.5-4.6 5.3-6.2q-0.5-0.3-1.1-0.7c-3.7 1.9-4.9 5.2-5.2 6.7-0.3 1.3-0.3 2.6-0.1 3.6q0.6 0.1 1.2 0.3c-0.3-0.8-0.4-2.2-0.1-3.7z"/>
				<path id="Layer" class="s7" d="m82.9 106.3c1.3-1.2 3.6-2.4 6.7-1.3q-0.6-0.6-1.2-1.2c-2.3-0.3-4.4 0.3-6.1 1.8-1.4 1.3-2.3 3-2.6 4.3q0.4 0.1 0.8 0.2c0.2-1 0.9-2.5 2.4-3.8z"/>
				<path id="Layer" class="s7" d="m86.8 111.2c1.6 0.2 3 1.1 4 2.5q0.2-0.3 0.4-0.5c-1.1-1.5-2.6-2.4-4.3-2.7-1.5-0.2-3.1 0.1-4.4 0.7q0.2 0.3 0.2 0.6c1.2-0.6 2.7-0.8 4.1-0.6z"/>
				<path id="Layer" class="s7" d="m82.1 114.5q-0.3-0.3-0.6-0.5-0.2 0.2-0.4 0.3 0.4 0.2 0.7 0.5c0.5 0.4 1.1 1.1 1 2.2q0.2 0 0.4-0.1c0-0.9-0.3-1.7-1.1-2.4z"/>
			</g>
		</g>
		<g id="Layer">
			<g id="Layer">
				<path id="Layer" class="s3" d="m5.5 82.9c0 0-4.5-0.8-4.3-2.2 0.2-1.4 3-0.2 3-0.2z"/>
				<path id="Layer" class="s3" d="m3.9 79.8c0 0-3.6-0.7-3.4-2 0.2-1.4 3.6-0.1 3.6-0.1z"/>
				<path id="Layer" class="s3" d="m4.6 77c0 0-3.6-0.3-3.1-1.9 0.3-0.9 4.9 0 4.9 0z"/>
			</g>
			<path id="Layer" class="s8" d="m22.1 66.6l2.7 17.7c0 0-5 1.3-11.7 0.6-6.6-0.7-10.3-1.6-9.7-6.5 0.7-5 3.6-2.6 8-4.1 4-1.4 10.7-7.7 10.7-7.7z"/>
			<g id="Layer" style="opacity: .3">
				<path id="Layer" class="s7" d="m11.6 79.8c-0.1 1.9-1.3 3.3-2.6 3.2-1.2 0-2.2-1.6-2.1-3.5 0.2-1.8 1.3-3.2 2.6-3.2 1.2 0.1 2.2 1.7 2.1 3.5z"/>
				<path id="Layer" class="s7" d="m6.4 81.4c0.2 0.5 0.1 1-0.4 1.2-0.4 0.2-0.9-0.1-1.1-0.6-0.2-0.5-0.1-1 0.4-1.2 0.4-0.2 0.9 0.1 1.1 0.6z"/>
				<path id="Layer" class="s7" d="m5.6 76c0.4-0.4 1-0.5 1.3-0.2 0.4 0.4 0.3 0.9-0.1 1.3-0.3 0.4-0.9 0.5-1.2 0.1-0.4-0.3-0.3-0.9 0-1.2z"/>
				<path id="Layer" class="s7" d="m6.2 79c-0.1 0.6-0.6 1.1-1.2 1-0.5-0.1-0.9-0.6-0.8-1.2 0.1-0.7 0.6-1.1 1.1-1.1 0.6 0.1 0.9 0.7 0.9 1.3z"/>
			</g>
			<path id="Layer" class="s9" d="m6.1 76.4c-0.9 1.1 0.8 5.2 8.9 3.6 8-1.7 7.2-7.8 5.8-8.6-1.5-0.9-4.9 2.8-8.1 3.8-3.2 0.9-5.7 0.1-6.6 1.2z"/>
			<path id="Layer" class="s6" d="m23.9 78.6c-1.7 1.2-5.9 3.9-11.2 4.1-4.3 0.1-7.5-0.3-9.1-1.9 0.7 2.9 4.1 3.5 9.5 4.1 6.7 0.7 11.7-0.6 11.7-0.6z"/>
		</g>
		<g id="Layer">
			<g id="Layer">
				<path id="Layer" class="s3" d="m95.2 82.9c0 0 4.5-0.8 4.3-2.2-0.2-1.4-3-0.2-3-0.2z"/>
				<path id="Layer" class="s3" d="m96.8 79.8c0 0 3.6-0.7 3.4-2-0.2-1.4-3.7-0.1-3.7-0.1z"/>
				<path id="Layer" class="s3" d="m96.1 77c0 0 3.6-0.3 3-1.9-0.2-0.9-4.8 0-4.8 0z"/>
			</g>
			<path id="Layer" class="s10" d="m78.6 66.6l-2.7 17.7c0 0 5 1.3 11.7 0.6 6.6-0.7 10.2-1.6 9.6-6.5-0.6-5-3.5-2.6-8-4.1-3.9-1.4-10.6-7.7-10.6-7.7z"/>
			<g id="Layer" style="opacity: .3">
				<path id="Layer" class="s7" d="m89.1 79.8c0.1 1.9 1.2 3.3 2.5 3.2 1.3 0 2.2-1.6 2.1-3.5-0.1-1.8-1.2-3.2-2.5-3.2-1.3 0.1-2.2 1.7-2.1 3.5z"/>
				<path id="Layer" class="s7" d="m94.2 81.4c-0.2 0.5 0 1 0.4 1.2 0.5 0.2 1-0.1 1.2-0.6 0.2-0.5 0-1-0.4-1.2-0.4-0.2-0.9 0.1-1.2 0.6z"/>
				<path id="Layer" class="s7" d="m95 76c-0.3-0.4-0.9-0.5-1.3-0.2-0.3 0.4-0.3 0.9 0.1 1.3 0.4 0.4 1 0.5 1.3 0.1 0.3-0.3 0.3-0.9-0.1-1.2z"/>
				<path id="Layer" class="s7" d="m94.5 79c0.1 0.6 0.6 1.1 1.1 1 0.6-0.1 0.9-0.6 0.9-1.2-0.1-0.7-0.6-1.1-1.2-1.1-0.5 0.1-0.9 0.7-0.8 1.3z"/>
			</g>
			<path id="Layer" class="s9" d="m94.6 76.4c0.9 1.1-0.8 5.2-8.9 3.6-8.1-1.7-7.2-7.8-5.9-8.6 1.6-0.9 5 2.8 8.2 3.8 3.2 0.9 5.7 0.1 6.6 1.2z"/>
			<path id="Layer" class="s6" d="m76.7 78.6c1.8 1.2 5.9 3.9 11.3 4.1 4.3 0.1 7.5-0.3 9.1-1.9-0.8 2.9-4.2 3.5-9.5 4.1-6.7 0.7-11.7-0.6-11.7-0.6z"/>
		</g>
		<g id="Layer">
			<g id="Layer">
				<path id="Layer" class="s11" d="m23.7 23.3c0 0-7.7-1.8-15.4 5.1-7.7 6.9-6.8 16.4-6.8 16.4 0 0 1.2-1.8 3.2-1.1 2 0.7 1.6 4.8 1.6 4.8 0 0 2.4-1 3.7 0.3 1.3 1.3 1.6 5.9 1.6 5.9 0 0 2-0.8 3.5 0.3 1.6 1.2 2 4.3 2 4.3 0 0 3-2.3 4.9 0.9z"/>
				<g id="Layer" style="opacity: .3">
					<path id="Layer" class="s3" d="m8.1 42.9q0.4-1.1 0.9-2.3c0.3-0.8 0.8-1.6 1.2-2.4 0.4-0.8 0.9-1.6 1.4-2.4 0.5-0.7 1-1.5 1.6-2.2 0.6-0.6 1.2-1.3 1.8-1.9 0.7-0.5 1.2-1.1 1.9-1.5 0.7-0.5 1.2-0.9 1.9-1.2q0.9-0.5 1.6-0.8 0.8-0.3 1.4-0.5c0.7-0.2 1.1-0.4 1.1-0.4l-0.3-1.2c0 0-0.4 0.1-1.2 0.4q-0.6 0.2-1.5 0.5-0.8 0.4-1.7 1c-0.7 0.3-1.3 0.8-2 1.3-0.7 0.4-1.3 1-1.9 1.7-0.7 0.5-1.3 1.3-1.9 2-0.6 0.7-1.1 1.6-1.6 2.3-0.5 0.9-1 1.7-1.4 2.5-0.4 0.8-0.8 1.7-1.1 2.5q-0.5 1.2-0.9 2.4c-0.3 0.8-0.5 1.5-0.7 2.2q-0.2 1-0.4 1.9c0.1 0.9 0 1.7 0 1.7 0 0 0.1-0.1 0.3-0.1 0.2-0.8 0.4-2 0.8-3.3 0.2-0.7 0.4-1.4 0.7-2.2z"/>
					<path id="Layer" class="s3" d="m13.7 48.1q0.3-1.1 0.7-2.1c0.3-0.8 0.6-1.5 0.9-2.2q0.5-1 1-2c0.4-0.7 0.7-1.4 1.1-2 0.4-0.6 0.7-1.2 1.1-1.7 0.4-0.5 0.8-1 1.1-1.5q0.6-0.6 1.1-1.1c0.3-0.3 0.6-0.6 0.8-0.8 0.5-0.4 0.8-0.7 0.8-0.7l-0.8-1c0 0-0.3 0.3-0.8 0.8-0.3 0.2-0.6 0.5-0.9 0.9q-0.5 0.5-1.1 1.2c-0.4 0.5-0.7 1-1.1 1.6-0.4 0.5-0.7 1.2-1.1 1.8-0.4 0.6-0.7 1.3-1.1 2q-0.5 1.1-0.9 2.2c-0.3 0.7-0.6 1.4-0.9 2.2q-0.4 1.1-0.7 2.1c-0.4 1.4-0.7 2.7-1 3.9q-0.3 1-0.4 1.8c0.1 0.7 0.1 1.2 0.1 1.2q0 0 0.3-0.1c0.1-0.7 0.3-1.6 0.6-2.8 0.3-1.1 0.7-2.4 1.2-3.7z"/>
					<path id="Layer" class="s3" d="m19.5 53.1q0.2-0.6 0.4-0.9 0.2-0.4 0.2-0.4l-1-0.5q0 0.1-0.2 0.4-0.2 0.4-0.4 1c-0.3 0.9-0.7 2-1 3.2-0.2 0.9-0.4 1.8-0.5 2.6 0.1 0.5 0.1 0.8 0.1 0.8 0 0 0.2-0.1 0.5-0.3 0.2-0.8 0.4-1.9 0.8-2.9 0.3-1.1 0.7-2.2 1.1-3z"/>
				</g>
				<path id="Layer" class="s12" d="m4.3 40c-2.8-1.9 2.3-8.7 4-10.5 2.1-2.1 6.5-4.9 7.8-3.7 1.3 1.2-2.4 3.3-5.4 7.2-2 2.7-4.2 8.7-6.4 7z"/>
				<path id="Layer" class="s12" d="m10.4 44.7c-2.4-1.4 1-7.5 2.2-9.2 1.6-2 4.7-4.9 5.9-4.1 1.2 0.9-1.4 3.2-3.5 6.8-1.4 2.4-2.6 7.6-4.6 6.5z"/>
			</g>
			<g id="Layer">
				<path id="Layer" class="s13" d="m77 23.3c0 0 7.6-1.8 15.3 5.1 7.7 6.9 6.8 16.4 6.8 16.4 0 0-1.1-1.8-3.2-1.1-2 0.7-1.5 4.8-1.5 4.8 0 0-2.4-1-3.8 0.3-1.3 1.3-1.6 5.9-1.6 5.9 0 0-1.9-0.8-3.5 0.3-1.6 1.2-2 4.3-2 4.3 0 0-2.9-2.3-4.9 0.9z"/>
				<g id="Layer" style="opacity: .3">
					<path id="Layer" class="s3" d="m92.5 42.9q-0.4-1.1-0.9-2.3c-0.3-0.8-0.7-1.6-1.1-2.4-0.4-0.8-1-1.6-1.4-2.4-0.6-0.7-1.1-1.5-1.7-2.2-0.6-0.6-1.1-1.3-1.8-1.9-0.6-0.5-1.2-1.1-1.9-1.5-0.6-0.5-1.2-0.9-1.8-1.2q-0.9-0.5-1.7-0.8-0.8-0.3-1.3-0.5c-0.8-0.2-1.2-0.4-1.2-0.4l0.3-1.2c0 0 0.5 0.1 1.3 0.4q0.6 0.2 1.4 0.5 0.8 0.4 1.8 1c0.6 0.3 1.2 0.8 1.9 1.3 0.7 0.4 1.3 1 2 1.7 0.7 0.5 1.2 1.3 1.8 2 0.6 0.7 1.1 1.6 1.7 2.3 0.4 0.9 0.9 1.7 1.3 2.5 0.4 0.8 0.9 1.7 1.2 2.5q0.5 1.2 0.8 2.4c0.3 0.8 0.5 1.5 0.7 2.2q0.3 1 0.4 1.9c0 0.9 0.1 1.7 0.1 1.7 0 0-0.2-0.1-0.4-0.1-0.1-0.8-0.4-2-0.8-3.3-0.2-0.7-0.4-1.4-0.7-2.2z"/>
					<path id="Layer" class="s3" d="m87 48.1q-0.4-1.1-0.8-2.1c-0.2-0.8-0.6-1.5-0.9-2.2q-0.4-1-0.9-2c-0.4-0.7-0.8-1.4-1.1-2-0.4-0.6-0.8-1.2-1.2-1.7-0.4-0.5-0.7-1-1.1-1.5q-0.6-0.6-1-1.1c-0.3-0.3-0.6-0.6-0.9-0.8-0.5-0.4-0.7-0.7-0.7-0.7l0.8-1c0 0 0.3 0.3 0.8 0.8 0.2 0.2 0.6 0.5 0.9 0.9q0.4 0.5 1 1.2c0.4 0.5 0.8 1 1.2 1.6 0.3 0.5 0.7 1.2 1.1 1.8 0.3 0.6 0.7 1.3 1 2q0.5 1.1 1 2.2c0.3 0.7 0.6 1.4 0.8 2.2q0.4 1.1 0.7 2.1c0.5 1.4 0.8 2.7 1.1 3.9q0.2 1 0.3 1.8c0 0.7-0.1 1.2-0.1 1.2q0 0-0.3-0.1c-0.1-0.7-0.3-1.6-0.6-2.8-0.3-1.1-0.7-2.4-1.1-3.7z"/>
					<path id="Layer" class="s3" d="m81.2 53.1q-0.3-0.6-0.5-0.9-0.1-0.4-0.1-0.4l1-0.5q0 0.1 0.1 0.4 0.2 0.4 0.4 1c0.4 0.9 0.7 2 1 3.2 0.2 0.9 0.4 1.8 0.5 2.6-0.1 0.5-0.1 0.8-0.1 0.8 0 0-0.2-0.1-0.5-0.3-0.1-0.8-0.4-1.9-0.7-2.9-0.4-1.1-0.8-2.2-1.1-3z"/>
				</g>
				<path id="Layer" class="s12" d="m96.4 40c2.7-1.9-2.3-8.7-4-10.5-2.1-2.1-6.5-4.9-7.9-3.7-1.3 1.2 2.4 3.3 5.4 7.2 2.1 2.7 4.3 8.7 6.5 7z"/>
				<path id="Layer" class="s12" d="m90.2 44.7c2.5-1.4-1-7.5-2.2-9.2-1.5-2-4.6-4.9-5.9-4.1-1.2 0.9 1.4 3.2 3.5 6.8 1.4 2.4 2.6 7.6 4.6 6.5z"/>
			</g>
		</g>
		<g id="Layer">
			<path id="Layer" class="s14" d="m39.1 15.3c0 0-1.9-8 0.4-8.6 2.3-0.7 3.4 7.8 3.4 7.8z"/>
			<path id="Layer" class="s15" d="m63.3 15.3c0 0 2-8-0.4-8.6-2.3-0.7-3.4 7.8-3.4 7.8z"/>
			<path id="Layer" class="s16" d="m47.5 14.3c0 0-1.1-12.4 3-12.7 4.1-0.4 3.9 12.3 3.9 12.3z"/>
			<path id="Layer" class="s6" d="m62.9 6.7q-0.2-0.1-0.5 0c1.1 0.9-0.3 7.6-0.4 8.3l1.3 0.3c0 0 2-8-0.4-8.6z"/>
			<path id="Layer" class="s6" d="m50.5 1.6q-0.4 0-0.8 0.2c2.5 1.7 2.7 10.2 2.7 12.2l2-0.1c0 0 0.2-12.7-3.9-12.3z"/>
			<path id="Layer" class="s6" d="m41.7 14.7l1.2-0.2c0 0-1.1-8.5-3.4-7.8q-0.2 0-0.3 0.1c1.5 1.4 2.4 7 2.5 7.9z"/>
			<path id="Layer" class="s17" d="m48.6 11.1c0 0-0.3-7.2 1.1-7.4 1.3-0.2 1.3 7.2 1.3 7.2z"/>
			<path id="Layer" class="s17" d="m39.2 12.8c0 0-0.7-3.8 0-4 0.7-0.2 1.3 3.7 1.3 3.7z"/>
			<path id="Layer" class="s17" d="m60.5 12.1c0 0 0.7-3.7 1.4-3.7 0.8 0-0.1 3.9-0.1 3.9z"/>
		</g>
		<path id="Layer" class="s18" d="m74 19.8c-12-10.2-35.3-10.3-47.3 0-10 8.4-6.8 30.6-4.9 46.9 1.9 16.4 7.3 43.8 7.8 44.7 0.5 0.9 2.1 2.2 6 2.2 3.9 0 7.3-0.9 8.3-2.5 0.9-1.5 0.7-5.9 1.7-7.3 1.1-1.5 8.2-1.6 9.4 0 1.1 1.4 0.8 5.8 1.8 7.3 1 1.6 4.3 2.5 8.2 2.5 3.9 0 5.5-1.3 6.1-2.2 0.5-0.9 5.9-28.3 7.7-44.7 1.9-16.3 5.1-38.5-4.8-46.9z"/>
		<path id="Layer" class="s19" d="m66.5 67.6c-2.3-6-32.2-5.9-34.4 0 0 0-1.4 3.9 3.7 9.1 4.8 4.9 12.7 4.8 13.5 4.8 0.8 0 8.6 0.1 13.4-4.8 5.1-5.2 3.8-9.1 3.8-9.1z"/>
		<path id="Layer" class="s20" d="m66.5 69.1c-2.3-6.2-32.2-6.2-34.4 0 0 0-1.4 4.1 3.7 9.5 4.8 5.1 12.7 5 13.5 5 0.8 0 8.6 0.1 13.4-5 5.1-5.4 3.8-9.5 3.8-9.5z"/>
		<path id="Layer" class="s21" d="m70.4 22.8c-10.2-9.3-29.9-9.4-40.2 0-5.1 4.7-6.1 14-5.8 24 4.6 5.2 12.5 8.5 25.9 8.5 13.4 0 21.3-3.3 25.9-8.5 0.4-10-0.6-19.4-5.8-24z"/>
		<path id="Layer" fill-rule="evenodd" class="s6" d="m78.8 66.7c-1.8 16.4-7.2 43.8-7.7 44.7-0.6 0.9-2.2 2.2-6.1 2.2-3.9 0-7.2-0.9-8.2-2.5-1-1.5-0.7-5.9-1.8-7.3-1.2-1.6-8.3-1.5-9.4 0-1 1.4-0.8 5.8-1.7 7.3-1 1.6-4.4 2.5-8.3 2.5-3.9 0-5.5-1.3-6-2.2-0.5-0.9-5.9-28.3-7.8-44.7-1.9-16.3-5.1-38.5 4.9-46.9 12-10.3 35.3-10.2 47.3 0 9.9 8.4 6.7 30.6 4.8 46.9zm-6.9-44.5c-5.2-4.4-11.5-8.1-21.6-8.1-10.1 0-16.4 3.7-21.6 8.1-8.7 7.4-6.8 30.6-5.2 44.2 1.7 15.1 6.8 41.9 8.2 43.4 0.9 0.6 2.4 1 4.3 1 3.1 0 4.6-1 5.1-1.4 0.6-1.6 0.4-4.4 2-6.5 1.5-2 4.8-2.5 7.3-2.5 3.5 0 6 0.8 7.2 2.5 1.6 2.1 1.3 4.8 1.9 6.5 0.3 0.6 1.4 1.2 4.6 1.2 1.9 0 3.6-0.2 4.1-0.7 1.5-0.5 7.5-28.4 9.2-43.5 1.7-14.1 3.2-36.8-5.5-44.2z"/>
		<path id="Layer" class="s22" d="m66.5 68.3c-2.3-5.9-32.2-5.9-34.4 0 0 0-1.4 4 3.7 9.2 4.8 4.8 12.7 4.8 13.5 4.8 0.8 0 8.6 0 13.4-4.8 5.1-5.2 3.8-9.2 3.8-9.2z"/>
		<g id="Layer">
			<path id="Layer" class="s6" d="m49.4 45.6c0-10.1-7.9-18.3-17.7-18.3-4.2 0-7.9 1.5-11 3.9-1.7 8.5-0.8 19.3 0.3 29 3 2.3 6.7 3.7 10.7 3.7 9.8 0 17.7-8.2 17.7-18.3z"/>
			<path id="Layer" class="s23" d="m31.3 61.8c-9.3 0-16.9-7.6-16.9-16.9 0-9.3 7.6-16.9 16.9-16.9 9.4 0 16.9 7.6 16.9 16.9 0 9.3-7.5 16.9-16.9 16.9z"/>
			<path id="Layer" class="s17" d="m46.3 41.3c1.2 7.2-4.9 14.1-13.1 15-13 1.5-17.4-6.9-17-13.5 0.4-7.3 5.6-13 13.8-13.6 8.2-0.5 15.2 4.9 16.3 12.1z"/>
			<path id="Layer" class="s24" d="m41.5 40.4c-1-1.3-1.2-2.8-0.5-3.4 0.7-0.5 2.1 0.1 3.1 1.4 0.9 1.3 1.1 2.8 0.4 3.4-0.7 0.5-2.1-0.1-3-1.4z"/>
			<path id="Layer" class="s25" d="m42.2 46c0 3.1-2.5 5.7-5.6 5.7-3.1 0-5.6-2.6-5.6-5.7 0-3.2 2.5-5.7 5.6-5.7 3.1 0 5.6 2.5 5.6 5.7z"/>
			<path id="Layer" class="s24" d="m37.6 40.9c-1.1 1.5-1.2 3.4 0 4.5 1 1 2.8 1.1 4.2 0.3-0.6-3-2.1-4.3-4.2-4.8z"/>
			<path id="Layer" fill-rule="evenodd" class="s26" d="m42.4 46c0 3.3-2.6 5.9-5.8 5.9-3.2 0-5.8-2.6-5.8-5.9 0-3.3 2.6-6 5.8-6 3.2 0 5.8 2.7 5.8 6zm-0.9 0c0-2.8-2.2-5.1-4.9-5.1-2.7 0-4.9 2.3-4.9 5.1 0 2.8 2.2 5 4.9 5 2.7 0 4.9-2.2 4.9-5z"/>
		</g>
		<g id="Layer">
			<path id="Layer" class="s6" d="m53 47.5c0 9.1 7.3 16.5 16.4 16.5 3.8 0 7.4-1.3 10.2-3.6 0.9-8.2 1.7-17.2 0.9-24.9-2.9-2.8-6.8-4.5-11.1-4.5-9.1 0-16.4 7.4-16.4 16.5z"/>
			<path id="Layer" class="s27" d="m69.3 62.3c-8.4 0-15.2-6.8-15.2-15.3 0-8.4 6.8-15.2 15.2-15.2 8.5 0 15.3 6.8 15.3 15.2 0 8.5-6.8 15.3-15.3 15.3z"/>
			<path id="Layer" class="s17" d="m55.7 43.8c-1 6.5 4.5 12.8 11.9 13.6 11.8 1.3 15.8-6.3 15.4-12.3-0.4-6.6-5-11.8-12.5-12.2-7.4-0.5-13.7 4.4-14.8 10.9z"/>
			<path id="Layer" class="s24" d="m70.5 41.9c-1.2-1.4-1.6-3.1-0.8-3.8 0.7-0.7 2.3-0.2 3.5 1.2 1.3 1.4 1.6 3.1 0.9 3.8-0.8 0.7-2.4 0.2-3.6-1.2z"/>
			<path id="Layer" class="s28" d="m64.7 53.4c-3.2 0-5.7-2.6-5.7-5.8 0-3.2 2.5-5.8 5.7-5.8 3.1 0 5.7 2.6 5.7 5.8 0 3.2-2.6 5.8-5.7 5.8z"/>
			<path id="Layer" class="s24" d="m65.7 42.4c-1.2 1.5-1.2 3.5 0 4.6 1 1 2.8 1.1 4.3 0.3-0.7-3.1-2.2-4.4-4.3-4.9z"/>
			<path id="Layer" fill-rule="evenodd" class="s29" d="m70.6 47.6c0 3.3-2.6 6.1-5.9 6.1-3.3 0-6-2.8-6-6.1 0-3.4 2.7-6.1 6-6.1 3.3 0 5.9 2.7 5.9 6.1zm-0.9 0c0-2.9-2.3-5.2-5-5.2-2.8 0-5.1 2.3-5.1 5.2 0 2.8 2.3 5.1 5.1 5.1 2.7 0 5-2.3 5-5.1z"/>
		</g>
		<g id="Layer">
			<path id="Layer" class="s30" d="m41.7 69.7c4.8-0.9 4-5.5 3.9-5.7-3.1 0.2-6.1 0.6-8.4 1.3q-0.6 0.1-1.1 0.4c0 0 0.8 4.9 5.6 4z"/>
			<path id="Layer" class="s30" d="m58 69.7c4.1 0.7 5.2-2.8 5.4-3.8-2.3-0.9-5.6-1.5-9.2-1.8-0.1 0.7-0.5 4.8 3.8 5.6z"/>
		</g>
		<path id="Layer" class="s31" d="m47.5 86c0 0 0.5 0 1.3 0.1 0.3 0 0.8-0.1 1.2-0.1q0.7 0 1.5 0 0.7-0.1 1.4-0.2 0.7-0.1 1.2-0.3 0.6-0.1 0.9-0.2 0.3-0.1 0.3-0.1h0.1c0.3-0.1 0.6 0.1 0.6 0.4 0.1 0.2 0 0.5-0.2 0.6q0 0-0.3 0.2c-0.2 0.1-0.5 0.3-0.9 0.5-0.4 0.1-0.9 0.3-1.4 0.4q-0.7 0.2-1.6 0.3-0.8 0.1-1.6 0.1c-0.5-0.1-1-0.1-1.4-0.2-0.8-0.1-1.3-0.3-1.3-0.3-0.3-0.1-0.5-0.5-0.4-0.8 0.1-0.2 0.4-0.4 0.6-0.4z"/>
		<g id="Layer" style="opacity: .2">
			<path id="Layer" class="s7" d="m29.5 92.3c-1.8 0.3-2.8 2.9-2.3 5.7 0.6 2.9 2.5 4.9 4.3 4.5 1.8-0.3 2.8-2.9 2.2-5.7-0.5-2.9-2.4-4.9-4.2-4.5z"/>
			<path id="Layer" class="s7" d="m31 90.7c1.1-0.2 1.8-1.5 1.6-2.9-0.2-1.4-1.3-2.4-2.5-2.2-1.1 0.1-1.8 1.4-1.6 2.8 0.2 1.4 1.3 2.4 2.5 2.3z"/>
			<path id="Layer" class="s7" d="m27.2 84.1c-0.4-2.2-1.7-3.8-2.9-3.6q-0.3 0.1-0.5 0.2c0.4 2.6 0.8 5.2 1.3 7.8q0.2 0 0.4 0c1.3-0.2 2.1-2.2 1.7-4.4z"/>
			<path id="Layer" class="s7" d="m29.9 109.5c1.1-0.2 1.9-1.4 1.6-2.9-0.2-1.4-1.3-2.4-2.4-2.2q-0.6 0.1-1 0.5c0.4 1.9 0.7 3.4 1 4.6q0.4 0.1 0.8 0z"/>
		</g>
		<g id="Layer" style="opacity: .2">
			<path id="Layer" class="s7" d="m71.1 92.3c1.8 0.3 2.9 2.9 2.3 5.7-0.5 2.9-2.4 4.9-4.2 4.5-1.8-0.3-2.9-2.9-2.3-5.7 0.5-2.9 2.4-4.9 4.2-4.5z"/>
			<path id="Layer" class="s7" d="m69.7 90.7c-1.2-0.2-1.9-1.5-1.7-2.9 0.3-1.4 1.4-2.4 2.5-2.2 1.1 0.1 1.8 1.4 1.6 2.8-0.2 1.4-1.3 2.4-2.4 2.3z"/>
			<path id="Layer" class="s7" d="m73.4 84.1c0.4-2.2 1.7-3.8 3-3.6q0.2 0.1 0.5 0.2c-0.4 2.6-0.9 5.2-1.3 7.8q-0.3 0-0.5 0c-1.3-0.2-2-2.2-1.7-4.4z"/>
			<path id="Layer" class="s7" d="m70.7 109.5c-1.1-0.2-1.8-1.4-1.6-2.9 0.2-1.4 1.3-2.4 2.5-2.2q0.5 0.1 0.9 0.5c-0.4 1.9-0.7 3.4-0.9 4.6q-0.4 0.1-0.9 0z"/>
		</g>
		<g id="Layer" style="opacity: .2">
			<path id="Layer" class="s7" d="m51.1 16.7c-2.9 0.2-5.1 1.9-4.9 3.7 0.1 1.8 2.6 3.1 5.5 2.9 2.8-0.3 5.1-1.9 4.9-3.8-0.1-1.8-2.6-3.1-5.5-2.8z"/>
			<path id="Layer" class="s7" d="m47.4 15c0-0.7-1.5-1.2-3.2-1-1.7 0.1-3 0.8-2.9 1.5 0 0.7 1.4 1.1 3.1 1 1.7-0.2 3.1-0.8 3-1.5z"/>
			<path id="Layer" class="s7" d="m60 14.2c-1.7-0.4-3.2 0-3.3 0.8-0.2 0.7 1.1 1.6 2.8 1.9 1.6 0.4 3.1 0 3.3-0.8 0.1-0.7-1.1-1.6-2.8-1.9z"/>
			<path id="Layer" class="s7" d="m51.8 14.2c1.7 0.1 3.1-0.6 3.2-1.4q0-0.3-0.1-0.5-3-0.3-6-0.2-0.1 0.2-0.1 0.4c0 0.9 1.3 1.7 3 1.7z"/>
		</g>
		<g id="Layer">
			<path id="Layer" class="s6" d="m37.5 17.8c1.1 2.8-0.6 4.7-5.2 6.1-4.6 1.4-6.4 0.8-7-0.7-0.6-1.4-0.3-4.2 3.9-6.1 4.2-1.8 7.6-1.1 8.3 0.7z"/>
			<path id="Layer" class="s32" d="m37.2 16.1c1.2 2.7-0.6 4.7-5.2 6.1-4.6 1.4-6.4 0.8-7-0.7-0.6-1.5-0.3-4.3 3.9-6.1 4.2-1.9 7.6-1.1 8.3 0.7z"/>
			<path id="Layer" class="s20" d="m31.6 19.5c-4.6 1.7-6.8 1.7-6-0.5 0.4-1.1 1.4-2.3 3.6-3.3 2.2-1 4.2-1.1 5.5-0.8 2.7 0.7 1.6 2.9-3.1 4.6z"/>
		</g>
		<g id="Layer">
			<path id="Layer" class="s6" d="m63.7 19.3c-1.3 2.8 0.4 4.7 4.9 6.3 4.6 1.6 6.4 1.1 7.1-0.3 0.6-1.5 0.4-4.3-3.7-6.3-4.1-2-7.5-1.4-8.3 0.3z"/>
			<path id="Layer" class="s32" d="m63.7 17.5c-1.3 2.8 0.4 4.8 4.9 6.4 4.6 1.5 6.4 1 7.1-0.4 0.6-1.5 0.4-4.3-3.7-6.3-4.1-2-7.5-1.4-8.3 0.3z"/>
			<path id="Layer" class="s20" d="m69.1 21.2c4.6 1.9 6.8 2 6.1-0.3-0.4-1.1-1.4-2.3-3.4-3.4-2.2-1-4.2-1.3-5.6-1-2.6 0.6-1.6 2.8 2.9 4.7z"/>
		</g>
		<g id="Layer">
			<path id="Layer" class="s33" d="m56.9 74.7c-3.7-1.9-7.2 0.5-7.6 0.8-0.4-0.3-3.9-2.7-7.6-0.8-3.7 1.9-2.3 4.9-0.9 6 4 1.6 7.9 1.6 8.5 1.6 0.5 0 4.6 0 8.6-1.7 1.3-1.1 2.7-4.1-1-5.9z"/>
			<path id="Layer" class="s34" d="m57.4 75q0.2 0.5 0.2 1c0 2.5-3.7 4.5-8.3 4.5-4.6 0-8.3-2-8.3-4.5q0-0.5 0.2-1c-3.1 1.9-1.7 4.6-0.4 5.7 4 1.6 7.9 1.6 8.5 1.6 0.5 0 4.6 0 8.6-1.7 1.3-1.1 2.5-3.8-0.5-5.6z"/>
			<path id="Layer" class="s34" d="m51.3 75.1c0.7-0.5 1.7-0.9 3.2-1.1-2.7-0.2-4.9 1.2-5.2 1.5-0.3-0.3-2.5-1.7-5.1-1.5 0.4 0.1 2 0.3 3.3 1.1 1.8 1.2 1.4 2.9 1.9 2.9 0.5 0-0.1-1.7 1.9-2.9z"/>
			<path id="Layer" class="s5" d="m53.1 74.7c-1 0.3-1.7 1-1.5 1.5 0.2 0.5 1.2 0.6 2.2 0.3 1-0.3 1.7-1 1.5-1.5-0.2-0.5-1.1-0.6-2.2-0.3z"/>
			<path id="Layer" class="s5" d="m43.2 74.7c-1 0.3-1.7 1-1.5 1.5 0.2 0.5 1.2 0.6 2.2 0.3 1-0.3 1.7-1 1.5-1.5-0.2-0.5-1.2-0.6-2.2-0.3z"/>
		</g>
	</g>
</svg>