<svg version="1.2" xmlns="http://www.w3.org/2000/svg" viewBox="0 0 676 630" width="676" height="630">
	<title>monster--all2-svg</title>
	<style>
		.s0 { fill: #433352 } 
		.s1 { fill: #20172d } 
		.s2 { fill: #ffffff } 
		.s3 { fill: #249fbe } 
		.s4 { fill: #032d38 } 
		.s5 { fill: #2b1f3a } 
		.s6 { fill: #1d172b } 
		.s7 { fill: #776993 } 
		.s8 { fill: #67557c } 
		.s9 { fill: #fffa9c } 
		.s10 { fill: #56476d } 
		.s11 { fill: #958ba3 } 
	</style>
	<g id="Object">
		<g id="Layer">
			<g id="Layer">
				<g id="Layer">
					<g id="Layer">
						<path id="Layer" class="s0" d="m254.1 145.8q0.5 1.3 1 2.7c7.2 16.8 19.6 29.4 33.9 36.5l4.9 11.3-66.1 28.1-4.8-11.3c4.9-15.2 4.3-33-2.9-49.7q-0.6-1.6-1.4-3.1c-7.3-15.3-19-26.8-32.5-33.4l-5-11.8 66.1-28.2 5 11.8c-4.6 14.4-4.4 31.1 1.8 47.1z"/>
						<g id="Layer">
							<path id="Layer" class="s1" d="m247.3 86.9l5 11.8c-4.6 14.4-4.4 31.1 1.8 47.1-4.7 3.7-10 6.9-15.8 9.3-6.4 2.8-13 4.4-19.6 5.2-7.3-15.3-19-26.8-32.5-33.4l-5-11.8z"/>
							<path id="Layer" class="s0" d="m266.4 95.9c-14.3 35.6-54.6 52.7-90.2 38.4-35.5-14.3-52.7-54.6-38.4-90.2 14.3-35.6 54.6-52.7 90.2-38.4 35.6 14.3 52.8 54.6 38.4 90.2z"/>
							<path id="Layer" class="s2" d="m242.9 110.9c-22.6 22.5-59 22.5-81.6 0-22.5-22.6-22.5-59 0-81.6 22.6-22.5 59-22.5 81.6 0 22.5 22.6 22.5 59 0 81.6z"/>
							<path id="Layer" class="s3" d="m230.5 90.1c-8.6 14.7-27.5 19.6-42.2 11-14.7-8.6-19.7-27.5-11.1-42.2 8.7-14.7 27.5-19.6 42.2-11 14.8 8.6 19.7 27.4 11.1 42.2z"/>
							<path id="Layer" class="s4" d="m218.9 78.5c-2.2 8.4-10.7 13.3-19 11.1-8.4-2.2-13.3-10.7-11.1-19.1 2.2-8.3 10.7-13.2 19.1-11 8.3 2.2 13.2 10.7 11 19z"/>
							<path id="Layer" class="s2" d="m202 62.9c1.7 3.9 6.2 5.7 10.2 4.1 3.9-1.7 5.8-6.3 4.1-10.2-1.7-3.9-6.3-5.8-10.2-4.1-3.9 1.7-5.8 6.2-4.1 10.2z"/>
						</g>
					</g>
					<g id="Layer">
						<path id="Layer" class="s0" d="m418.7 145.8q-0.5 1.3-1.1 2.7c-7.1 16.8-19.5 29.4-33.9 36.5l-4.8 11.3 66.1 28.1 4.8-11.3c-4.9-15.2-4.3-33 2.8-49.7q0.7-1.6 1.4-3.1c7.3-15.3 19.1-26.8 32.5-33.4l5.1-11.8-66.1-28.2-5.1 11.8c4.7 14.4 4.4 31.1-1.7 47.1z"/>
						<g id="Layer">
							<path id="Layer" class="s1" d="m425.5 86.9l-5.1 11.8c4.7 14.4 4.4 31.1-1.7 47.1 4.7 3.7 9.9 6.9 15.7 9.3 6.4 2.8 13 4.4 19.6 5.2 7.3-15.3 19.1-26.8 32.5-33.4l5.1-11.8z"/>
							<path id="Layer" class="s0" d="m535.2 95c-13.7 35.8-53.8 53.6-89.6 39.8-35.7-13.7-53.5-53.8-39.8-89.6 13.8-35.8 53.8-53.6 89.6-39.8 35.8 13.8 53.6 53.8 39.8 89.6z"/>
							<path id="Layer" class="s2" d="m511.4 110.9c-22.6 22.5-59 22.5-81.6 0-22.5-22.6-22.5-59 0-81.6 22.6-22.5 59-22.5 81.6 0 22.5 22.6 22.5 59 0 81.6z"/>
							<path id="Layer" class="s3" d="m498.6 83c-4.7 16.3-21.7 25.8-38.1 21.1-16.4-4.7-25.9-21.7-21.2-38.1 4.7-16.4 21.8-25.9 38.2-21.2 16.4 4.7 25.8 21.8 21.1 38.2z"/>
							<path id="Layer" class="s4" d="m484.6 75.3c-0.5 8.6-7.8 15.2-16.4 14.7-8.6-0.5-15.2-7.8-14.7-16.4 0.5-8.6 7.8-15.2 16.4-14.7 8.6 0.5 15.1 7.8 14.7 16.4z"/>
							<path id="Layer" class="s2" d="m470.7 62.9c-1.6 3.9-6.2 5.7-10.1 4.1-4-1.7-5.8-6.3-4.1-10.2 1.7-3.9 6.2-5.8 10.1-4.1 4 1.7 5.8 6.2 4.1 10.2z"/>
						</g>
					</g>
				</g>
				<g id="Layer">
					<path id="Layer" class="s0" d="m528.6 593.8q-1 1.8-2.4 3.7c0 0-5.2 22.5-31.9 15.6 0 0-1.5 1.2-4.4 2.4-4.8 2-13.7 4.1-27.2 1.5q-2.8-0.5-5.9-1.4c-10.5-2.8-18.3-2.2-24.5-1.7-9 0.7-14.3 0.9-18.9-11.2-7.5-19.9 8.5-26.2-0.5-87.2q-0.2-2-0.6-4c-10.2-64.7 79.6-53.7 79.6-53.7 0 0 0.4 1.3 1.2 3.5 1.8 5.2 5.3 16.1 8.6 29.6q0.6 2.3 1.2 4.8c4.5 19.3 8.2 43 6.4 63.3 0 0 31.8 12.9 19.3 34.8z"/>
					<path id="Layer" class="s5" d="m506.1 574.9c11.6 3.8 18.1 24.4 18.1 24.4 1.7-2.1 3-4.2 4.2-6.2-10.6-19.4-22.3-18.2-22.3-18.2z"/>
					<path id="Layer" class="s5" d="m489.9 617.7c4.8-2 7.2-3.9 7.2-3.9 0 0 1.2-29.8-25.5-35.3 0.8 0.4 16.8 9 18.3 39.2z"/>
					<path id="Layer" class="s6" d="m452.5 562c-36.8 37.4 13.4 52.4 13.4 52.4 0 0-1.2 1-3.2 2.6q-2.8-0.5-6-1.4c-10.4-2.8-18.2-2.2-24.4-1.7-9 0.7-14.3 0.9-18.9-11.2-7.5-19.9 8.5-26.2-0.5-87.2q-0.2-2-0.6-4c-10.2-64.7 79.6-53.7 79.6-53.7 0 0 0.4 1.3 1.2 3.5l-1.7 1.8c0 0-2.1 61.6-38.9 98.9z"/>
					<path id="Layer" class="s2" d="m509.9 584.4c0 0 22.9 0.7 17.3 36 0 0-13.4-0.3-23.8-4.9-13.4-5.9-7.2-30 6.5-31.1z"/>
					<path id="Layer" class="s2" d="m525.3 569.9c0 0 16.1 0.6 12.7 26.3 0 0-3.9-2.7-9.4-5.3-8.4-4-11.7-20.2-3.3-21z"/>
					<path id="Layer" class="s2" d="m471.3 592.7c0 0 22.9 0.8 17.4 36.1 0 0-13.5-0.4-23.9-4.9-13.4-5.9-7.2-30.1 6.5-31.2z"/>
				</g>
				<g id="Layer">
					<path id="Layer" class="s0" d="m140.9 593.8q1.1 1.8 2.5 3.7c0 0 5.2 22.5 31.9 15.6 0 0 1.4 1.2 4.4 2.4 4.8 2 13.7 4.1 27.1 1.5q2.9-0.5 6-1.4c10.5-2.8 18.3-2.2 24.4-1.7 9.1 0.7 14.4 0.9 19-11.2 7.5-19.9-8.5-26.2 0.4-87.2q0.3-2 0.6-4c10.3-64.7-79.5-53.7-79.5-53.7 0 0-0.5 1.3-1.2 3.5-1.8 5.2-5.3 16.1-8.7 29.6q-0.5 2.3-1.1 4.8c-4.5 19.3-8.3 43-6.5 63.3 0 0-31.7 12.9-19.3 34.8z"/>
					<path id="Layer" class="s5" d="m163.5 574.9c-11.6 3.8-18.2 24.4-18.2 24.4-1.6-2.1-3-4.2-4.1-6.2 10.6-19.4 22.3-18.2 22.3-18.2z"/>
					<path id="Layer" class="s5" d="m179.7 617.7c-4.8-2-7.2-3.9-7.2-3.9 0 0-1.3-29.8 25.5-35.3-0.9 0.4-16.8 9-18.3 39.2z"/>
					<path id="Layer" class="s6" d="m217.1 562c36.7 37.4-13.4 52.4-13.4 52.4 0 0 1.2 1 3.1 2.6q2.9-0.5 6-1.4c10.5-2.8 18.3-2.2 24.4-1.7 9.1 0.7 14.4 0.9 19-11.2 7.5-19.9-8.5-26.2 0.4-87.2q0.3-2 0.6-4c10.3-64.7-79.5-53.7-79.5-53.7 0 0-0.5 1.3-1.2 3.5l1.6 1.8c0 0 2.2 61.6 39 98.9z"/>
					<path id="Layer" class="s2" d="m159.7 584.4c0 0-22.9 0.7-17.4 36 0 0 13.5-0.3 23.9-4.9 13.4-5.9 7.2-30-6.5-31.1z"/>
					<path id="Layer" class="s2" d="m144.2 569.9c0 0-16 0.6-12.6 26.3 0 0 3.9-2.7 9.3-5.3 8.4-4 11.8-20.2 3.3-21z"/>
					<path id="Layer" class="s2" d="m198.2 592.7c0 0-22.9 0.8-17.3 36.1 0 0 13.5-0.4 23.9-4.9 13.4-5.9 7.2-30.1-6.6-31.2z"/>
				</g>
				<g id="Layer">
					<path id="Layer" class="s0" d="m672.3 291c2.2 12.5-33.4 11.4-33.4 11.4 0 0-6.4 20.6-31.2 21.5 0 0-43.8 58.7-56.9 59-11.1 0.3-64.3-32-79.7-41.4-2.6-1.6-4.1-2.6-4.1-2.6l-23.7-62.7 13.7-8.3 7.2-4.5c0 0 55.2 22.9 82.5 56.8l24.5-24.5c0 0 3.9-35.6-10-61.3-5.3-9.6-2.9-14.6 2.7-15.1 9.3-0.9 27.4 10.3 34.3 32.1 0 0 16.4-32 32.9-32.2 16.2-0.1-2.7 35.3-3.1 36.1 0.8-0.6 31.6-26.4 44.9-20.6 13.3 5.9-29.3 43.8-29.3 43.8 0 0 26.5 0 28.7 12.5z"/>
					<path id="Layer" class="s5" d="m611.5 248.9c5 0.6 9.9 2.4 14.3 5 4.4 2.6 8.5 6 11.5 10.3 1.5 2.1 2.8 4.5 3.8 6.9 1 2.4 1.6 5 2 7.6 0.6 5.1 0.1 10.3-1.6 15.1-0.2-5.1-0.6-9.9-1.8-14.5-0.7-2.2-1.4-4.4-2.4-6.6q-1.5-3.1-3.5-5.9c-2.7-3.8-6.1-7.1-9.9-10.1-3.8-2.9-8-5.5-12.4-7.8z"/>
					<path id="Layer" class="s5" d="m638.9 302.4c0 0-6.4 20.6-31.2 21.5 0 0-43.8 58.7-56.9 59-11.1 0.3-64.3-32-79.7-41.4 1.7-19 4.8-42.1 4.8-42.1 0 0 47.7 72.4 73.8 64.3 26.2-8.1 48.2-47.6 48.2-47.6 27 1.3 33.7-19.3 33.7-19.3 32.9 7.8 40.7-5.8 40.7-5.8 2.2 12.5-33.4 11.4-33.4 11.4z"/>
					<path id="Layer" class="s7" d="m576.8 299.4l-34.9 30.6c-20.9-34-84.9-62.1-84.9-62.1l7.2-4.5c0 0 55.2 22.9 82.5 56.8l24.5-24.5c0 0 3.9-35.6-10-61.3-5.3-9.6-2.9-14.6 2.7-15.1-2.2 3.1-1.2 8.5 4.8 20.7 12.5 25.6 8.1 59.4 8.1 59.4z"/>
				</g>
				<g id="Layer">
					<path id="Layer" class="s0" d="m7 291c-2.3 12.5 33.4 11.4 33.4 11.4 0 0 6.4 20.6 31.2 21.5 0 0 43.7 58.7 56.8 59 11.2 0.3 64.4-32 79.7-41.4 2.7-1.6 4.2-2.6 4.2-2.6l23.6-62.7-13.6-8.3-7.3-4.5c0 0-55.1 22.9-82.4 56.8l-24.5-24.5c0 0-3.9-35.6 10-61.3 5.3-9.6 2.9-14.6-2.7-15.1-9.3-0.9-27.4 10.3-34.3 32.1 0 0-16.5-32-32.9-32.2-16.3-0.1 2.6 35.3 3 36.1-0.7-0.6-31.6-26.4-44.8-20.6-13.4 5.9 29.3 43.8 29.3 43.8 0 0-26.5 0-28.7 12.5z"/>
					<path id="Layer" class="s5" d="m67.8 248.9c-5 0.6-9.9 2.4-14.3 5-4.5 2.6-8.5 6-11.6 10.3-1.5 2.1-2.8 4.5-3.8 6.9-0.9 2.4-1.6 5-1.9 7.6-0.6 5.1-0.1 10.3 1.6 15.1 0.1-5.1 0.6-9.9 1.8-14.5 0.6-2.2 1.4-4.4 2.4-6.6q1.5-3.1 3.5-5.9c2.7-3.8 6.1-7.1 9.9-10.1 3.8-2.9 7.9-5.5 12.4-7.8z"/>
					<path id="Layer" class="s5" d="m40.4 302.4c0 0 6.4 20.6 31.2 21.5 0 0 43.7 58.7 56.8 59 11.2 0.3 64.4-32 79.7-41.4-1.6-19-4.7-42.1-4.7-42.1 0 0-47.7 72.4-73.9 64.3-26.1-8.1-48.2-47.6-48.2-47.6-27 1.3-33.7-19.3-33.7-19.3-32.8 7.8-40.6-5.8-40.6-5.8-2.3 12.5 33.4 11.4 33.4 11.4z"/>
					<path id="Layer" class="s7" d="m102.5 299.4l34.8 30.6c20.9-34 85-62.1 85-62.1l-7.3-4.5c0 0-55.1 22.9-82.4 56.8l-24.5-24.5c0 0-3.9-35.6 10-61.3 5.3-9.6 2.9-14.6-2.7-15.1 2.2 3.1 1.2 8.5-4.8 20.7-12.5 25.6-8.1 59.4-8.1 59.4z"/>
				</g>
				<g id="Layer">
					<path id="Layer" class="s0" d="m446.6 536.5q-4.9 3.8-10.2 6.6c-69.4 36.8-155.1 33-209.8-7.5-29.8-22-50.4-54.8-54.3-97.8-10.7-117 23.4-280.8 153.8-287.5 200.2-10.2 216.3 313.5 120.5 386.2z"/>
					<path id="Layer" class="s7" d="m359.9 151.9q-12-1.2-25.1-0.5c-130.3 6.7-164.4 170.5-153.7 287.5 3.9 43 24.5 75.8 54.2 97.8 21.9 16.1 48.7 26.5 77.4 30.7-32-3.3-62.1-14-86.1-31.8-29.8-22-50.4-54.8-54.3-97.8-10.7-117 23.4-280.8 153.8-287.5 11.9-0.6 23.2 0 33.8 1.6z"/>
					<path id="Layer" class="s8" d="m446.6 536.5q-4.9 3.8-10.2 6.6c-69.4 36.8-155.1 33-209.8-7.5-1-74.4 25-163.5 103.1-167.5 89.2-4.6 123.3 90.7 116.9 168.4z"/>
					<g id="Layer">
						<g id="Layer">
							<path id="Layer" class="s9" d="m325.9 282.7v32.1c-12-0.8-24-3-35.4-6.8v-25.3z"/>
							<path id="Layer" class="s9" d="m383 282.7v25.3c-11.4 3.9-23.4 6-35.4 6.8v-32.1c0 0 35.4 0 35.4 0z"/>
						</g>
						<path id="Layer" class="s5" d="m422.6 281.3c-2 3.4-4.4 6.6-7.4 9.3l-1 1.1c-0.4 0.4-0.8 0.7-1.2 1l-2.3 1.9c-1.6 1.3-3.2 2.4-4.9 3.6-6.7 4.4-14.1 7.8-21.7 10.5q-0.5 0.2-1.1 0.4c-11.4 3.9-23.4 6-35.4 6.8q-5.4 0.4-10.8 0.4-5.5 0-10.9-0.4c-12-0.8-24-3-35.4-6.8q-0.6-0.2-1.1-0.4c-7.6-2.7-15-6.1-21.7-10.5-1.7-1.2-3.3-2.3-4.9-3.6l-2.3-1.9c-0.4-0.3-0.8-0.7-1.1-1l-1.1-1.1c-3-2.7-5.4-6-7.4-9.3 5.8 5.3 12.4 9.1 19.4 12.2 6.5 2.8 13.3 4.9 20.2 6.6q0.7 0.2 1.3 0.3c11.2 2.7 22.6 4.1 34.1 4.6q5.4 0.3 10.9 0.3 5.4 0 10.8-0.3c11.5-0.5 22.9-1.9 34.1-4.6q0.7-0.1 1.3-0.3c6.9-1.7 13.7-3.8 20.2-6.6 7-3.1 13.6-6.9 19.4-12.2z"/>
						<path id="Layer" class="s10" d="m422.6 281.3q-1 1.7-2.1 3.3l-1.7 1.2c-1.7 1.3-3.6 2.4-5.4 3.6-7.5 4.4-15.7 7.9-24.1 10.5q-0.6 0.2-1.2 0.4c-12.7 3.9-26 6-39.3 6.8q-6 0.4-12 0.4-6.1 0-12.1-0.4c-13.3-0.8-26.6-2.9-39.3-6.8q-0.6-0.2-1.2-0.4c-8.4-2.7-16.6-6.1-24.1-10.5-1.8-1.2-3.7-2.3-5.4-3.6l-1.7-1.3q-1.1-1.5-2.1-3.2c5.8 5.3 12.4 9.1 19.4 12.2 6.5 2.8 13.3 4.9 20.2 6.6q0.7 0.2 1.3 0.3c11.2 2.7 22.6 4.1 34.1 4.6q5.4 0.3 10.9 0.3 5.4 0 10.8-0.3c11.5-0.5 22.9-1.9 34.1-4.6q0.7-0.1 1.3-0.3c6.9-1.7 13.7-3.8 20.2-6.6 7-3.1 13.6-6.9 19.4-12.2z"/>
						<path id="Layer" class="s7" d="m422.6 281.3q-1 1.7-2.1 3.3l-1.7 1.2c-1.7 1.3-3.6 2.4-5.4 3.6-7.5 4.4-15.7 7.9-24.1 10.5q-0.6 0.2-1.2 0.4c-12.7 3.9-26 6-39.3 6.8q-6 0.4-12 0.4-6.1 0-12.1-0.4c-13.3-0.8-26.6-2.9-39.3-6.8q-0.6-0.2-1.2-0.4c-8.4-2.7-16.6-6.1-24.1-10.5-1.8-1.2-3.7-2.3-5.4-3.6l-1.7-1.3q-1.1-1.5-2.1-3.2c5.8 5.3 12.4 9.1 19.4 12.2 6.5 2.8 13.3 4.9 20.2 6.6q0.7 0.2 1.3 0.3c11.2 2.7 22.6 4.1 34.1 4.6q5.4 0.3 10.9 0.3 5.4 0 10.8-0.3c11.5-0.5 22.9-1.9 34.1-4.6q0.7-0.1 1.3-0.3c6.9-1.7 13.7-3.8 20.2-6.6 7-3.1 13.6-6.9 19.4-12.2z"/>
						<path id="Layer" class="s5" d="m407.8 276.2c2.4-2.2 6-3.2 9.5-2.7 3.6 0.4 7 2.4 9.3 5.3 2.3 2.8 3.4 6.6 3.1 10.1-0.3 3.6-2.1 6.9-4.9 8.7 0.9-3.1 1-6 0.5-8.6-0.4-2.6-1.5-4.9-3-6.8-1.6-1.9-3.6-3.5-6-4.5-2.4-1.1-5.2-1.6-8.5-1.5z"/>
						<path id="Layer" class="s5" d="m264.9 276.2c-2.4-2.2-6-3.2-9.6-2.7-3.5 0.4-6.9 2.4-9.2 5.3-2.3 2.8-3.4 6.6-3.1 10.1 0.3 3.6 2.1 6.9 4.9 8.7-0.9-3.1-1-6-0.5-8.6 0.4-2.6 1.5-4.9 3-6.8 1.6-1.9 3.6-3.5 6-4.5 2.4-1.1 5.2-1.6 8.5-1.5z"/>
						<path id="Layer" class="s5" d="m392 328.7c-4 2.6-8.2 5-12.7 6.9-4.4 1.9-9 3.4-13.7 4.6-9.4 2.4-19.1 3.5-28.8 3.6-9.8-0.1-19.5-1.2-28.9-3.6-4.7-1.2-9.3-2.7-13.7-4.6-4.5-1.9-8.7-4.3-12.7-6.9 2.4 0.4 4.7 0.9 7 1.4 2.3 0.5 4.6 0.9 6.9 1.3q6.9 1.2 13.8 2c9.2 1.1 18.4 1.5 27.6 1.6 9.1-0.1 18.3-0.5 27.5-1.6q6.9-0.7 13.8-1.9c2.3-0.5 4.6-0.8 6.9-1.4 2.3-0.5 4.6-1 7-1.4z"/>
					</g>
					<g id="Layer" style="opacity: .5">
						<path id="Layer" class="s0" d="m446.6 536.5q-4.9 3.8-10.2 6.6c-69.4 36.8-155.1 33-209.8-7.5q-6.5-4.8-12.4-10.3c54.2 28 128.1 27.2 189.2-5.3q5.3-2.8 10.2-6.5c74-56.2 81.3-262-11.4-348.2 126.4 63.9 126.3 309.1 44.4 371.2z"/>
					</g>
					<g id="Layer">
						<g id="Layer">
							<g id="Layer">
								<path id="Layer" class="s11" d="m362.3 211c-12.7 0-22.9-9.3-22.9-20.8 0-11.6 10.2-20.9 22.9-20.9 12.6 0 22.8 9.3 22.8 20.9 0 11.5-10.2 20.8-22.8 20.8z"/>
							</g>
							<g id="Layer">
								<path id="Layer" class="s11" d="m275.3 226.2c-5 2-10.7-0.3-12.8-5.3-2-5 0.3-10.7 5.3-12.7 5-2.1 10.7 0.3 12.7 5.3 2.1 4.9-0.3 10.6-5.2 12.7z"/>
							</g>
							<g id="Layer">
								<path id="Layer" class="s11" d="m351.7 262.9c-9.9 0-17.8-8-17.8-17.9 0-9.8 7.9-17.8 17.8-17.8 9.8 0 17.8 8 17.8 17.8 0 9.9-8 17.9-17.8 17.9z"/>
							</g>
							<g id="Layer">
								<path id="Layer" class="s11" d="m440.8 364.5c-6.3 0-11.4-5.1-11.4-11.4 0-6.3 5.1-11.4 11.4-11.4 6.3 0 11.4 5.1 11.4 11.4 0 6.3-5.1 11.4-11.4 11.4z"/>
							</g>
							<g id="Layer">
								<path id="Layer" class="s11" d="m253.7 383.1c-9.3 9.4-24.4 9.4-33.7 0-9.3-9.3-9.3-24.4 0-33.7 9.3-9.3 24.4-9.3 33.7 0 9.3 9.3 9.3 24.4 0 33.7z"/>
							</g>
							<g id="Layer">
								<path id="Layer" class="s11" d="m231.7 428.9c-0.8 4.8-5.2 8-10 7.2-4.7-0.7-7.9-5.2-7.2-9.9 0.8-4.8 5.3-8 10-7.2 4.8 0.7 8 5.2 7.2 9.9z"/>
							</g>
							<g id="Layer">
								<path id="Layer" class="s11" d="m224.4 321.1c-4.8 0-8.7-3.9-8.7-8.7 0-4.8 3.9-8.7 8.7-8.7 4.8 0 8.7 3.9 8.7 8.7 0 4.8-3.9 8.7-8.7 8.7z"/>
							</g>
							<g id="Layer">
								<path id="Layer" class="s11" d="m459.2 417c-6.1 6.1-16.1 6.1-22.3 0-6.1-6.2-6.1-16.2 0-22.3 6.2-6.2 16.2-6.2 22.3 0 6.2 6.1 6.2 16.1 0 22.3z"/>
							</g>
						</g>
						<path id="Layer" class="s11" d="m580.8 328.7c-4.2 0-7.5-3.4-7.5-7.6 0-4.2 3.3-7.6 7.5-7.6 4.2 0 7.6 3.4 7.6 7.6 0 4.2-3.4 7.6-7.6 7.6z"/>
						<path id="Layer" class="s11" d="m544.8 346.7c-1.6 0-2.9-1.3-2.9-2.9 0-1.6 1.3-2.9 2.9-2.9 1.6 0 2.9 1.3 2.9 2.9 0 1.6-1.3 2.9-2.9 2.9z"/>
						<path id="Layer" class="s11" d="m521.4 328.7c0 2.3-1.8 4.1-4.2 4.1-2.3 0-4.1-1.8-4.1-4.1 0-2.4 1.8-4.2 4.1-4.2 2.4 0 4.2 1.8 4.2 4.2z"/>
						<path id="Layer" class="s11" d="m165.3 328.9c-4.3 1.8-9.2-0.3-11-4.6-1.8-4.3 0.2-9.3 4.5-11 4.4-1.8 9.3 0.2 11.1 4.5 1.8 4.3-0.3 9.3-4.6 11.1z"/>
						<path id="Layer" class="s11" d="m142.5 346.7c0 2.4-2 4.4-4.5 4.4-2.4 0-4.4-2-4.4-4.4 0-2.5 2-4.5 4.4-4.5 2.5 0 4.5 2 4.5 4.5z"/>
						<path id="Layer" class="s11" d="m114.1 324.5c0 3.6-3 6.6-6.6 6.6-3.7 0-6.6-3-6.6-6.6 0-3.7 2.9-6.6 6.6-6.6 3.6 0 6.6 2.9 6.6 6.6z"/>
					</g>
				</g>
			</g>
		</g>
	</g>
</svg>