<svg version="1.2" xmlns="http://www.w3.org/2000/svg" viewBox="0 0 92 133" width="92" height="133">
	<title>monster-set-svg</title>
	<defs>
		<radialGradient id="g1" cx="0" cy="0" r="1" gradientUnits="userSpaceOnUse" gradientTransform="matrix(19.017,0,0,19.017,14.628,20.519)">
			<stop offset="0" stop-color="#ffffff"/>
			<stop offset="1" stop-color="#d1bcbb"/>
		</radialGradient>
		<linearGradient id="g2" x2="1" gradientUnits="userSpaceOnUse" gradientTransform="matrix(6.602,4.362,-5.625,8.513,17.661,12.06)">
			<stop offset="0" stop-color="#72b9cf"/>
			<stop offset=".259" stop-color="#69aec6"/>
			<stop offset=".709" stop-color="#5291ae"/>
			<stop offset=".757" stop-color="#4f8eab"/>
			<stop offset=".855" stop-color="#5393af"/>
			<stop offset=".973" stop-color="#5fa2bb"/>
			<stop offset="1" stop-color="#62a6bf"/>
		</linearGradient>
		<linearGradient id="g3" x2="1" gradientUnits="userSpaceOnUse" gradientTransform="matrix(.472,-9.55,11.327,.559,16.771,10.358)">
			<stop offset="0" stop-color="#72b9cf"/>
			<stop offset=".259" stop-color="#69aec6"/>
			<stop offset=".709" stop-color="#5291ae"/>
			<stop offset=".757" stop-color="#4f8eab"/>
			<stop offset=".855" stop-color="#5393af"/>
			<stop offset=".973" stop-color="#5fa2bb"/>
			<stop offset="1" stop-color="#62a6bf"/>
		</linearGradient>
		<linearGradient id="g4" x2="1" gradientUnits="userSpaceOnUse" gradientTransform="matrix(-9.196,0,0,-10.211,12.061,17.494)">
			<stop offset="0" stop-color="#72b9cf"/>
			<stop offset=".259" stop-color="#69aec6"/>
			<stop offset=".709" stop-color="#5291ae"/>
			<stop offset=".757" stop-color="#4f8eab"/>
			<stop offset=".855" stop-color="#5393af"/>
			<stop offset=".973" stop-color="#5fa2bb"/>
			<stop offset="1" stop-color="#62a6bf"/>
		</linearGradient>
		<linearGradient id="g5" x2="1" gradientUnits="userSpaceOnUse" gradientTransform="matrix(-7.074,11.082,-9.012,-5.753,15.781,24.127)">
			<stop offset="0" stop-color="#72b9cf"/>
			<stop offset=".259" stop-color="#69aec6"/>
			<stop offset=".709" stop-color="#5291ae"/>
			<stop offset=".757" stop-color="#4f8eab"/>
			<stop offset=".855" stop-color="#5393af"/>
			<stop offset=".973" stop-color="#5fa2bb"/>
			<stop offset="1" stop-color="#62a6bf"/>
		</linearGradient>
		<radialGradient id="g6" cx="0" cy="0" r="1" gradientUnits="userSpaceOnUse" gradientTransform="matrix(-19.017,0,0,-19.017,75.936,20.519)">
			<stop offset="0" stop-color="#ffffff"/>
			<stop offset="1" stop-color="#d1bcbb"/>
		</radialGradient>
		<linearGradient id="g7" x2="1" gradientUnits="userSpaceOnUse" gradientTransform="matrix(-6.602,4.362,-5.625,-8.513,72.904,12.06)">
			<stop offset="0" stop-color="#72b9cf"/>
			<stop offset=".259" stop-color="#69aec6"/>
			<stop offset=".709" stop-color="#5291ae"/>
			<stop offset=".757" stop-color="#4f8eab"/>
			<stop offset=".855" stop-color="#5393af"/>
			<stop offset=".973" stop-color="#5fa2bb"/>
			<stop offset="1" stop-color="#62a6bf"/>
		</linearGradient>
		<linearGradient id="g8" x2="1" gradientUnits="userSpaceOnUse" gradientTransform="matrix(-0.472,-9.55,11.327,-0.559,73.794,10.358)">
			<stop offset="0" stop-color="#72b9cf"/>
			<stop offset=".259" stop-color="#69aec6"/>
			<stop offset=".709" stop-color="#5291ae"/>
			<stop offset=".757" stop-color="#4f8eab"/>
			<stop offset=".855" stop-color="#5393af"/>
			<stop offset=".973" stop-color="#5fa2bb"/>
			<stop offset="1" stop-color="#62a6bf"/>
		</linearGradient>
		<linearGradient id="g9" x2="1" gradientUnits="userSpaceOnUse" gradientTransform="matrix(9.196,0,0,10.211,78.504,17.494)">
			<stop offset="0" stop-color="#72b9cf"/>
			<stop offset=".259" stop-color="#69aec6"/>
			<stop offset=".709" stop-color="#5291ae"/>
			<stop offset=".757" stop-color="#4f8eab"/>
			<stop offset=".855" stop-color="#5393af"/>
			<stop offset=".973" stop-color="#5fa2bb"/>
			<stop offset="1" stop-color="#62a6bf"/>
		</linearGradient>
		<linearGradient id="g10" x2="1" gradientUnits="userSpaceOnUse" gradientTransform="matrix(7.074,11.082,-9.012,5.752,74.784,24.127)">
			<stop offset="0" stop-color="#72b9cf"/>
			<stop offset=".259" stop-color="#69aec6"/>
			<stop offset=".709" stop-color="#5291ae"/>
			<stop offset=".757" stop-color="#4f8eab"/>
			<stop offset=".855" stop-color="#5393af"/>
			<stop offset=".973" stop-color="#5fa2bb"/>
			<stop offset="1" stop-color="#62a6bf"/>
		</linearGradient>
		<radialGradient id="g11" cx="0" cy="0" r="1" gradientUnits="userSpaceOnUse" gradientTransform="matrix(70.034,0,0,70.034,45.188,77.243)">
			<stop offset="0" stop-color="#f55bbe"/>
			<stop offset=".213" stop-color="#d552b1"/>
			<stop offset=".571" stop-color="#a5459e"/>
			<stop offset=".845" stop-color="#873d92"/>
			<stop offset="1" stop-color="#7c3a8d"/>
		</radialGradient>
		<radialGradient id="g12" cx="0" cy="0" r="1" gradientUnits="userSpaceOnUse" gradientTransform="matrix(70.034,0,0,70.034,45.19,77.243)">
			<stop offset="0" stop-color="#f55bbe"/>
			<stop offset=".213" stop-color="#d552b1"/>
			<stop offset=".571" stop-color="#a5459e"/>
			<stop offset=".845" stop-color="#873d92"/>
			<stop offset="1" stop-color="#7c3a8d"/>
		</radialGradient>
		<linearGradient id="g13" x2="1" gradientUnits="userSpaceOnUse" gradientTransform="matrix(0,16.363,-27.301,0,45.13,17.743)">
			<stop offset="0" stop-color="#ffffff"/>
			<stop offset=".374" stop-color="#9e9e9e"/>
			<stop offset="1" stop-color="#000000"/>
		</linearGradient>
		<linearGradient id="g14" x2="1" gradientUnits="userSpaceOnUse" gradientTransform="matrix(0,-9.806,9.389,0,59.867,127.626)">
			<stop offset="0" stop-color="#ffffff"/>
			<stop offset=".048" stop-color="#f2f2f2"/>
			<stop offset=".525" stop-color="#717171"/>
			<stop offset=".852" stop-color="#202020"/>
			<stop offset="1" stop-color="#000000"/>
		</linearGradient>
		<linearGradient id="g15" x2="1" gradientUnits="userSpaceOnUse" gradientTransform="matrix(0,-9.806,9.389,0,30.517,127.626)">
			<stop offset="0" stop-color="#ffffff"/>
			<stop offset=".048" stop-color="#f2f2f2"/>
			<stop offset=".525" stop-color="#717171"/>
			<stop offset=".852" stop-color="#202020"/>
			<stop offset="1" stop-color="#000000"/>
		</linearGradient>
		<linearGradient id="g16" x2="1" gradientUnits="userSpaceOnUse" gradientTransform="matrix(0,-28.536,48.274,0,45.43,92.57)">
			<stop offset="0" stop-color="#812c67"/>
			<stop offset=".005" stop-color="#812c67"/>
			<stop offset=".996" stop-color="#471947"/>
		</linearGradient>
		<linearGradient id="g17" x2="1" gradientUnits="userSpaceOnUse" gradientTransform="matrix(0,-26.898,45.369,0,45.52,92.412)">
			<stop offset="0" stop-color="#812c67"/>
			<stop offset=".005" stop-color="#812c67"/>
			<stop offset=".996" stop-color="#471947"/>
		</linearGradient>
		<radialGradient id="g18" cx="0" cy="0" r="1" gradientUnits="userSpaceOnUse" gradientTransform="matrix(19.716,0,0,19.716,38.447,95.327)">
			<stop offset="0" stop-color="#ff599b"/>
			<stop offset=".311" stop-color="#ff5699"/>
			<stop offset=".526" stop-color="#ff4d93"/>
			<stop offset=".713" stop-color="#ff3e89"/>
			<stop offset=".882" stop-color="#ff287b"/>
			<stop offset="1" stop-color="#ff146e"/>
		</radialGradient>
		<radialGradient id="g19" cx="0" cy="0" r="1" gradientUnits="userSpaceOnUse" gradientTransform="matrix(11.346,0,0,11.346,33.068,50.912)">
			<stop offset="0" stop-color="#ffffff"/>
			<stop offset=".71" stop-color="#ddc6c5"/>
			<stop offset=".802" stop-color="#e4cfce"/>
			<stop offset=".954" stop-color="#f8e8e7"/>
			<stop offset="1" stop-color="#fff1f0"/>
		</radialGradient>
		<radialGradient id="g20" cx="0" cy="0" r="1" gradientUnits="userSpaceOnUse" gradientTransform="matrix(3.577,0,0,3.577,35.121,52.18)">
			<stop offset="0" stop-color="#72b9cf"/>
			<stop offset=".263" stop-color="#69aec6"/>
			<stop offset=".72" stop-color="#5291ae"/>
			<stop offset=".769" stop-color="#4f8eab"/>
			<stop offset=".924" stop-color="#5393af"/>
			<stop offset="1" stop-color="#5798b3"/>
		</radialGradient>
		<radialGradient id="g21" cx="0" cy="0" r="1" gradientUnits="userSpaceOnUse" gradientTransform="matrix(3.745,0,0,3.745,35.121,52.18)">
			<stop offset=".594" stop-color="#5d98ba"/>
			<stop offset="1" stop-color="#3e6f96"/>
		</radialGradient>
		<radialGradient id="g22" cx="0" cy="0" r="1" gradientUnits="userSpaceOnUse" gradientTransform="matrix(14.148,0,0,14.148,55.076,49.182)">
			<stop offset="0" stop-color="#ffffff"/>
			<stop offset=".71" stop-color="#ddc6c5"/>
			<stop offset=".802" stop-color="#e4cfce"/>
			<stop offset=".954" stop-color="#f8e8e7"/>
			<stop offset="1" stop-color="#fff1f0"/>
		</radialGradient>
		<radialGradient id="g23" cx="0" cy="0" r="1" gradientUnits="userSpaceOnUse" gradientTransform="matrix(4.503,0,0,4.503,53.452,51.043)">
			<stop offset="0" stop-color="#72b9cf"/>
			<stop offset=".263" stop-color="#69aec6"/>
			<stop offset=".72" stop-color="#5291ae"/>
			<stop offset=".769" stop-color="#4f8eab"/>
			<stop offset=".924" stop-color="#5393af"/>
			<stop offset="1" stop-color="#5798b3"/>
		</radialGradient>
		<radialGradient id="g24" cx="0" cy="0" r="1" gradientUnits="userSpaceOnUse" gradientTransform="matrix(4.503,0,0,4.503,53.452,51.043)">
			<stop offset=".594" stop-color="#5d98ba"/>
			<stop offset="1" stop-color="#3e6f96"/>
		</radialGradient>
		<radialGradient id="g25" cx="0" cy="0" r="1" gradientUnits="userSpaceOnUse" gradientTransform="matrix(70.034,0,0,70.034,45.191,77.243)">
			<stop offset="0" stop-color="#f55bbe"/>
			<stop offset=".213" stop-color="#d552b1"/>
			<stop offset=".571" stop-color="#a5459e"/>
			<stop offset=".845" stop-color="#873d92"/>
			<stop offset="1" stop-color="#7c3a8d"/>
		</radialGradient>
		<radialGradient id="g26" cx="0" cy="0" r="1" gradientUnits="userSpaceOnUse" gradientTransform="matrix(-70.034,0,0,-70.034,44.814,77.243)">
			<stop offset="0" stop-color="#f55bbe"/>
			<stop offset=".213" stop-color="#d552b1"/>
			<stop offset=".571" stop-color="#a5459e"/>
			<stop offset=".845" stop-color="#873d92"/>
			<stop offset="1" stop-color="#7c3a8d"/>
		</radialGradient>
		<linearGradient id="g27" x2="1" gradientUnits="userSpaceOnUse" gradientTransform="matrix(3.257,-7.335,11.729,5.207,33.271,106.617)">
			<stop offset="0" stop-color="#ffffff"/>
			<stop offset=".374" stop-color="#9e9e9e"/>
			<stop offset="1" stop-color="#000000"/>
		</linearGradient>
	</defs>
	<style>
		.s0 { fill: url(#g1) } 
		.s1 { fill: url(#g2) } 
		.s2 { fill: url(#g3) } 
		.s3 { fill: url(#g4) } 
		.s4 { fill: url(#g5) } 
		.s5 { opacity: .6;fill: #d1bcbb } 
		.s6 { opacity: .5;fill: #ffffff } 
		.s7 { fill: url(#g6) } 
		.s8 { fill: url(#g7) } 
		.s9 { fill: url(#g8) } 
		.s10 { fill: url(#g9) } 
		.s11 { fill: url(#g10) } 
		.s12 { fill: url(#g11) } 
		.s13 { opacity: .3;fill: #6a4082 } 
		.s14 { opacity: .2;fill: #ffffff } 
		.s15 { fill: url(#g12) } 
		.s16 { opacity: .2;fill: url(#g13) } 
		.s17 { fill: #ffffff } 
		.s18 { opacity: .2;fill: url(#g14) } 
		.s19 { opacity: .2;fill: url(#g15) } 
		.s20 { opacity: .3;fill: #ffffff } 
		.s21 { opacity: .4;fill: #6a4082 } 
		.s22 { fill: url(#g16) } 
		.s23 { fill: url(#g17) } 
		.s24 { fill: #fdf3de } 
		.s25 { fill: url(#g18) } 
		.s26 { opacity: .4;fill: #800d74 } 
		.s27 { fill: url(#g19) } 
		.s28 { opacity: .4;fill: #ffffff } 
		.s29 { fill: url(#g20) } 
		.s30 { fill: url(#g21) } 
		.s31 { fill: url(#g22) } 
		.s32 { fill: url(#g23) } 
		.s33 { fill: url(#g24) } 
		.s34 { fill: #562b59 } 
		.s35 { fill: url(#g25) } 
		.s36 { opacity: .1;fill: #ffffff } 
		.s37 { fill: url(#g26) } 
		.s38 { fill: #ff88d7 } 
		.s39 { opacity: .3;fill: url(#g27) } 
	</style>
	<g id="Layer">
		<g id="Layer">
			<path id="Layer" class="s0" d="m17 44c-1.2-3.9-2.5-4.5-8.1-8.6-5.7-4.1-9.7-7.4-4.1-22.2 5.9-15.8 14.1-12.2 17.7-9.6 2.2 1.5 3.6 3.3 3.7 6.3 0.1 3.5-2.3 6.8-5.8 7.7-5.9 1.4-6.9-2.1-6.9-2.1 0 0 7.4-1.3 5.8-4.9-1.7-3.5-6.5-1.5-7.4 6.3-0.8 7.8 6.6 10.5 12.3 9.3z"/>
			<g id="Layer">
				<path id="Layer" class="s1" d="m19.1 12.8c-1.3 1.9-5.6 2.7-5.6 2.7 0 0 1 3.5 6.9 2.1 3.3-0.8 5.5-3.7 5.8-6.8-1.9 3.3-6.2 2.9-7.1 2z"/>
				<path id="Layer" class="s2" d="m19.1 10.4c1.3-0.4 4.6-3.8 2.6-7.3-2.4-1.6-6.1-2.9-9.9-0.4 1.6 0.2 3.8 2.8 3.6 6.8 1.4-1 2.9-0.6 3.7 0.9z"/>
				<path id="Layer" class="s3" d="m12.1 20.1q-0.3-1.4-0.2-3.2 0.2-1.7 0.6-3c-1.1-1.7-4.3-3.2-7.6-1.1q-0.1 0.2-0.1 0.4c-1.6 4.2-2.4 7.4-2.6 10 3-5.5 8.4-4 9.9-3.1z"/>
				<path id="Layer" class="s4" d="m18.7 26.1c-2.1-0.5-4-1.5-5.3-3.2-7.1 1.4-7.6 8.3-6.5 11q0.9 0.7 2 1.5c1.8 1.3 3.1 2.3 4.2 3.1-1.9-8.6 3.6-11.8 5.6-12.4z"/>
			</g>
			<path id="Layer" class="s5" d="m5.3 25c-3.1-7.7 4.2-20.1 4.2-20.1l-0.1-0.1c-1.6 1.9-3.2 4.6-4.7 8.4-5.5 14.8-1.5 18.1 4.2 22.2 5.6 4.1 6.9 4.7 8.1 8.6l2.7-6.6c-4.9-6.1-11.5-5.4-14.4-12.4z"/>
			<path id="Layer" class="s5" d="m23 4c2 3 2.2 7.9-0.6 10.4-3.5 3-8.9 1.1-8.9 1.1 0 0 1 3.5 6.9 2.1 3.5-0.9 5.9-4.2 5.8-7.7-0.1-2.8-1.3-4.5-3.2-5.9z"/>
			<path id="Layer" class="s5" d="m11.9 16.9c0.9-7.8 5.7-9.8 7.4-6.3 0.2 0.6 0.2 1.1 0.1 1.6 1.1-2.2-0.1-4.4-2.3-4.7-2-0.2-7.8 4-4.9 13q-0.5-1.6-0.3-3.6z"/>
			<path id="Layer" class="s6" d="m18.8 2.6c0 0-1.7 0.2-3.9 1.4-2.2 1.2-3.5 3.5-4.5 2.4-1.1-1 0.5-2.9 3.1-4 2.7-1.1 5.4-0.1 5.3 0.2z"/>
			<path id="Layer" class="s6" d="m9.7 17.6c-0.3 1.5-0.5 5 1.3 7.8 1.8 2.8 5.7 4.6 7.4 6.3 0 0 0.5-1.8 1.8-3.4 0 0-4.5-0.9-7.4-4-2.7-3-3.1-6.7-3.1-6.7z"/>
			<path id="Layer" class="s6" d="m16.4 15.2c0 0 2.4 0.5 4.1-0.9 1.8-1.3 1.6-2.9 0.7-3.1-1-0.2-0.9 1-1.8 2.1-1.3 1.5-3 1.9-3 1.9z"/>
		</g>
		<g id="Layer">
			<path id="Layer" class="s7" d="m73.6 44c1.1-3.9 2.4-4.5 8.1-8.6 5.6-4.1 9.7-7.4 4.1-22.2-6-15.8-14.1-12.2-17.8-9.6-2.1 1.5-3.5 3.3-3.6 6.3-0.2 3.5 2.2 6.8 5.7 7.7 5.9 1.4 7-2.1 7-2.1 0 0-7.4-1.3-5.8-4.9 1.7-3.5 6.5-1.5 7.3 6.3 0.8 7.8-6.6 10.5-12.2 9.3z"/>
			<g id="Layer">
				<path id="Layer" class="s8" d="m71.5 12.8c1.3 1.9 5.6 2.7 5.6 2.7 0 0-1.1 3.5-7 2.1-3.2-0.8-5.5-3.7-5.7-6.8 1.9 3.3 6.2 2.9 7.1 2z"/>
				<path id="Layer" class="s9" d="m71.4 10.4c-1.3-0.4-4.6-3.8-2.5-7.3 2.4-1.6 6.1-2.9 9.9-0.4-1.6 0.2-3.9 2.8-3.6 6.8-1.4-1-2.9-0.6-3.8 0.9z"/>
				<path id="Layer" class="s10" d="m78.5 20.1q0.3-1.4 0.1-3.2-0.2-1.7-0.6-3c1.2-1.7 4.4-3.2 7.6-1.1q0.1 0.2 0.2 0.4c1.6 4.2 2.4 7.4 2.6 10-3-5.5-8.4-4-9.9-3.1z"/>
				<path id="Layer" class="s11" d="m71.9 26.1c2.1-0.5 4-1.5 5.2-3.2 7.2 1.4 7.7 8.3 6.6 11q-1 0.7-2 1.5c-1.8 1.3-3.2 2.3-4.2 3.1 1.9-8.6-3.7-11.8-5.6-12.4z"/>
			</g>
			<path id="Layer" class="s5" d="m85.2 25c3.2-7.7-4.1-20.1-4.1-20.1l0.1-0.1c1.6 1.9 3.2 4.6 4.6 8.4 5.6 14.8 1.5 18.1-4.1 22.2-5.7 4.1-7 4.7-8.1 8.6l-2.7-6.6c4.9-6.1 11.4-5.4 14.3-12.4z"/>
			<path id="Layer" class="s5" d="m67.5 4c-1.9 3-2.1 7.9 0.7 10.4 3.4 3 8.9 1.1 8.9 1.1 0 0-1.1 3.5-7 2.1-3.5-0.9-5.9-4.2-5.7-7.7 0.1-2.8 1.3-4.5 3.1-5.9z"/>
			<path id="Layer" class="s5" d="m78.6 16.9c-0.8-7.8-5.6-9.8-7.3-6.3-0.3 0.6-0.3 1.1-0.2 1.6-1-2.2 0.1-4.4 2.3-4.7 2.1-0.2 7.9 4 4.9 13q0.5-1.6 0.3-3.6z"/>
			<path id="Layer" class="s6" d="m71.7 2.6c0 0 1.8 0.2 4 1.4 2.1 1.2 3.4 3.5 4.5 2.4 1-1-0.6-2.9-3.2-4-2.6-1.1-5.3-0.1-5.3 0.2z"/>
			<path id="Layer" class="s6" d="m80.8 17.6c0.3 1.5 0.6 5-1.2 7.8-1.8 2.8-5.8 4.6-7.5 6.3 0 0-0.5-1.8-1.7-3.4 0 0 4.5-0.9 7.3-4 2.7-3 3.1-6.7 3.1-6.7z"/>
			<path id="Layer" class="s6" d="m74.1 15.2c0 0-2.3 0.5-4.1-0.9-1.8-1.3-1.6-2.9-0.6-3.1 1-0.2 0.8 1 1.8 2.1 1.2 1.5 2.9 1.9 2.9 1.9z"/>
		</g>
		<g id="Layer">
			<path id="Layer" class="s12" d="m53.3 16.2c0 0-1-4.5-3.2-4.6-1.5 0-1 2.4-1 2.4 0 0-1.4-3.4-3.8-5.1-2.7-1.9-5.3-2.3-6.6-1.5-1.2 0.9 0.5 4.3 3.2 5.6 0 0-3.3-1.9-4.1-0.3-1 2.1 4.6 3.2 4.6 3.2z"/>
			<path id="Layer" class="s13" d="m50.1 11.6c-1.5 0-1 2.4-1 2.4 0 0-1.4-3.4-3.8-5.1-2.7-1.9-5.3-2.3-6.6-1.5-0.3 0.3-0.4 0.7-0.4 1.1 1-1.5 4.7-0.7 6.8 1.3 2.4 2.2 4.2 6.1 4.2 6.1l0.7 0.1c0 0-1-3.9 0.3-3.8 1 0 1.8 3 2 4h1c0 0-1-4.5-3.2-4.6z"/>
			<path id="Layer" class="s14" d="m39.6 8.6c-1.4 1.5 3.3 5.3 4.8 3.4 1-1.2-3.4-5-4.8-3.4z"/>
			<path id="Layer" class="s14" d="m38.5 13c-0.6 1 1.8 2.1 2.4 0.9 0.5-0.8-1.8-1.9-2.4-0.9z"/>
		</g>
		<path id="Layer" class="s15" d="m71.3 33.9c-5.8-13.8-14.5-18.7-26.3-18.7q0 0 0 0 0 0 0 0c-11.8 0-20.4 4.9-26.2 18.7-5.8 13.9-5.8 32.1-4.7 46.8 1.2 14.7 1.9 24.8 5.5 37.2 3.5 12.4 6.4 12.6 10.3 12.7 3.8 0.2 5.5-0.3 7.2-2.2 1.6-1.9 4.5-11 4.5-11h3.4 3.5c0 0 2.8 9.1 4.4 11 1.7 1.9 3.4 2.4 7.3 2.2 3.8-0.1 6.7-0.3 10.3-12.7 3.5-12.4 4.2-22.5 5.4-37.2 1.2-14.7 1.2-32.9-4.6-46.8z"/>
		<path id="Layer" class="s16" d="m65.5 30c3.9 7.6 1.5 14-20.3 14-21.9 0-24-6.9-20.8-13.5 3.5-7 10.4-12.8 20.8-12.8 10.4 0 16.9 5.9 20.3 12.3z"/>
		<g id="Layer" style="opacity: .2">
			<path id="Layer" class="s17" d="m43.1 16.7c-2.4 0-4.4 1-4.4 2.2 0 1.2 2 2.2 4.4 2.2 2.4 0 4.4-1 4.4-2.2 0-1.2-2-2.2-4.4-2.2z"/>
			<path id="Layer" class="s17" d="m35.1 21.2c-0.9 0.3-1.5 1-1.3 1.5 0.2 0.6 1 0.9 1.9 0.7 0.9-0.3 1.5-0.9 1.3-1.5-0.2-0.6-1-0.9-1.9-0.7z"/>
			<path id="Layer" class="s17" d="m56.6 19.7c-0.6-0.1-1.2 0.1-1.3 0.5 0 0.4 0.3 0.8 0.9 0.9 0.6 0.2 1.1 0 1.2-0.4 0.1-0.4-0.3-0.8-0.8-1z"/>
			<path id="Layer" class="s17" d="m51.3 20c-1.2-0.3-2.3 0.1-2.5 0.9-0.1 0.8 0.6 1.7 1.8 1.9 1.1 0.3 2.2-0.1 2.4-0.9 0.2-0.8-0.6-1.6-1.7-1.9z"/>
			<path id="Layer" class="s17" d="m48 16.4c-0.2 1.2 1.2 2.2 3 2.4 1.9 0.2 3.4-0.6 3.5-1.7q0.1-0.3 0-0.5-2.8-0.9-6-1.2-0.5 0.4-0.5 1z"/>
			<path id="Layer" class="s17" d="m33.4 17.7c0.2 0.9 1.5 1.3 2.9 0.9 1.4-0.4 2.3-1.4 2.1-2.3q-0.1-0.2-0.2-0.4-2.6 0.5-4.9 1.5 0 0.1 0.1 0.3z"/>
		</g>
		<path id="Layer" class="s18" d="m66.9 120.3c1.3-4.6 0.5-8.4-7-8.4-7.5 0-8.3 4.2-7.2 8 1.2 4.3 2.8 7.6 7.2 7.7 3.6 0.1 5.8-3.5 7-7.3z"/>
		<path id="Layer" class="s19" d="m37.5 120.3c1.4-4.6 0.6-8.4-7-8.4-7.5 0-8.2 4.2-7.1 8 1.2 4.3 2.7 7.6 7.1 7.7 3.6 0.1 5.9-3.5 7-7.3z"/>
		<path id="Layer" fill-rule="evenodd" class="s13" d="m75.9 80.7c-1.2 14.7-1.9 24.8-5.4 37.2-3.6 12.4-6.5 12.6-10.3 12.7-3.9 0.2-5.6-0.3-7.3-2.2-1.6-1.9-4.4-11-4.4-11h-6.9c0 0-2.9 9.1-4.5 11-1.7 1.9-3.4 2.4-7.2 2.2-3.9-0.1-6.8-0.3-10.3-12.7-3.6-12.4-4.3-22.5-5.5-37.2-1.1-14.7-1.1-32.9 4.7-46.8 5.8-13.8 14.4-18.7 26.2-18.7q0 0 0 0 0 0 0 0c11.8 0 20.5 4.9 26.3 18.7 5.8 13.9 5.8 32.1 4.6 46.8zm-6-45.1c-8-19-20.4-19.2-24.5-19.2-4.9 0-17.1-0.1-25.2 19.2-5.6 13.2-5.6 30.7-4.4 44.8 1.1 14 1.7 23.6 5.1 35.5 3.4 11.9 6 12.4 9.8 12.5 7.9 0 7.5-12 10.1-12.9 1.1-0.4 7.5-0.7 8.4 0 3.2 2.4 2.6 12.8 10.1 12.8 3.8 0 6.5-0.5 9.8-12.4 3.4-11.9 4.1-21.5 5.2-35.5 1.1-14.1 1.1-31.5-4.4-44.8z"/>
		<path id="Layer" class="s20" d="m23.1 67c-2.6 1-2.2 10.4 3.1 18 3.6 4.9 9.5 9 18.8 9 23.4 0 28-24.1 22.2-28-5-3.4-5.3 12.9-22.1 12.2-14.7-0.6-15-14-22-11.2z"/>
		<path id="Layer" class="s21" d="m30.4 106.7c0 0 2 3.9 7.2 3.9 9.1-0.1 11.8-9.9 13.2-12.9 3-6.1 6-8.1 6-8.1l-4.2-0.9z"/>
		<path id="Layer" class="s22" d="m23.1 63.9c-2.6 1.1-2.8 10.3 3.1 18 3.8 4.8 9.5 9 18.8 9 23.4 0 28-24 22.2-27.9-5-3.4-6.2 12-21.8 12-13.3 0-15.3-13.9-22.3-11.1z"/>
		<path id="Layer" class="s23" d="m23.1 65.1c-2.6 1.1-2.2 10.4 3.1 18 3.6 4.9 9.5 9 18.8 9 23.4 0 28-24.1 22.2-27.9-5-3.5-5.3 12.8-22.1 12.1-14.7-0.6-15-14-22-11.2z"/>
		<path id="Layer" class="s24" d="m28.6 73.5c3 0.9 3.9-1.4 4.2-2.4-2.6-2.5-4.2-5.2-6.4-6.1-0.3 1.3-1.3 7.6 2.2 8.5z"/>
		<path id="Layer" class="s24" d="m38.5 79.1c3.3 0.9 4.2-2.3 4.3-3-3.1-0.5-5.4-1.5-7.3-2.8-0.2 1.3-0.2 5 3 5.8z"/>
		<path id="Layer" class="s24" d="m51 79.4c3.6-0.9 3.3-3.8 3.1-4.8-2.1 1.1-4.8 1.7-8.1 1.7 0.1 0.7 0.9 4 5 3.1z"/>
		<path id="Layer" class="s24" d="m63 72.8c3.2-2.6 2-7.2 1.6-8.6-1.8 1.4-3.5 5.1-6.9 8.1 0.4 0.8 2.2 3 5.3 0.5z"/>
		<path id="Layer" class="s24" d="m34.7 86c-2.4-1.4-4 0.4-4.6 1.2 1.6 1.3 3.4 2.4 5.5 3.2 0.3-1 1-3.4-0.9-4.4z"/>
		<path id="Layer" class="s25" d="m45.1 84c0 0-3.1-2.8-7.1-0.7-5.1 2.7-3.1 10.6-8 15.6-2.7 2.9-3.2 3.8-2.7 5.5 0.6 1.6 5.6 6.9 13.9 2.5 7.8-4.2 7-11.3 13.3-16.4l3.3-3.6c0 0-2.5-7.2-12.7-2.9z"/>
		<path id="Layer" class="s26" d="m54.5 90.5l3.3-3.6c0 0-0.4-0.9-1.2-1.9-3.4-1.4-6 1.4-9.9 11.2-4.7 12.1-13.6 11.5-17.4 8.5-1.2-1-1.6-3-0.6-4.3-1.6 1.8-1.8 2.6-1.4 4 0.6 1.6 5.6 6.9 13.9 2.5 7.8-4.2 7-11.3 13.3-16.4z"/>
		<path id="Layer" class="s26" d="m45.1 84c0 0-3.1-2.8-7.1-0.7q-0.9 0.5-1.6 1.3c0.3-0.3 2.3-1.7 4.7-1.3 2 0.3 2.5 1.3 2.5 1.3-0.5 0.8-1.2 2.6-0.8 2.6 1 0 2.8-4 8.2-3.2 4.4 0.6 4.9 6 4.9 6l2.5-1.3c-1.5-6.6-7.6-7.3-13.3-4.7z"/>
		<path id="Layer" class="s24" d="m56.9 86.8c-1.9 0.8-2.3 2.7-2.4 3.7 2.1-0.7 4-1.7 5.7-2.9-0.5-0.7-1.5-1.5-3.3-0.8z"/>
		<g id="Layer" style="opacity: .2">
			<path id="Layer" class="s17" d="m22.1 106.6c0.2 1-0.2 1.9-0.9 2-0.7 0.1-1.4-0.6-1.6-1.6-0.1-0.9 0.3-1.8 1-1.9 0.7-0.1 1.4 0.6 1.5 1.5z"/>
			<path id="Layer" class="s17" d="m24.4 120.9c0.3 1.1 0 2.1-0.8 2.3-0.7 0.2-1.5-0.5-1.8-1.6-0.3-1.1 0-2.1 0.8-2.3 0.7-0.2 1.5 0.5 1.8 1.6z"/>
			<path id="Layer" class="s17" d="m25.6 116.2c0.2 0.8-0.1 1.5-0.6 1.6-0.5 0.1-1.1-0.3-1.3-1.1-0.2-0.7 0.1-1.4 0.6-1.5 0.5-0.2 1.1 0.3 1.3 1z"/>
			<path id="Layer" class="s17" d="m17.7 110.2c0.5 2.5 1.1 5 1.9 7.7q0 0.1 0 0.2c0.4 0 3.4-0.8 2.4-5.1-0.7-3.2-3.4-3-4.3-2.8z"/>
		</g>
		<g id="Layer" style="opacity: .2">
			<path id="Layer" class="s17" d="m67.9 106.6c-0.2 1 0.2 1.9 0.9 2 0.7 0.1 1.4-0.6 1.6-1.6 0.1-0.9-0.3-1.8-1-1.9-0.7-0.1-1.4 0.6-1.5 1.5z"/>
			<path id="Layer" class="s17" d="m65.6 120.9c-0.3 1.1 0 2.1 0.8 2.3 0.7 0.2 1.5-0.5 1.8-1.6 0.3-1.1 0-2.1-0.8-2.3-0.7-0.2-1.5 0.5-1.8 1.6z"/>
			<path id="Layer" class="s17" d="m64.4 116.2c-0.2 0.8 0.1 1.5 0.6 1.6 0.5 0.1 1.1-0.3 1.3-1.1 0.2-0.7-0.1-1.4-0.6-1.5-0.5-0.2-1.1 0.3-1.3 1z"/>
			<path id="Layer" class="s17" d="m72.3 110.2c-0.5 2.5-1.1 5-1.9 7.7q0 0.1 0 0.2c-0.4 0-3.4-0.8-2.4-5.1 0.7-3.2 3.4-3 4.3-2.8z"/>
		</g>
		<g id="Layer">
			<path id="Layer" class="s21" d="m41.5 52.2c0.4 6.2-2.9 11.6-7.3 11.9-4.4 0.2-8.3-4.6-8.7-10.9-0.5-6.2 2.8-11.6 7.2-11.9 4.5-0.2 8.4 4.6 8.8 10.9z"/>
			<path id="Layer" class="s27" d="m40.6 51.9c0.3 5.7-2.6 10.4-6.5 10.7-4 0.3-7.5-4.1-7.8-9.7-0.4-5.7 2.5-10.5 6.4-10.7 4-0.3 7.5 4.1 7.9 9.7z"/>
			<path id="Layer" class="s28" d="m39.9 50.1c0.7 4.5-1.6 8.5-5.1 8.9-3.4 0.5-6.8-2.7-7.5-7.1-0.6-4.5 1.6-8.5 5.1-9 3.5-0.4 6.9 2.8 7.5 7.2z"/>
			<path id="Layer" class="s17" d="m36.5 47.2c-0.9-0.9-1.3-1.9-1-2.3 0.4-0.3 1.3 0.1 2.2 1 0.8 0.9 1.3 2 0.9 2.3-0.3 0.3-1.3-0.1-2.1-1z"/>
			<path id="Layer" class="s29" d="m35.1 55.9c-1.9 0-3.4-1.7-3.4-3.7 0-2.1 1.5-3.7 3.4-3.7 1.9 0 3.5 1.6 3.5 3.7 0 2-1.6 3.7-3.5 3.7z"/>
			<path id="Layer" class="s17" d="m35.8 48.9c-0.7 1-0.8 2.2-0.1 2.9 0.7 0.7 1.7 0.7 2.6 0.2-0.3-1.9-1.3-2.8-2.5-3.1z"/>
			<path id="Layer" fill-rule="evenodd" class="s30" d="m38.7 52.2c0 2.1-1.6 3.9-3.6 3.9-2 0-3.6-1.8-3.6-3.9 0-2.2 1.6-3.9 3.6-3.9 2 0 3.6 1.7 3.6 3.9zm-0.5 0c0-1.8-1.4-3.3-3.1-3.3-1.7 0-3 1.5-3 3.3 0 1.8 1.3 3.3 3 3.3 1.7 0 3.1-1.5 3.1-3.3z"/>
		</g>
		<g id="Layer">
			<path id="Layer" class="s21" d="m66 52.1c-0.5 7.7-5.8 13.7-11.8 13.3-6-0.4-10.5-7-10-14.7 0.5-7.7 5.8-13.7 11.8-13.3 6 0.4 10.5 6.9 10 14.7z"/>
			<path id="Layer" class="s31" d="m65 51.5c-0.5 7.1-5.3 12.5-10.7 12.1-5.5-0.3-9.6-6.3-9.1-13.3 0.4-7 5.2-12.4 10.7-12.1 5.4 0.4 9.5 6.3 9.1 13.3z"/>
			<path id="Layer" class="s28" d="m63.7 50.5c-0.6 5.9-5 10.3-9.8 9.8-4.8-0.5-8.2-5.7-7.6-11.6 0.6-5.9 5-10.3 9.8-9.8 4.8 0.5 8.2 5.6 7.6 11.6z"/>
			<path id="Layer" class="s32" d="m57.8 51c0 2.6-1.9 4.7-4.3 4.7-2.4 0-4.4-2.1-4.4-4.7 0-2.5 2-4.6 4.4-4.6 2.4 0 4.3 2.1 4.3 4.6z"/>
			<path id="Layer" class="s17" d="m54.2 46.8c-0.9 1.2-0.9 2.8 0 3.7 0.8 0.8 2.2 0.9 3.3 0.2-0.4-1.8-1.7-3.2-3.3-3.9z"/>
			<path id="Layer" fill-rule="evenodd" class="s33" d="m57.8 51c0 2.6-1.9 4.7-4.3 4.7-2.4 0-4.4-2.1-4.4-4.7 0-2.5 2-4.6 4.4-4.6 2.4 0 4.3 2.1 4.3 4.6zm-0.7 0c0-2.1-1.6-3.9-3.6-3.9-2.1 0-3.7 1.8-3.7 3.9 0 2.2 1.6 4 3.7 4 2 0 3.6-1.8 3.6-4z"/>
			<path id="Layer" class="s17" d="m58.6 46.5c-1-1.6-1-3.4 0-4 1-0.5 2.5 0.3 3.5 2 0.9 1.6 0.9 3.4-0.1 4-0.9 0.5-2.5-0.3-3.4-2z"/>
		</g>
		<path id="Layer" class="s26" d="m40.8 91.4c0.9 0.2-2.2 5.8-5.4 8.4 0 0 1.2-1.9 2.5-4 1.2-2.2 2.5-4.4 2.9-4.4z"/>
		<g id="Layer">
			<path id="Layer" class="s13" d="m23.7 96c-2.7-0.3-4.8 0.9-7.9 2.8 0.4 3.6 1 7 1.7 10.5 0 0 7.3-4.9 6.2-13.3z"/>
			<g id="Layer">
				<path id="Layer" class="s34" d="m13.9 101.8c0 0 2.2 3.4 4.1 2.3 1.9-1.2-0.8-3.9-0.8-3.9z"/>
				<path id="Layer" class="s34" d="m18.4 100.5c0 0 2.4 3 4 1.6 1.8-1.5-1.4-4.3-1.4-4.3z"/>
				<path id="Layer" class="s34" d="m21.7 96.8c0 0 1.7 1.6 2.8 0 1.1-1.6-2.9-4.9-2.9-4.9z"/>
			</g>
			<path id="Layer" class="s35" d="m13.7 58.3c0 0-8.2 9.5-9.4 21.9-1.6 16.5 9.5 27.1 16.4 19.1 4.9-5.7-3.5-12.6-5.7-20.6-1.7-6.1-0.2-20.1-1.3-20.4z"/>
			<path id="Layer" class="s13" d="m21.2 91.3c0.3 1.8 0 3.5-1.4 5.1-5.8 6.5-14.8-2.6-13.4-17.1 0.8-9.2 6.1-16.5 7.7-18.6 0-1.4-0.1-2.3-0.4-2.4 0 0-8.2 9.5-9.4 21.9-1.6 16.5 9.5 27.1 16.4 19.1 2.1-2.4 1.8-5.1 0.5-8z"/>
			<path id="Layer" class="s36" d="m11 72.2c-2.1 0-3.5 9.6-1.5 15.7 2 6 5.3 8.1 7.7 6.1 3-2.4-0.4-6.3-2-9.7-2.6-5.9-2.6-12.1-4.2-12.1z"/>
		</g>
		<g id="Layer">
			<path id="Layer" class="s13" d="m66.3 96c2.7-0.3 4.8 0.9 7.9 2.8-0.4 3.6-1 7-1.7 10.5 0 0-7.2-4.9-6.2-13.3z"/>
			<g id="Layer">
				<path id="Layer" class="s34" d="m76.1 101.8c0 0-2.2 3.4-4.1 2.3-1.9-1.2 0.8-3.9 0.8-3.9z"/>
				<path id="Layer" class="s34" d="m71.6 100.5c0 0-2.4 3-4 1.6-1.8-1.5 1.4-4.3 1.4-4.3z"/>
				<path id="Layer" class="s34" d="m68.3 96.8c0 0-1.7 1.6-2.8 0-1.1-1.6 3-4.9 3-4.9z"/>
			</g>
			<path id="Layer" class="s37" d="m76.3 58.3c0 0 8.2 9.5 9.4 21.9 1.6 16.5-9.4 27.1-16.4 19.1-4.9-5.7 3.5-12.6 5.7-20.6 1.7-6.1 0.2-20.1 1.3-20.4z"/>
			<path id="Layer" class="s13" d="m68.8 91.3c-0.3 1.8 0 3.5 1.4 5.1 5.8 6.5 14.8-2.6 13.4-17.1-0.8-9.2-6.1-16.5-7.7-18.6 0-1.4 0.1-2.3 0.4-2.4 0 0 8.2 9.5 9.4 21.9 1.6 16.5-9.4 27.1-16.4 19.1-2.1-2.4-1.8-5.1-0.5-8z"/>
			<path id="Layer" class="s36" d="m79 72.2c2.1 0 3.5 9.6 1.5 15.7-2 6-5.3 8.1-7.7 6.1-3-2.4 0.4-6.3 2-9.7 2.6-5.9 2.6-12.1 4.2-12.1z"/>
		</g>
		<g id="Layer">
			<path id="Layer" class="s21" d="m23.7 37.9c1.7 2.1 4.7-0.5 7.4-1.9 2.7-1.5 6.6-3.5 5.6-5.4-0.9-2-3.3-2.4-8.2 0.1-4.8 2.5-5.8 6-4.8 7.2z"/>
			<path id="Layer" class="s38" d="m23.5 37.3c1.7 2 4.7-0.6 7.4-2.2 2.6-1.5 6.4-3.6 5.4-5.5-1-1.9-3.4-2.3-8.2 0.3-4.8 2.7-5.6 6.2-4.6 7.4z"/>
			<path id="Layer" class="s28" d="m23.9 36.3c0.6 0.8 3.4-1.2 5.8-2.7 2.9-1.9 5.7-3.2 4.4-4.6-0.7-0.9-3.8-0.1-7 2.2-1.8 1.3-4.2 3.7-3.2 5.1z"/>
		</g>
		<g id="Layer">
			<path id="Layer" class="s21" d="m64.9 34.7c-1.6 2.2-4.3-0.1-6.8-1.3-2.4-1.3-6-2.9-5.1-5 0.8-2 3-2.7 7.5-0.5 4.4 2.1 5.3 5.5 4.4 6.8z"/>
			<path id="Layer" class="s38" d="m65.1 34c-1.6 2.2-4.3-0.2-6.7-1.5-2.5-1.3-6-3-5.1-5.1 1-2 3.2-2.6 7.5-0.3 4.4 2.2 5.2 5.6 4.3 6.9z"/>
			<path id="Layer" class="s28" d="m64.7 33c-0.5 0.9-3.1-0.8-5.3-2.2-2.7-1.6-5.2-2.7-4-4.2 0.6-0.9 3.5-0.4 6.4 1.6 1.6 1.2 3.8 3.4 2.9 4.8z"/>
		</g>
		<path id="Layer" class="s20" d="m38.6 84.6c1.9 0.3 0.5 2.8-0.7 5.1-1.2 2.2-2.2 4.3-3.1 4.1-1.6-0.5 0.9-9.8 3.8-9.2z"/>
		<path id="Layer" class="s20" d="m34.5 94.7c0.8 0.3-0.3 2-0.9 1.8-0.6-0.3 0-2.2 0.9-1.8z"/>
		<path id="Layer" class="s39" d="m29.9 104.3c2.6 1.9 8 2.7 12.1-2.2-2.3-2.1-6.5-3.8-10.4-4.2q-0.5 0.8-1.1 1.4-0.7 0.8-1.2 1.3c-0.8 1.1-1 2.6 0.6 3.7z"/>
	</g>
</svg>