<?xml version="1.0" encoding="utf-8"?>
<!-- Generator: Adobe Illustrator 27.5.0, SVG Export Plug-In . SVG Version: 6.00 Build 0)  -->
<svg version="1.1" id="Layer_1" xmlns="http://www.w3.org/2000/svg" xmlns:xlink="http://www.w3.org/1999/xlink" x="0px" y="0px"
	 viewBox="0 0 117.5 142" style="enable-background:new 0 0 117.5 142;" xml:space="preserve">
<g>
	<path style="fill:#CC9671;" d="M90.73,128.041c0.34-0.769,0.634-1.56,0.857-2.373c2.414-8.777-4.814-15.817-9.929-21.891
		c-7.596-9.021-10.377-20.632-13.038-31.854c-0.035-0.146-0.165-0.174-0.271-0.132c-1.275-2.27-3.613-2.885-6.356-2.818
		c-2.556,0.063-5.833,0.625-7.079,3.071c-0.093,0.009-0.187,0.068-0.2,0.186c-0.016,0.139-0.038,0.275-0.055,0.414
		c-0.002,0.005-0.004,0.01-0.006,0.015c-0.002,0.008,0.003,0.013,0.002,0.02c-0.855,7.226-2.847,14.345-5.401,21.143
		c-2.624,6.984-6.728,12.656-10.886,18.766c-3.157,4.639-6.018,10.055-4.72,15.816c0.01,0.045,0.027,0.086,0.039,0.13
		c-0.563-0.031-1.142-0.05-1.757-0.057c-0.979-0.207-1.948-0.27-2.799-0.113c-0.135,0.025-0.104,0.246,0.032,0.238
		c2.071-0.113,3.81,0.837,5.325,2.105c0.539,0.452,1.443,1.534,1.842,2.107c0.87,1.25,2.192,2.985,3.5,3.833
		c2.858,1.853,8.909,1.73,13.812,1.061c2.846-0.39,5.678-0.909,8.556-0.947c2.935-0.038,5.874,0.433,8.787,0.729
		c4.975,0.505,9.839,0.195,14.102-2.641c0.979-0.652,1.872-1.446,2.651-2.327c0.563-0.636,1.01-1.373,1.503-2.032
		c0.753-1.006,1.613-1.831,3.155-1.833C91.848,128.234,91.291,128.055,90.73,128.041z"/>
	<path style="opacity:0.3;fill:#8C6457;" d="M90.73,128.041c0.34-0.769,0.634-1.56,0.857-2.373c0.667-2.425,0.58-4.714,0.022-6.89
		c-0.032,2.326-0.494,4.598-1.743,6.479c-1.423,2.146-6.109,5.966-8.261,3.09c-1.107,1.352-2.375,2.532-4.327,2.03
		c-1.176-0.303-2.634-1.417-3.855-0.951c-1.16,0.441-2.168,1.113-3.363,1.452c-0.936,0.266-2.018-0.059-2.883-0.405
		c-1.639-0.656-3.312,0.452-4.861,0.881c-1.994,0.553-3.881,0.595-5.623-0.645c-1.328-0.944-2.56-2.044-4.258-0.943
		c-0.578,0.375-1.226,0.873-1.937,0.952c-2.173,0.242-3.688-2.981-5.577-2.381c-1.915,0.609-3.18,1.969-5.327,1.214
		c-1.584-0.557-2.898-0.771-4.588-0.784c-0.849-0.006-1.576-0.072-2.329-0.267c-0.25-0.008-0.485-0.021-0.747-0.024
		c-0.979-0.207-1.948-0.27-2.799-0.113c-0.135,0.025-0.104,0.246,0.032,0.238c2.071-0.113,3.81,0.837,5.325,2.105
		c0.539,0.452,1.443,1.534,1.842,2.107c0.87,1.25,2.192,2.985,3.5,3.833c2.858,1.853,8.909,1.73,13.812,1.061
		c2.846-0.39,5.678-0.909,8.556-0.947c2.935-0.038,5.874,0.433,8.787,0.729c4.975,0.505,9.839,0.195,14.102-2.641
		c0.979-0.652,1.872-1.446,2.651-2.327c0.563-0.636,1.01-1.373,1.503-2.032c0.753-1.006,1.613-1.831,3.155-1.833
		C91.848,128.234,91.291,128.055,90.73,128.041z"/>
	<path style="opacity:0.5;fill:#9F745B;" d="M67.3,81.942c-0.162,0.256-0.323,0.514-0.454,0.79
		c-0.187,0.396-0.817,0.281-0.914-0.119c-0.039-0.159-0.092-0.331-0.152-0.508c-0.548,2.048-1.337,3.988-3.113,5.307
		c-0.274,0.204-0.641-0.021-0.734-0.299c-0.168-0.497-1.538-3.478-1.418-3.575c-0.522,0.42-1.077,0.761-1.496,1.296
		c-0.182,0.232-0.514,0.151-0.707,0c-1.629-1.276-3.396-1.114-3.646,1.646c-0.003,0.032-0.018,0.055-0.024,0.084
		c0.17,6.071-3.817,11.943-6.921,16.837c-2.958,4.666-6.487,9.25-8.363,14.494c-0.655,1.833-2.037,5.302-0.641,7.066
		c1.601,2.024,7.048,1.87,9.329,1.843c4.603-0.058,8.974,1.453,13.617,1.098c4.534-0.347,9.033-1.698,13.579-1.747
		c2.004-0.022,3.838-0.103,5.787-0.656c2.557-0.727,3.303,0.762,4.936-2.21c0.738-1.344,1.218-2.787,1.093-4.347
		c-0.189-2.36-0.916-4.687-2.208-6.68c-2.184-3.372-5.219-5.985-7.73-9.088C72.154,97.046,69.803,89.316,67.3,81.942z"/>
	<path style="opacity:0.5;fill:#4F3737;" d="M90.73,128.041c0.34-0.769,0.634-1.56,0.857-2.373
		c2.414-8.777-4.814-15.817-9.929-21.891c-7.596-9.021-10.377-20.632-13.038-31.854c-0.035-0.146-0.165-0.174-0.271-0.132
		c-1.275-2.27-3.613-2.885-6.356-2.818c-2.556,0.063-5.833,0.625-7.079,3.071c-0.093,0.009-0.187,0.068-0.2,0.186
		c-0.016,0.139-0.038,0.275-0.055,0.414c-0.002,0.005-0.004,0.01-0.006,0.015c-0.002,0.008,0.003,0.013,0.002,0.02
		c-0.855,7.226-2.847,14.345-5.401,21.143c-2.624,6.984-6.728,12.656-10.886,18.766c-3.157,4.639-6.018,10.055-4.72,15.816
		c0.01,0.045,0.027,0.086,0.039,0.13c-0.563-0.031-1.142-0.05-1.757-0.057c-0.979-0.207-1.948-0.27-2.799-0.113
		c-0.135,0.025-0.104,0.246,0.032,0.238c2.071-0.113,3.81,0.837,5.325,2.105c0.539,0.452,1.443,1.534,1.842,2.107
		c0.87,1.25,2.192,2.985,3.5,3.833c2.858,1.853,8.909,1.73,13.812,1.061c2.846-0.39,5.678-0.909,8.556-0.947
		c2.935-0.038,5.874,0.433,8.787,0.729c4.975,0.505,9.839,0.195,14.102-2.641c0.979-0.652,1.872-1.446,2.651-2.327
		c0.563-0.636,1.01-1.373,1.503-2.032c0.753-1.006,1.613-1.831,3.155-1.833C91.848,128.234,91.291,128.055,90.73,128.041z
		 M89.475,128.249c-2.632,0.862-5.275,3.967-7.489,1.044c-0.139-0.184-0.404-0.266-0.584-0.075c-1.84,1.953-4.647,0.816-6.987,0.942
		c-2.76,0.148-3.626,2.389-6.695,0.726c-0.125-0.068-0.224,0.108-0.109,0.189c2.496,1.772,3.585,0.729,6.188-0.134
		c2.305-0.764,5.713,1.331,7.666-0.712c0.215-0.225,1.287,0.865,1.611,0.961c0.789,0.232,1.466,0.174,2.252-0.055
		c1.219-0.354,2.237-1.014,3.292-1.474c-1.11,1.625-2.53,3.052-4.113,4.189c-4.476,3.217-10.073,2.841-15.26,2.282
		c-4.897-0.527-9.391-0.491-14.263,0.215c-2.464,0.357-4.947,0.561-7.438,0.587c-3.193,0.032-6.086-0.337-8.457-2.688
		c-1.33-1.319-3.109-3.525-4.674-4.6c-0.047-0.097,0.92,0.084,0.876-0.015c0.578,0.109,1.155,0.229,1.726,0.387
		c1.338,0.371,2.338,1.394,3.624,1.891c0.705,0.273,1.393-0.004,1.989-0.352c0.332-0.193,0.633-0.547,0.905-0.812
		c1.073-1.041,2.515-0.398,3.547,0.077c1.378,0.636,2.88,1.091,4.165,0.074c2.547-2.014,3.63,1.142,6.168,0.942
		c0.14-0.011,0.143-0.213,0-0.219c-1.35-0.057-2.015-0.694-3.012-1.444c-0.305-0.229-0.85-0.679-1.284-0.613
		c-1.539,0.231-2.359,1.602-4.125,1.24c-1.09-0.225-2.04-0.944-3.085-1.316c-0.567-0.202-1.585-0.386-2.137-0.049
		c-1.384,0.846-2.094,1.924-3.902,0.846c-1.693-1.009-3.252-1.452-4.967-1.65c-0.333-1.017-0.534-2.118-0.55-3.331
		c-0.085-6.576,5.184-12.543,8.763-17.601c7.095-10.027,10.982-22.555,11.938-34.767c0.032-0.02,0.069-0.031,0.093-0.069
		c1.52-2.505,4.129-2.929,6.848-3.085c3.091-0.179,4.662,0.739,6.394,3.155c1.813,9.022,4.119,18.204,8.843,26.185
		c4.495,7.594,13.741,13.459,13.808,23.057C91.053,124.334,90.466,126.392,89.475,128.249z"/>
	<path style="fill:#BF7949;" d="M102.905,49.959c-3.86-1.993-8.02-3.262-12.137-4.599c-4.284-1.392-8.618-2.574-13.056-3.36
		c-7.988-1.413-16.109-1.366-24.09,0.064c-4.3,0.771-8.523,1.933-12.67,3.298c-1.677,0.553-3.356,1.109-4.967,1.836
		c-1.314,0.595-2.598,1.257-3.881,1.915c-3.006,1.545-6.003,3.129-9.139,4.406c-2.588,1.057-5.438,2.026-8.275,1.774
		c-0.087-0.009-0.177-0.02-0.266-0.032c-0.167-0.021-0.201,0.255-0.039,0.292c0.138,0.032,0.278,0.058,0.419,0.08
		c2.773,1.476,5.556,2.943,8.539,3.959c3.332,1.133,6.755,1.364,10.245,1.52c3.867,0.171,7.755,0.321,11.54,1.203
		c1.993,0.466,3.999,1.181,5.681,2.331c2.266,1.855,2.407,5.296,1.314,7.869c-0.541,1.279-1.501,2.449-2.876,2.846
		c-0.709,0.204-1.456,0.121-2.152-0.088c-1.49-0.445-1.576-1.81-1.629-3.116c-0.004-0.094-0.129-0.124-0.173-0.054
		c-0.054-0.003-0.108,0.019-0.139,0.081c-0.824,1.614-0.503,3.797,1.021,4.887c1.491,1.065,3.438,0.774,4.934-0.15
		c-0.324,0.352-0.661,0.691-1.014,1.011c-0.68,0.615-1.521,0.981-2.205,1.571c-0.061,0.054-0.061,0.123-0.028,0.18
		c-0.142,0.138-0.212,0.311-0.022,0.494c0.328,0.317,1.089,0.225,1.492,0.205c0.791-0.041,1.576-0.258,2.221-0.674
		c-0.178,0.215-0.357,0.432-0.531,0.66c-0.372,0.491-0.976,1.336-0.796,2.003c0.152,0.567,0.872,0.101,1.469-0.416
		c-0.354,0.564-0.628,1.176-0.729,1.842c-0.021,0.132,0.058,0.304,0.22,0.288c1.489-0.145,2.637-1.271,3.512-2.458
		c0.32-0.321,0.641-0.638,1.001-0.92c0.354,0.424,0.85,0.746,1.365,0.317c0.61-0.506,0.824-1.339,1.374-1.885
		c0.594,0.841,1.25,0.004,1.898-0.508c0.18,0.869,0.194,1.832,0.745,2.563c0.456,0.604,1.315,0.479,1.793-0.02
		c0.62-0.649,0.701-1.782,0.905-2.609c0.12-0.49,0.266-1.005,0.634-1.369c0.609-0.603,1.163,0.479,1.638,0.762
		c0.272,0.163,0.844,0.189,1.114,0c0.08-0.056,0.122-0.145,0.163-0.229c0.137-0.284,0.42-0.266,0.63-0.443
		c0.108-0.092,0.197-0.188,0.243-0.329c0.01-0.025,0.016-0.051,0.023-0.076c-0.008-0.005-0.016-0.008-0.023-0.013
		c0.505-0.33,1.003,0.261,1.523,0.595c0.497,0.32,0.613-0.215,0.633-0.613c1.04,0.342,1.564,1.609,2.241,2.386
		c0.559,0.642,1.544,1.172,2.388,0.71c0.66-0.362,0.226-1.031-0.119-1.463c-0.533-0.672-1.193-1.225-1.753-1.868
		c0.567,0.167,1.166,0.226,1.747,0.127c1.104-0.188,1.488-1.143,0.866-2.082c-0.028-0.043-0.07-0.056-0.11-0.05
		c-0.035-0.05-0.107-0.072-0.159-0.02c-0.749,0.761-2.326,0.145-3.101-0.387c-1.005-0.692-1.679-1.842-2.143-2.943
		c-0.85-2.018-1.285-4.778-0.318-6.84c0.022-0.048,0.002-0.088-0.033-0.106c1.056-2.156,2.615-3.911,4.711-5.243
		c2.479-1.577,5.369-2.438,8.209-3.091c2.81-0.646,5.668-1.04,8.504-1.535c3.651-0.636,7.4-1.303,10.461-3.536
		c0.275-0.2,0.526-0.422,0.764-0.662c0.06,0.027,0.117,0.056,0.175,0.086C102.934,50.457,103.152,50.088,102.905,49.959z"/>
	<path style="fill:#9E5F35;" d="M102.905,49.959c-0.804-0.415-1.62-0.797-2.448-1.156c-1,1.086-2.092,2.073-3.419,2.728
		c-2.748,1.353-5.733,1.874-8.672,2.688c-1.555,0.431-3.127,0.87-4.732,1.063c-1.608,0.193-3.231,0.319-4.789,0.789
		c-2.852,0.859-4.705,3.252-7.469,4.182c-0.229,0.078-0.465-0.167-0.393-0.392c0.426-1.357,1.265-2.478,2.31-3.393
		c-0.015,0.008-0.027,0.016-0.041,0.022c-2.254,1.018-2.555,2.808-3.883,4.167c-0.287,0.296-0.736-0.155-0.45-0.449
		c0.108-0.111,0.212-0.225,0.318-0.338c-0.01-0.081,0.01-0.169,0.071-0.247c2.051-2.577,4.332-5.073,6.854-7.279
		c-0.751,0.562-1.487,1.138-2.213,1.729c-1.374,1.122-2.994,2.309-4.292,3.696c-0.613,0.953-1.236,1.902-1.896,2.825
		c-0.193,0.271-0.731,0.11-0.583-0.246c0.011-0.024,0.024-0.049,0.035-0.075c-0.001,0-0.002,0-0.003-0.001
		c0.003-0.004,0.006-0.009,0.009-0.013c0.448-1.032,1.109-1.959,1.886-2.809c0.892-1.386,1.769-2.784,2.708-4.139
		c-1.105,1.338-2.266,2.626-3.614,3.739c-0.081,0.067-0.174,0.087-0.257,0.074c-0.533,0.832-1.021,1.694-1.449,2.591
		c-0.178,0.371-0.725,0.048-0.55-0.321c0.997-2.077,1.952-4.171,2.547-6.384c-0.161,0.31-0.315,0.621-0.46,0.938
		c-0.787,1.743-1.49,3.651-2.951,4.954c-0.212,0.188-0.53,0.058-0.545-0.226c-0.108-2.004-0.052-4.009,0.011-6.013
		c-0.157,1.574-0.226,3.163-0.457,4.733c-0.048,0.323-0.539,0.284-0.615,0c-0.608-2.285-0.372-4.702-0.823-6.999
		c-0.237,2.442-0.42,4.862,0.17,7.316c0.097,0.4-0.491,0.56-0.615,0.169c-0.786-2.467-1.555-5.31-3.38-7.246
		c0.36,1.97,1.443,3.929,1.973,5.83c0.315,1.129,1.107,3.407-0.173,4.239c-0.092,0.061-0.184,0.063-0.261,0.033
		c-0.134,0.013-0.268-0.051-0.305-0.224c-0.753-3.583-3.193-6.515-6.197-8.521c2.387,2.682,4.32,5.822,5.154,9.326
		c0.083,0.35-0.377,0.522-0.559,0.293c-0.082-0.011-0.162-0.055-0.22-0.145c-1.25-1.959-1.813-4.061-3.64-5.665
		c-2.141-1.882-4.642-3.483-7.258-4.643c1.823,1.155,3.193,2.815,4.766,4.363c1.975,1.943,4.127,3.666,5.512,6.11
		c0.123,0.215-0.028,0.415-0.212,0.465c0.006,0.008,0.012,0.016,0.017,0.022c0.251,0.324-0.304,0.643-0.55,0.32
		c-1.661-2.15-3.498-4.39-5.931-5.701c-1.894-1.021-3.947-1.199-5.964-1.622c1.896,0.669,3.814,1.417,5.435,2.585
		c1.864,1.343,3.36,3.062,5.009,4.646c0.098,0.093,0.113,0.205,0.082,0.301c0.12,0.263-0.261,0.578-0.533,0.346
		c-1.842-1.585-3.501-3.563-5.723-4.639c-2.335-1.129-4.839-1.773-7.412-1.947c4.692,1.535,9.658,3.866,12.563,7.954
		c0.24,0.336-0.314,0.654-0.549,0.321c-0.002-0.001-0.004-0.002-0.004-0.004c-0.016-0.009-0.031-0.017-0.045-0.029
		c-2.241-1.802-4.563-3.596-7.295-4.59c-2.512-0.913-5.08-1.152-7.693-1.408c4.141,1.241,8.33,2.344,12.059,4.62
		c0.038,0.024,0.067,0.052,0.091,0.082c1.229,0.687,0.978,1.042,1.991,1.948c0.307,0.275,1.251,1.182,0.945,0.908
		c-3.396-3.038-8.355-4.978-13.001-4.613c1.42,0.164,2.833,0.39,4.231,0.714c1.993,0.466,3.999,1.181,5.681,2.331
		c2.266,1.855,2.407,5.296,1.314,7.869c-0.541,1.279-1.501,2.449-2.876,2.846c-0.709,0.204-1.456,0.121-2.152-0.088
		c-1.49-0.445-1.576-1.81-1.629-3.116c-0.004-0.094-0.129-0.124-0.173-0.054c-0.054-0.003-0.108,0.019-0.139,0.081
		c-0.824,1.614-0.503,3.797,1.021,4.887c1.491,1.065,3.438,0.774,4.934-0.15c-0.324,0.352-0.661,0.691-1.014,1.011
		c-0.68,0.615-1.521,0.981-2.205,1.571c-0.061,0.054-0.061,0.123-0.028,0.18c-0.142,0.138-0.212,0.311-0.022,0.494
		c0.328,0.317,1.089,0.225,1.492,0.205c0.791-0.041,1.576-0.258,2.221-0.674c-0.178,0.215-0.357,0.432-0.531,0.66
		c-0.372,0.491-0.976,1.336-0.796,2.003c0.152,0.567,0.872,0.101,1.469-0.416c-0.354,0.564-0.628,1.176-0.729,1.842
		c-0.021,0.132,0.058,0.304,0.22,0.288c1.489-0.145,2.637-1.271,3.512-2.458c0.32-0.321,0.641-0.638,1.001-0.92
		c0.354,0.424,0.85,0.746,1.365,0.317c0.61-0.506,0.824-1.339,1.374-1.885c0.594,0.841,1.25,0.004,1.898-0.508
		c0.18,0.869,0.194,1.832,0.745,2.563c0.456,0.604,1.315,0.479,1.793-0.02c0.62-0.649,0.701-1.782,0.905-2.609
		c0.12-0.49,0.266-1.005,0.634-1.369c0.609-0.603,1.163,0.479,1.638,0.762c0.272,0.163,0.844,0.189,1.114,0
		c0.08-0.056,0.122-0.145,0.163-0.229c0.137-0.284,0.42-0.266,0.63-0.443c0.108-0.092,0.197-0.188,0.243-0.329
		c0.01-0.025,0.016-0.051,0.023-0.076c-0.008-0.005-0.016-0.008-0.023-0.013c0.505-0.33,1.003,0.261,1.523,0.595
		c0.497,0.32,0.613-0.215,0.633-0.613c1.04,0.342,1.564,1.609,2.241,2.386c0.559,0.642,1.544,1.172,2.388,0.71
		c0.66-0.362,0.226-1.031-0.119-1.463c-0.533-0.672-1.193-1.225-1.753-1.868c0.567,0.167,1.166,0.226,1.747,0.127
		c1.104-0.188,1.488-1.143,0.866-2.082c-0.028-0.043-0.07-0.056-0.11-0.05c-0.035-0.05-0.107-0.072-0.159-0.02
		c-0.749,0.761-2.326,0.145-3.101-0.387c-1.005-0.692-1.679-1.842-2.143-2.943c-0.85-2.018-1.285-4.778-0.318-6.84
		c0.022-0.048,0.002-0.088-0.033-0.106c1.056-2.156,2.615-3.911,4.711-5.243c2.479-1.577,5.369-2.438,8.209-3.091
		c2.81-0.646,5.668-1.04,8.504-1.535c3.651-0.636,7.4-1.303,10.461-3.536c0.275-0.2,0.526-0.422,0.764-0.662
		c0.06,0.027,0.117,0.056,0.175,0.086C102.934,50.457,103.152,50.088,102.905,49.959z"/>
	<path style="fill:#BF7949;" d="M73.518,75.541c-4.394-0.529-4.728-5.44-6.223-8.634c-0.207,0.263-0.298,0.573-0.27,0.934
		c-0.014,0.203-0.193,0.369-0.403,0.309c-0.934-0.27-1.235-1.003-1.667-1.802c-1.2-2.224-3.401-0.366-4.733,0.723
		c-0.604,0.492-1.683,1.62-2.579,1.283c-0.838-0.317-2.396-2.702-3.246-1.892c-0.202,0.929,0.082,2.454,0.092,2.948
		c0.026,1.248-0.021,2.625-0.702,3.725c-1.132,1.822-3.429,3.733-5.739,3.378c-2.369-0.365-3.106-2.401-2.788-4.402
		c-0.041,0.007-0.079,0.026-0.104,0.074c-0.824,1.614-0.503,3.797,1.021,4.887c1.491,1.065,3.438,0.774,4.934-0.15
		c-0.324,0.352-0.661,0.691-1.014,1.011c-0.68,0.615-1.521,0.981-2.205,1.571c-0.061,0.054-0.061,0.123-0.028,0.18
		c-0.142,0.138-0.212,0.311-0.022,0.494c0.328,0.317,1.089,0.225,1.492,0.205c0.791-0.041,1.576-0.258,2.221-0.674
		c-0.178,0.215-0.357,0.432-0.531,0.66c-0.372,0.491-0.976,1.336-0.796,2.003c0.152,0.567,0.872,0.101,1.469-0.416
		c-0.354,0.564-0.628,1.176-0.729,1.842c-0.021,0.132,0.058,0.304,0.22,0.288c1.489-0.145,2.637-1.271,3.512-2.458
		c0.32-0.321,0.641-0.638,1.001-0.92c0.354,0.424,0.85,0.746,1.365,0.317c0.61-0.506,0.824-1.339,1.374-1.885
		c0.594,0.841,1.25,0.004,1.898-0.508c0.18,0.869,0.194,1.832,0.745,2.563c0.456,0.604,1.315,0.479,1.793-0.02
		c0.62-0.649,0.701-1.782,0.905-2.609c0.12-0.49,0.266-1.005,0.634-1.369c0.609-0.603,1.163,0.479,1.638,0.762
		c0.272,0.163,0.844,0.189,1.114,0c0.08-0.056,0.122-0.145,0.163-0.229c0.137-0.284,0.42-0.266,0.63-0.443
		c0.108-0.092,0.197-0.188,0.243-0.329c0.01-0.025,0.016-0.051,0.023-0.076c-0.008-0.005-0.016-0.008-0.023-0.013
		c0.505-0.33,1.003,0.261,1.523,0.595c0.497,0.32,0.613-0.215,0.633-0.613c1.04,0.342,1.564,1.609,2.241,2.386
		c0.559,0.642,1.544,1.172,2.388,0.71c0.66-0.362,0.226-1.031-0.119-1.463c-0.533-0.672-1.193-1.225-1.753-1.868
		c0.567,0.167,1.166,0.226,1.747,0.127c0.863-0.146,1.284-0.763,1.131-1.476C75.229,75.539,74.399,75.647,73.518,75.541z"/>
	<path style="fill:#9E5F35;" d="M76.841,54.187c1.361-0.422,2.698-0.908,3.991-1.484c-0.516,0.167-1.035,0.338-1.552,0.518
		C78.463,53.503,77.64,53.818,76.841,54.187z"/>
	<path style="fill:#9E5F35;" d="M69.326,55.146c1.045-1.062,1.991-2.216,2.926-3.381C71.217,52.846,70.228,53.966,69.326,55.146z"/>
	<path style="fill:#9E5F35;" d="M102.905,49.959c-3.86-1.993-8.02-3.262-12.137-4.599c-4.284-1.392-8.618-2.574-13.056-3.36
		c-7.988-1.413-16.109-1.366-24.09,0.064c-4.3,0.771-8.523,1.933-12.67,3.298c-1.677,0.553-3.356,1.109-4.967,1.836
		c-1.314,0.595-2.598,1.257-3.881,1.915c-3.006,1.545-6.003,3.129-9.139,4.406c-2.588,1.057-5.438,2.026-8.275,1.774
		c-0.087-0.009-0.177-0.02-0.266-0.032c-0.167-0.021-0.201,0.255-0.039,0.292c0.138,0.032,0.278,0.058,0.419,0.08
		c2.773,1.476,5.556,2.943,8.539,3.959c3.332,1.133,6.755,1.364,10.245,1.52c2.147,0.096,4.3,0.184,6.438,0.396
		c-0.568-0.257-1.06-0.6-1.399-1.092c-1.333-1.943,1.518-2.61,2.925-2.779c1.987-0.238,4.119,0.025,5.945-0.975
		c1.618-0.886,3.051-2.025,4.757-2.767c3.261-1.415,6.398-0.435,9.594,0.639c2.37,0.795,4.591,1.106,7.05,0.441
		c1.713-0.464,3.392-1.224,5.139-1.537c1.827-0.328,4.296-0.867,6.081-0.145c1.707,0.692,1.098,2.083-0.136,2.903
		c-0.533,0.354-1.055,0.681-1.561,1.027c1.426-0.517,2.899-0.908,4.361-1.244c2.81-0.646,5.668-1.04,8.504-1.535
		c3.651-0.636,7.4-1.303,10.461-3.536c0.275-0.2,0.526-0.422,0.764-0.662c0.06,0.027,0.117,0.056,0.175,0.086
		C102.934,50.457,103.152,50.088,102.905,49.959z"/>
	<path style="opacity:0.4;fill:#824C2E;" d="M102.905,49.959c-3.86-1.993-8.02-3.262-12.137-4.599
		c-4.284-1.392-8.618-2.574-13.056-3.36c-7.988-1.413-16.109-1.366-24.09,0.064c-4.3,0.771-8.523,1.933-12.67,3.298
		c-1.677,0.553-3.356,1.109-4.967,1.836c-1.314,0.595-2.598,1.257-3.881,1.915c-3.006,1.545-6.003,3.129-9.139,4.406
		c-2.588,1.057-5.438,2.026-8.275,1.774c-0.087-0.009-0.177-0.02-0.266-0.032c-0.167-0.021-0.201,0.255-0.039,0.292
		c0.138,0.032,0.278,0.058,0.419,0.08c2.773,1.476,5.556,2.943,8.539,3.959c2.684,0.912,5.428,1.24,8.217,1.414
		c-0.209-0.104-0.418-0.214-0.618-0.349c-0.192-0.127-0.222-0.43,0-0.551c1.989-1.093,4.439-0.958,6.744-0.98
		c-0.451-0.265-0.635-0.629-0.002-1.11c0.992-0.757,2.452-1.177,3.809-1.357c-0.768-0.427-1.402-1.058-0.62-1.802
		c1.156-1.102,2.534-0.917,3.916-0.538c-0.743-1.614,3.39-2.713,5.284-2.397c-0.022-2.234,2.128-1.157,3.527-0.349
		c0.9-1.614,5.767,0.221,6.766,0.523c1.537,0.469,3.061,1.033,4.62,1.419c2.649,0.656,5.434-0.63,7.959-1.284
		c2.301-0.597,5.179-1.004,7.549-0.638c1.122,0.173,2.197,0.482,3.342,0.292c0.117-0.02,0.222-0.004,0.31,0.083
		c0.487,0.466,1.13,0.813,1.571,1.315c0.691,0.787-1.563,1.738-1.913,1.964c-0.376,0.241-0.744,0.496-1.109,0.754
		c0.03-0.007,0.06-0.015,0.088-0.021c2.81-0.646,5.668-1.04,8.504-1.535c3.651-0.636,7.4-1.303,10.461-3.536
		c0.275-0.2,0.526-0.422,0.764-0.662c0.06,0.027,0.117,0.056,0.175,0.086C102.934,50.457,103.152,50.088,102.905,49.959z"/>
	<path style="fill:#683C1E;" d="M102.905,49.959c-3.86-1.993-8.02-3.262-12.137-4.599c-4.284-1.392-8.618-2.574-13.056-3.36
		c-7.988-1.413-16.109-1.366-24.09,0.064c-4.3,0.771-8.523,1.933-12.67,3.298c-1.677,0.553-3.356,1.109-4.967,1.836
		c-1.314,0.595-2.598,1.257-3.881,1.915c-3.006,1.545-6.003,3.129-9.139,4.406c-2.588,1.057-5.438,2.026-8.275,1.774
		c-0.087-0.009-0.177-0.02-0.266-0.032c-0.167-0.021-0.201,0.255-0.039,0.292c0.138,0.032,0.278,0.058,0.419,0.08
		c2.773,1.476,5.556,2.943,8.539,3.959c3.332,1.133,6.755,1.364,10.245,1.52c3.867,0.171,7.755,0.321,11.54,1.203
		c1.993,0.466,3.999,1.181,5.681,2.331c2.266,1.855,2.407,5.296,1.314,7.869c-0.541,1.279-1.501,2.449-2.876,2.846
		c-0.709,0.204-1.456,0.121-2.152-0.088c-1.49-0.445-1.576-1.81-1.629-3.116c-0.004-0.094-0.129-0.124-0.173-0.054
		c-0.054-0.003-0.108,0.019-0.139,0.081c-0.824,1.614-0.503,3.797,1.021,4.887c1.491,1.065,3.438,0.774,4.934-0.15
		c-0.324,0.352-0.661,0.691-1.014,1.011c-0.68,0.615-1.521,0.981-2.205,1.571c-0.061,0.054-0.061,0.123-0.028,0.18
		c-0.142,0.138-0.212,0.311-0.022,0.494c0.328,0.317,1.089,0.225,1.492,0.205c0.791-0.041,1.576-0.258,2.221-0.674
		c-0.178,0.215-0.357,0.432-0.531,0.66c-0.372,0.491-0.976,1.336-0.796,2.003c0.152,0.567,0.872,0.101,1.469-0.416
		c-0.354,0.564-0.628,1.176-0.729,1.842c-0.021,0.132,0.058,0.304,0.22,0.288c1.489-0.145,2.637-1.271,3.512-2.458
		c0.32-0.321,0.641-0.638,1.001-0.92c0.354,0.424,0.85,0.746,1.365,0.317c0.61-0.506,0.824-1.339,1.374-1.885
		c0.594,0.841,1.25,0.004,1.898-0.508c0.18,0.869,0.194,1.832,0.745,2.563c0.456,0.604,1.315,0.479,1.793-0.02
		c0.62-0.649,0.701-1.782,0.905-2.609c0.12-0.49,0.266-1.005,0.634-1.369c0.609-0.603,1.163,0.479,1.638,0.762
		c0.272,0.163,0.844,0.189,1.114,0c0.08-0.056,0.122-0.145,0.163-0.229c0.137-0.284,0.42-0.266,0.63-0.443
		c0.108-0.092,0.197-0.188,0.243-0.329c0.01-0.025,0.016-0.051,0.023-0.076c-0.008-0.005-0.016-0.008-0.023-0.013
		c0.505-0.33,1.003,0.261,1.523,0.595c0.497,0.32,0.613-0.215,0.633-0.613c1.04,0.342,1.564,1.609,2.241,2.386
		c0.559,0.642,1.544,1.172,2.388,0.71c0.66-0.362,0.226-1.031-0.119-1.463c-0.533-0.672-1.193-1.225-1.753-1.868
		c0.567,0.167,1.166,0.226,1.747,0.127c1.104-0.188,1.488-1.143,0.866-2.082c-0.028-0.043-0.07-0.056-0.11-0.05
		c-0.035-0.05-0.107-0.072-0.159-0.02c-0.749,0.761-2.326,0.145-3.101-0.387c-1.005-0.692-1.679-1.842-2.143-2.943
		c-0.85-2.018-1.285-4.778-0.318-6.84c0.022-0.048,0.002-0.088-0.033-0.106c1.056-2.156,2.615-3.911,4.711-5.243
		c2.479-1.577,5.369-2.438,8.209-3.091c2.81-0.646,5.668-1.04,8.504-1.535c3.651-0.636,7.4-1.303,10.461-3.536
		c0.275-0.2,0.526-0.422,0.764-0.662c0.06,0.027,0.117,0.056,0.175,0.086C102.934,50.457,103.152,50.088,102.905,49.959z
		 M69.606,64.066c-0.227,0.556-0.416,1.12-0.548,1.704c-0.007,0.025-0.002,0.046,0.006,0.063c-0.523,2.006,0.146,4.478,0.971,6.189
		c0.576,1.197,1.457,2.323,2.659,2.934c0.672,0.341,2.421,0.793,2.868-0.06c0.095,0.378,0.203,0.802-0.081,1.118
		c-0.271,0.302-0.797,0.32-1.167,0.326c-0.475,0.007-1.032-0.046-1.553-0.166c-0.007-0.009-0.015-0.018-0.021-0.027
		c-0.062-0.085-0.165-0.087-0.228-0.038c-0.231-0.064-0.452-0.143-0.65-0.238c-0.084-0.042-0.152,0.073-0.072,0.126
		c0.222,0.147,0.46,0.279,0.709,0.392c0.2,0.598,0.932,1.127,1.348,1.534c0.312,0.307,0.625,0.617,0.889,0.966
		c0.304,0.401,0.321,0.705-0.229,0.814c-1.943,0.389-2.549-2.77-4.252-3.174c-0.09-0.021-0.179,0.042-0.18,0.136
		c-0.004,0.521-0.06,0.638-0.466,0.304c-0.222-0.184-0.443-0.368-0.707-0.493c-0.525-0.246-0.864,0.052-1.072,0.481
		c-0.208,0.207-0.534,0.296-0.729,0.553c-0.48,0.63-1.149-0.15-1.482-0.546c-0.504-0.595-1.192-0.482-1.666,0.083
		c-0.535,0.643-0.625,1.618-0.79,2.403c-0.15,0.705-0.692,2.521-1.766,1.649c-0.698-0.566-0.668-1.907-0.864-2.712
		c-0.019-0.071-0.116-0.118-0.178-0.072c-0.428,0.302-1.364,1.54-1.748,0.553c-0.034-0.083-0.131-0.145-0.217-0.088
		c-0.404,0.264-0.658,0.709-0.92,1.103c-0.44,0.661-0.919,1.304-1.562,0.433c-0.081-0.108-0.215-0.135-0.319-0.041
		c-0.25,0.223-0.467,0.475-0.674,0.736c-1.021,0.981-1.923,2.519-3.446,2.613c0.269-1.099,1.03-1.916,1.453-2.961
		c0.036-0.089-0.099-0.159-0.159-0.092c-0.151,0.167-0.298,0.34-0.441,0.517c-0.361,0.298-0.716,0.6-1.105,0.861
		c-0.166,0.11-0.341,0.205-0.531,0.263c-0.137,0.041,0.192-0.749,0.229-0.829c0.534-1.185,1.734-1.899,1.905-3.239
		c0.006-0.018,0.013-0.034,0.02-0.053c0.007-0.017,0-0.03-0.011-0.04c0.002-0.028,0.007-0.054,0.01-0.081
		c0.005-0.097-0.128-0.103-0.158-0.021c-0.088,0.24-0.197,0.459-0.321,0.668c-0.608,0.734-1.447,1.203-2.434,1.331
		c-0.366,0.047-0.736,0.062-1.104,0.064c-0.313,0-0.859,0.025-0.705-0.264c0.799-0.192,1.528-0.817,2.137-1.34
		c0.673-0.575,1.191-1.274,1.611-2.041c0.012-0.009,0.023-0.017,0.031-0.024c0.035-0.031,0.043-0.068,0.038-0.104
		c0.036-0.07,0.075-0.141,0.11-0.212c0.031-0.062-0.053-0.137-0.101-0.077c-0.048,0.06-0.097,0.116-0.145,0.175
		c-0.02,0.001-0.038,0.005-0.058,0.016c-1.593,0.938-3.276,1.684-5.036,0.68c-1.284-0.732-1.579-2.06-1.454-3.378
		c0.084,0.577,0.305,1.125,0.709,1.573c0.619,0.69,1.756,0.909,2.643,0.888c1.669-0.039,2.957-1.291,3.707-2.68
		c1.147-2.123,1.508-5.89-0.225-7.898c0.293,0.222,0.603,0.52,0.948,0.657c0.015,0.007,0.027,0.013,0.043,0.017
		c0.019,0.006,0.034,0.014,0.052,0.02c0.049,0.013,0.1-0.012,0.128-0.052c0.052-0.039,0.081-0.104,0.049-0.185
		c-0.159-0.422-0.345-0.842-0.552-1.248c0.504,0.453,1.101,0.785,1.76,0.825c0.128,0.008,0.203-0.124,0.18-0.235
		c-0.098-0.462-0.257-0.918-0.491-1.331c0.196,0.128,0.396,0.248,0.598,0.364c0.437,0.254,0.879,0.499,1.307,0.769
		c0.384,0.244,0.718,0.555,1.097,0.801c0.07,0.154,0.324,0.12,0.346-0.08c0.133-1.165-0.171-2.394-0.785-3.398
		c-0.001-0.001-0.001-0.003-0.002-0.005c0.309,0.204,0.608,0.423,0.884,0.676c0.489,0.449,0.715,1.006,1.085,1.527
		c0.03,0.04,0.066,0.061,0.104,0.069c-0.016,0.171,0.225,0.17,0.279,0.035c0.281-0.686,0.306-1.594,0.193-2.404
		c0.412,0.859,0.919,1.725,1.732,2.201c0.095,0.055,0.259,0.01,0.276-0.113c0.153-1.035,0.267-2.079,0.27-3.127
		c0.091,0.279,0.188,0.553,0.28,0.82c0.238,0.683,0.525,1.425,1.066,1.922c0.083,0.078,0.213,0.044,0.248-0.063
		c0.36-1.13,0.693-2.232,1.184-3.298c-0.088,0.805,0.04,1.644,0.379,2.367c0.002,0.087,0,0.173,0.007,0.257
		c0.008,0.106,0.125,0.167,0.21,0.145c0.008,0.015,0.015,0.029,0.023,0.043c0.07,0.108,0.224,0.138,0.319,0.041
		c0.696-0.72,1.233-1.602,1.778-2.452c-0.205,0.801-0.156,1.673,0.124,2.442c0.049,0.132,0.205,0.224,0.337,0.137
		c0.588-0.383,1.068-0.931,1.527-1.487c-0.154,0.37-0.263,0.762-0.323,1.168c-0.029,0.201,0.222,0.333,0.341,0.144
		c0.652-1.042,1.6-1.8,2.611-2.459C70.828,61.759,70.11,62.825,69.606,64.066z M96.829,52.78c-1.745,0.548-3.556,0.841-5.351,1.163
		c-2.823,0.508-5.665,0.899-8.467,1.515c-3.659,0.802-7.774,2.118-10.634,4.708c-1.199,0.546-2.19,1.491-3.115,2.426
		c0.216-0.732,0.548-1.397,0.965-2.063c0.043-0.069-0.052-0.136-0.106-0.085c-0.235,0.221-0.438,0.465-0.615,0.725
		c-0.191,0.146-0.37,0.308-0.543,0.475c0.798-1.075,1.45-2.251,2.283-3.306c1.03-1.305,2.402-2.265,3.893-2.973
		c1.475-0.701,3.072-1.132,4.637-1.577c1.647-0.471,3.206-1.125,4.756-1.848c0.053-0.025,0.006-0.1-0.047-0.078
		c-1.703,0.734-3.443,1.332-5.23,1.818c-1.523,0.415-3.034,0.867-4.467,1.542c-1.451,0.683-2.74,1.656-3.762,2.896
		c-1.048,1.274-1.799,2.77-2.723,4.131c-0.013,0.018-0.013,0.037-0.006,0.056c-0.23,0.222-0.469,0.433-0.736,0.612
		c-0.271-1.04-0.042-2.001,0.175-3.057c0.022-0.106-0.11-0.16-0.171-0.071c-0.084,0.121-0.156,0.249-0.223,0.381
		c-0.023,0.001-0.045,0.009-0.065,0.028c-0.36,0.37-0.655,0.789-0.947,1.212c0.176-0.587,0.339-1.175,0.614-1.746
		c0.391-0.808,0.899-1.552,1.435-2.27c1.161-1.558,2.566-2.95,3.914-4.347c0.034-0.033-0.017-0.083-0.051-0.05
		c-1.5,1.392-3.005,2.751-4.263,4.374c-0.558,0.72-1.038,1.496-1.439,2.313c-0.372,0.756-0.781,1.689-0.792,2.549
		c-0.167,0.218-0.342,0.43-0.535,0.627c-0.032-0.063-0.058-0.13-0.085-0.195c0.152-0.993,0.304-1.949,0.618-2.926
		c0.356-1.111,0.806-2.192,1.187-3.295c0.012-0.034-0.041-0.058-0.059-0.024c-0.502,1.066-0.994,2.137-1.398,3.244
		c-0.242,0.655-0.496,1.382-0.634,2.112c-0.173-0.799-0.16-1.649,0.004-2.428c0.021-0.098-0.124-0.172-0.169-0.072
		c-0.063,0.143-0.113,0.288-0.158,0.438c-0.465,0.666-0.754,1.423-1.01,2.191c0.01-0.123,0.02-0.247,0.03-0.367
		c0.089-0.859,0.184-1.718,0.277-2.578c0.186-1.719,0.353-3.427,0.272-5.157c-0.002-0.034-0.05-0.033-0.053,0
		c-0.174,1.623-0.336,3.248-0.514,4.87c-0.158,1.449-0.465,2.976-0.414,4.443c-0.033,0.097-0.065,0.193-0.101,0.288
		c-0.222-0.382-0.421-0.773-0.6-1.177c0.052-0.027,0.089-0.084,0.078-0.164c-0.184-1.28-0.473-2.528-0.597-3.824
		c-0.125-1.295-0.178-2.596-0.342-3.889c-0.007-0.058-0.096-0.062-0.094,0c0.016,1.299,0.042,2.595,0.117,3.889
		c0.041,0.725,0.086,1.499,0.202,2.252c-0.106-0.317-0.223-0.632-0.377-0.921c-0.039-0.077-0.181-0.046-0.169,0.046
		c0.018,0.158,0.045,0.317,0.078,0.476c-0.088,1.259,0.028,2.529-0.279,3.763c-0.781-0.664-1.283-1.577-1.858-2.421
		c-0.006-0.026-0.012-0.055-0.018-0.079c-0.009-0.031-0.033-0.043-0.06-0.044c-0.514-1.468-1.004-2.929-1.691-4.336
		c-0.837-1.715-1.874-3.247-3.158-4.652c-0.023-0.025-0.061,0.012-0.037,0.037c1.237,1.39,2.168,3.08,2.946,4.761
		c0.405,0.875,0.77,1.768,1.104,2.672c0.257,0.692,0.408,1.469,0.78,2.112c0.01,0.323,0.021,0.646,0.01,0.972
		c-0.012,0.368-0.072,0.729-0.13,1.089c-0.199-0.527-0.615-1.009-1.107-1.398c0.005-0.015,0.008-0.029,0-0.046
		c-0.528-1.29-1.717-2.479-2.657-3.481c-1.179-1.256-2.481-2.366-3.835-3.427c-0.025-0.021-0.063,0.014-0.037,0.036
		c1.149,1.024,2.284,2.072,3.358,3.176c0.537,0.553,1.045,1.132,1.533,1.728c0.454,0.558,0.83,1.191,1.276,1.754
		c-0.304-0.198-0.622-0.36-0.928-0.476c-2.154-3.557-5.792-6.235-9.448-8.057c-0.037-0.018-0.069,0.036-0.033,0.057
		c1.873,1.049,3.623,2.192,5.235,3.613c0.782,0.693,1.51,1.449,2.194,2.236c0.572,0.657,1.074,1.369,1.614,2.05
		c-0.025,0.029-0.031,0.076,0.01,0.101c0.051,0.027,0.098,0.058,0.146,0.086c0.072,0.089,0.146,0.177,0.221,0.265
		c0.434,1.004,0.631,1.945,0.704,3.017c-0.435-0.46-1.06-0.79-1.579-1.09c-0.906-0.522-1.808-0.988-2.619-1.661
		c-0.065-0.054-0.181,0.017-0.125,0.098c0.178,0.262,0.393,0.492,0.629,0.699c0.355,0.544,0.789,0.995,0.853,1.658
		c-1.042-0.395-1.801-1.032-2.569-1.865c-0.058-0.06-0.153,0.019-0.112,0.088c0.127,0.223,0.276,0.451,0.445,0.673
		c0.219,0.522,0.438,1.042,0.65,1.567c-0.167-0.115-0.338-0.222-0.493-0.33c-0.25-0.173-0.506-0.331-0.772-0.472
		c-0.004-0.01-0.01-0.019-0.016-0.028c-1.46-1.067-3.192-1.787-4.946-2.291c-3.671-1.051-7.531-1.275-11.326-1.45
		c-3.756-0.172-7.476-0.262-11.106-1.349c-3.051-0.912-5.89-2.41-8.773-3.746c2.324,0.227,4.756-0.594,6.882-1.392
		c1.499-0.563,2.963-1.214,4.408-1.903c0.359,1.02,0.745,1.939,1.517,2.731c0.671,0.69,1.5,1.223,2.353,1.658
		c1.944,0.993,4.142,1.438,6.28,1.782c2.221,0.357,4.465,0.552,6.673,0.998c2.715,0.549,5.217,1.572,7.37,3.333
		c0.052,0.044,0.126-0.025,0.076-0.075c-3.287-3.34-8.226-3.813-12.62-4.438c-2.15-0.308-4.307-0.686-6.347-1.451
		c-1.045-0.392-2.048-0.925-2.919-1.625c-1.043-0.836-1.545-1.878-1.976-3.111c1.351-0.655,2.688-1.344,4.022-2.03
		c0.59,1.786,2.272,3.033,3.831,3.959c1.797,1.065,3.844,1.605,5.85,2.119c2.366,0.604,4.65,1.318,6.881,2.325
		c2.295,1.035,4.438,2.319,6.508,3.743c0.043,0.03,0.096-0.038,0.056-0.07c-3.435-2.893-7.712-4.848-12.02-6.03
		c-1.979-0.543-3.991-0.985-5.873-1.827c-1.895-0.85-4.212-2.322-4.858-4.412c1.486-0.762,2.961-1.502,4.465-2.181
		c1.239,3.975,4.872,5.807,8.525,7.177c1.937,0.727,3.983,1.305,5.774,2.358c2.197,1.291,3.725,3.364,5.389,5.231
		c0.029,0.034,0.089-0.012,0.061-0.049c-1.298-1.782-2.718-3.56-4.464-4.925c-1.559-1.221-3.463-1.848-5.301-2.518
		c-3.939-1.434-8.241-3.07-9.584-7.455c1.138-0.503,2.295-0.971,3.488-1.382c0.448-0.155,0.898-0.305,1.348-0.453
		c0.001,0,0.001,0,0.001,0.001c1.849,3.588,5.546,5.208,8.815,7.263c3.539,2.225,6.659,5.32,8.227,9.252
		c0.033,0.084,0.169,0.052,0.139-0.039c-1.203-3.602-3.842-6.523-6.875-8.731c-3.418-2.488-7.865-3.932-9.911-7.877
		c1.759-0.574,3.53-1.104,5.316-1.586c0.386,1.739,1.599,3.385,2.689,4.733c1.329,1.646,2.906,3.064,4.402,4.554
		c0.04,0.038,0.096-0.021,0.06-0.06c-2.493-2.886-5.554-5.604-6.754-9.331c1.012-0.269,2.028-0.517,3.05-0.749
		c0.168,0.99,0.384,1.855,0.86,2.767c0.507,0.967,1.196,1.836,1.866,2.694c0.779,0.999,1.555,1.979,2.224,3.057
		c0.653,1.056,1.208,2.17,1.868,3.225c0.031,0.048,0.104,0.005,0.077-0.047c-1.095-2.094-2.165-4.159-3.579-6.061
		c-0.646-0.868-1.303-1.72-1.861-2.646c-0.604-1.001-0.851-1.967-1.06-3.078c0.619-0.139,1.239-0.272,1.862-0.396
		c1.438-0.287,2.879-0.523,4.325-0.716c0.191,2.615,1.05,5.232,1.771,7.737c0.776,2.703,1.644,5.377,2.4,8.086
		c0.02,0.069,0.121,0.039,0.105-0.027c-0.584-2.655-1.314-5.277-2.043-7.895c-0.718-2.582-1.591-5.275-1.808-7.96
		c2.013-0.254,4.03-0.414,6.052-0.489c-0.346,1.328-0.371,2.771-0.519,4.125c-0.174,1.603-0.313,3.21-0.405,4.819
		c-0.179,3.128-0.153,6.293,0.334,9.394c0.003,0.022,0.041,0.017,0.039-0.007c-0.234-3.038-0.232-6.064-0.031-9.103
		c0.101-1.514,0.244-3.025,0.404-4.535c0.163-1.534,0.181-3.208,0.595-4.703c2.777-0.087,5.56-0.007,8.334,0.246
		c-0.476,0.926-0.701,2.018-1.017,2.997c-0.402,1.258-0.838,2.504-1.283,3.748c-0.887,2.481-1.864,4.945-2.577,7.485
		c-0.02,0.071,0.083,0.095,0.108,0.029c1.901-4.679,3.387-9.505,5.166-14.225c1.546,0.149,3.089,0.354,4.625,0.609
		c3.535,0.589,7.031,1.44,10.466,2.472c-1.056,0.915-2.005,1.954-3.146,2.771c-0.92,0.66-1.887,1.247-2.868,1.813
		c-1.907,1.099-3.889,2.064-5.799,3.16c-3.708,2.126-6.931,5.206-8.14,9.422c-0.013,0.043,0.049,0.056,0.064,0.018
		c0.907-2.218,2.073-4.108,3.794-5.789c1.518-1.484,3.313-2.629,5.131-3.709c1.844-1.096,3.756-2.069,5.608-3.152
		c0.938-0.547,1.87-1.119,2.75-1.754c1.09-0.784,1.999-1.788,3.021-2.653c0.731,0.223,1.461,0.451,2.188,0.69
		c4.048,1.331,8.145,2.555,11.983,4.428C100.455,51.222,98.803,52.16,96.829,52.78z"/>
	<path style="fill:#78308A;" d="M53.674,51.716c-0.003-0.002-0.006,0.003-0.003,0.004c0.073,0.046,0.108,0.109,0.146,0.182
		c0.002,0.003,0.006,0.001,0.004-0.002C53.783,51.824,53.747,51.763,53.674,51.716z"/>
	<g>
		<path style="fill:#9A0016;" d="M114.354,45.104c-0.17-0.082-0.321,0.092-0.284,0.227c-0.021,0.021-0.036,0.047-0.045,0.084
			c-0.267,1.259-0.827,2.605-2.269,2.761c-1.169,0.125-2.361-0.511-3.323-1.099c-2.487-1.517-4.418-3.827-6.114-6.153
			c-4.788-6.558-7.346-14.388-11.736-21.177c-2.342-3.622-4.982-7.091-8.138-10.046c-1.297-1.214-2.692-2.332-4.204-3.269
			c-1.527-0.945-2.428-1.665-4.121-2.137c-4.462-1.242-7.252-0.51-10.142-0.002c-3.382,0.596-6.692,1.76-9.823,3.159
			c-1.778,0.794-3.514,1.698-5.201,2.667c-6.162,3.539-11.41,8.396-15.861,13.901C28.96,29.13,25.764,34.914,21.237,39.71
			c-2.213,2.347-4.712,4.442-7.535,6.018c-2.96,1.653-6.241,2.538-9.617,2.729c-0.058-0.026-0.116-0.056-0.178-0.078
			c-0.057-0.021-0.109,0.065-0.061,0.106c1.446,1.191,2.091,3.017,3.421,4.309c0.456,0.442,1.096,0.807,1.752,0.708
			c0.648-0.099,1.229-0.612,1.751-1.087c-0.402,0.559-0.829,1.098-1.333,1.569c-0.11,0.102-0.076,0.239,0.013,0.317
			c0.014,0.024,0.034,0.046,0.065,0.059c1.953,0.765,3.709,1.964,5.652,2.76c1.641,0.674,3.973,1.228,5.387-0.216
			c0.044-0.045,0.039-0.103,0.009-0.145c0.13-0.108,0.247-0.229,0.354-0.34c-0.226,0.435-0.449,0.871-0.622,1.331
			c-0.043,0.116,0.067,0.229,0.178,0.232c1.783,0.064,3.479,0.524,5.226,0.832c1.654,0.291,3.253,0.202,4.857-0.296
			c0.107-0.032,0.12-0.145,0.075-0.216c0.145-0.191,0.145-0.497,0.177-0.727c0.012-0.076,0.018-0.151,0.027-0.226
			c0.11,0.254,0.331,0.46,0.627,0.554c0.847,0.273,1.921-0.15,2.708-0.43c0.996-0.354,1.96-0.816,2.879-1.333
			c1.084-0.611,1.855-1.657,3.015-2.118c0.088-0.036,0.104-0.128,0.07-0.189c0.156-0.154,0.217-0.428,0.228-0.731
			c0.083,0.139,0.193,0.249,0.344,0.306c0.659,0.248,1.491-0.361,2.066-0.591c0.86-0.344,1.799-0.362,2.545-0.96
			c0.508-0.404,0.734-1.111,0.871-1.838c0.088,0.24,0.25,0.403,0.532,0.397c0.628-0.012,1.175-0.525,1.769-0.696
			c0.875-0.253,1.884,0.084,2.727-0.2c0.098,0.084,0.263,0.008,0.27-0.13c0-0.004-0.001-0.008-0.001-0.011
			c0.009-0.024,0.006-0.048-0.002-0.071c-0.002-0.315-0.106-0.648-0.147-0.956c-0.008-0.063-0.014-0.126-0.021-0.189
			c0.168,0.504,0.403,0.985,0.849,1.26c1.194,0.733,2.714,0.123,3.891,0.936c0.493,0.34,1.289,1.118,1.901,0.548
			c0.38-0.353,0.622-0.902,0.763-1.451c0.034,0.428,0.073,0.861,0.238,1.229c0.343,0.756,1.165,0.953,1.896,1.164
			c1.223,0.355,2.449,0.573,3.606,1.126c0.854,0.409,1.805,0.852,2.778,0.785h0.003c0.025-0.002,0.05,0,0.076-0.003
			c0.153-0.015,0.217-0.194,0.128-0.291c0.023-0.11,0.043-0.222,0.064-0.335c0.072,0.248,0.196,0.459,0.408,0.595
			c1.074,0.691,1.872-0.523,2.921-0.514c0.754,0.006,1.856,0.527,2.445-0.146c0.401-0.458,0.262-1.289,0.04-1.97
			c0.289,0.386,0.627,0.726,1.096,0.978c0.63,0.341,1.352,0.35,2.046,0.265c0.935-0.114,1.849-0.353,2.786-0.459
			c0.681-0.076,1.382-0.101,2.062-0.004c0.654,0.093,1.334,0.355,1.989,0.168c0.112-0.031,0.14-0.188,0.06-0.256
			c-0.013-0.331-0.068-0.646-0.16-0.952c0.285,0.425,0.613,0.807,1.095,1.067c0.479,0.261,1.035,0.366,1.554,0.519
			c0.646,0.191,1.287,0.411,1.935,0.604c1.164,0.347,2.369,0.656,3.592,0.654c1.377-0.003,2.486-1.087,3.894-0.846
			c0.101,0.07,0.26,0.038,0.3-0.103c0.06-0.215,0.019-0.464-0.014-0.693c0.067,0.142,0.141,0.281,0.227,0.418
			c0.399,0.642,0.895,0.74,1.595,0.572c0.598-0.146,1.044-0.241,1.657-0.068c0.601,0.17,1.161,0.47,1.763,0.644
			c0.965,0.276,2.004-0.081,2.889-0.498c0.093,0.059,0.23,0.008,0.244-0.125c0.073-0.067,0.039-0.18-0.039-0.229
			c-0.061-0.271-0.176-0.511-0.32-0.73c0.174,0.125,0.359,0.232,0.554,0.307c0.056,0.023,0.104-0.001,0.139-0.041
			c0.624,0.261,1.276,0.249,1.956,0.006c0.388-0.137,0.754-0.337,1.125-0.514c0.533-0.254,1.079-0.331,1.623-0.512
			c1.263-0.153,2.534-0.208,3.635-0.949c0.087-0.059,0.133-0.177,0.072-0.272c-0.179-0.282-0.48-0.659-0.822-0.932
			c0.878,0.074,1.763,0.006,2.561-0.366C115.782,48.108,115.655,45.738,114.354,45.104z"/>
		<path style="fill:#B5001C;" d="M50.32,9.926c-6.426,3.72-8.216,6.624-12.106,11.162c-2.745,3.202-5.203,7.154-6.417,11.212
			c-0.474,1.589-1.098,3.847-0.29,5.443c1.073,2.12,3.526,2.665,5.715,2.149c2.836-0.67,5.312-2.128,7.91-3.383
			c2.99-1.442,8.617,4.969,11.819,4.032c3.936-1.151,4.191-4.033,9.363-3.119c3.316,0.585,5.939,4.903,9.56,5.849
			c3.817,0.997,5.279-5.862,11.51-4.874c3.486,0.553,5.68,3.527,8.574,5.561c2.275,1.597,5.816,4.075,8.807,3.401
			c0.148-0.033,0.682-0.208,0.632-0.181c0.027-0.016,0.473-0.379,0.263-0.164c0.146-0.151,0.221-0.249,0.278-0.462
			c0.095-0.354,0.123-0.823,0.091-1.313c-1.396-1.289-2.604-2.798-3.711-4.315c-4.788-6.558-7.346-14.388-11.736-21.177
			c-2.342-3.622-4.982-7.091-8.138-10.046c-1.297-1.214-2.692-2.332-4.204-3.269c-1.527-0.945-2.428-1.665-4.121-2.137
			c-4.462-1.242-7.252-0.51-10.142-0.002c-3.382,0.596-6.692,1.76-9.823,3.159c-0.613,0.272-1.219,0.564-1.821,0.861
			C52.367,8.781,50.821,9.637,50.32,9.926z"/>
		<path style="fill:#D00023;" d="M91.353,23.165c-1.642-4.169-5.009-7.78-8.19-10.844c-4.484-4.315-10.005-7.811-16.457-7.03
			C61.393,5.934,55.477,8.396,51.1,11.293c-3.056,2.02-7.754,5.507-6.515,10.051c1.07,3.915,6.837,1.658,9.279,0.73
			c4.274-1.622,6.754,7.299,11.477,7.352c3.86,0.045,11.167-4.667,14.632-2.926c3.194,1.607,7.968,5.996,11.386,1.386
			C92.357,26.541,91.911,24.581,91.353,23.165z"/>
		<path style="fill:#EB0029;" d="M78.805,9.223C75.84,7.267,72.35,6.048,68.784,6.062c-3.862,0.015-8.228,1.578-11.333,3.83
			c-0.252,0.184-0.383,0.447-0.412,0.717c-0.023,0.016-0.05,0.03-0.073,0.046c-1.306,0.901-2.369,2.372-1.433,3.93
			c1.135,1.891,4.338,1.421,6.154,1.314c2.838-0.166,5.499-0.727,8.17,0.594c2.291,1.133,3.957,3.353,5.947,4.929
			c2.597,2.057,9.362,6.715,11.381,1.51C89.302,17.477,82.753,11.831,78.805,9.223z"/>
		<path style="fill:#7F000F;" d="M112.674,50.046c-0.08-0.127-0.188-0.272-0.31-0.418c-1.173,0.473-2.427,0.752-3.72,0.806
			c-2.078,0.084-4.199,0.009-6.259-0.279c-1.851-0.258-3.766-0.299-5.569-0.828c-1.871-0.55-3.611-1.404-5.021-2.781
			c-1.064-1.04-1.884-2.264-2.841-3.396c-0.399-0.473-0.827-1.037-1.339-1.397c-0.127-0.09-0.258-0.177-0.391-0.259
			c-0.043,0.073-0.086,0.146-0.124,0.222c-0.239,0.487-0.504,1.352-0.733,2.131c-0.233,0.788-0.453,1.59-0.766,2.354
			c-0.673,1.642-1.816,3.664-3.873,3.664c-1.216,0-2.513-1.054-3.376-1.007c-1.816,0.103-3.326,0.726-5.159,0.089
			c-3.227-1.121-4.854-3.683-6.769-6.318c-0.612-0.846-1.455-2.012-2.2-2.404c-0.018-0.01-0.031-0.017-0.045-0.025
			c-0.022,0.016-0.053,0.037-0.08,0.058c0.191-0.129-0.329,0.36-0.507,0.559c-0.001,0.015-0.39,0.559-0.47,0.682
			c-0.428,0.66-0.831,1.338-1.274,1.986c-1.014,1.483-2.274,3.051-4.093,3.541c-2.309,0.621-4.64-0.447-6.273-2.065
			c-1.11-1.1-2.168-2.641-3.602-3.339c-0.983-0.477-2.224,0.329-3.015,0.877c-2.515,1.744-4.529,4.297-7.456,5.401
			c-2.452,0.927-6.055,0.713-7.396-1.805c-0.355-0.082-0.702-0.226-1.029-0.453c-1.342-0.937-1.757-2.583-1.751-4.146
			c0.011-3.265,0.817-6.738,2.202-9.673c6.838-14.483,19.979-21.353,23.658-23.876c-1.407,0.67-2.79,1.401-4.14,2.176
			c-6.162,3.539-11.41,8.396-15.861,13.901C28.96,29.13,25.764,34.914,21.237,39.71c-2.213,2.347-4.712,4.442-7.535,6.018
			c-2.96,1.653-6.241,2.538-9.617,2.729c-0.058-0.026-0.116-0.056-0.178-0.078c-0.057-0.021-0.109,0.065-0.061,0.106
			c1.446,1.191,2.091,3.017,3.421,4.309c0.456,0.442,1.096,0.807,1.752,0.708c0.648-0.099,1.229-0.612,1.751-1.087
			c-0.402,0.559-0.829,1.098-1.333,1.569c-0.11,0.102-0.076,0.239,0.013,0.317c0.014,0.024,0.034,0.046,0.065,0.059
			c1.953,0.765,3.709,1.964,5.652,2.76c1.641,0.674,3.973,1.228,5.387-0.216c0.044-0.045,0.039-0.103,0.009-0.145
			c0.13-0.108,0.247-0.229,0.354-0.34c-0.226,0.435-0.449,0.871-0.622,1.331c-0.043,0.116,0.067,0.229,0.178,0.232
			c1.783,0.064,3.479,0.524,5.226,0.832c1.654,0.291,3.253,0.202,4.857-0.296c0.107-0.032,0.12-0.145,0.075-0.216
			c0.145-0.191,0.145-0.497,0.177-0.727c0.012-0.076,0.018-0.151,0.027-0.226c0.11,0.254,0.331,0.46,0.627,0.554
			c0.847,0.273,1.921-0.15,2.708-0.43c0.996-0.354,1.96-0.816,2.879-1.333c1.084-0.611,1.855-1.657,3.015-2.118
			c0.088-0.036,0.104-0.128,0.07-0.189c0.156-0.154,0.217-0.428,0.228-0.731c0.083,0.139,0.193,0.249,0.344,0.306
			c0.659,0.248,1.491-0.361,2.066-0.591c0.86-0.344,1.799-0.362,2.545-0.96c0.508-0.404,0.734-1.111,0.871-1.838
			c0.088,0.24,0.25,0.403,0.532,0.397c0.628-0.012,1.175-0.525,1.769-0.696c0.875-0.253,1.884,0.084,2.727-0.2
			c0.098,0.084,0.263,0.008,0.27-0.13c0-0.004-0.001-0.008-0.001-0.011c0.009-0.024,0.006-0.048-0.002-0.071
			c-0.002-0.315-0.106-0.648-0.147-0.956c-0.008-0.063-0.014-0.126-0.021-0.189c0.168,0.504,0.403,0.985,0.849,1.26
			c1.194,0.733,2.714,0.123,3.891,0.936c0.493,0.34,1.289,1.118,1.901,0.548c0.38-0.353,0.622-0.902,0.763-1.451
			c0.034,0.428,0.073,0.861,0.238,1.229c0.343,0.756,1.165,0.953,1.896,1.164c1.223,0.355,2.449,0.573,3.606,1.126
			c0.854,0.409,1.805,0.852,2.778,0.785h0.003c0.025-0.002,0.05,0,0.076-0.003c0.153-0.015,0.217-0.194,0.128-0.291
			c0.023-0.11,0.043-0.222,0.064-0.335c0.072,0.248,0.196,0.459,0.408,0.595c1.074,0.691,1.872-0.523,2.921-0.514
			c0.754,0.006,1.856,0.527,2.445-0.146c0.401-0.458,0.262-1.289,0.04-1.97c0.289,0.386,0.627,0.726,1.096,0.978
			c0.63,0.341,1.352,0.35,2.046,0.265c0.935-0.114,1.849-0.353,2.786-0.459c0.681-0.076,1.382-0.101,2.062-0.004
			c0.654,0.093,1.334,0.355,1.989,0.168c0.112-0.031,0.14-0.188,0.06-0.256c-0.013-0.331-0.068-0.646-0.16-0.952
			c0.285,0.425,0.613,0.807,1.095,1.067c0.479,0.261,1.035,0.366,1.554,0.519c0.646,0.191,1.287,0.411,1.935,0.604
			c1.164,0.347,2.369,0.656,3.592,0.654c1.377-0.003,2.486-1.087,3.894-0.846c0.101,0.07,0.26,0.038,0.3-0.103
			c0.06-0.215,0.019-0.464-0.014-0.693c0.067,0.142,0.141,0.281,0.227,0.418c0.399,0.642,0.895,0.74,1.595,0.572
			c0.598-0.146,1.044-0.241,1.657-0.068c0.601,0.17,1.161,0.47,1.763,0.644c0.965,0.276,2.004-0.081,2.889-0.498
			c0.093,0.059,0.23,0.008,0.244-0.125c0.073-0.067,0.039-0.18-0.039-0.229c-0.061-0.271-0.176-0.511-0.32-0.73
			c0.174,0.125,0.359,0.232,0.554,0.307c0.056,0.023,0.104-0.001,0.139-0.041c0.624,0.261,1.276,0.249,1.956,0.006
			c0.388-0.137,0.754-0.337,1.125-0.514c0.533-0.254,1.079-0.331,1.623-0.512c1.263-0.153,2.534-0.208,3.635-0.949
			C112.688,50.259,112.734,50.141,112.674,50.046z"/>
		<path style="fill:#5C0D10;" d="M114.354,45.104c-0.17-0.082-0.321,0.092-0.284,0.227c-0.021,0.021-0.036,0.047-0.045,0.084
			c-0.267,1.259-0.827,2.605-2.269,2.761c-1.169,0.125-2.361-0.511-3.323-1.099c-2.487-1.517-4.418-3.827-6.114-6.153
			c-4.788-6.558-7.346-14.388-11.736-21.177c-2.342-3.622-4.982-7.091-8.138-10.046c-1.297-1.214-2.692-2.332-4.204-3.269
			c-1.527-0.945-2.428-1.665-4.121-2.137c-4.462-1.242-7.252-0.51-10.142-0.002c-3.382,0.596-6.692,1.76-9.823,3.159
			c-1.778,0.794-3.514,1.698-5.201,2.667c-6.162,3.539-11.41,8.396-15.861,13.901C28.96,29.13,25.764,34.914,21.237,39.71
			c-2.213,2.347-4.712,4.442-7.535,6.018c-2.96,1.653-6.241,2.538-9.617,2.729c-0.058-0.026-0.116-0.056-0.178-0.078
			c-0.057-0.021-0.109,0.065-0.061,0.106c1.446,1.191,2.091,3.017,3.421,4.309c0.456,0.442,1.096,0.807,1.752,0.708
			c0.648-0.099,1.229-0.612,1.751-1.087c-0.402,0.559-0.829,1.098-1.333,1.569c-0.11,0.102-0.076,0.239,0.013,0.317
			c0.014,0.024,0.034,0.046,0.065,0.059c1.953,0.765,3.709,1.964,5.652,2.76c1.641,0.674,3.973,1.228,5.387-0.216
			c0.044-0.045,0.039-0.103,0.009-0.145c0.13-0.108,0.247-0.229,0.354-0.34c-0.226,0.435-0.449,0.871-0.622,1.331
			c-0.043,0.116,0.067,0.229,0.178,0.232c1.783,0.064,3.479,0.524,5.226,0.832c1.654,0.291,3.253,0.202,4.857-0.296
			c0.107-0.032,0.12-0.145,0.075-0.216c0.145-0.191,0.145-0.497,0.177-0.727c0.012-0.076,0.018-0.151,0.027-0.226
			c0.11,0.254,0.331,0.46,0.627,0.554c0.847,0.273,1.921-0.15,2.708-0.43c0.996-0.354,1.96-0.816,2.879-1.333
			c1.084-0.611,1.855-1.657,3.015-2.118c0.088-0.036,0.104-0.128,0.07-0.189c0.156-0.154,0.217-0.428,0.228-0.731
			c0.083,0.139,0.193,0.249,0.344,0.306c0.659,0.248,1.491-0.361,2.066-0.591c0.86-0.344,1.799-0.362,2.545-0.96
			c0.508-0.404,0.734-1.111,0.871-1.838c0.088,0.24,0.25,0.403,0.532,0.397c0.628-0.012,1.175-0.525,1.769-0.696
			c0.875-0.253,1.884,0.084,2.727-0.2c0.098,0.084,0.263,0.008,0.27-0.13c0-0.004-0.001-0.008-0.001-0.011
			c0.009-0.024,0.006-0.048-0.002-0.071c-0.002-0.315-0.106-0.648-0.147-0.956c-0.008-0.063-0.014-0.126-0.021-0.189
			c0.168,0.504,0.403,0.985,0.849,1.26c1.194,0.733,2.714,0.123,3.891,0.936c0.493,0.34,1.289,1.118,1.901,0.548
			c0.38-0.353,0.622-0.902,0.763-1.451c0.034,0.428,0.073,0.861,0.238,1.229c0.343,0.756,1.165,0.953,1.896,1.164
			c1.223,0.355,2.449,0.573,3.606,1.126c0.854,0.409,1.805,0.852,2.778,0.785h0.003c0.025-0.002,0.05,0,0.076-0.003
			c0.153-0.015,0.217-0.194,0.128-0.291c0.023-0.11,0.043-0.222,0.064-0.335c0.072,0.248,0.196,0.459,0.408,0.595
			c1.074,0.691,1.872-0.523,2.921-0.514c0.754,0.006,1.856,0.527,2.445-0.146c0.401-0.458,0.262-1.289,0.04-1.97
			c0.289,0.386,0.627,0.726,1.096,0.978c0.63,0.341,1.352,0.35,2.046,0.265c0.935-0.114,1.849-0.353,2.786-0.459
			c0.681-0.076,1.382-0.101,2.062-0.004c0.654,0.093,1.334,0.355,1.989,0.168c0.112-0.031,0.14-0.188,0.06-0.256
			c-0.013-0.331-0.068-0.646-0.16-0.952c0.285,0.425,0.613,0.807,1.095,1.067c0.479,0.261,1.035,0.366,1.554,0.519
			c0.646,0.191,1.287,0.411,1.935,0.604c1.164,0.347,2.369,0.656,3.592,0.654c1.377-0.003,2.486-1.087,3.894-0.846
			c0.101,0.07,0.26,0.038,0.3-0.103c0.06-0.215,0.019-0.464-0.014-0.693c0.067,0.142,0.141,0.281,0.227,0.418
			c0.399,0.642,0.895,0.74,1.595,0.572c0.598-0.146,1.044-0.241,1.657-0.068c0.601,0.17,1.161,0.47,1.763,0.644
			c0.965,0.276,2.004-0.081,2.889-0.498c0.093,0.059,0.23,0.008,0.244-0.125c0.073-0.067,0.039-0.18-0.039-0.229
			c-0.061-0.271-0.176-0.511-0.32-0.73c0.174,0.125,0.359,0.232,0.554,0.307c0.056,0.023,0.104-0.001,0.139-0.041
			c0.624,0.261,1.276,0.249,1.956,0.006c0.388-0.137,0.754-0.337,1.125-0.514c0.533-0.254,1.079-0.331,1.623-0.512
			c1.263-0.153,2.534-0.208,3.635-0.949c0.087-0.059,0.133-0.177,0.072-0.272c-0.179-0.282-0.48-0.659-0.822-0.932
			c0.878,0.074,1.763,0.006,2.561-0.366C115.782,48.108,115.655,45.738,114.354,45.104z M113.59,48.617
			c-1.082,0.274-2.324,0.162-3.43,0.107c-0.063-0.004-0.076,0.097-0.016,0.11c0.282,0.063,0.574,0.123,0.868,0.174
			c0.005,0.009,0.01,0.019,0.016,0.026c0.329,0.418,0.836,0.628,1.183,1.053c-0.992,0.586-2.148,0.662-3.258,0.903
			c-0.726-0.116-1.489,0.287-2.123,0.594c-1.016,0.492-1.807,0.62-2.887,0.263c-0.181-0.122-0.37-0.236-0.547-0.357
			c-0.354-0.242-0.702-0.487-1.013-0.786c-0.035-0.032-0.083,0.017-0.052,0.052c0.109,0.132,0.224,0.271,0.343,0.407
			c-0.169-0.109-0.346-0.208-0.528-0.294c-0.078-0.035-0.135,0.063-0.066,0.113c0.653,0.483,1.306,0.982,1.485,1.801
			c-0.995,0.256-1.798,0.696-2.886,0.383c-0.816-0.233-1.557-0.722-2.428-0.726c-0.328-0.003-0.669,0.123-0.982,0.199
			c-0.599,0.148-0.911-0.048-1.23-0.538c-0.389-0.593-0.638-1.275-0.993-1.889c-0.034-0.061-0.135-0.02-0.112,0.047
			c0.066,0.202,0.128,0.405,0.19,0.606c-0.002,0.004-0.003,0.007-0.003,0.011c-0.021,0.334-0.018,0.68,0.009,1.014
			c0.018,0.224,0.001,0.476,0.039,0.704c-0.992-0.137-1.865,0.277-2.804,0.592c-1.219,0.407-2.611,0.013-3.802-0.327
			c-1.132-0.324-2.235-0.74-3.366-1.067c-1.098-0.32-1.651-1.195-2.45-1.935c-0.052-0.047-0.136,0.013-0.099,0.076
			c0.067,0.111,0.131,0.221,0.197,0.329c0.144,0.467,0.17,0.96,0.17,1.445c-1.969-0.363-3.802-0.3-5.777,0.07
			c-0.725,0.136-1.467,0.267-2.196,0.088c-0.952-0.231-1.808-1.194-2.344-1.965c-0.035-0.052-0.116-0.006-0.085,0.05
			c0.072,0.125,0.143,0.25,0.213,0.371c-0.037,0.026-0.064,0.065-0.061,0.116c0.047,0.675,0.75,1.974,0.035,2.479
			c-0.256,0.181-1.014-0.034-1.277-0.072c-0.303-0.043-0.609-0.092-0.916-0.067c-0.791,0.063-1.413,0.905-2.243,0.693
			c-0.541-0.136-0.573-0.95-0.653-1.605c0.027-0.208,0.053-0.415,0.074-0.623c0.012-0.118-0.174-0.137-0.203-0.027
			c-0.002,0.01-0.006,0.021-0.008,0.032c-0.002-0.003-0.002-0.007-0.004-0.01c-0.035-0.074-0.161-0.038-0.154,0.041
			c0.013,0.16,0.008,0.351,0.002,0.558c-0.131,0.498-0.258,1-0.383,1.5c-0.361-0.075-0.729-0.124-1.086-0.224
			c-0.535-0.147-1.02-0.413-1.517-0.652c-0.86-0.412-1.799-0.63-2.72-0.858c-0.856-0.211-2.161-0.357-2.428-1.348
			c-0.146-0.545-0.149-1.047-0.435-1.521c0-0.01,0.004-0.018,0.004-0.026c0.004-0.045-0.031-0.064-0.065-0.067
			c-0.02-0.026-0.035-0.053-0.055-0.079c-0.047-0.061-0.132,0.006-0.116,0.067c0.012,0.056,0.021,0.114,0.029,0.173
			c-0.268,0.498-0.37,1.078-0.68,1.565c-0.579,0.91-1.635-0.382-2.259-0.654c-1.009-0.439-2.193-0.077-3.19-0.548
			c-0.737-0.351-0.988-1.43-1.389-2.073c-0.036-0.057-0.135-0.021-0.113,0.048c0.023,0.077,0.047,0.158,0.07,0.241
			c-0.003,0.005-0.009,0.008-0.01,0.016c-0.057,0.361-0.064,0.728-0.061,1.093c0.002,0.239,0.002,0.52,0.07,0.763
			c-1.18,0.017-2.375-0.203-3.483,0.35c-0.229,0.112-0.44,0.241-0.682,0.326c-0.402,0.142-0.365-0.574-0.378-0.788
			c-0.024-0.404,0-0.813-0.092-1.21c-0.018-0.081-0.148-0.084-0.164,0c-0.014,0.067-0.034,0.168-0.057,0.285
			c-0.033,0.016-0.06,0.042-0.069,0.09c-0.19,0.964-0.319,2.06-0.806,2.928c-0.416,0.736-1.408,0.857-2.148,1.049
			c-0.679,0.176-1.282,0.53-1.95,0.735c-0.737,0.227-0.791-0.769-0.95-1.261c-0.017-0.055-0.07-0.067-0.113-0.05
			c-0.039-0.053-0.14-0.049-0.15,0.025c-0.104,0.668,0.146,1.42-0.35,1.954c-0.051,0.056-0.055,0.133-0.025,0.191
			c-0.867,0.331-1.42,1.095-2.193,1.608c-0.702,0.468-1.471,0.846-2.236,1.195c-0.903,0.413-1.87,0.79-2.862,0.914
			c-0.33,0.041-0.692,0.048-1-0.093c-0.372-0.168-0.333-0.557-0.387-0.895c-0.011-0.06-0.098-0.076-0.138-0.035
			c-0.04-0.025-0.102-0.02-0.113,0.038c-0.057,0.298-0.125,0.597-0.199,0.892c-0.058,0.234-0.207,0.526-0.15,0.769
			c-1.745,0.461-3.441,0.428-5.207,0.081c-1.483-0.292-2.935-0.637-4.447-0.72c0.296-0.724,0.742-1.417,0.9-2.182
			c0.021-0.034,0.042-0.07,0.062-0.105c0.021-0.038,0.003-0.07-0.026-0.084c0.002-0.015,0.007-0.028,0.009-0.045
			c0.014-0.104-0.135-0.104-0.167-0.023c-0.064,0.15-0.131,0.299-0.203,0.446c-0.149,0.183-0.307,0.359-0.478,0.524
			c-0.258,0.248-0.617,0.433-0.829,0.712c-0.018,0.021-0.018,0.044-0.012,0.064c-3.518,1.605-6.832-1.716-10.137-2.736
			c0.708-0.72,1.277-1.553,1.537-2.535c0.013-0.046-0.048-0.069-0.075-0.031c-0.039,0.058-0.081,0.114-0.121,0.173
			c-0.013,0-0.026,0.003-0.04,0.008c-0.817,0.345-1.356,1.368-2.321,1.321c-0.859-0.041-1.49-0.765-1.977-1.396
			c-0.74-0.959-1.398-2.44-2.485-3.129c7.001-0.01,12.996-4.103,17.606-9.076c2.398-2.59,4.487-5.455,6.445-8.386
			c2.089-3.125,4.321-6.151,6.792-8.988c4.249-4.881,9.237-9.066,14.911-12.2c5.979-3.302,12.563-5.61,19.439-5.844
			c6.32-0.215,11.763,4.548,15.625,9.039c1.127,1.312,2.186,2.688,3.19,4.096c4.606,6.443,7.36,13.906,11.438,20.659
			c2.094,3.466,4.608,6.981,8.011,9.279c1.154,0.78,2.601,1.547,4.041,1.393c1.543-0.165,2.24-1.643,2.505-3.002
			c0.515,0.444,0.707,1.391,0.562,2.015C114.795,48.219,114.139,48.476,113.59,48.617z"/>
	</g>
	<g>
		<linearGradient id="SVGID_1_" gradientUnits="userSpaceOnUse" x1="24.5169" y1="45.3204" x2="17.8623" y2="56.3626">
			<stop  offset="0" style="stop-color:#502940"/>
			<stop  offset="0.5194" style="stop-color:#845A4F"/>
			<stop  offset="1" style="stop-color:#F8AB30"/>
		</linearGradient>
		<path style="fill:url(#SVGID_1_);" d="M25.269,46.894c0.007-0.897-0.706-2.854-1.621-1.974c-0.286-0.05-0.605,0.125-0.525,0.451
			c-0.002,0.001-0.002,0.001-0.004,0.004c-0.996,1.36-1.833,2.78-2.975,4.04c-0.696,0.771-1.519,1.416-2.229,2.176
			c-1.098,1.176-1.699,3.003,0.169,3.75c1.583,0.635,3.5-1.1,4.468-2.422C24.121,51.396,25.256,48.963,25.269,46.894z"/>
		
			<linearGradient id="SVGID_00000012441139600883049510000008924806072230153095_" gradientUnits="userSpaceOnUse" x1="36.0852" y1="24.798" x2="31.9862" y2="31.5996">
			<stop  offset="0" style="stop-color:#502940"/>
			<stop  offset="0.5194" style="stop-color:#845A4F"/>
			<stop  offset="1" style="stop-color:#F8AB30"/>
		</linearGradient>
		<path style="fill:url(#SVGID_00000012441139600883049510000008924806072230153095_);" d="M35.325,24.51
			c-0.626,0.03-1.015,0.452-1.333,0.951c-0.333,0.522-0.623,1.21-0.822,1.922c-1.013,0.584-3.209,2.595-2.041,3.66
			c0.934,0.854,1.817,0.044,2.477-0.973c0.006-0.001,0.01-0.002,0.016-0.003c0.281,0.188,0.696,0.206,1.032,0.09
			c1.358-0.468,1.662-2.979,1.729-4.202C36.417,25.336,36.074,24.473,35.325,24.51z"/>
		
			<linearGradient id="SVGID_00000161592893157062807710000013301060115229508754_" gradientUnits="userSpaceOnUse" x1="37.1842" y1="40.3598" x2="35.5087" y2="43.1401">
			<stop  offset="0" style="stop-color:#502940"/>
			<stop  offset="0.5194" style="stop-color:#845A4F"/>
			<stop  offset="1" style="stop-color:#F8AB30"/>
		</linearGradient>
		<path style="fill:url(#SVGID_00000161592893157062807710000013301060115229508754_);" d="M37.516,40.863
			c-0.087-0.499-0.595-0.723-1.054-0.624c-0.508,0.107-0.821,0.728-0.925,1.303c-0.087,0.122-0.167,0.25-0.223,0.396
			c-0.146,0.39-0.119,1.05,0.31,1.271c0.404,0.209,0.789,0.03,1.075-0.282c0.144-0.152,0.265-0.333,0.371-0.514
			c0.021-0.036,0.169-0.365,0.088-0.177c0.029-0.067,0.061-0.133,0.092-0.197C37.42,41.669,37.589,41.277,37.516,40.863z"/>
		
			<linearGradient id="SVGID_00000047769241148935360960000003166495581327900807_" gradientUnits="userSpaceOnUse" x1="37.2873" y1="37.9029" x2="36.5213" y2="39.174">
			<stop  offset="0" style="stop-color:#502940"/>
			<stop  offset="0.5194" style="stop-color:#845A4F"/>
			<stop  offset="1" style="stop-color:#F8AB30"/>
		</linearGradient>
		<path style="fill:url(#SVGID_00000047769241148935360960000003166495581327900807_);" d="M37.382,37.973
			c-0.208-0.185-0.57-0.248-0.805-0.073c-0.169,0.127-0.272,0.306-0.213,0.523c0.018,0.07,0.06,0.141,0.114,0.199
			c-0.017,0.052-0.031,0.105-0.042,0.161c-0.039,0.184,0.051,0.447,0.271,0.477c0.487,0.065,0.835-0.289,0.875-0.76
			C37.6,38.315,37.52,38.095,37.382,37.973z"/>
		
			<linearGradient id="SVGID_00000049936107234628904590000010827266284472995001_" gradientUnits="userSpaceOnUse" x1="45.746" y1="29.8957" x2="39.9712" y2="39.4781">
			<stop  offset="0" style="stop-color:#502940"/>
			<stop  offset="0.5194" style="stop-color:#845A4F"/>
			<stop  offset="1" style="stop-color:#F8AB30"/>
		</linearGradient>
		<path style="fill:url(#SVGID_00000049936107234628904590000010827266284472995001_);" d="M45.043,30.109
			c-0.01-0.572-0.269-1.038-1.063-1.053c-0.525-0.01-0.829,0.684-0.435,1.049c0.107,0.101,0.2,0.211,0.277,0.329
			c-0.4,0.604-1.172,2.873-1.255,3.076c-0.178,0.438-0.368,0.888-0.556,1.343c-0.018,0.012-0.034,0.022-0.05,0.038
			c-1.019,1.16-2.056,2.676-1.737,4.286c0.297,1.49,1.884,0.595,2.469-0.064c1.161-1.306,1.888-3.621,2.33-5.276
			C45.342,32.648,45.555,31.229,45.043,30.109z"/>
		
			<linearGradient id="SVGID_00000158006643166023032660000000966757611297144252_" gradientUnits="userSpaceOnUse" x1="19.8891" y1="45.4383" x2="18.3532" y2="47.987">
			<stop  offset="0" style="stop-color:#502940"/>
			<stop  offset="0.5194" style="stop-color:#845A4F"/>
			<stop  offset="1" style="stop-color:#F8AB30"/>
		</linearGradient>
		<path style="fill:url(#SVGID_00000158006643166023032660000000966757611297144252_);" d="M19.976,45.672c0,0,0-0.001,0.001-0.002
			c0.028-0.162-0.086-0.282-0.244-0.268c-0.067-0.048-0.144-0.089-0.231-0.121c-0.449-0.165-0.864,0.363-0.743,0.763
			c-0.016,0.016-0.032,0.033-0.047,0.049c-0.329,0.34-0.579,0.756-0.729,1.199c-0.098,0.292,0.111,0.606,0.39,0.687
			C19.452,48.287,20.469,46.546,19.976,45.672z"/>
		
			<linearGradient id="SVGID_00000163780633723874745440000015423974080871871884_" gradientUnits="userSpaceOnUse" x1="53.3909" y1="40.1371" x2="48.2913" y2="48.5992">
			<stop  offset="0" style="stop-color:#502940"/>
			<stop  offset="0.5194" style="stop-color:#845A4F"/>
			<stop  offset="1" style="stop-color:#F8AB30"/>
		</linearGradient>
		<path style="fill:url(#SVGID_00000163780633723874745440000015423974080871871884_);" d="M54.443,45.314
			c-0.093-0.584-0.508-1.122-1.004-1.431c-0.234-0.146-0.514-0.194-0.774-0.155c0.202-0.903,0.212-1.887,0.179-2.767
			c-0.07-1.897-1.704-2.265-2.859-1.536c-0.811,0.184-1.353,1.029-1.805,1.688c-0.782,1.143-1.553,2.443-1.998,3.753
			c-0.667,1.969,1.744,4.802,3.572,2.88c0.361-0.378,0.624-0.797,0.888-1.248c0.206-0.353,0.546-0.596,0.876-0.847
			c-0.04,0.239-0.037,0.489-0.002,0.686c0.121,0.686,0.708,1.172,1.399,1.188c0.728,0.016,1.182-0.589,1.301-1.238
			C54.416,46.037,54.5,45.671,54.443,45.314z"/>
		
			<linearGradient id="SVGID_00000096055968885900178130000005113438971349555391_" gradientUnits="userSpaceOnUse" x1="41.4118" y1="21.9069" x2="38.9147" y2="26.0504">
			<stop  offset="0" style="stop-color:#502940"/>
			<stop  offset="0.5194" style="stop-color:#845A4F"/>
			<stop  offset="1" style="stop-color:#F8AB30"/>
		</linearGradient>
		<path style="fill:url(#SVGID_00000096055968885900178130000005113438971349555391_);" d="M41.679,22.663
			c-0.077-0.645-0.581-1.202-1.273-1.022c-0.581,0.151-0.893,0.825-1.094,1.335c-0.206,0.221-0.372,0.499-0.458,0.685
			c-0.295,0.64-0.486,1.452-0.161,2.113c0.288,0.584,1.022,0.478,1.477,0.202c0.536-0.326,0.895-0.844,1.132-1.409
			C41.545,23.987,41.756,23.296,41.679,22.663z"/>
		
			<linearGradient id="SVGID_00000142157966566975865710000018050347275114026686_" gradientUnits="userSpaceOnUse" x1="54.5884" y1="22.7816" x2="51.4863" y2="27.929">
			<stop  offset="0" style="stop-color:#502940"/>
			<stop  offset="0.5194" style="stop-color:#845A4F"/>
			<stop  offset="1" style="stop-color:#F8AB30"/>
		</linearGradient>
		<path style="fill:url(#SVGID_00000142157966566975865710000018050347275114026686_);" d="M54.688,23.307
			c-0.109-0.646-0.627-1.057-1.252-0.698c-0.502,0.287-0.821,0.953-1.099,1.436c-0.005,0.009-0.009,0.017-0.015,0.025
			c-0.288,0.353-0.558,0.721-0.797,1.112c-0.409,0.67-0.848,1.682-0.39,2.426c0.331,0.536,1.088,0.502,1.581,0.241
			c0.765-0.405,1.203-1.196,1.535-1.966C54.588,25.098,54.831,24.164,54.688,23.307z"/>
		
			<linearGradient id="SVGID_00000119110975949800469290000013377907393381114032_" gradientUnits="userSpaceOnUse" x1="54.2023" y1="11.2158" x2="48.3568" y2="20.9154">
			<stop  offset="0" style="stop-color:#502940"/>
			<stop  offset="0.5194" style="stop-color:#845A4F"/>
			<stop  offset="1" style="stop-color:#F8AB30"/>
		</linearGradient>
		<path style="fill:url(#SVGID_00000119110975949800469290000013377907393381114032_);" d="M53.925,11.23
			c-1.675-0.163-3.644,1.839-4.687,2.983c-0.869,0.957-1.626,2.294-1.78,3.597c-0.057,0.471-0.075,1.219,0.175,1.751
			c0.013,0.372,0.137,0.735,0.46,1.08c0.905,0.966,2.198,0.979,3.236,0.164c0.925-0.725,1.557-1.771,2.038-2.842
			c0.225-0.365,0.42-0.749,0.579-1.136C54.415,15.679,56.359,11.465,53.925,11.23z"/>
		
			<linearGradient id="SVGID_00000037654004079515859490000000438808343321807774_" gradientUnits="userSpaceOnUse" x1="72.1888" y1="28.0946" x2="66.7091" y2="37.1873">
			<stop  offset="0" style="stop-color:#502940"/>
			<stop  offset="0.5194" style="stop-color:#845A4F"/>
			<stop  offset="1" style="stop-color:#F8AB30"/>
		</linearGradient>
		<path style="fill:url(#SVGID_00000037654004079515859490000000438808343321807774_);" d="M71.914,31.749
			c-0.018-1.124-0.023-2.898-0.625-3.897c-0.854-1.416-2.414-1.103-3.271,0.199c-0.237,0.361-0.431,0.753-0.588,1.165
			c-1.672,2.984-2.992,7.877,0.91,8.7c1.405,0.298,2.88-0.737,3.27-2.057C72,34.548,71.938,33.102,71.914,31.749z"/>
		
			<linearGradient id="SVGID_00000094607466787336115960000005230807534085118869_" gradientUnits="userSpaceOnUse" x1="62.6521" y1="7.673" x2="59.876" y2="12.2795">
			<stop  offset="0" style="stop-color:#502940"/>
			<stop  offset="0.5194" style="stop-color:#845A4F"/>
			<stop  offset="1" style="stop-color:#F8AB30"/>
		</linearGradient>
		<path style="fill:url(#SVGID_00000094607466787336115960000005230807534085118869_);" d="M61.41,7.272
			c-0.273,0.085-0.472,0.289-0.619,0.546c-0.09,0.038-0.171,0.118-0.215,0.26c-0.307,0.981-0.819,1.719-0.905,2.804
			c-0.067,0.82,0.327,1.745,1.059,1.806c1.179,0.098,1.608-1.515,1.745-2.64C62.587,9.108,62.756,6.852,61.41,7.272z"/>
		
			<linearGradient id="SVGID_00000148620016139877065950000008566462165327644077_" gradientUnits="userSpaceOnUse" x1="66.2632" y1="11.7438" x2="64.3342" y2="14.9447">
			<stop  offset="0" style="stop-color:#502940"/>
			<stop  offset="0.5194" style="stop-color:#845A4F"/>
			<stop  offset="1" style="stop-color:#F8AB30"/>
		</linearGradient>
		<path style="fill:url(#SVGID_00000148620016139877065950000008566462165327644077_);" d="M66.043,11.647
			c-0.331-0.335-0.707-0.304-0.996-0.083c-0.61,0.036-0.967,1.278-1.031,1.713c-0.152,1.01,0.268,2.311,1.549,1.859
			C66.68,14.745,66.795,12.408,66.043,11.647z"/>
		
			<linearGradient id="SVGID_00000008856665858257872370000006846863727615999375_" gradientUnits="userSpaceOnUse" x1="79.2663" y1="14.165" x2="74.2567" y2="22.4776">
			<stop  offset="0" style="stop-color:#502940"/>
			<stop  offset="0.5194" style="stop-color:#845A4F"/>
			<stop  offset="1" style="stop-color:#F8AB30"/>
		</linearGradient>
		<path style="fill:url(#SVGID_00000008856665858257872370000006846863727615999375_);" d="M79.334,16.745
			c-0.645-1.438-1.527-4.471-3.388-4.138c-0.008-0.069-0.031-0.139-0.086-0.201c-1.809-2.079-1.993,3.39-1.979,4.019
			c0.023,1.178,0.232,2.416,0.673,3.478c0.013,0.199,0.028,0.396,0.047,0.593c0.233,2.455,2.153,4.567,4.458,3.159
			c0.865-0.528,1.284-1.687,1.318-2.878C80.564,19.409,79.865,17.932,79.334,16.745z"/>
		
			<linearGradient id="SVGID_00000090974851514230948190000013612554603658865811_" gradientUnits="userSpaceOnUse" x1="72.5961" y1="21.8744" x2="71.0099" y2="24.5064">
			<stop  offset="0" style="stop-color:#502940"/>
			<stop  offset="0.5194" style="stop-color:#845A4F"/>
			<stop  offset="1" style="stop-color:#F8AB30"/>
		</linearGradient>
		<path style="fill:url(#SVGID_00000090974851514230948190000013612554603658865811_);" d="M73.137,22.825
			c-0.162-0.792-0.988-1.449-1.784-1.332c-0.694,0.104-0.719,0.985-0.635,1.6c-0.053,0.221-0.075,0.444-0.048,0.66
			c0.105,0.844,1.02,1.329,1.777,0.961C73.108,24.394,73.267,23.467,73.137,22.825z"/>
		
			<linearGradient id="SVGID_00000152237450106189859460000016848369059640376214_" gradientUnits="userSpaceOnUse" x1="86.7" y1="32.6865" x2="82.0693" y2="40.3704">
			<stop  offset="0" style="stop-color:#502940"/>
			<stop  offset="0.5194" style="stop-color:#845A4F"/>
			<stop  offset="1" style="stop-color:#F8AB30"/>
		</linearGradient>
		<path style="fill:url(#SVGID_00000152237450106189859460000016848369059640376214_);" d="M88.045,38.727
			c-0.343-2.195-1.744-3.967-2.84-5.838c-0.534-0.91-1.567-2.814-2.799-2.163c-0.246,0.022-0.461,0.112-0.549,0.412
			c-0.049,0.167-0.08,0.339-0.11,0.51c-0.032,0.128-0.06,0.262-0.079,0.406c-0.033,0.152-0.078,0.303-0.143,0.447
			c-0.165,0.357-0.439,0.662-0.549,1.048c-0.504,1.752,0.409,4.072,1.086,5.68c0.664,1.574,1.809,2.688,3.584,2.665
			C87.321,41.871,88.283,40.244,88.045,38.727z"/>
		
			<linearGradient id="SVGID_00000113311783616241832520000004227509940799009183_" gradientUnits="userSpaceOnUse" x1="90.0124" y1="26.5223" x2="88.3189" y2="29.3325">
			<stop  offset="0" style="stop-color:#502940"/>
			<stop  offset="0.5194" style="stop-color:#845A4F"/>
			<stop  offset="1" style="stop-color:#F8AB30"/>
		</linearGradient>
		<path style="fill:url(#SVGID_00000113311783616241832520000004227509940799009183_);" d="M90.032,26.79
			c-0.231-0.342-0.519-0.638-0.921-0.769c-0.418-0.135-0.938,0.131-1.106,0.522c-0.019,0.043-0.027,0.091-0.041,0.136
			c-0.196,0.213-0.241,0.553-0.261,0.825c-0.047,0.666,0.203,1.397,0.703,1.848c0.633,0.57,1.592,0.497,2.051-0.245
			C90.911,28.373,90.46,27.423,90.032,26.79z"/>
		
			<linearGradient id="SVGID_00000011743310490755234770000003683359580819374990_" gradientUnits="userSpaceOnUse" x1="99.2356" y1="43.528" x2="96.916" y2="47.3772">
			<stop  offset="0" style="stop-color:#502940"/>
			<stop  offset="0.5194" style="stop-color:#845A4F"/>
			<stop  offset="1" style="stop-color:#F8AB30"/>
		</linearGradient>
		<path style="fill:url(#SVGID_00000011743310490755234770000003683359580819374990_);" d="M100.19,45.672
			c-0.624-0.955-1.33-1.899-2.126-2.715c-0.559-0.572-1.618-1.262-2.201-0.42c-0.373,0.06-0.715,0.276-0.814,0.689
			c-0.221,0.926,0.441,1.414,0.899,2.146c0.296,0.473,0.412,1.008,0.741,1.469c0.226,0.318,0.54,0.581,0.851,0.813
			c0.596,0.449,1.337,1.034,2.111,1.101C101.631,48.932,100.784,46.587,100.19,45.672z"/>
		
			<linearGradient id="SVGID_00000158741507983139140720000004984509814229244851_" gradientUnits="userSpaceOnUse" x1="99.643" y1="39.5004" x2="97.8913" y2="42.4071">
			<stop  offset="0" style="stop-color:#502940"/>
			<stop  offset="0.5194" style="stop-color:#845A4F"/>
			<stop  offset="1" style="stop-color:#F8AB30"/>
		</linearGradient>
		<path style="fill:url(#SVGID_00000158741507983139140720000004984509814229244851_);" d="M100.303,41.034
			c-0.205-0.649-0.568-1.302-1.078-1.757c-0.492-0.44-1.271-0.516-1.718,0.047c-0.122,0.151-0.188,0.308-0.219,0.465
			c-0.064-0.068-0.176-0.086-0.252-0.006c-0.857,0.906,0.628,2.464,1.357,2.926c0.498,0.317,1.227,0.487,1.704,0.042
			C100.589,42.294,100.484,41.611,100.303,41.034z"/>
	</g>
	<g>
		<g>
			<path style="fill:#E99555;" d="M44.533,29.897c-0.059-1.294-1.676-1.983-2.183-0.525c-0.274,0.79,0.489,1.328-0.193,1.957
				c-0.859,0.79-1.183,1.981-1.53,3.064c-0.22,0.683-0.98,1.979-0.037,2.439c0.764,0.373,1.732-0.843,2.164-1.336
				C44.109,33.952,44.697,31.932,44.533,29.897C44.526,29.74,44.76,32.692,44.533,29.897z"/>
			<path style="fill:#E99555;" d="M53.412,22.201c-1.293,0.137-2.244,4.216-0.322,3.445c0.725-0.291,1.281-1.512,1.501-2.196
				C54.819,22.732,54.327,21.432,53.412,22.201C53.298,22.213,53.973,21.729,53.412,22.201z"/>
			<path style="fill:#E99555;" d="M52.754,11.403c-1.125,0.854-2.462,1.354-3.201,2.663c-0.313,0.553-0.675,1.335-0.442,1.98
				c0.26,0.718,1.169,0.726,1.766,0.989c1.746,0.769,2.569-2.443,3.179-3.526c0.344-0.616,0.677-1.143,0.189-1.801
				C53.895,11.237,53.256,11.021,52.754,11.403C52.466,11.621,53.711,10.677,52.754,11.403z"/>
			<path style="fill:#E99555;" d="M35.5,24.932c-0.562-0.717-1.231-0.044-1.804-0.032c-0.928,0.018-1.877,1.163-2.323,1.864
				c-0.397,0.625-0.979,1.715-0.457,2.42c0.775,1.051,2.075-0.646,2.555-1.216C34.712,29.903,36.73,25.924,35.5,24.932
				C35.269,24.636,35.803,25.176,35.5,24.932z"/>
			<g>
				<path style="fill:#E99555;" d="M40.938,21.278c-1.362-0.407-2.329,1.872-0.866,2.274C41.324,23.897,42.153,21.641,40.938,21.278
					C40.353,21.103,41.447,21.43,40.938,21.278z"/>
				<path style="fill:#E99555;" d="M39.646,23.292c-0.052-0.064-0.104-0.131-0.154-0.198C39.539,23.164,39.59,23.23,39.646,23.292
					C39.595,23.228,39.641,23.287,39.646,23.292z"/>
				<path style="fill:#E99555;" d="M39.492,23.094C39.492,23.094,39.486,23.088,39.492,23.094
					C39.492,23.094,39.491,23.093,39.492,23.094z"/>
			</g>
			<path style="fill:#E99555;" d="M24.638,45.465c-0.048-1.248-1.955-1.257-1.991,0c-0.018,0.491-1.456,1.475-1.812,1.791
				c-0.754,0.667-1.509,1.356-2.059,2.208c-0.455,0.71,0.162,1.523,0.917,1.595c0.93,0.091,1.822-0.262,2.541-0.834
				c0.76-0.607,1.341-1.427,1.754-2.301C25.031,47.645,24.666,46.201,24.638,45.465C24.588,44.186,24.669,46.284,24.638,45.465z"/>
			<path style="fill:#E99555;" d="M36.538,40.185c-0.802-0.221-1.271,1.239-0.69,1.681C36.73,42.539,37.547,40.463,36.538,40.185
				C36.229,40.099,36.82,40.262,36.538,40.185z"/>
			<path style="fill:#E99555;" d="M36.811,37.777c-0.341,0-0.611,0.571-0.308,0.799C37.08,39.01,37.506,37.777,36.811,37.777z"/>
			<path style="fill:#E99555;" d="M19.504,45.038c-0.454-0.266-1.193,0.61-1.336,0.972C17.566,47.535,20.979,45.901,19.504,45.038
				C19.252,44.891,19.689,45.146,19.504,45.038z"/>
			<path style="fill:#E99555;" d="M60.876,7.543c-0.966,0.503-1.767,2.804,0.017,2.503C62.309,9.807,62.218,6.848,60.876,7.543
				C60.266,7.86,61.514,7.213,60.876,7.543z"/>
			<path style="fill:#E99555;" d="M65.341,11.215c-0.685,0-1.015,1.177-0.794,1.755C65.204,14.705,67.359,11.215,65.341,11.215z"/>
			<path style="fill:#E99555;" d="M51.54,39.776c-1.029-2.106-3.254,1.62-3.627,2.384c-0.403,0.828-0.697,1.75-0.659,2.682
				c0.02,0.485,0.648,2.379,1.133,1.073c0.476,0.637,1.285,0.725,1.819,0.099c0.242-0.283,0.303-0.599,0.282-0.955
				c0.335-0.201,0.624-0.47,0.851-0.787C52.243,43.009,52.204,41.135,51.54,39.776C51.219,39.12,52.345,41.422,51.54,39.776z"/>
			<path style="fill:#E99555;" d="M53.505,44.822c-0.078-0.103-0.554-0.473-0.212-0.247c-0.543-0.359-1.334-0.641-1.521,0.36
				C51.451,46.642,54.26,46.11,53.505,44.822C53.469,44.775,53.779,45.286,53.505,44.822z"/>
			<path style="fill:#E99555;" d="M70.567,27.518c-1.654-1.303-2.589,0.899-2.905,2.181c-0.399,1.623-0.728,3.593,0.52,4.949
				C70.684,37.365,72.433,28.988,70.567,27.518C70.27,27.284,71.358,28.143,70.567,27.518z"/>
			<path style="fill:#E99555;" d="M72.656,22.395c-0.33-0.476-1.001-1.876-1.55-0.527C70.338,23.756,73.503,23.619,72.656,22.395
				C72.588,22.298,72.879,22.718,72.656,22.395z"/>
			<path style="fill:#E99555;" d="M76.764,12.403c-0.45-0.543-1.217-0.451-1.706-0.02c-0.731-0.055-0.574,1.458-0.587,1.893
				c-0.04,1.38,0.021,3.582,1.264,4.486c0.807,0.588,1.316,0.076,2.014,0.296c0.976,0.307,1.338-0.742,1.325-1.48
				C79.039,15.62,77.976,13.87,76.764,12.403C76.293,11.834,78.097,14.019,76.764,12.403z"/>
			<path style="fill:#E99555;" d="M84.246,31.248c-0.316-0.624-1.063-0.749-1.643-0.421c-0.891,0.504-0.391,1.343-0.774,2.018
				c-1.028,1.808,0.296,4.596,1.914,5.605c1.894,1.181,3.787,0.165,3.431-2.118C86.861,34.343,85.118,32.974,84.246,31.248
				C83.616,30.001,85.346,33.423,84.246,31.248z"/>
			<path style="fill:#E99555;" d="M89.395,26.722c0.117-1.595-1.77-0.592-1.855,0.485C87.385,29.133,90.537,28.985,89.395,26.722
				C89.4,26.633,89.549,27.028,89.395,26.722z"/>
			<path style="fill:#E99555;" d="M99.164,40.765c-0.074-0.24-0.197-0.451-0.366-0.635c-0.453-0.504,0.057-0.329-0.194-0.871
				c-0.272-0.595-0.911-0.13-1.223,0.116C95.584,40.782,99.65,42.397,99.164,40.765C99.057,40.402,99.296,41.205,99.164,40.765z"/>
			<path style="fill:#E99555;" d="M97.586,42.842c-0.416-0.783-1.897-0.627-2.164,0.219c-0.157,0.504,0.041,1.063,0.528,1.297
				c0.138,0.742,0.493,1.436,1.005,1.99c0.635,0.688,2.502,1.891,2.681,0.142C99.793,44.972,98.86,43.588,97.586,42.842
				C97.582,42.834,98.871,43.594,97.586,42.842z"/>
		</g>
		<g>
			<path style="fill:#F2C493;" d="M23.13,44.401c-0.255,0.018-0.455,0.156-0.534,0.406c-0.08,0.253-0.108,0.485-0.034,0.743
				c0.04,0.138,0.118,0.232,0.213,0.293c-0.004,0.05-0.006,0.104-0.004,0.159c0.001,0.054-0.004,0.105-0.012,0.159
				c-0.031,0.039-0.063,0.078-0.096,0.116c-0.01,0.008-0.021,0.016-0.031,0.026c-0.244,0.219-0.497,0.424-0.756,0.625
				c-0.418,0.326-0.942,0.847-1.045,1.387c-0.152,0.803,0.965,1.441,1.413,0.725c0.019-0.004,0.039-0.007,0.057-0.013
				c0.831-0.262,1.471-0.917,1.88-1.688c0.203-0.002,0.39-0.111,0.456-0.353C24.948,45.857,24.585,44.293,23.13,44.401z"/>
			<path style="fill:#F2C493;" d="M43.696,28.667c-0.23-0.049-0.419,0.016-0.552,0.15c-0.014,0.004-0.029,0.008-0.045,0.015
				c-0.292,0.133-0.555,0.333-0.538,0.707c0.035,0.816,0.298,1.438-0.062,2.238c-0.453,1.007-1.084,1.941-0.724,3.084
				c0.104,0.331,0.483,0.504,0.793,0.321C44.094,34.293,46.542,29.27,43.696,28.667z"/>
			<g>
				<path style="fill:#F2C493;" d="M36.495,40.779C36.503,40.753,36.497,40.753,36.495,40.779L36.495,40.779z"/>
				<path style="fill:#F2C493;" d="M36.416,40.376c-0.107-0.108-0.321-0.158-0.452-0.059c-0.141,0.107-0.24,0.218-0.287,0.393
					c-0.06,0.221,0.071,0.453,0.291,0.515c0.236,0.064,0.567-0.129,0.53-0.402c-0.003-0.02-0.002-0.034-0.002-0.044
					c-0.004,0.011-0.01,0.027-0.021,0.049C36.553,40.678,36.54,40.499,36.416,40.376z"/>
			</g>
			<path style="fill:#F2C493;" d="M36.738,37.64c-0.382,0-0.382,0.589,0,0.589C37.117,38.229,37.117,37.64,36.738,37.64z"/>
			<path style="fill:#F2C493;" d="M19.534,45.32c-0.306-0.047-0.569,0.024-0.786,0.251c-0.191,0.198-0.155,0.529,0.085,0.671
				c0.251,0.146,0.54,0.003,0.628-0.255c0.002-0.006,0.002-0.005,0.004-0.01c0.016-0.033,0.033-0.065,0.05-0.098
				c0.032-0.063,0.071-0.128,0.117-0.181C19.731,45.585,19.716,45.349,19.534,45.32z"/>
			<path style="fill:#F2C493;" d="M35.251,24.437c-0.419-0.174-0.919-0.005-1.26,0.309c-0.717,0.053-1.395,0.486-1.802,1.092
				c-0.535,0.499-0.845,1.184-0.683,1.99c0.063,0.313,0.466,0.451,0.726,0.295c0.721-0.435,1.246-1.004,1.714-1.643
				c0.037,0.173,0.093,0.331,0.18,0.455c0.206,0.297,0.57,0.411,0.897,0.236c0.336-0.18,0.544-0.582,0.689-0.917
				C35.994,25.605,36.004,24.75,35.251,24.437z"/>
			<path style="fill:#F2C493;" d="M40.825,21.174c-0.014-0.004-0.027-0.005-0.043-0.008c-0.092-0.022-0.188-0.03-0.277-0.009
				c-0.216,0.051-0.347,0.297-0.288,0.507c0.004,0.009,0.008,0.016,0.01,0.025c-0.021,0.038-0.041,0.078-0.058,0.12
				c-0.087,0.222-0.103,0.435-0.059,0.668c0.057,0.3,0.418,0.386,0.658,0.267c0.33-0.165,0.672-0.407,0.676-0.816
				C41.446,21.599,41.149,21.274,40.825,21.174z"/>
			<path style="fill:#F2C493;" d="M53.109,11.394c-0.707-0.042-1.303,0.523-1.807,1.187c-0.411,0.229-0.796,0.497-1.153,0.852
				c-0.523,0.52-0.905,1.492-0.547,2.207c0.7,1.396,2.454-0.596,2.984-1.172C53.156,13.844,55.186,11.514,53.109,11.394z"/>
			<path style="fill:#F2C493;" d="M53.462,22.155c-0.23,0.13-0.413,0.329-0.539,0.558c-0.213,0.229-0.357,0.521-0.409,0.854
				c-0.042,0.277,0.108,0.487,0.391,0.515c0.348,0.031,0.717-0.147,0.932-0.416c0.258-0.326,0.314-0.688,0.362-1.088
				C54.244,22.192,53.755,21.992,53.462,22.155z"/>
			<path style="fill:#F2C493;" d="M50.495,39.486c-0.125,0.032-0.228,0.092-0.325,0.161c-0.002,0.002-0.006,0.004-0.008,0.006
				c-0.003,0.002-0.004,0.002-0.005,0.004c-0.084,0.063-0.16,0.136-0.226,0.223c-0.415,0.424-0.746,0.853-0.845,1.479
				c-0.03,0.194,0.089,0.366,0.256,0.394c-0.209,0.927-0.699,2.332,0.124,2.773c1.344,0.718,2.008-1.215,2.232-2.156
				C51.881,41.61,51.859,39.11,50.495,39.486z"/>
			<path style="fill:#F2C493;" d="M53.256,44.523c-0.063-0.028-0.122-0.052-0.183-0.07c-0.021-0.088-0.078-0.167-0.174-0.186
				c-0.12-0.023-0.242-0.094-0.38-0.138c-0.249-0.077-0.52,0.091-0.586,0.332c-0.039,0.14-0.025,0.316,0.047,0.441
				c0.098,0.168,0.295,0.268,0.474,0.327c0.146,0.048,0.328,0.02,0.476-0.005c0.051-0.008,0.101-0.021,0.149-0.038
				c0.066-0.018,0.122-0.052,0.17-0.099c-0.031,0.026-0.029,0.029,0.007,0.006C53.456,44.98,53.483,44.629,53.256,44.523z"/>
			<path style="fill:#F2C493;" d="M61.495,7.414c-0.153-0.103-0.354-0.081-0.509,0c-0.079,0.042-0.138,0.097-0.178,0.162
				c-0.148,0.087-0.262,0.236-0.337,0.416c-0.137,0.324,0.051,0.729,0.216,1.004c0.148,0.245,0.543,0.335,0.746,0.097
				c0.223-0.262,0.409-0.549,0.435-0.899C61.895,7.882,61.755,7.588,61.495,7.414z"/>
			<path style="fill:#F2C493;" d="M65.547,11.143c-0.176-0.079-0.396-0.083-0.549,0.035c-0.086,0.034-0.159,0.101-0.184,0.2
				c-0.063,0.239-0.14,0.448-0.058,0.697c0.082,0.244,0.328,0.333,0.555,0.226c0.11-0.053,0.222-0.107,0.324-0.176
				c0.033-0.023,0.066-0.048,0.098-0.073c-0.087,0.067,0.029-0.022,0.062-0.047c0.041-0.034,0.079-0.083,0.101-0.132
				C66.039,11.556,65.839,11.274,65.547,11.143z"/>
			<path style="fill:#F2C493;" d="M70.049,27.597c-0.174-0.226-0.607-0.213-0.785,0c-0.039,0.047-0.074,0.096-0.111,0.146
				c-1.726,0.984-1.713,4.588-0.472,5.902c0.256,0.271,0.678,0.177,0.867-0.111C70.561,31.995,71.279,29.18,70.049,27.597z"/>
			<path style="fill:#F2C493;" d="M76.2,12.551c-0.979-0.255-1.392,0.308-1.437,1.042c-0.326,0.753-0.356,1.7,0.234,2.123
				c1.163,0.834,1.639,2.596,3.29,2.649c0.315,0.011,0.519-0.255,0.542-0.541C78.963,16.228,77.998,13.022,76.2,12.551z"/>
			<path style="fill:#F2C493;" d="M86.492,35.657c-0.482-1.782-1.277-3.344-2.551-4.69c-0.203-0.215-0.445-0.209-0.629-0.09
				c-0.084-0.018-0.172-0.002-0.236,0.069c-0.343,0.39-0.542,0.784-0.287,1.303c0.594,1.194,0.213,2.253,0.518,3.461
				c0.272,1.073,1.287,2.469,2.511,2.452C87.122,38.145,86.686,36.378,86.492,35.657z"/>
			<path style="fill:#F2C493;" d="M89.31,27.29c-0.033-0.162-0.012-0.346-0.024-0.511c-0.015-0.167-0.048-0.329-0.092-0.49
				c-0.003-0.032-0.013-0.064-0.026-0.096c-0.006-0.022-0.01-0.047-0.019-0.069c-0.121-0.35-0.547-0.398-0.755-0.099
				c-0.108,0.155-0.171,0.359-0.183,0.565c-0.108,0.256-0.121,0.558-0.046,0.861c0.001-0.002,0.003-0.005,0.005-0.008
				c0.027,0.103,0.088,0.202,0.194,0.281c0.136,0.103,0.368,0.106,0.532,0.106C89.19,27.832,89.363,27.56,89.31,27.29z"/>
			<path style="fill:#F2C493;" d="M72.312,21.938c-0.054-0.26-0.323-0.408-0.573-0.349c-0.167,0.039-0.268,0.196-0.273,0.356
				c-0.006,0.01-0.014,0.018-0.019,0.028c-0.149,0.285,0.032,0.574,0.233,0.774c0.177,0.175,0.522,0.107,0.579-0.152
				C72.306,22.377,72.357,22.162,72.312,21.938z"/>
			<path style="fill:#F2C493;" d="M98.771,40.319c-0.047-0.123-0.043-0.275-0.061-0.407c-0.02-0.143-0.053-0.277-0.104-0.412
				c-0.077-0.203-0.21-0.293-0.42-0.32c-0.05-0.007-0.098-0.012-0.146-0.019c-0.207-0.026-0.377,0.16-0.439,0.334
				c-0.038,0.107-0.044,0.222-0.029,0.333c-0.035,0.056-0.064,0.114-0.074,0.179c-0.09,0.553,0.447,0.776,0.909,0.793
				C98.635,40.808,98.862,40.547,98.771,40.319z"/>
			<path style="fill:#F2C493;" d="M98.568,43.517c-0.375-0.538-1.128-1.245-1.842-1.069c-0.299,0.053-0.582,0.207-0.646,0.536
				c-0.073,0.386,0.242,0.621,0.475,0.871c0.729,0.782,1.084,1.823,2.041,2.405c0.346,0.208,0.713-0.07,0.744-0.428
				C99.415,45.021,99.019,44.165,98.568,43.517z"/>
		</g>
		<g>
			<path style="fill:#F7E3BC;" d="M77.486,13.544c-0.233-0.384-0.578-0.72-1.021-0.837c-0.531-0.14-1.099,0.16-1.135,0.73
				c-0.011,0.169,0.107,0.4,0.27,0.47c0.006,0.002,0.012,0.006,0.018,0.007c-0.048,1.162,0.476,2.344,1.661,2.727
				c0.313,0.101,0.638-0.116,0.728-0.413C78.271,15.359,77.94,14.292,77.486,13.544z"/>
			<path style="fill:#F7E3BC;" d="M61.31,7.926c-0.031-0.056-0.069-0.108-0.111-0.158c0.024,0.037,0.009,0.017-0.046-0.058
				c-0.042-0.04-0.09-0.073-0.137-0.108c-0.263-0.194-0.555,0.147-0.451,0.406c-0.064,0.229,0.037,0.435,0.276,0.527
				c0.061,0.023,0.159,0.024,0.22,0C61.313,8.434,61.449,8.182,61.31,7.926z"/>
			<path style="fill:#F7E3BC;" d="M53.245,11.73c-1.233-0.136-2.35,1.165-2.954,2.087c-0.254,0.388,0.081,0.897,0.516,0.9
				c1.287,0.007,2.483-0.931,2.525-2.256c0.002-0.078-0.016-0.151-0.048-0.219c0.029-0.02,0.056-0.039,0.085-0.059
				C53.582,12.045,53.482,11.757,53.245,11.73z"/>
			<path style="fill:#F7E3BC;" d="M70.354,27.964c-0.033-0.362-0.381-0.763-0.79-0.601c-0.398,0.157-0.71,0.424-0.961,0.745
				c-0.601,0.704-1.085,1.832-0.837,2.574c0.021,0.591,0.225,1.15,0.837,1.246c0.388,0.062,0.836-0.275,0.728-0.669
				c0.302-0.164,0.553-0.45,0.698-0.794C70.344,29.715,70.429,28.772,70.354,27.964z"/>
			<path style="fill:#F7E3BC;" d="M85.928,34.039c-0.415-0.923-1.009-1.881-1.715-2.611c-0.345-0.355-0.879-0.147-1.032,0.272
				c-0.153,0.417-0.157,0.808-0.077,1.183c-0.025,0.266-0.017,0.53,0.015,0.729c0.173,1.122,0.727,2.342,1.982,2.481
				C86.403,36.239,86.291,34.842,85.928,34.039z"/>
			<path style="fill:#F7E3BC;" d="M98.047,39.051c-0.221-0.061-0.528,0.072-0.565,0.321c-0.008,0.054-0.02,0.107-0.02,0.162
				c0.001,0.249,0.207,0.458,0.457,0.458c0.271,0,0.429-0.21,0.457-0.458c-0.004,0.027-0.006,0.055-0.01,0.082
				C98.432,39.374,98.287,39.117,98.047,39.051z"/>
			<path style="fill:#F7E3BC;" d="M98.868,44.315c-0.147-0.608-0.528-1.124-1.011-1.511c-0.441-0.354-1.161-0.806-1.725-0.502
				c-0.252,0.137-0.29,0.504-0.089,0.7c0.18,0.176,0.432,0.257,0.68,0.344c0.007,0.046,0.019,0.094,0.04,0.144
				c0.267,0.598,0.84,1.058,1.402,1.364C98.538,45.057,98.967,44.727,98.868,44.315z"/>
			<path style="fill:#F7E3BC;" d="M89.391,26.392c-0.019-0.055-0.039-0.106-0.064-0.158l-0.077-0.1
				c0.037,0.045,0.04,0.047,0.01,0.002c-0.012-0.021-0.021-0.04-0.031-0.061c-0.014-0.019-0.029-0.038-0.045-0.058
				c-0.001-0.003,0,0-0.004-0.005c-0.004-0.007-0.009-0.012-0.014-0.018c0-0.001-0.002-0.002-0.003-0.004
				c0.001,0.002,0.001,0.002,0.003,0.003c-0.106-0.137-0.299-0.209-0.456-0.105c-0.246,0.161-0.347,0.485-0.272,0.766
				c0.066,0.261,0.351,0.417,0.608,0.346C89.29,26.933,89.483,26.645,89.391,26.392z"/>
		</g>
	</g>
	<path style="fill:#EDAE83;" d="M78.974,52.65c-1.867,0.421-3.689,1.209-5.312,2.223c-1.802,1.129-2.977,2.867-4.21,4.535
		c-0.067,0.091,0.075,0.188,0.151,0.117c1.474-1.373,2.73-2.93,4.357-4.141c1.559-1.162,3.27-1.852,5.058-2.575
		C79.115,52.77,79.08,52.627,78.974,52.65z"/>
	<path style="fill:#EDAE83;" d="M50.657,63.28c-1.785-1.209-3.939-1.841-5.997-2.414c-2.262-0.63-4.707-0.204-6.994-0.628
		c-0.124-0.022-0.18,0.163-0.052,0.193c0.787,0.18,1.571,0.249,2.377,0.311c1.327,0.101,2.629,0.518,3.943,0.722
		c2.253,0.35,4.511,1.222,6.653,1.979C50.688,63.478,50.736,63.334,50.657,63.28z"/>
	<path style="fill:#EDAE83;" d="M52.163,62.685c-1.354-1.441-3.039-2.54-4.882-3.237c-2.124-0.805-4.115-0.957-6.326-1.252
		c-0.104-0.015-0.123,0.156-0.024,0.181c1.941,0.466,3.784,0.851,5.684,1.503c2.006,0.689,3.603,1.927,5.398,2.999
		C52.137,62.952,52.258,62.786,52.163,62.685z"/>
	<path style="fill:#EDAE83;" d="M52.146,59.679c-0.831-0.778-1.763-1.286-2.783-1.786c-1.083-0.528-2.267-0.563-3.319-1.192
		c-0.033-0.021-0.064,0.032-0.031,0.054c1.863,1.229,4.072,1.964,6.014,3.082C52.122,59.891,52.229,59.758,52.146,59.679z"/>
	<path style="fill:#EDAE83;" d="M56.706,60.342c-1.817-3.484-4.682-5.612-8.218-7.205c-0.105-0.048-0.198,0.1-0.094,0.16
		c3.049,1.76,6.132,4.225,8.169,7.128C56.625,60.511,56.756,60.438,56.706,60.342z"/>
	<path style="fill:#EDAE83;" d="M58.785,61.485c-0.522-1.728-1.254-3.548-2.296-5.031c-1.028-1.467-2.69-2.568-4.111-3.63
		c-0.107-0.081-0.236,0.094-0.141,0.183c1.409,1.318,2.659,2.701,3.831,4.235c1.029,1.347,1.457,2.972,2.247,4.44
		C58.453,61.94,58.869,61.764,58.785,61.485z"/>
	<path style="fill:#EDAE83;" d="M60.668,59.901c-0.34-1.438-0.869-2.916-1.495-4.257c-0.69-1.479-1.682-2.17-2.724-3.339
		c-0.115-0.129-0.325,0.038-0.236,0.183c0.754,1.226,1.496,2.332,2.128,3.642c0.623,1.298,1.292,2.668,2.032,3.896
		C60.469,60.186,60.709,60.079,60.668,59.901z"/>
	<path style="fill:#EDAE83;" d="M62.311,57.297c-0.021-0.791-0.247-1.542-0.329-2.325c-0.011-0.1-0.152-0.103-0.158,0
		c-0.044,0.782,0,1.543,0.028,2.325c0.025,0.779-0.014,1.584,0.24,2.331c0.064,0.185,0.371,0.166,0.358-0.049
		C62.405,58.816,62.33,58.062,62.311,57.297z"/>
	<path style="fill:#EDAE83;" d="M63.426,54.803c-0.272,1.333-0.586,2.599-0.441,3.973c0.022,0.209,0.295,0.204,0.324,0
		c0.17-1.319,0.257-2.623,0.293-3.949C63.604,54.726,63.446,54.702,63.426,54.803z"/>
	<path style="fill:#EDAE83;" d="M66.509,54.639c-0.278,0.722-0.853,1.307-1.146,2.042c-0.279,0.701-0.588,1.402-0.571,2.167
		c0.007,0.328,0.442,0.448,0.613,0.166c0.39-0.643,0.589-1.384,0.823-2.095c0.244-0.741,0.516-1.457,0.584-2.24
		C66.828,54.492,66.566,54.488,66.509,54.639z"/>
	<path style="fill:#EDAE83;" d="M69.361,54.678c-0.486,0.438-0.998,0.788-1.398,1.317c-0.516,0.685-0.982,1.391-1.415,2.13
		c-0.073,0.126,0.097,0.254,0.199,0.153c0.511-0.491,0.929-1.045,1.345-1.617c0.462-0.631,0.984-1.218,1.438-1.854
		C69.603,54.702,69.447,54.601,69.361,54.678z"/>
	<path style="fill:#EDAE83;" d="M72.809,53.836c-1.834,1.116-3.75,3.1-4.417,5.186c-0.055,0.168,0.172,0.292,0.291,0.17
		c0.776-0.798,1.324-1.805,2.017-2.674c0.694-0.873,1.476-1.693,2.269-2.477C73.072,53.937,72.938,53.759,72.809,53.836z"/>
	<path style="fill:#EDAE83;" d="M75.178,56.515c-1.429,0.27-2.427,1.837-3.341,2.831c-0.11,0.119,0.052,0.271,0.175,0.174
		c0.568-0.448,1.188-0.829,1.747-1.288c0.558-0.456,1.21-0.874,1.583-1.505C75.408,56.611,75.298,56.492,75.178,56.515z"/>
	<path style="fill:#EDAE83;" d="M80.281,54.365c-1.316,0.579-3.396,0.364-4.328,1.608c-0.171,0.231,0.113,0.588,0.375,0.488
		c0.688-0.257,1.324-0.67,2.015-0.948c0.708-0.285,1.411-0.534,2.05-0.959C80.513,54.475,80.41,54.31,80.281,54.365z"/>
	<path style="fill:#EDAE83;" d="M70.018,75.369c-0.041-0.288-0.132-0.553-0.252-0.807c-0.326-0.888-1.018-1.618-1.376-2.522
		c-0.425-1.068-0.612-2.273-0.603-3.417c0.002-0.237-0.326-0.265-0.398-0.054c-0.146,0.426-0.219,0.854-0.235,1.279
		c-0.044,0.007-0.086,0.028-0.124,0.071c-0.655,0.737-1.008,0.071-1.407-0.536c-0.359-0.549-0.692-0.964-1.214-1.356
		c-1.07-0.801-2.482,0.031-3.342,0.691c-0.595,0.457-1.044,1.103-1.546,1.654c-1.071,1.177-1.898-0.689-2.333-1.305
		c-0.276-0.392-0.6-0.549-0.934-0.512c-0.021-0.078-0.083-0.14-0.18-0.131c-0.727,0.082-0.867,0.631-0.936,1.291
		c-0.023-0.038-0.09-0.025-0.09,0.026c-0.033,2.026-1.042,3.841-1.977,5.583c-0.883,1.645-1.846,3.609-3.83,4.078
		c-0.322,0.075-0.256,0.606,0.078,0.579c2.034-0.158,3.191-1.863,4.086-3.524c0.171-0.316,0.346-0.643,0.517-0.976
		c-0.306,1.479-0.749,2.945-1.48,4.246c-0.554,0.674-1.169,1.318-1.591,2.064c-0.104,0.182,0.125,0.335,0.274,0.212
		c0.519-0.429,1-0.942,1.428-1.508c0.721-0.79,1.261-1.679,1.622-2.642c-0.031,0.118-0.063,0.236-0.09,0.354
		c-0.187,0.787-0.363,1.519-0.577,2.244c-0.341,0.752-0.708,1.49-1.112,2.208c-0.098,0.172,0.095,0.349,0.263,0.262
		c0.122-0.063,0.238-0.133,0.348-0.211c0.071,0.023,0.151,0.01,0.216-0.075c0.066-0.084,0.127-0.174,0.188-0.262
		c0.595-0.568,1.03-1.352,1.372-2.173c0.19-0.282,0.358-0.581,0.535-0.871c0.136-0.224,1.099-1.671,0.925-1.017
		c-0.167,0.62,0.193,1.07,0.814,1.077c0.636,0.008,1.051-0.819,1.305-1.407c0.107-0.096,0.218-0.186,0.328-0.247
		c0.271,0.508,0.791,0.808,1.333,0.321c0.233-0.208,0.411-0.466,0.573-0.731c0.004,0.096,0.01,0.19,0.016,0.284
		c0.057,0.771,0.791,3.543,2.088,2.163c0.864-0.922,1.267-2.405,1.496-3.749c0.725-1.196,1.664-0.017,2.351,0.444
		c0.518,0.348,0.999,0.518,1.624,0.5C69.078,76.945,70.174,76.438,70.018,75.369z"/>
	<path style="fill:#F9D6B7;" d="M60.536,76.581c-0.229,0.057-0.39,0.152-0.583,0.293c-0.276,0.199-0.504-0.23-0.666-0.371
		c-0.155-0.134-0.409-0.284-0.61-0.129c-0.369,0.284-0.598,0.615-0.837,1.012c-0.232,0.388-0.876,0.912-1.191,0.273
		c-0.085-0.171-0.18-0.315-0.296-0.465c-0.085-0.108-0.246,0.029-0.184,0.141c0.174,0.313,0.29,0.97,0.685,1.096
		c0.459,0.149,0.822-0.108,1.088-0.475c0.231-0.318,0.412-0.674,0.672-0.97c0.389-0.447,0.497,0.37,0.798,0.547
		c0.507,0.295,1.04-0.291,1.308-0.636C60.83,76.754,60.733,76.533,60.536,76.581z"/>
	<path style="fill:#F9D6B7;" d="M64.982,74.436c-0.571-1.02-1.598,0.199-1.799,0.822c-0.157,0.485-0.209,1.002-0.354,1.491
		c-0.104,0.351-0.188,0.699-0.331,1.039c-0.093,0.218-0.451,0.896-0.813,0.299c-0.135-0.222-0.154-0.489-0.146-0.739
		c0.003-0.101-0.139-0.094-0.15,0c-0.062,0.475-0.121,1.189,0.367,1.476c0.553,0.324,1.066-0.294,1.29-0.716
		c0.31-0.584,0.447-1.276,0.612-1.912c0.094-0.365,0.271-0.7,0.474-1.014c0.182-0.282,0.488-0.241,0.758-0.384
		C65.018,74.729,65.052,74.558,64.982,74.436z"/>
	<path style="fill:#F9D6B7;" d="M69.187,74.502c-0.081-0.122-0.291-0.048-0.244,0.104c0.282,0.91-0.771,1.148-1.339,0.652
		c-0.341-0.298-0.563-0.813-1.022-0.939c-0.233-0.063-0.393,0.184-0.295,0.382c0.165,0.338,0.519,0.669,0.765,0.957
		c0.301,0.354,0.689,0.51,1.143,0.56C69.187,76.327,69.694,75.268,69.187,74.502z"/>
	<path style="fill:#F9D6B7;" d="M56.38,74.101c-0.547,2.12-1.355,4.017-2.243,6.008c-0.094,0.213,0.179,0.378,0.314,0.184
		c1.23-1.771,2.034-4.02,2.151-6.161C56.609,74.003,56.412,73.979,56.38,74.101z"/>
	<path style="fill:#F9D6B7;" d="M54.68,76.47c-0.277,0.386-0.498,0.886-0.631,1.343c-0.059,0.205,0.213,0.294,0.326,0.139
		c0.281-0.388,0.44-0.915,0.573-1.368C54.998,76.414,54.772,76.34,54.68,76.47z"/>
	<path style="fill:#F9D6B7;" d="M54.389,74.844c0.012,0.065,0.022,0.117,0.054,0.176c0.058,0.109,0.233,0.109,0.289,0
		c0.031-0.059,0.042-0.111,0.054-0.176C54.843,74.512,54.331,74.512,54.389,74.844z"/>
	<path style="fill:#F9D6B7;" d="M61.465,75.64c-0.413,0-0.413,0.638,0,0.638C61.875,76.277,61.875,75.64,61.465,75.64z"/>
	
		<radialGradient id="SVGID_00000046315743804967567610000014279637601808658589_" cx="78.9241" cy="6.6304" r="23.2643" gradientTransform="matrix(0.9955 0 0 0.9951 -0.3533 0.1114)" gradientUnits="userSpaceOnUse">
		<stop  offset="0" style="stop-color:#FFFFFF"/>
		<stop  offset="1" style="stop-color:#ECA56A"/>
	</radialGradient>
	<path style="fill:url(#SVGID_00000046315743804967567610000014279637601808658589_);" d="M87.058,16.074
		c-2.184-2.9-4.753-5.572-7.438-8.012c-0.519-0.47-1.322,0.273-0.799,0.742c2.499,2.239,4.891,4.556,7.123,7.063
		c1.862,2.089,4.29,4.665,4.837,7.486c0.012,0.07,0.117,0.044,0.106-0.025C90.432,20.532,88.719,18.282,87.058,16.074z"/>
	
		<radialGradient id="SVGID_00000176723990076061862480000002568421494835893423_" cx="78.9251" cy="6.6304" r="23.2672" gradientTransform="matrix(0.9955 0 0 0.9951 -0.3533 0.1114)" gradientUnits="userSpaceOnUse">
		<stop  offset="0" style="stop-color:#FFFFFF"/>
		<stop  offset="1" style="stop-color:#ECA56A"/>
	</radialGradient>
	<path style="fill:url(#SVGID_00000176723990076061862480000002568421494835893423_);" d="M77.528,6.666
		C73.934,4.255,69.76,4.12,65.471,4.824c-4.844,0.795-9.347,2.273-13.408,4.749c-0.147,0.091-0.015,0.293,0.144,0.213
		c3.774-1.928,7.848-3.071,12.107-3.82c2.19-0.386,4.396-0.712,6.637-0.563c2.134,0.142,4.164,1.003,5.899,2.049
		C77.377,7.768,78.037,7.008,77.528,6.666z"/>
	<g>
		<path style="fill:#7A132A;" d="M65.786,117.054c-0.093-0.578-0.309-1.411-0.708-2.11c-0.391,0.667-1.18,1.102-2.042,1.049
			c-0.9-0.054-1.61-0.625-1.83-1.379c-0.313,0.354-0.554,0.756-0.751,1.127c-0.37,0.711-0.598,1.482-0.729,2.238
			c-0.179,1.049-0.237,2.134-0.128,3.19c0.08,0.746,0.301,1.548,0.936,2.13c-0.016-0.193-0.022-0.392,0-0.595
			c0.154-1.467,1.331-2.591,2.635-2.512c1.032,0.063,1.826,0.855,2.042,1.907c0.145-0.355,0.251-0.728,0.329-1.085
			c0.167-0.719,0.273-1.444,0.313-2.172l0.004-0.083C65.887,118.198,65.879,117.612,65.786,117.054z"/>
		<path style="fill:#4F3737;" d="M65.786,117.054l0.147-0.014c-0.092-0.589-0.306-1.427-0.715-2.144
			c-0.021-0.042-0.078-0.068-0.136-0.068c-0.062,0-0.12,0.026-0.14,0.066c-0.353,0.599-1.033,0.987-1.767,0.985
			c-0.043,0-0.082-0.002-0.125-0.003c-0.822-0.049-1.484-0.573-1.697-1.289c-0.012-0.046-0.059-0.081-0.117-0.09
			c-0.061-0.008-0.123,0.012-0.153,0.051c-0.325,0.365-0.572,0.771-0.77,1.149c-0.372,0.723-0.604,1.501-0.736,2.266
			c-0.119,0.692-0.184,1.402-0.184,2.108c0,0.37,0.017,0.74,0.057,1.105c0.078,0.757,0.295,1.584,0.971,2.196
			c0.039,0.039,0.109,0.052,0.171,0.033c0.062-0.019,0.101-0.067,0.097-0.117c-0.014-0.095-0.019-0.19-0.019-0.288
			c0-0.096,0.005-0.191,0.019-0.287c0.07-0.689,0.373-1.298,0.809-1.729c0.43-0.432,0.979-0.681,1.545-0.681
			c0.039,0,0.08,0,0.119,0.003c0.465,0.029,0.882,0.221,1.215,0.54c0.336,0.319,0.58,0.762,0.686,1.271
			c0.014,0.054,0.071,0.094,0.142,0.098c0.069,0.003,0.136-0.031,0.152-0.081c0.149-0.363,0.255-0.742,0.339-1.101
			c0.167-0.723,0.271-1.452,0.311-2.187v-0.083c0.015-0.184,0.019-0.369,0.019-0.559c0-0.39-0.026-0.784-0.089-1.166L65.786,117.054
			l-0.15,0.015c0.058,0.37,0.085,0.756,0.085,1.138c0,0.184-0.005,0.369-0.02,0.549l-0.004,0.082
			c-0.035,0.723-0.14,1.444-0.307,2.157c-0.08,0.354-0.185,0.723-0.324,1.07l0.144,0.035l0.15-0.018
			c-0.111-0.544-0.374-1.022-0.747-1.381c-0.374-0.356-0.869-0.592-1.431-0.625c-0.05-0.004-0.093-0.005-0.142-0.005
			c-0.689,0.001-1.316,0.301-1.787,0.772c-0.474,0.473-0.795,1.122-0.868,1.852c-0.015,0.103-0.019,0.205-0.019,0.306
			c0,0.103,0.004,0.205,0.019,0.306l0.147-0.008l0.119-0.075c-0.606-0.548-0.826-1.327-0.9-2.064
			c-0.039-0.36-0.058-0.723-0.058-1.088c0-0.696,0.065-1.394,0.186-2.078c0.127-0.75,0.355-1.511,0.72-2.21
			c0.189-0.367,0.426-0.761,0.734-1.104l-0.128-0.065l-0.15,0.025c0.232,0.791,0.989,1.41,1.973,1.471
			c0.047,0.003,0.101,0.005,0.147,0.005c0.879-0.002,1.652-0.461,2.043-1.123l-0.141-0.048l-0.135,0.048
			c0.386,0.683,0.6,1.506,0.692,2.077L65.786,117.054z"/>
		<path style="fill:#DAD5BF;" d="M63.036,115.992c0.862,0.053,1.651-0.382,2.042-1.049c-0.417-0.732-1.036-1.321-1.945-1.321
			c-0.333,0-0.773,0.142-1.04,0.279c-0.353,0.182-0.642,0.433-0.887,0.712C61.426,115.367,62.136,115.938,63.036,115.992z"/>
		<path style="fill:#4F3737;" d="M63.036,115.992l-0.008,0.117c0.047,0.003,0.101,0.005,0.147,0.005
			c0.879-0.002,1.652-0.461,2.043-1.123c0.018-0.03,0.018-0.065,0-0.095c-0.214-0.375-0.477-0.717-0.82-0.972
			c-0.344-0.255-0.764-0.42-1.266-0.418v0.1l0.004-0.1h-0.004v0.1l0.004-0.1l-0.039,0.002l0.035,0.113v-0.115
			c-0.387,0.002-0.835,0.149-1.123,0.299c-0.374,0.193-0.676,0.455-0.927,0.743c-0.027,0.024-0.035,0.059-0.027,0.09
			c0.232,0.791,0.989,1.41,1.973,1.471L63.036,115.992l0.015-0.115c-0.822-0.049-1.484-0.573-1.697-1.289l-0.147,0.025l0.128,0.065
			c0.236-0.271,0.518-0.51,0.843-0.68c0.245-0.129,0.675-0.264,0.956-0.261l0.035-0.003l-0.035-0.111l0.004,0.114l0.031-0.003
			l-0.035-0.111l0.004,0.114l-0.004-0.109v0.109h0.004l-0.004-0.109v0.109l0,0c0.414,0,0.751,0.13,1.055,0.354
			c0.299,0.224,0.548,0.541,0.756,0.899l0.135-0.048l-0.135-0.049c-0.353,0.599-1.033,0.987-1.767,0.985
			c-0.043,0-0.082-0.002-0.125-0.003L63.036,115.992z"/>
		<path style="fill:#B63051;" d="M63.168,120.192c-1.304-0.079-2.48,1.045-2.635,2.512c-0.022,0.203-0.016,0.401,0,0.595
			c0.163,0.146,0.348,0.284,0.568,0.397c0.38,0.195,0.828,0.295,1.285,0.299c1.651,0.008,2.41-0.875,2.823-1.896
			C64.994,121.048,64.2,120.255,63.168,120.192z"/>
		<path style="fill:#4F3737;" d="M63.168,120.192l0.015-0.116c-0.05-0.004-0.093-0.005-0.142-0.005
			c-0.689,0.001-1.316,0.301-1.787,0.772c-0.474,0.473-0.795,1.122-0.868,1.852c-0.015,0.103-0.019,0.205-0.019,0.306
			c0,0.103,0.004,0.205,0.019,0.306l0.034,0.066c0.167,0.152,0.36,0.299,0.597,0.42c0.409,0.208,0.883,0.316,1.37,0.317h0.022
			c0.852,0.002,1.501-0.233,1.966-0.602c0.471-0.366,0.77-0.856,0.979-1.373l0.006-0.054c-0.111-0.544-0.374-1.022-0.747-1.381
			c-0.374-0.356-0.869-0.592-1.431-0.625L63.168,120.192l-0.008,0.115c0.465,0.029,0.882,0.221,1.215,0.54
			c0.336,0.319,0.58,0.762,0.686,1.271l0.149-0.02l-0.144-0.035c-0.204,0.5-0.483,0.955-0.905,1.281
			c-0.421,0.326-0.971,0.531-1.752,0.533h-0.022c-0.43-0.004-0.844-0.098-1.203-0.279c-0.206-0.106-0.377-0.235-0.531-0.376
			l-0.119,0.075l0.154-0.01c-0.014-0.095-0.019-0.19-0.019-0.288c0-0.094,0.005-0.19,0.019-0.287
			c0.07-0.689,0.373-1.298,0.809-1.729c0.43-0.432,0.979-0.681,1.545-0.681c0.039,0,0.08,0.002,0.119,0.003L63.168,120.192z"/>
		<path style="fill:#4F3737;" d="M60.386,124.359c0,0.009,0.14,0.397,0.512,0.797c0.374,0.399,1.002,0.814,1.964,0.834h0.07
			c0.94,0,1.594-0.416,2.003-0.817c0.407-0.401,0.582-0.8,0.588-0.807c0.024-0.056-0.015-0.116-0.088-0.137
			c-0.074-0.018-0.154,0.012-0.181,0.068l-0.005,0.015c-0.039,0.079-0.232,0.452-0.61,0.798c-0.381,0.349-0.934,0.665-1.707,0.665
			H62.87c-0.852-0.019-1.396-0.379-1.744-0.745c-0.171-0.184-0.29-0.367-0.364-0.503c-0.039-0.068-0.065-0.126-0.082-0.165
			l-0.019-0.044l-0.004-0.015c-0.022-0.057-0.097-0.091-0.175-0.075C60.406,124.244,60.363,124.302,60.386,124.359z"/>
		<path style="fill:#EEECE1;" d="M63.117,114.237c1.022,0,1.899,1.167,0.248,1.349C61.71,115.766,61.271,114.237,63.117,114.237z"/>
		<path style="fill:#FFFFFF;" d="M63.051,114.532c0.689,0,1.281,0.692,0.171,0.8C62.107,115.438,61.811,114.532,63.051,114.532z"/>
		<path style="fill:#C95076;" d="M62.426,120.665c-0.584,0.222-1.729,1.425-0.883,1.951c0.844,0.524,1.339-0.521,1.718-0.244
			c0.286,0.209,0.909,0.077,1.172-0.078c0.537-0.318,0.22-0.979-0.14-1.302c-0.15-0.129-0.32-0.229-0.51-0.304
			C63.304,120.503,62.919,120.478,62.426,120.665z"/>
		<path style="fill:#E184A7;" d="M62.022,121.497l-0.026-0.043c-0.089-0.196,0.15-0.436,0.316-0.541
			c0.298-0.195,0.355-0.028,0.592,0.126c0.334,0.218,0.492-0.229,0.816-0.175c0.278,0.049,0.893,0.553,0.678,0.819
			c-0.128,0.157-0.271,0.061-0.399-0.035c-0.286-0.221-0.654-0.377-1.045-0.313C62.75,121.367,62.189,121.673,62.022,121.497z"/>
	</g>
	<g>
		<path style="fill:#FFFFFF;" d="M67.222,102.006c0.593,2.009,2.7,3.156,4.71,2.563c2.01-0.592,3.156-2.701,2.564-4.712
			c-0.592-2.007-2.701-3.154-4.712-2.562C67.774,97.889,66.627,99.999,67.222,102.006z"/>
		<path style="fill:#493630;" d="M68.621,102.782c0.817,0.938,2.172,1.099,3.025,0.356c0.855-0.744,0.887-2.108,0.068-3.048
			c-0.816-0.939-2.172-1.1-3.025-0.357C67.834,100.477,67.805,101.841,68.621,102.782z"/>
		<path style="fill:#FFFFFF;" d="M59.326,101.056c-0.494-2.033-2.543-3.282-4.578-2.786c-2.037,0.494-3.285,2.544-2.791,4.581
			c0.492,2.033,2.544,3.282,4.58,2.788C58.574,105.143,59.823,103.09,59.326,101.056z"/>
		<path style="fill:#493630;" d="M58.174,101.039c-0.771-0.977-2.117-1.203-3.004-0.503c-0.891,0.701-0.989,2.061-0.217,3.041
			c0.77,0.978,2.114,1.202,3.004,0.503C58.848,103.381,58.945,102.02,58.174,101.039z"/>
	</g>
	<path style="fill:#493630;" d="M61.664,105.571c-0.529,0-0.529,0.82,0,0.82C62.193,106.392,62.193,105.571,61.664,105.571z"/>
	<path style="fill:#493630;" d="M63.58,105.487c-0.529,0-0.529,0.82,0,0.82C64.109,106.308,64.109,105.487,63.58,105.487z"/>
	<path style="fill:#F9D6B7;" d="M55.993,111.416c-0.259,1.003-2.817,1.209-5.714,0.462s-5.036-2.165-4.777-3.169
		c0.259-1.002,2.816-1.208,5.714-0.461C54.112,108.995,56.252,110.413,55.993,111.416z"/>
	<path style="fill:#F9D6B7;" d="M80.713,107.935c0.215,1.014-1.982,2.339-4.908,2.963c-2.926,0.623-5.473,0.309-5.69-0.706
		c-0.215-1.012,1.982-2.337,4.909-2.961C77.95,106.607,80.496,106.922,80.713,107.935z"/>
</g>
</svg>
