<svg version="1.2" xmlns="http://www.w3.org/2000/svg" viewBox="0 0 170 161" width="180" height="170">
	<title>sun-svg</title>
	<defs>
		<clipPath clipPathUnits="userSpaceOnUse" id="cp1">
			<path d="m84.49 77.22h-75.8c0 0 1.04 48.74 16.49 70.46 0 0 30.91 5.01 59.31 5.01 28.4 0 59.31-5.01 59.31-5.01 15.45-21.72 16.5-70.46 16.5-70.46z"/>
		</clipPath>
	</defs>
	<style>
		.s0 { fill: #562500 } 
		.s1 { fill: #d1940d } 
		.s2 { fill: #efb933 } 
		.s3 { fill: #ffffff } 
		.s4 { fill: #d3950b } 
		.s5 { fill: #8c6239 } 
		.s6 { fill: #63391d } 
		.s7 { fill: #ffdd50 } 
		.s8 { fill: #724f00 } 
		.s9 { fill: #000000 } 
		.s10 { opacity: .7;fill: #ffffff } 
		.s11 { opacity: .5;fill: #000000 } 
		.s12 { opacity: .7;fill: #000000 } 
	</style>
	<g id="OBJECTS">
		<g id="Layer">
			<g id="Layer">
				<g id="Layer">
					<path id="Layer" class="s0" d="m165.5 28.6c-2.9 28.4-15.9 49.8-15.9 49.8l-64.6 10.6-62.7-10.3-2-0.3c0 0-13-21.4-15.9-49.8 0 0 1.3-0.9 4.3-2.2 8.4-3.7 30.6-10.8 76.3-10.8 61.8 0 80.5 13 80.5 13z"/>
					<path id="Layer" class="s1" d="m23.7 78.5l-1.4 0.2-2-0.3c0 0-13-21.4-15.9-49.8 0 0 1.3-0.9 4.3-2.2 1.9 36.2 15 52.1 15 52.1z"/>
					<path id="Layer" class="s1" d="m146.3 78.5l1.3 0.2 2-0.3c0 0 13-21.4 15.9-49.8 0 0-1.3-0.9-4.3-2.2-1.9 36.2-14.9 52.1-14.9 52.1z"/>
					<path id="Layer" class="s2" d="m163 11.8c-26.7-12.5-79.1-11.7-79.1-11.7-7.5 0-52.5 0.3-77 11.7 0 0-7.1 9.2-7.1 20.1 0 0 29.6-13.8 85.2-13.8 55.6 0 85.1 13.8 85.1 13.8 0-10.9-7.1-20.1-7.1-20.1z"/>
					<path id="Layer" class="s3" d="m164.2 17.7l-2.1-4.6c-34.9-12.7-74.7-11.4-77.3-11.3-2.5-0.1-42.3-1.4-77.3 11.3l-2.1 4.6c0 0 25.8-13.6 79.4-13.6 53.7 0 79.4 13.6 79.4 13.6z"/>
				</g>
				<path id="Layer" class="s4" d="m21.7 138.2l-11.6 21.2c0 0 3.9 2.5 8.2 0.9l12.2-13.1z"/>
				<path id="Layer" class="s4" d="m147.6 138.2l11.6 21.2c0 0-3.9 2.5-8.2 0.9l-12.2-13.1z"/>
				<path id="Layer" class="s5" d="m84.5 77.2h-75.8c0 0 1 48.8 16.5 70.5 0 0 30.9 5 59.3 5 28.4 0 59.3-5 59.3-5 15.5-21.7 16.5-70.5 16.5-70.5z"/>
				<g id="Layer" style="opacity: .6">
					<g id="Clip-Path" clip-path="url(#cp1)">
						<g id="Layer">
							<path id="Layer" class="s6" d="m157.1 148.7c0 0-20.3-0.6-42.2-0.9-22-0.3-41.9 0-46.5 1.8-4.7 1.7 20 7.6 44.5 9.6 0 0-24.9-3.3-26.8-6.1-2-2.8 9.1-5.1 36.1-3.1 27.1 2.1 35 4.6 35 4.6z"/>
							<path id="Layer" class="s6" d="m153.8 155.5c0 0-31.3-5.3-42.2-4.9-10.9 0.4-8.2 5.1 5.6 6.4 13.8 1.2 14.4-0.9 12.2-1.5-2.2-0.7-8.2-1-8.2-1 0 0 6.4 0.7 6.4 1.6 0 0.8-12.1 0.7-16.5-0.8-4.4-1.5-4.2-4 4.9-3.3 9.2 0.8 28.2 2.8 36.9 5.6 8.6 2.9 0.9-2.1 0.9-2.1z"/>
							<path id="Layer" class="s6" d="m18.6 147.4c1.5-0.2 4.9 2 20.2 4.3 15.2 2.3 31 8.4 31 8.4l-8.5-0.6c0 0-3.2-4.3-22.9-6.3-19.7-2-25.8-5.5-25.8-5.5z"/>
							<path id="Layer" class="s6" d="m18.4 152c0 0 10.3 1.7 17.7 3.1 7.4 1.4 9.3 3.3 9.3 3.3l-2.2-0.2c0 0-0.2-1.8-7.5-2.7-7.2-0.9-17.8-2.1-17.8-2.1z"/>
							<path id="Layer" class="s6" d="m17.8 142.2c0 0 10.5 1.5 19.5 2.7 9.1 1.2 37.2-1.1 40.9-0.8 0 0-6.3-0.8-12.4-0.2-6.2 0.6-17.8 1.3-26.9 0.4-9-1-21.6-3.8-21.6-3.8z"/>
							<path id="Layer" class="s6" d="m18.7 139.9c0 0 15.3 3.1 22.3 3.8 7.1 0.7 17.3 0 17.3 0-0.1 0-12.1 0.2-17.7-0.9-5.6-1.1-22.9-4.1-22.9-4.1z"/>
							<path id="Layer" class="s6" d="m153.9 130.1c0 0-19.6-2.6-41.7-1.2-22.1 1.3-54.9 4-72.4 2.2-17.5-1.8-18.9-7-11.2-7.7 7.7-0.7 25.3-1.8 31.2 0.8 5.8 2.6-3.8 3.3-7.3 3.4 0 0 9.9 0.6 12.9-2 3-2.7-15.1-5.6-28.8-4.4-13.7 1.2-17.2 3-14.9 5.6 2.3 2.5 6.1 5.8 37.4 6.4 31.4 0.5 77.4-5.4 96.1 0.3z"/>
							<path id="Layer" class="s6" d="m153.5 134.7c0 0-16.1-3.2-33.9-1.9-17.9 1.2-31.1 3.9-28.7 5.5 2.5 1.6 63.7 3.9 63.7 3.9v-1.6c0 0-33.7-1.2-45.8-1.3-12.2-0.2-24-2.2-2-4.5 22.1-2.3 43.8 0.5 47.7 2 4 1.6-1-2.1-1-2.1z"/>
							<path id="Layer" class="s6" d="m154.5 136.8c0 0-20.9-2.7-31.9-1.6-11.1 1-16.3 1.2-15 2.3 1.3 1.2 23.4 0.1 23.4 0.1 0 0-14.2 0.4-14.4-0.4-0.2-0.8 20.6-2.6 37.9 1.2z"/>
							<path id="Layer" class="s6" d="m156.5 103c0 0-53.6 0.3-71.1 2.1-17.4 1.8-31.3 2.3-44.9-0.4-13.6-2.7-17.5-7.9-17.5-7.9l4 0.6c0 0 4.9 6 26.7 7.3 21.7 1.3 60.7-4.9 105.5-2.9z"/>
							<path id="Layer" class="s6" d="m152.7 103.9c0 0-34.5 0-55.5 2.6-21 2.5-14.1 9.6 14.8 10.1 28.9 0.4 34.6-5.2 32.6-7-2.1-1.8-21.6-2.4-31.1 0 0 0 21.7-2 25.3 0.7 3.6 2.6-7.2 3.8-19.8 4-12.7 0.3-24.3-0.4-25-3.8-0.6-3.5 43.7-7.2 58.8-4.5z"/>
							<path id="Layer" class="s6" d="m14.8 106.7c0 0 15.2-0.9 27.1 1.1 11.8 2.1 46.1 10.5 46.1 10.5l-6.8-0.3c0 0-22.4-6.4-32.5-7.5-10.2-1-33.8-1.6-33.8-1.6z"/>
							<path id="Layer" class="s6" d="m14 110c0 0 29.2 0.4 35.6 2.7 6.5 2.4-15.5 2.1-15.5 2.1 0 0 11.6-0.4 11.6-1 0-0.7-28.2-2.4-30.8-2.6-2.6-0.1-2.1-1.1-2.1-1.1"/>
							<path id="Layer" class="s6" d="m154.6 92.4c0 0-15.1-3-29.9-6.5-14.8-3.5-55.9-5.9-65.3-1.7-9.5 4.2 15.6 8.6 33.4 8 0 0-18.8-1.3-20.4-3.8-1.5-2.6 7.5-6.8 31.5-3.2 24.1 3.7 51 10 53.2 10.2 2.3 0.3-2.5-3-2.5-3z"/>
							<path id="Layer" class="s6" d="m12.4 82.9c0 0 25.2 2.7 35.3 6.7 10.1 4 14.1 5.3 14.1 5.3h-6.8c0 0-6.8-5-20.1-6.6-13.3-1.5-25-2-25-2l-3.8-2.6z"/>
						</g>
					</g>
				</g>
				<path id="Layer" class="s4" d="m142.8 141.8c0 0-20.7 5-58.3 4.8-37.6-0.2-59.9-4.1-59.3-4.8 0.6-0.6 1.5 6.1 1.5 6.1 0 0 49.9 13.4 114.6 0z"/>
				<path id="Layer" class="s2" d="m160.3 77.2h-75.8-75.8c-1.6 49.7 15.3 70.6 15.3 70.6 3.6 3.5 8.5 0.9 8.5 0.9-14.9-27.4-14.2-60.6-14.2-60.6h66.2 66.2c0 0 0.7 33.2-14.2 60.6 0 0 4.9 2.6 8.4-0.9 0 0 17-20.9 15.4-70.6z"/>
				<path id="Layer" class="s7" d="m91.6 77.9l-1-4.2-6.1-1.2-6.1 1.2-1 4.2-9.3 2c0 0 4.1 16.6 6 19.2 1.9 2.5 10.4 6.4 10.4 6.4 0 0 8.5-3.9 10.4-6.4 1.9-2.6 6-19.2 6-19.2z"/>
				<path id="Layer" class="s8" d="m86.9 85.2c0-1.6-1.3-2.9-2.9-2.9-1.6 0-2.9 1.3-2.9 2.9 0 1 0.5 1.9 1.3 2.4l-1.3 8.1h2.9 2.9l-1.4-8.1c0.8-0.5 1.4-1.4 1.4-2.4z"/>
				<path id="Layer" class="s9" d="m95.3 99.4c-1.3 1.9-9.8 6.5-10.8 6.6-1-0.1-9.5-4.7-10.8-6.6-1.3-1.9-6.1-19.1-6.1-19.1 0 0 3.4 18.6 5.3 21 2.1 2.9 11.6 8.5 11.6 8.5 0 0 9.5-5.6 11.6-8.5 1.8-2.4 5.1-21 5.1-21 0 0-4.6 17.2-5.9 19.1z"/>
				<path id="Layer" class="s3" d="m68.6 80.3l9.2-2.1 1.1-4.2 5.6-1.3v1.6l-5 1-1 3.7-9.6 2.4z"/>
				<path id="Layer" class="s10" d="m100.4 80.3l-9.3-2.1-1-4.2-5.6-1.3v1.6l5 1 1 3.7 9.6 2.4z"/>
				<path id="Layer" class="s9" d="m84.5 96.4v8c0 0 8-3.3 9.8-5.5 1.7-2.2 4.9-14.9 5.2-16.2 0 0-3.2 13.2-6.7 15.3-3.5 2.1-6.9 1.5-8.3-1.6z"/>
				<path id="Layer" class="s9" d="m91.5 100.4c0 0-6.3 2.8-6.5 2.8v-4.3c0 0 2.6 2.8 6.5 1.5z"/>
				<path id="Layer" class="s11" d="m31.9 148.7c0 0-5.1-9.6-7-16.7 0 0-6.1 0.8-9.5-3.6 0 0 4.5 14.8 9.1 19.2 0 0 2.8 2.7 7.4 1.1z"/>
				<path id="Layer" class="s12" d="m25 133.5c0 0-6.1 0.5-8.6-3.3 0 0 3 9.1 6.1 13 0 0-2.6-4.7-2.1-6.5 0.5-1.8 5.7-0.3 6.6 2.2 0 0-1.9-4.4-2-5.4z"/>
				<path id="Layer" class="s3" d="m22.3 124.6l2.2 6.7c0 0-5.5 0.5-9.1-3.7 0 0-2.5-8.3-3.5-13.6 0 0 2.4 9.8 5.6 12.6 3.2 2.7 5.1 0.6 4.8-2z"/>
				<g id="Layer">
					<path id="Layer" class="s11" d="m137.3 148.4c0 0 5.1-9.5 7-16.6 0 0 6.1 0.7 9.4-3.6 0 0-4.4 14.7-9 19.2 0 0-2.9 2.7-7.4 1z"/>
					<path id="Layer" class="s12" d="m144.2 133.3c0 0 6 0.4 8.6-3.4 0 0-3 9.1-6.1 13.1 0 0 2.6-4.8 2-6.5-0.5-1.8-5.7-0.3-6.5 2.2 0 0 1.8-4.4 2-5.4z"/>
					<path id="Layer" class="s3" d="m146.9 124.4l-2.2 6.6c0 0 5.5 0.5 9-3.6 0 0 2.6-8.3 3.5-13.6 0 0-2.4 9.8-5.5 12.5-3.2 2.7-5.2 0.7-4.8-1.9z"/>
				</g>
				<path id="Layer" class="s11" d="m23.7 119.3c0 0 3.1 15.3 6.8 22.5 0 0 23.3 3.9 53.7 3.9 30.3 0 53.7-3.9 53.7-3.9 3.7-7.2 6.8-22.5 6.8-22.5-14.9 28.4-106.4 28.3-121 0z"/>
				<path id="Layer" class="s9" d="m75.2 77.7h-66.1v1.6h57.6z"/>
				<path id="Layer" class="s9" d="m93.7 77.6h66v1.6h-57.6z"/>
				<path id="Layer" class="s3" d="m10.9 159.1l9.4-16.6 2 4.2-9.8 13.1z"/>
				<path id="Layer" class="s3" d="m158.5 158.9l-9.4-16.7-2 4.2 9.8 13.1z"/>
			</g>
		</g>
	</g>
</svg>